<svg width="16" height="23" viewBox="0 0 16 23" fill="none" xmlns="http://www.w3.org/2000/svg">
<g clip-path="url(#clip0_819_16493)">
<path d="M8.83862 15.6224C4.45198 16.0758 0.506053 12.9494 0.0449457 8.65423C-0.418201 4.35908 2.77486 0.495451 7.1615 0.0439611C11.5481 -0.409526 15.4941 2.71694 15.9552 7.01208C16.4163 11.3072 13.2253 15.1689 8.83862 15.6224ZM7.39613 2.2175C4.23367 2.54314 1.93222 5.32799 2.26479 8.42449C2.59736 11.521 5.44153 13.7744 8.60399 13.4488C11.7664 13.1232 14.0679 10.3383 13.7353 7.24183C13.4028 4.14533 10.5586 1.89187 7.39613 2.2175Z" fill="#CC6689"/>
<path d="M13.4517 17.2245C13.4027 16.771 12.9885 16.4414 12.5254 16.4893L11.342 16.6112C10.8993 16.6571 10.5014 16.3415 10.4565 15.908L10.2341 13.8343C10.1852 13.3808 9.77098 13.0512 9.30783 13.0992L8.15914 13.217C7.696 13.265 7.35935 13.6705 7.40831 14.124L7.63071 16.1857C7.67763 16.6252 7.35323 17.0187 6.90436 17.0647L5.50064 17.2105C5.03749 17.2584 4.70084 17.664 4.74981 18.1175L4.87019 19.2422C4.91915 19.6957 5.33333 20.0253 5.79648 19.9774L7.16144 19.8375C7.63275 19.7896 8.05305 20.1232 8.10201 20.5827L8.28156 22.2568C8.33053 22.7103 8.74471 23.0399 9.20786 22.992L10.3565 22.8741C10.8197 22.8262 11.1563 22.4206 11.1074 21.9671L10.9074 20.1072C10.8687 19.7496 11.1339 19.43 11.4991 19.392L12.8233 19.2562C13.2864 19.2082 13.6231 18.8027 13.5741 18.3492L13.4537 17.2245H13.4517Z" fill="#CC6689"/>
<path d="M7.16144 13.8603L6.64524 10.1425C6.64524 10.1425 5.19051 9.57713 5.26396 8.68414C5.33945 7.79115 6.60444 7.48749 8.05305 8.29458C8.05305 8.29458 8.41418 7.98893 9.12012 7.7492C9.12012 7.7492 7.30834 8.1847 7.10839 7.45952C6.90844 6.73434 7.22469 6.08907 10.1484 6.32081C13.0722 6.55255 11.2461 9.45926 10.2423 9.71697L10.5034 13.5387L7.16144 13.8603Z" fill="#CC6689"/>
<path d="M8.51007 6.22292C8.07957 6.26487 7.696 5.95722 7.65315 5.5357L7.52053 4.21919C7.47768 3.79766 7.79189 3.42209 8.22239 3.38014C8.65289 3.33818 9.03647 3.64584 9.07932 4.06736L9.21194 5.38387C9.25478 5.80539 8.94058 6.18097 8.51007 6.22292Z" fill="#CC6689"/>
<path d="M10.1586 6.29085C9.72609 6.27686 9.3874 5.92126 9.40372 5.49774L9.45065 4.17524C9.46493 3.75172 9.82811 3.42009 10.2606 3.43607C10.6932 3.45006 11.0319 3.80565 11.0156 4.22918L10.9686 5.55168C10.9543 5.9752 10.5912 6.30683 10.1586 6.29085Z" fill="#CC6689"/>
<path d="M6.91456 6.58451C6.4963 6.69039 6.06988 6.44267 5.96174 6.03114L5.62714 4.74859C5.519 4.33905 5.772 3.92152 6.1923 3.81564C6.61056 3.70976 7.03698 3.95748 7.14512 4.36902L7.47972 5.65157C7.58786 6.06111 7.33486 6.47863 6.91456 6.58451Z" fill="#CC6689"/>
<path d="M5.50268 7.35564C5.10482 7.52345 4.64575 7.34366 4.47437 6.9541L4.09283 6.08708C3.92145 5.69752 4.10508 5.24802 4.50293 5.08021C4.90079 4.9124 5.35986 5.0922 5.53124 5.48176L5.91278 6.34878C6.08416 6.73834 5.90054 7.18783 5.50268 7.35564Z" fill="#CC6689"/>
</g>
<defs>
<clipPath id="clip0_819_16493">
<rect width="16" height="23" fill="white"/>
</clipPath>
</defs>
</svg>
