<svg width="22" height="22" viewBox="0 0 22 22" fill="none" xmlns="http://www.w3.org/2000/svg">
<path fill-rule="evenodd" clip-rule="evenodd" d="M11 2.75C11.3797 2.75 11.6875 3.0578 11.6875 3.4375V10.3125H18.5625C18.9422 10.3125 19.25 10.6203 19.25 11C19.25 11.3797 18.9422 11.6875 18.5625 11.6875H11.6875V18.5625C11.6875 18.9422 11.3797 19.25 11 19.25C10.6203 19.25 10.3125 18.9422 10.3125 18.5625V11.6875H3.4375C3.0578 11.6875 2.75 11.3797 2.75 11C2.75 10.6203 3.0578 10.3125 3.4375 10.3125H10.3125V3.4375C10.3125 3.0578 10.6203 2.75 11 2.75Z" fill="black"/>
</svg>
