<svg width="26" height="19" viewBox="0 0 26 19" fill="none" xmlns="http://www.w3.org/2000/svg">
<g clip-path="url(#clip0_819_16497)">
<path d="M26 4.6828V14.6586C26 16.0927 24.868 17.2594 23.4777 17.2594C23.2487 17.2594 23.0198 17.2274 22.7979 17.1635C21.8766 16.902 20.9146 16.7756 19.8571 16.7756C17.7013 16.7756 15.5427 17.3001 13.2577 17.8565C10.9474 18.4188 8.55993 19 6.14433 19C4.7048 19 3.39307 18.7966 2.13331 18.3811C0.856695 17.9597 0 16.745 0 15.3575V4.55204C0 3.02646 1.19937 1.78565 2.67261 1.78565C2.89872 1.78565 3.12483 1.81617 3.34532 1.87428C4.2259 2.11111 5.14017 2.22444 6.14433 2.22444C8.29871 2.22444 10.4573 1.69993 12.7423 1.14346C15.0526 0.581173 17.4415 0 19.8571 0C20.7854 0 21.6477 0.0828172 22.4932 0.254263C24.5254 0.665443 26 2.5281 26 4.6828Z" fill="#ECECEC"/>
<path d="M24.8765 14.3172C16.9584 10.464 9.04165 18.1704 1.12354 14.3172V11.9082C9.04165 15.7614 16.9584 8.05504 24.8765 11.9082V14.3172Z" fill="#5176D8"/>
<path d="M23.0957 16.0432C16.2224 14.0905 9.34781 19.5433 2.47459 17.2739C1.66985 17.008 1.12494 16.2321 1.12494 15.3574V14.3157C9.04305 18.1689 16.9598 10.4625 24.8779 14.3157V14.6571C24.8779 15.6175 23.9917 16.296 23.0971 16.0418L23.0957 16.0432Z" fill="#9540D4"/>
<path d="M24.8765 4.68273C16.9584 0.829553 9.04165 8.53591 1.12354 4.68273V4.55051C1.12354 3.5015 2.08135 2.7358 3.06304 2.99878C9.46859 4.7147 15.8727 0.100181 22.2783 1.39474C23.7923 1.70131 24.8765 3.08741 24.8765 4.68273Z" fill="#D2515C"/>
<path d="M24.8765 7.09184C16.9584 3.23866 9.04165 10.945 1.12354 7.09184V4.68287C9.04165 8.53605 16.9584 0.829696 24.8765 4.68287V7.09184Z" fill="#E59431"/>
<path d="M24.8765 9.50077C16.9584 5.64759 9.04165 13.3539 1.12354 9.50077V7.09181C9.04165 10.945 16.9584 3.23863 24.8765 7.09181V9.50077Z" fill="#E2BA3B"/>
<path d="M24.8765 11.9082C16.9584 8.05506 9.04165 15.7614 1.12354 11.9082V9.49928C9.04165 13.3525 16.9584 5.6461 24.8765 9.49928V11.9082Z" fill="#77BE54"/>
</g>
<defs>
<clipPath id="clip0_819_16497">
<rect width="26" height="19" fill="white"/>
</clipPath>
</defs>
</svg>
