<svg width="390" height="844" viewBox="0 0 390 844" fill="none" xmlns="http://www.w3.org/2000/svg">
<path d="M620 68.9725C620 117.531 580.667 156.909 532.163 156.909C530.183 156.909 528.222 156.835 526.261 156.704C452.488 151.749 445.559 155.974 397.896 189.855C386.428 198.12 372.364 203 357.161 203C329.352 203 305.352 186.695 294.146 163.117C270.408 115.418 266.093 108.351 203.041 79.78C170.674 65.8873 148 33.708 148 -3.78154C148 -48.6755 180.535 -85.9781 223.286 -93.3451C320.237 -111.613 326.998 -120.756 376.212 -179.188C389.005 -194.352 408.13 -204 429.515 -204C463.937 -204 492.512 -179.038 498.209 -146.204C512.44 -71.3936 514.551 -60.5488 588.567 1.58479C607.767 17.7212 619.963 41.8977 619.963 68.9538L620 68.9725Z" fill="#3D0514"/>
<path d="M524.59 600.831C513.887 579.733 492.23 563.604 472.578 551.193C451.466 537.856 426.73 529.734 408.744 511.659C391.684 494.52 383.029 472.434 380.699 448.684C378.117 422.335 388.94 395.359 392.428 369.418C395.711 344.983 394.983 319.46 382.097 297.683C376.342 287.96 368.65 279.257 358.015 274.796C346.637 270.026 332.216 269.597 320.11 271.072C295.511 274.064 271.309 283.802 250.181 296.401C227.963 309.649 206.495 325.998 182.099 335.119C160.505 343.189 133.314 343.963 115.783 326.772C106.797 317.959 103.546 306.281 97.7388 295.507C91.7748 284.445 87.6591 273.175 84.9834 260.884C79.166 234.127 78.679 206.575 74.9089 179.52C71.5263 155.227 66.6671 129.16 49.6547 110.473C33.9513 93.2299 11.8492 79.726 -11.7295 77.4248C-55.1167 73.1884 -94.802 101.059 -106.803 142.246C-113.888 166.56 -108.154 192.726 -115.914 217.004C-119.679 228.782 -129.303 236.214 -142.211 233.667C-153.935 231.355 -164.02 221.293 -172.445 213.474C-190.672 196.555 -205.286 176.356 -222.539 158.517C-231.258 149.505 -239.269 139.898 -247.851 130.776C-252.71 125.609 -257.999 120.975 -263.256 116.226C-263.686 115.839 -264.728 114.715 -266 113.371V180.279C-262.534 186.163 -259.031 192.025 -255.323 197.758C-231.734 234.195 -194.924 270.69 -148.845 272.38C-126.23 273.206 -105.233 263.185 -89.7386 247.082C-73.9043 230.623 -67.8302 208.076 -64.6833 186.089C-63.0129 174.426 -62.2066 162.648 -60.2953 151.022C-58.6721 141.148 -55.4047 130.729 -45.8958 125.808C-38.6541 122.058 -25.9248 118.972 -19.0444 124.992C-11.6771 131.435 -12.2164 144.584 -9.94391 153.26C-6.90692 164.845 -3.19443 175.802 -1.37222 187.721C0.565186 200.393 1.57053 213.197 2.80103 225.947C5.1102 249.791 8.02151 273.677 15.1061 296.652C21.976 318.927 31.8516 339.716 50.8014 354.078C68.9711 367.849 91.1307 375.992 113.777 378.309C165.752 383.628 208.715 359 253.296 336.489C264.109 331.029 275.304 326.228 287.033 323.08C291.652 321.84 300.532 318.456 305.318 320.229C308.9 321.558 310.774 328.854 312.932 332.149C319.351 341.939 317.576 352.729 315.749 363.89C313.712 376.363 310.816 388.67 308.339 401.06C303.354 425.981 301.124 452.068 308.078 476.885C313.916 497.721 327.808 517.548 343.218 532.517C359.277 548.113 379.096 558.662 400.68 564.545C412.582 567.788 424.573 568.949 436.758 570.471C448.256 571.904 458.268 578.51 467.128 585.628C485.564 600.439 478.186 624.283 473.029 643.958C467.327 665.72 461.2 685.72 461.86 708H524.935C527.26 697.822 528.674 687.577 529.952 677.153C533.078 651.657 536.691 624.691 524.59 600.847V600.831Z" fill="#D8CDD0"/>
<path d="M151.098 793.882C139.618 809.378 133.939 807.962 125.58 821.291C116.03 836.528 114.395 852.823 114.53 864.343C109.662 899.666 77.7653 925.155 41.9962 921.684C29.5692 920.478 18.2731 915.924 8.89442 909.019C-16.8815 890.57 -18.7867 887.949 -67.8309 880.466C-67.9415 880.454 -68.0399 880.429 -68.1505 880.417C-68.1751 880.417 -68.1997 880.417 -68.2365 880.404C-139.517 849.783 -65.9502 821.55 -104.079 762.794C-138.029 710.487 -100.515 670.733 -44.5011 675.238C-24.4409 675.853 -7.99448 674.672 3.68272 673.379C20.4979 671.521 29.053 670.524 36.1453 666.819C53.317 657.884 56.4759 644.137 68.2883 644.001C73.9549 643.927 80.3589 646.955 87.734 655.373C124.105 696.838 156.789 696.887 167.483 715.976C172.4 724.751 170.765 733.551 170.642 740.271C170.101 767.667 155.929 787.359 151.098 793.895V793.882Z" fill="#D8CDD0"/>
<path d="M259.973 569.585C259.001 546.805 248.445 526.389 225.416 519.16C201.146 511.541 173.388 520.436 150.238 528.011C125.15 536.218 100.023 538.521 74.374 531.111C49.9445 524.058 30.804 507.671 12.8608 490.355C-5.64252 472.501 -21.5316 450.551 -42.9733 436.055C-53.2108 429.134 -64.2228 422.828 -75.8444 418.541C-87.8998 414.088 -100.076 414.192 -112.708 415.715C-139.791 418.969 -167.082 429.205 -194.29 421.586C-206.016 418.304 -217.033 412.659 -227.057 405.809C-232.313 402.214 -237.316 398.262 -242.106 394.067C-242.748 393.507 -243.786 392.347 -245 391V409.113C-239.425 413.582 -234.114 418.607 -227.93 422.218C-218.807 427.545 -208.916 431.651 -198.695 434.339C-177.226 439.98 -156.152 436.082 -134.82 431.822C-124.605 429.782 -113.774 427.028 -103.284 427.919C-94.1665 428.694 -86.7135 433.267 -78.8981 437.599C-70.1489 442.448 -60.9879 446.681 -52.9307 452.656C-45.1976 458.389 -38.6784 465.277 -32.2689 472.407C-18.9942 487.178 -6.40045 503.18 8.84602 516.01C22.8293 527.774 40.6571 537.872 57.9467 543.82C75.6042 549.895 95.0248 551.236 113.561 549.647C133.795 547.91 151.688 541.16 170.994 535.679C189.535 530.418 210.818 528.247 227.838 538.67C235.566 543.403 240.344 549.834 242.233 558.751C243.189 563.264 243.376 567.953 243.326 572.554C243.304 574.5 243.145 585.901 240.355 586.396C239.191 586.599 234.682 582.295 232.743 581.839C229.854 581.162 226.905 581.613 224.115 582.531C219.248 584.125 215.256 587.413 212.746 591.86C208.533 599.314 207.956 612.777 217.689 616.146C228.843 620.011 242.371 609.956 249.038 602.002C256.876 592.657 260.468 581.723 259.951 569.58L259.973 569.585Z" fill="#D8CDD0"/>
</svg>
