<svg width="234" height="104" viewBox="0 0 234 104" fill="none" xmlns="http://www.w3.org/2000/svg">
<path d="M218.425 70.8262C218.428 70.8215 218.43 70.8159 218.431 70.8101C218.431 70.8043 218.429 70.7986 218.426 70.7936C218.423 70.7886 218.419 70.7847 218.414 70.7822C218.408 70.7797 218.403 70.7788 218.397 70.7796C216.007 71.113 213.618 71.5142 211.468 72.431C210.626 72.7899 209.964 73.3168 209.48 74.0118C208.646 75.2126 208.015 76.6649 207.342 78.1637C206.885 79.1847 206.524 79.9164 206.26 80.3591C204.698 82.9839 202.812 85.126 200.602 86.7854C199.318 87.7503 197.634 88.6219 196.008 88.9073C191.905 89.6264 189.003 86.8462 187.404 83.3483C187.267 83.0503 187.097 82.933 186.808 82.9754C186.756 82.9837 186.708 83.0073 186.671 83.0432C186.519 83.1915 186.182 83.5164 185.999 83.758C185.172 84.8585 184.645 85.62 183.694 86.4125C182.579 87.3406 181.162 88.16 179.805 88.588C173.893 90.4542 170.064 85.0238 168.612 80.1966C168.607 80.1802 168.598 80.1655 168.585 80.1544C168.572 80.1434 168.556 80.1363 168.539 80.1342C168.522 80.1321 168.505 80.135 168.489 80.1426C168.474 80.1502 168.461 80.1621 168.452 80.1768C166.965 82.6378 165.147 84.7945 162.997 86.647C159.243 89.8821 154.008 91.9432 149.616 88.3069C148.608 87.4715 147.746 86.4883 147.03 85.3572C147.024 85.3473 147.016 85.3388 147.006 85.3324C146.996 85.3259 146.985 85.3216 146.973 85.3197C146.962 85.3179 146.95 85.3185 146.938 85.3215C146.927 85.3246 146.916 85.33 146.907 85.3374C143.808 87.8308 139.923 88.7929 136.394 86.445C134.045 84.8825 132.333 82.3114 131.184 79.7474C131.176 79.73 131.164 79.7151 131.149 79.7041C131.133 79.6931 131.115 79.6865 131.096 79.6849C131.077 79.6833 131.058 79.6868 131.041 79.6951C131.024 79.7033 131.01 79.716 130.999 79.7318C129.081 82.5845 126.849 85.0728 124.306 87.1965C120.756 90.1604 115.746 92.278 111.693 88.5866C110.665 87.6505 109.807 86.5636 109.121 85.3261C109.117 85.3191 109.111 85.313 109.104 85.3083C109.098 85.3037 109.09 85.3006 109.082 85.2992C109.074 85.2979 109.066 85.2983 109.058 85.3005C109.05 85.3027 109.042 85.3066 109.036 85.312C105.962 88.0357 101.759 89.3791 98.2867 86.421C95.765 84.2722 94.4427 80.7546 94.1334 77.5252C94.1324 77.5134 94.1279 77.5022 94.1204 77.493C94.1129 77.4838 94.1028 77.4772 94.0914 77.474C94.08 77.4707 94.0679 77.4711 94.0567 77.4749C94.0455 77.4788 94.0358 77.486 94.0288 77.4956C91.1681 81.1813 88.5461 84.8755 84.9169 87.7489C82.0873 89.988 78.6672 91.2425 75.1298 89.9244C71.8269 88.694 70.5131 85.9096 70.1288 82.6137C69.9847 81.3725 69.9075 80.417 69.8971 79.7474C69.8958 79.6872 69.8782 79.6285 69.8461 79.5777C69.8139 79.5269 69.7686 79.486 69.7149 79.4592L65.6252 77.4122C65.5995 77.3991 65.5697 77.3962 65.542 77.404C65.5142 77.4119 65.4904 77.4299 65.4754 77.4546C60.6285 85.2781 54.082 92.0152 46.1272 96.6658C40.1839 100.141 33.574 102.271 26.8481 103.616C26.6791 103.649 26.5072 103.664 26.3353 103.66C24.6683 103.619 23.3672 103.681 21.8782 103.752C20.831 103.802 19.9683 103.79 19.2902 103.717C12.7084 103.005 5.41047 98.1407 4.88636 90.9882C4.0458 79.5383 16.6809 72.4197 25.5908 68.9699C31.9762 66.4963 39.058 64.753 45.9039 64.2049C48.6912 63.9817 51.1705 63.9181 53.9309 64.4705C55.6303 64.8096 57.4004 65.1486 59.1607 65.0285C59.185 65.0269 59.2082 65.0183 59.2275 65.0037C59.2469 64.9892 59.2615 64.9693 59.2694 64.9466C59.4974 64.3203 59.6532 63.7656 59.7371 63.2824C60.6059 58.2758 57.3962 52.3086 53.2443 49.5793C50.3878 47.7032 46.8787 46.8542 43.5024 46.5872C40.5781 46.3555 37.9486 46.3894 35.6139 46.6889C34.5299 46.8283 33.4025 47.0647 32.2319 47.3981C30.1891 47.9801 28.3135 48.5151 26.6051 49.0029C25.1548 49.4164 23.7722 49.649 22.4575 49.7008C20.005 49.7968 17.9029 48.4223 17.6868 45.8879C17.5257 44.0006 18.5245 42.2248 19.9895 41.0141C22.2794 39.1211 24.2714 37.7649 26.9767 35.8889C28.8772 34.5704 30.6351 33.1384 32.2503 31.5929C32.5648 31.2905 33.0875 30.7076 33.8183 29.8439C36.3174 26.8914 38.2796 23.0729 38.548 19.1513C38.9139 13.7986 35.3483 9.2073 29.7639 9.2412C26.995 9.25815 24.2459 10.4265 22.0223 12.0765C14.9207 17.3487 11.9541 26.0339 10.7208 34.4748C9.75874 41.0508 9.67822 47.8869 9.76298 54.6777C9.81666 58.8998 9.84021 61.1601 9.83362 61.4586C9.81478 62.3722 9.65325 63.1944 9.34905 63.9252C8.24009 66.591 4.99655 67.6081 2.57378 66.0005C1.6527 65.3902 1.02264 64.5053 0.683589 63.346C0.467447 62.61 0.426476 61.7807 0.362905 60.9656C-0.149433 54.4032 -0.119293 47.8695 0.453319 41.3645C1.11587 33.8616 2.57236 26.4153 5.35396 19.455C7.50973 14.0599 10.7406 8.88238 15.3233 5.20513C21.3443 0.372304 29.3373 -1.52353 36.6437 1.36119C40.3888 2.84028 43.5843 5.51734 45.6143 8.99398C49.2294 15.1844 48.5259 22.8045 45.3544 29.0189C43.9813 31.7087 42.2465 34.0142 40.2701 36.7986C40.2587 36.8145 40.2512 36.8328 40.2482 36.8521C40.2452 36.8714 40.2468 36.8912 40.2528 36.9098C40.2589 36.9283 40.2692 36.9452 40.2831 36.9591C40.2969 36.9729 40.3137 36.9833 40.3323 36.9894C41.0005 37.2182 41.5246 37.3298 42.2196 37.2338C42.295 37.2225 42.8172 37.1575 43.7863 37.0388C43.8956 37.0247 44.0722 37.0284 44.3161 37.0501C52.1466 37.731 59.9518 41.2402 64.6603 47.7329C68.185 52.5912 69.5115 58.5174 69.1654 64.5327C69.0816 65.9953 68.993 67.2493 68.8998 68.2947C68.8965 68.3337 68.9056 68.3728 68.9259 68.4063C68.9462 68.4398 68.9767 68.466 69.0128 68.4811L73.0362 70.175C73.0494 70.1805 73.0636 70.1831 73.0779 70.1825C73.0921 70.182 73.1061 70.1784 73.1189 70.172C73.1317 70.1655 73.1429 70.1564 73.1517 70.1452C73.1606 70.134 73.167 70.121 73.1704 70.1072C73.3729 69.2595 73.646 68.4642 73.9897 67.7211C75.2527 64.9918 76.4125 62.3811 77.5554 60.0474C78.1393 58.855 78.7048 57.845 79.252 57.0171C80.0022 55.8827 81.1931 55.1001 82.5803 55.0224C84.3307 54.9221 85.7744 55.9364 86.2138 57.6571C86.4313 58.5118 86.1417 59.3255 85.7843 60.2254C85.3181 61.397 84.7587 62.6519 84.106 63.9902C82.7315 66.8057 81.1069 70.0069 79.6928 73.1769C79.1155 74.4719 78.6968 75.619 78.4369 76.6183C77.9453 78.5042 77.5158 80.352 77.6528 82.1885C77.691 82.6999 78.0244 83.7905 78.6813 83.7919C78.8056 83.7919 79.0015 83.7043 79.269 83.5292C80.789 82.5318 82.0412 81.5194 83.0253 80.4919C84.5953 78.8531 86.0669 76.994 87.44 74.9146C88.8555 72.7729 89.6269 71.6654 90.5847 69.9376C92.6331 66.242 93.9426 63.6752 95.7339 61.0292C96.3357 60.1406 96.9856 59.1842 97.9886 58.824C99.3561 58.3323 100.655 58.4816 101.886 59.2718C103.758 60.4726 103.189 62.829 102.751 64.6669C102.4 66.1361 101.828 68.443 101.772 70.3953C101.677 73.7011 101.636 76.4713 102.067 79.4648C102.18 80.2512 102.44 80.9863 102.845 81.6701C102.867 81.7051 102.9 81.7312 102.938 81.7434C102.977 81.7557 103.019 81.7532 103.056 81.7365C103.477 81.549 103.872 81.2962 104.241 80.9778C106.001 79.4578 107.376 77.3514 108.417 75.4062C110.208 72.0571 111.164 70.2706 111.285 70.0464C112.224 68.3069 113.471 66.623 115.027 64.9946C118.426 61.4375 123.095 58.4199 128.106 57.9424C128.129 57.94 128.15 57.929 128.166 57.9118C128.181 57.8945 128.19 57.8722 128.189 57.8492C128.162 55.151 128.245 52.4814 128.438 49.8406C128.773 45.2692 129.506 40.6299 131.115 36.3339C132.392 32.9279 134.786 29.2633 138.755 28.9412C141.679 28.7039 144.263 29.3862 145.594 32.2441C146.109 33.3498 146.414 34.5934 146.51 35.975C146.64 37.8426 146.566 39.7229 146.287 41.6159C145.894 44.2765 145.301 47.0035 144.506 49.7968C143.371 53.7844 141.949 57.7899 140.239 61.8132C139.448 63.6761 138.314 66.3098 136.836 69.7144C136.703 70.0215 136.646 70.3308 136.664 70.6426C136.773 72.593 137.037 74.3796 137.456 76.0023C137.849 77.5182 138.735 80.1783 140.491 80.6529C142.19 81.112 144.117 78.7726 144.9 77.5577C146.362 75.2875 147.213 73.1148 148.483 70.2343C150.331 66.0452 153.172 62.6453 157.004 60.0346C159.53 58.314 162.539 57.1937 165.558 57.0878C165.585 57.087 165.612 57.0754 165.631 57.0553C165.65 57.0353 165.661 57.0084 165.661 56.9804C165.636 54.4347 165.64 52.0666 165.671 49.876C165.719 46.5458 165.976 43.3554 166.442 40.305C167.342 34.4225 170.22 25.2244 178.175 26.3885C180.093 26.6691 181.476 27.6665 182.324 29.3806C183.072 30.8936 183.277 32.4362 183.362 34.099C183.389 34.6358 183.394 35.1232 183.375 35.5611C183.282 37.6717 183.022 39.7728 182.595 41.8646C181.679 46.3513 180.367 50.8196 178.656 55.2696C178.264 56.2915 177.587 58.0889 176.628 60.6619C175.671 63.2264 174.918 65.7104 174.37 68.1138C173.946 69.9744 174.073 71.6936 174.418 73.6898C174.685 75.2324 175.085 76.7275 175.62 78.1751C176.173 79.6683 177.032 81.3692 178.242 82.4287C178.262 82.4461 178.286 82.4579 178.312 82.4626C178.337 82.4673 178.364 82.4649 178.388 82.4555C179.077 82.1899 179.71 81.5217 180.178 80.9468C181.839 78.9097 183.243 76.6098 184.549 74.163C185.311 72.7348 185.889 71.5947 185.999 70.093C186.258 66.5458 186.348 63.7839 187.058 60.7141C187.324 59.5604 187.74 58.5358 188.305 57.6401C189.48 55.7754 191.42 55.3318 193.454 56.0395C195.676 56.8123 195.638 59.1983 195.19 61.1083C194.927 62.23 194.578 63.4096 194.144 64.6471C193.905 65.328 193.711 66.0871 193.56 66.9244C193.104 69.4568 192.89 72.0713 192.917 74.7676C192.936 76.5448 193.133 78.1553 193.508 79.599C193.711 80.3807 194.034 81.0132 194.477 81.4963C196.712 83.9332 200.901 76.3612 201.611 75.0262C202.261 73.8042 202.751 72.4932 203.363 71.1455C204.046 69.6386 204.917 68.4882 205.978 67.6943C206.949 66.9663 208.064 66.4082 209.323 66.0202C211.717 65.2828 214.236 64.7196 216.881 64.3307C221.519 63.6497 224.528 63.2711 228.322 62.3811C228.459 62.3491 228.656 62.3736 228.914 62.4546C230.204 62.8624 230.962 63.7397 231.189 65.0864C231.336 65.9567 231.174 66.7723 230.703 67.5332C230.674 67.5793 230.64 67.6223 230.602 67.6618C229.896 68.4001 229.114 69.172 228.257 69.9772C227.49 70.6991 226.788 71.4789 225.99 72.2771C222.396 75.8672 219.114 79.6791 216.142 83.7128C215.706 84.3043 215.337 84.8839 215.035 85.4519C215.025 85.4699 215.021 85.4904 215.023 85.5107C215.025 85.5311 215.034 85.5502 215.047 85.5658C215.06 85.5814 215.078 85.5926 215.098 85.5979C215.117 85.6033 215.138 85.6026 215.158 85.5959C218.046 84.6014 221.018 84.1456 224.074 84.2284C227.955 84.3344 231.802 85.6991 233.952 89.0924C233.983 89.1432 234 89.2019 234 89.2619V90.8003C234 90.896 233.971 90.9887 233.917 91.0659C232.846 92.5888 231.632 93.6864 229.753 92.7809C229.11 92.471 228.434 92.0835 227.723 91.6183C226.83 91.0325 225.859 90.6854 224.81 90.5771C221.54 90.2381 218.054 91.08 214.979 92.3373C213.215 93.0592 212.026 94.0156 210.198 95.2489C209.345 95.8234 208.485 96.2411 207.618 96.5019C205.798 97.0501 204.396 96.0838 203.733 94.421C202.818 92.1282 204.336 89.5162 205.479 87.5539C206.418 85.9435 207.505 84.3617 208.741 82.8087C210.145 81.0438 211.869 78.9779 213.913 76.6112C215.536 74.7309 217.093 72.8393 218.425 70.8262ZM174.028 47.7258C174.379 45.6689 174.861 43.4176 175.476 40.9717C175.781 39.7578 176.023 38.3531 176.205 36.7577C176.301 35.9129 176.293 34.592 176.262 34.0001C176.26 33.9731 176.252 33.9469 176.238 33.9238C176.224 33.9008 176.204 33.8817 176.181 33.8684C176.157 33.855 176.131 33.8478 176.104 33.8473C176.076 33.8469 176.05 33.8533 176.026 33.8659C175.879 33.9441 175.786 34.0594 175.748 34.212C175.451 35.4001 175.041 36.6955 174.767 38.0023C174.132 41.0198 173.735 44.1018 173.575 47.2483C173.561 47.3448 173.571 47.4432 173.604 47.5352C173.637 47.6272 173.691 47.71 173.763 47.7767L173.792 47.8049C173.811 47.8224 173.834 47.8345 173.859 47.84C173.884 47.8454 173.91 47.844 173.934 47.8359C173.958 47.8278 173.98 47.8133 173.996 47.7939C174.013 47.7745 174.024 47.751 174.028 47.7258ZM135.736 53.0884C135.739 53.102 135.747 53.1141 135.758 53.1228C135.769 53.1315 135.783 53.1363 135.797 53.1364C135.811 53.1366 135.824 53.1321 135.836 53.1237C135.847 53.1153 135.855 53.1034 135.859 53.0898C135.862 53.0767 136.372 51.4431 137.391 48.1892C137.885 46.6145 138.241 45.2696 138.459 44.1545C138.854 42.1372 139.177 40.2795 139.26 38.3724C139.303 37.4033 139.338 36.752 139.204 36.129C139.201 36.1172 139.196 36.1063 139.188 36.0972C139.18 36.0881 139.169 36.0812 139.158 36.0771C139.147 36.0731 139.134 36.0719 139.122 36.0738C139.11 36.0757 139.099 36.0806 139.09 36.0881C138.828 36.2943 138.577 36.6489 138.431 36.9625C137.106 39.8091 136.394 42.7305 135.915 45.8978C135.766 46.8867 135.701 47.9665 135.719 49.1371C135.741 50.5338 135.771 51.6159 135.809 52.3835C135.819 52.5982 135.72 53.015 135.736 53.0884ZM166.671 66.242C166.542 65.3294 165.843 64.8251 165.022 64.5426C164.142 64.2393 163.285 64.2567 162.451 64.5948C160.767 65.2786 159.239 66.7209 158.169 68.1576C155.526 71.7139 154.089 75.7659 153.859 80.3139C153.789 81.704 154.097 84.2906 156.11 83.6309C157.696 83.1096 159.25 81.5288 160.267 80.2842C162.415 77.658 164.035 74.745 165.452 71.4888C166.014 70.1966 166.417 68.9026 166.66 67.6067C166.737 67.197 166.741 66.7421 166.671 66.242ZM128.629 64.6739C128.628 64.6656 128.627 64.6574 128.623 64.6499C128.619 64.6424 128.614 64.6357 128.608 64.6302C128.601 64.6247 128.594 64.6207 128.586 64.6182C128.578 64.6158 128.569 64.615 128.561 64.616C126.305 64.907 124.102 65.992 122.359 67.4188C119.858 69.4681 118.036 72.0487 116.893 75.1604C115.962 77.7004 115.684 80.5667 116.389 83.2028C116.404 83.2609 116.432 83.3149 116.471 83.3612C116.509 83.4075 116.557 83.4451 116.611 83.4712C118.467 84.374 121.67 80.9792 122.749 79.7417C124.805 77.3825 126.587 74.834 128.096 72.0962C128.459 71.436 128.73 70.8356 128.907 70.295C129.216 69.3485 129.107 68.2156 128.903 67.2394C128.727 66.4031 128.65 65.749 128.629 64.6739ZM55.9553 74.447C55.9599 74.3867 55.9469 74.3265 55.9181 74.2736C55.8893 74.2207 55.8457 74.1774 55.7928 74.1489C55.515 73.9982 55.232 73.9035 54.9438 73.8649C51.073 73.3356 47.2606 73.3455 43.5066 73.8946C37.1975 74.8171 30.8206 76.6098 25.0526 79.3109C23.3093 80.1274 21.5816 81.1299 19.8694 82.3185C17.8549 83.7161 16.267 85.3892 15.1058 87.3378C14.6349 88.128 14.3538 88.8838 14.2624 89.6052C14.0689 91.1295 15.0069 92.2921 16.3052 92.9688C19.0119 94.3829 22.0972 94.6372 25.143 94.3066C27.2112 94.0815 29.2553 93.6403 31.2755 92.9829C36.5505 91.2651 41.4591 88.7571 46.0014 85.4589C48.7152 83.4896 51.2058 81.3437 53.2344 78.6978C54.276 77.3387 55.1128 76.1191 55.7448 75.0389C55.8729 74.8204 55.943 74.6231 55.9553 74.447Z" fill="white"/>
</svg>
