<svg width="89" height="115" viewBox="0 0 89 115" fill="none" xmlns="http://www.w3.org/2000/svg">
<g clip-path="url(#clip0_1119_6580)">
<path d="M67.3358 30.8291C67.2384 29.9427 67.3547 28.9239 67.1787 28.3308C67.0058 27.7441 66.8864 27.353 66.8298 27.1605C66.8015 27.0628 66.7449 26.9744 66.6695 26.905L65.1704 25.5392C65.1295 25.5045 65.0824 25.4698 65.0321 25.4477C64.0641 24.9556 62.7347 24.5676 61.6379 24.7474C61.4273 24.7821 61.2042 24.8137 60.9747 24.8357C61.0816 24.6086 61.1319 24.3405 61.1287 24.0314C61.1067 22.8233 60.9559 21.6214 60.6762 20.4322C60.5442 19.877 60.519 19.3881 60.365 18.8519C60.0759 17.8551 59.6893 16.7573 59.2022 15.5587C58.8973 14.8016 58.5611 14.177 58.1996 13.6881C57.3416 12.521 56.3045 11.4737 55.0851 10.5431C53.498 9.33501 51.6688 8.67258 49.7894 8.61896C49.3777 8.60634 48.9283 8.60634 48.4317 8.61896C48.0137 8.62842 47.7183 8.65681 47.5423 8.70728C46.6938 8.94702 46.0306 9.31608 45.2009 9.82079C44.8521 10.0321 44.5881 10.2246 44.3995 10.3949C43.9155 10.8365 43.6735 11.0605 43.6672 11.0668C43.6421 11.1046 43.2838 11.5399 42.5892 12.379C42.2341 12.808 41.9261 13.278 41.6684 13.7922C41.1718 14.7732 40.8575 15.4483 40.7224 15.811C40.6093 16.1201 40.4867 16.5965 40.361 17.2431C40.1127 18.5175 39.6098 19.814 39.4653 21.0347C39.3867 21.6877 39.3458 22.0757 39.3396 22.1924C39.305 22.8264 39.3553 23.451 39.4935 24.0661L37.7964 23.6339C37.7587 23.6245 37.7241 23.6118 37.6864 23.5961C37.2464 23.4005 36.8661 23.1639 36.3444 23.0093C34.4682 22.4479 32.4725 22.4289 30.3511 22.9494C29.6219 23.1261 29.0782 23.2964 28.7136 23.4573L29.1505 22.3501C29.1694 22.3059 29.1819 22.2618 29.1882 22.2176C29.5213 20.1735 29.4553 17.956 29.3265 15.8299C29.2919 15.2653 29.4176 14.3978 29.3359 13.7575C29.2196 12.8427 28.9996 12.0793 28.6759 11.4737C28.3208 10.8081 28.1291 10.4485 28.1008 10.3917C27.5414 9.29714 26.6802 8.48645 25.5677 8.0543C23.9994 7.44865 22.5191 7.78933 20.7434 8.10162C20.4229 8.1584 20.0929 8.28457 19.7535 8.47699C18.5686 9.14888 17.5881 9.93748 16.8055 10.8396C16.7426 10.9122 16.6735 10.9784 16.6012 11.0352C16.1612 11.3822 15.8532 11.6724 15.6772 11.9058C15.2718 12.4389 14.8098 13.1455 14.2912 14.0224C13.8858 14.7101 13.625 15.3599 13.2038 16.0886C13.0121 16.4229 12.8675 16.8803 12.7638 17.1485C12.5093 17.7983 12.393 18.6058 12.1981 19.2998C12.173 19.3881 12.1604 19.4733 12.1573 19.5647C12.1478 19.8644 12.107 20.1578 12.0378 20.4448C11.5476 19.9054 10.7556 19.7761 10.0861 19.795C9.77814 19.8045 9.58014 19.7761 9.30986 19.7193C9.78128 18.9654 10.1993 18.1736 10.5733 17.3472C10.8027 16.8393 10.9536 16.2999 11.205 15.8078C11.5193 15.1959 11.8178 14.647 12.0944 14.1644C12.3081 13.7922 12.3961 13.4799 12.5501 12.9752C12.723 12.4011 13.0561 11.9878 13.185 11.4579C13.3735 10.6882 13.4018 10.0069 13.0152 9.28452C12.5533 8.42652 12.1101 7.7704 11.6795 7.13321C11.4847 6.84301 11.337 6.67267 11.2364 6.6222C10.237 6.13011 9.37272 5.85568 8.63415 5.7989C8.44873 5.78313 8.14702 5.83675 7.73216 5.95662C7.40217 6.05125 7.10674 6.12696 6.84275 6.18058C6.27704 6.30045 5.81504 6.54965 5.4599 6.93448C5.06705 7.36033 4.63334 7.92497 4.15878 8.63156C3.82564 9.1268 3.50821 9.82077 3.20964 10.7103C2.94565 11.4958 2.97708 12.4547 2.78851 13.3001C2.75708 13.4357 2.76336 13.6755 2.76336 13.8237C2.76022 13.9499 2.77279 14.0792 2.80736 14.2054L3.38564 16.4513C3.42964 16.6217 3.49564 16.7857 3.58678 16.9403C3.94506 17.5585 4.1462 18.0727 4.51077 18.5396C5.04819 19.2272 5.53533 19.7887 5.97218 20.2208C6.02561 20.2745 6.08847 20.3249 6.15132 20.366L7.92702 21.5173C7.36445 22.4889 6.94017 23.5551 6.66046 24.7159C6.28647 24.4067 5.9219 24.126 5.56676 23.8737C5.07019 23.5172 4.71191 23.2396 4.49506 23.0409C4.40077 22.9526 4.16506 22.7538 3.79421 22.4447C2.88908 21.6908 2.14108 20.7413 1.70109 19.7098C1.23281 18.6216 0.629388 17.691 0.475389 16.4513C0.469104 16.3914 0.456532 16.3315 0.440818 16.2715C0.236535 15.5334 0.129679 15.1076 0.117108 15.0003C-0.0243193 13.7575 -0.0746045 12.379 0.179964 11.1488C0.233392 10.887 0.299391 10.4706 0.374819 9.90278C0.393676 9.76399 0.53196 9.38231 0.792814 8.75773C0.949955 8.37605 1.08824 7.99752 1.21081 7.61899C1.53138 6.61589 2.07194 5.59071 2.78222 4.75479C3.13422 4.33841 3.44536 3.8684 3.93564 3.42678C3.97649 3.38893 4.15249 3.21859 4.45734 2.91892C5.12991 2.2565 5.75219 1.79911 6.32418 1.5436C7.54045 1.0042 8.86044 0.720302 10.2841 0.691912C10.9378 0.679295 11.4973 0.736074 11.9655 0.865405C13.2918 1.23447 14.6589 1.80857 15.7684 2.65711C16.2555 3.02933 16.6955 3.21859 17.1135 3.5845C17.2423 3.69491 17.6886 4.0482 18.4492 4.63808C18.4869 4.66962 18.5403 4.66962 18.5843 4.64123C19.2757 4.18069 20.0017 3.81162 20.7686 3.53719C21.9471 3.1145 22.5694 2.8306 23.5688 2.2912C24.2163 1.94106 24.8888 1.7234 25.5897 1.63508C25.6682 1.62562 25.7468 1.60984 25.8222 1.58461C26.5922 1.34172 27.7174 1.0042 29.1945 0.562582C29.6816 0.417479 30.1499 0.322847 30.6025 0.278685C31.0393 0.234523 31.495 0.105193 31.9005 0.0957293C32.7679 0.0768028 34.663 0.0610308 37.5827 0.0484132C37.875 0.0484132 38.0981 0.0389499 38.2584 0.0231779C38.9844 -0.0556823 39.7889 0.0894205 40.3672 0.120965C40.7946 0.1462 41.2032 0.199825 41.5866 0.288148C42.2938 0.449023 43.2366 0.515265 43.994 0.736074C44.5566 0.896949 45.0657 0.953728 45.5623 1.15246C46.1186 1.37326 46.6497 1.54991 47.1557 1.68555C47.6994 1.83381 48.2306 2.0073 48.7491 2.20918C49.956 2.68234 50.6442 2.99463 51.5588 3.26906C52.4011 3.52457 53.2999 3.88417 54.2522 4.35418C54.3842 4.42042 54.7079 4.5466 55.2265 4.74217C55.5942 4.88097 55.9902 5.10493 56.4145 5.41406C56.7256 5.64118 57.2033 5.93769 57.857 6.3036C58.3976 6.60643 58.8722 6.91556 59.2744 7.231C60.3241 8.05115 61.0438 8.64417 61.4367 9.00693C61.6158 9.17411 61.7667 9.18673 61.8893 9.04478C62.0778 8.82397 62.2507 8.65679 62.4078 8.54008C63.3947 7.81457 64.5292 7.19315 65.8052 6.67582C66.0315 6.58435 66.2735 6.5181 66.5155 6.48971C67.0183 6.42663 67.5526 6.35092 68.1183 6.26575C68.53 6.20266 68.8632 6.17743 69.124 6.18689C69.5043 6.19951 70.0575 6.14904 70.466 6.22159C70.928 6.30676 71.39 6.42978 71.852 6.59381C72.688 6.89348 73.4203 7.64423 74.1463 8.07954C74.2531 8.14262 74.3474 8.22464 74.426 8.32242L75.6454 9.85231C75.6988 9.91855 75.7397 9.99111 75.7743 10.0668L77.2011 13.3947C77.2451 13.4957 77.2734 13.5997 77.2891 13.707C77.4997 15.2211 77.6222 16.7605 77.6537 18.3251C77.6882 19.8329 77.4714 21.2145 77.0062 22.4763C76.8491 22.9084 76.5977 23.3879 76.2582 23.9147C76.1797 24.0345 75.8874 24.4919 75.3783 25.2774C75.086 25.7316 74.602 26.3025 73.9326 26.9871C73.5586 27.3719 73.0589 28.0343 72.754 28.233C72.1569 28.6305 71.6226 29.0153 71.148 29.3876C71.016 29.4917 70.8714 29.58 70.7206 29.6557C69.7023 30.1509 68.6432 30.5452 67.5432 30.8323C67.5086 30.8417 67.4395 30.8417 67.3232 30.8323M66.9241 26.9524C66.9429 27.0565 67.0278 27.1385 67.1346 27.148C67.5023 27.1858 67.8575 27.1606 68.2001 27.0659C68.8286 26.8956 69.3566 26.7126 69.7746 26.5202C70.0229 26.4067 70.5855 26.0313 71.4623 25.3941C71.8174 25.1354 72.0532 24.9304 72.1726 24.779C72.754 24.0282 73.3323 23.1671 73.7503 22.4069C74.096 21.7792 74.3066 21.2871 74.3883 20.9401C74.4857 20.5048 74.602 19.5648 74.7371 18.12C74.7748 17.7068 74.712 17.3314 74.6963 16.8961C74.6491 15.6943 74.2091 14.606 73.5366 13.5083C73.1186 12.8238 72.5749 12.2623 71.8992 11.8207C70.4723 10.8838 68.4389 10.8081 67.1661 12.0636C66.5186 12.7008 65.9278 13.5304 65.3935 14.5461C65.3212 14.6849 65.2647 14.8331 65.2269 14.9846C65.0195 15.8331 64.523 16.6312 64.545 17.3724C64.5544 17.6879 64.6738 18.1484 64.9032 18.7635C64.9692 18.937 65.0195 19.12 65.0572 19.3029C65.1358 19.713 65.2301 20.101 65.3369 20.4638C65.5664 21.2334 65.6638 21.7792 65.9058 22.7886C66.1792 23.9241 66.6884 25.0377 66.8298 26.189C66.8832 26.6275 66.9178 26.883 66.9304 26.9555L66.9241 26.9524Z" fill="#D4A06A"/>
<path d="M9.31932 19.7193C8.91075 20.3943 8.44871 20.9905 7.93643 21.511L6.16079 20.3597C6.09479 20.3186 6.03507 20.2682 5.98165 20.2146C5.54479 19.7792 5.05766 19.2178 4.52023 18.5333C4.15567 18.0664 3.95453 17.5554 3.59624 16.934C3.50824 16.7826 3.4391 16.6185 3.3951 16.445L2.81682 14.1991C2.78225 14.0761 2.76968 13.9467 2.77282 13.8174C2.77282 13.6692 2.76654 13.4294 2.79797 13.2938C2.98968 12.4452 2.95511 11.4895 3.21911 10.704C3.51767 9.81447 3.8351 9.12365 4.16824 8.62526C4.6428 7.91867 5.07651 7.35403 5.46937 6.92818C5.8245 6.54335 6.2865 6.29099 6.85221 6.17428C7.11306 6.12066 7.40849 6.04495 7.74163 5.95032C8.15648 5.83045 8.45505 5.77683 8.64362 5.7926C9.37904 5.84938 10.2465 6.12381 11.2459 6.6159C11.3464 6.66637 11.4942 6.83671 11.689 7.12691C12.1196 7.7641 12.5627 8.42022 13.0247 9.27822C13.4113 10.0006 13.383 10.6819 13.1944 11.4516C13.0656 11.9815 12.7324 12.3948 12.5596 12.9689C12.4056 13.4736 12.3176 13.7859 12.1039 14.1581C11.8242 14.6439 11.5287 15.1896 11.2144 15.8015C10.963 16.2936 10.8122 16.833 10.5827 17.3409C10.2119 18.1673 9.79074 18.9591 9.31932 19.713V19.7193Z" fill="black"/>
<path d="M28.7199 23.4509L28.3679 23.8327C28.3334 23.8705 28.302 23.9115 28.2737 23.9557L27.7205 24.8295C27.6671 24.9178 27.5948 24.9935 27.5131 25.0597C26.916 25.5424 26.2308 26.3089 25.4074 26.659C24.7851 26.924 24.056 27.148 23.2169 27.3341C22.4249 27.5107 21.658 27.4729 20.778 27.5139C19.5366 27.5706 18.2575 27.4224 17.0915 26.9145C16.4127 26.618 15.9255 26.3846 15.6238 26.2079C15.4132 26.0849 14.9701 25.719 14.2975 25.1071C14.2127 25.0313 14.1435 24.9462 14.0901 24.8452C13.9738 24.6307 13.779 24.3216 13.5024 23.9241C13.0058 23.2049 12.6161 22.2775 12.2704 21.4889C12.239 21.4195 12.217 21.3438 12.2013 21.2681L12.0441 20.448C12.1133 20.1609 12.151 19.8675 12.1636 19.5679C12.1667 19.4796 12.1793 19.3912 12.2044 19.3029C12.3993 18.6058 12.5156 17.7983 12.7701 17.1516C12.8738 16.8835 13.0184 16.4261 13.2101 16.0917C13.6313 15.3631 13.8921 14.7101 14.2975 14.0256C14.8161 13.1455 15.2781 12.4389 15.6835 11.909C15.8595 11.6756 16.1675 11.3853 16.6075 11.0384C16.6798 10.9784 16.7489 10.9153 16.8118 10.8428C17.5944 9.93747 18.5781 9.15202 19.7598 8.48013C20.0992 8.28772 20.4292 8.16154 20.7498 8.10476C22.5254 7.79248 24.0026 7.4518 25.574 8.05744C26.6865 8.48644 27.5445 9.29713 28.1071 10.3949C28.1354 10.4485 28.3271 10.8112 28.6822 11.4768C29.0059 12.0825 29.2259 12.8427 29.3422 13.7606C29.4239 14.401 29.2951 15.2684 29.3328 15.8331C29.4648 17.9591 29.5277 20.1767 29.1945 22.2207C29.1882 22.2649 29.1757 22.3091 29.1568 22.3532L28.7199 23.4604M17.0004 23.1923C17.7986 24.4162 18.7792 24.8074 20.14 25.1417C20.448 25.2174 20.6397 25.1922 20.7183 25.0692C20.7246 25.0503 20.7309 25.0345 20.734 25.0155C21.4852 25.454 22.0415 25.3436 22.9812 25.1606C23.154 25.1259 23.5249 24.9398 24.0937 24.6023C24.3263 24.4635 24.562 24.2711 24.8008 24.0251C25.1906 23.6181 25.4011 23.3973 25.4326 23.3563C25.9983 22.6182 26.3691 21.8517 26.5483 21.0536C26.63 20.6908 26.6897 20.3659 26.7368 20.0757C26.8563 19.3124 26.8091 18.4165 26.8028 17.6121C26.8028 17.5081 26.8154 17.404 26.8468 17.303C26.9003 17.1264 26.9223 17.0097 26.9191 16.9529C26.8657 15.8204 26.674 14.8994 26.3345 14.1896C25.8034 13.0698 24.8888 12.7102 23.7637 12.237C22.7517 11.8112 21.5009 11.8459 20.5266 12.1235C20.3632 12.1708 19.7786 12.4326 18.7792 12.9089C18.7258 12.9342 18.6755 12.9657 18.6283 13.0067C18.1946 13.3726 17.7326 13.7795 17.2361 14.2275C17.0884 14.3631 16.7867 14.7763 16.3404 15.4672C16.2964 15.5365 16.2492 15.5965 16.1927 15.6564C15.9884 15.8804 15.8784 16.0539 15.8627 16.18C15.7998 16.6532 15.7055 17.0948 15.583 17.5017C15.561 17.5711 15.5484 17.6374 15.5421 17.7068C15.429 18.7635 15.4541 19.8549 15.6112 20.9779C15.6175 21.0158 15.5735 21.041 15.5421 21.0158C14.9575 20.5142 14.3195 20.347 13.537 19.978C13.4113 19.9212 13.2635 19.9306 13.1504 20.0063H13.1441C13.0561 20.0694 13.0656 20.1988 13.1598 20.2429C13.7413 20.5205 14.3667 20.8833 15.0424 21.3343C15.5641 21.6813 15.9821 22.4479 16.3152 23.0503C16.4661 23.3216 16.7427 23.5361 16.9941 23.1891L17.0004 23.1923Z" fill="#BFA2A3"/>
<path d="M60.9747 24.8357L57.2285 28.0123C57.1468 28.0817 57.0588 28.1416 56.9645 28.1921C55.9714 28.7125 55.2328 29.0532 54.7457 29.2204C53.8625 29.5232 53.124 29.703 52.53 29.7566C51.9297 29.8103 51.3797 29.7598 50.6066 29.8103C49.5003 29.8828 48.4412 29.8103 47.4229 29.5863C46.5806 29.4034 45.666 29.1542 44.6823 28.8387C43.7992 28.558 43.0952 28.2078 42.5672 27.7946C42.2184 27.5233 41.7878 27.148 41.2724 26.6748C40.9581 26.3877 40.669 26.0155 40.4081 25.5613C40.1127 25.0471 39.811 24.5487 39.503 24.0598C39.3647 23.4447 39.3112 22.8201 39.3489 22.1861C39.3552 22.0662 39.3992 21.6814 39.4746 21.0284C39.6192 19.8076 40.1221 18.5112 40.3703 17.2368C40.4961 16.5901 40.6155 16.1138 40.7318 15.8047C40.8669 15.4419 41.1843 14.77 41.6778 13.7859C41.9355 13.2717 42.2435 12.8017 42.5986 12.3727C43.2932 11.5368 43.6515 11.0983 43.6766 11.0605C43.6797 11.0542 43.9249 10.8302 44.4089 10.3886C44.5943 10.2182 44.8614 10.0258 45.2103 9.81447C46.04 9.30976 46.7031 8.9407 47.5517 8.70096C47.7246 8.65049 48.0231 8.6221 48.4411 8.61264C48.9345 8.60318 49.3871 8.60318 49.7988 8.61264C51.6782 8.66626 53.5073 9.32869 55.0945 10.5368C56.3139 11.4642 57.351 12.5115 58.209 13.6818C58.5704 14.1739 58.9067 14.7984 59.2116 15.5523C59.6987 16.7542 60.0821 17.8519 60.3744 18.8455C60.5316 19.3818 60.5536 19.8707 60.6856 20.4259C60.9653 21.6151 61.1161 22.8169 61.1381 24.0251C61.1444 24.3311 61.0941 24.5992 60.9841 24.8295M53.6111 19.7319C53.6111 19.7319 53.5891 19.7067 53.5954 19.6909C53.5985 19.6752 53.6142 19.6657 53.6331 19.6688L57.5051 20.3439C57.6056 20.3628 57.6873 20.2587 57.6465 20.1641C57.1593 19.0411 51.6971 18.4039 50.5468 18.2967C49.7989 18.2273 49.032 17.9497 48.2903 17.8361C47.1055 17.6563 45.9112 17.6374 44.7075 17.7794C44.1732 17.8424 43.7803 18.0885 43.5352 18.5206C43.3812 18.7888 43.3969 19.038 43.5824 19.2682C43.9972 19.7792 45.5906 19.5143 46.436 19.4607C48.1332 19.3502 49.8177 19.8991 51.6028 20.3975C52.0805 20.53 52.4388 20.6436 52.6808 20.7413C53.3 20.9874 53.6677 21.1262 53.784 21.1609C53.9599 21.2303 54.1328 21.306 54.2994 21.3911L56.2322 22.3722C56.3296 22.4226 56.4459 22.3532 56.4491 22.2428C56.4585 21.9968 56.3108 21.9085 56.1851 21.735C55.9116 21.3501 55.5565 21.0032 55.1259 20.7003C54.5571 20.2997 54.0479 19.978 53.6048 19.7351L53.6111 19.7319Z" fill="#BFA2A3"/>
<path d="M66.9241 26.9524C66.9115 26.883 66.8769 26.6243 66.8235 26.1858C66.682 25.0345 66.1729 23.9241 65.8995 22.7854C65.6575 21.776 65.5601 21.2303 65.3306 20.4606C65.2238 20.0978 65.1295 19.7098 65.0509 19.2998C65.0163 19.1168 64.9629 18.9339 64.8969 18.7604C64.6675 18.1484 64.5481 17.6847 64.5386 17.3693C64.5166 16.628 65.0101 15.8299 65.2206 14.9814C65.2583 14.8268 65.3149 14.6817 65.3872 14.5429C65.9215 13.5272 66.5123 12.6976 67.1597 12.0604C68.4326 10.8049 70.466 10.8807 71.8928 11.8175C72.5654 12.2591 73.1123 12.8206 73.5303 13.5051C74.2028 14.6029 74.6428 15.6911 74.6899 16.893C74.7057 17.3314 74.7685 17.7036 74.7308 18.1169C74.5957 19.5647 74.4825 20.5048 74.382 20.9369C74.3034 21.287 74.0897 21.776 73.744 22.4037C73.326 23.1639 72.7508 24.0251 72.1663 24.7758C72.0468 24.9272 71.8111 25.1323 71.456 25.3909C70.5791 26.0281 70.0166 26.4035 69.7683 26.5171C69.3503 26.7095 68.8223 26.8924 68.1937 27.0628C67.8512 27.1542 67.496 27.1826 67.1283 27.1448C67.0246 27.1353 66.9366 27.0565 66.9177 26.9492L66.9241 26.9524Z" fill="black"/>
<path d="M20.7372 25.0156C20.712 24.9777 20.7026 24.9525 20.7057 24.9399C20.7277 24.8642 20.7812 24.8326 20.8597 24.8515C21.5134 24.9935 22.0791 24.6402 22.6197 24.2396C23.2954 23.738 23.5248 23.0535 23.3048 22.1924C23.2828 22.104 23.176 22.0662 23.1037 22.123C22.626 22.4983 22.1074 22.5835 21.5543 22.3816C20.8723 22.1324 20.514 22 20.4763 21.9873C20.3915 21.9526 20.3129 21.9053 20.2437 21.8485C19.3732 21.1041 18.952 20.1262 18.9803 18.9118C18.9835 18.7225 18.9018 18.6247 18.7352 18.6153C18.688 18.6153 18.6409 18.6247 18.6 18.65C17.8521 19.0916 17.4592 19.7666 17.4215 20.6751C17.4152 20.8202 17.4403 20.9842 17.4906 21.1577C17.5598 21.3817 17.6132 21.5363 17.6478 21.6277C17.8081 22.0126 17.9872 22.4226 18.1852 22.8548C17.8143 22.3816 17.5692 21.9747 17.4466 21.6309C17.3303 21.3091 17.2737 21.0126 17.2737 20.7413C17.2737 20.429 17.2674 19.8928 17.2612 19.1357C17.2612 19.0348 17.2737 18.937 17.2989 18.8392C17.3712 18.5616 17.4152 18.2809 17.4246 18.0001C17.4309 17.8298 17.4749 17.6626 17.5566 17.5112C17.9369 16.8015 18.3926 16.1327 18.93 15.5018C18.9646 15.4608 19.0054 15.4198 19.0494 15.3851L20.2343 14.4514C20.2751 14.4199 20.3223 14.3946 20.3757 14.3789C20.9665 14.1991 21.3217 14.1044 21.4348 14.0981C21.8183 14.0761 22.34 14.1171 23.0031 14.218C23.0628 14.2275 23.1131 14.177 23.1037 14.1171V14.0918C23.0848 14.0067 23.022 13.9404 22.9402 13.9215C22.7014 13.8679 22.3902 13.7827 22.01 13.6723C21.0451 13.3915 20.2091 13.543 19.26 14.0003C18.0909 14.565 17.236 15.3441 16.6892 16.3409C16.6452 16.4198 16.6106 16.4986 16.5855 16.587C16.3717 17.3093 16.2555 17.691 16.2429 17.7383C16.0072 18.59 16.1675 20.0032 16.1077 20.6719C16.0983 20.7855 16.1077 20.899 16.1486 21.0094C16.2115 21.1892 16.2429 21.4037 16.2429 21.6498C16.2429 21.7476 16.268 21.8422 16.3152 21.9305L17.0066 23.1923C16.7552 23.5393 16.4787 23.3248 16.3278 23.0535C15.9915 22.451 15.5767 21.6845 15.055 21.3375C14.3792 20.8864 13.7507 20.5237 13.1724 20.2461C13.0781 20.2019 13.0687 20.0726 13.1567 20.0127H13.163C13.2793 19.9307 13.4238 19.9212 13.5495 19.978C14.3321 20.347 14.9701 20.5174 15.5547 21.0158C15.583 21.041 15.627 21.0158 15.6238 20.9779C15.4635 19.855 15.4415 18.7635 15.5547 17.7068C15.561 17.6374 15.5735 17.568 15.5955 17.5018C15.7181 17.0948 15.8092 16.6532 15.8752 16.1801C15.8941 16.0539 16.0009 15.8772 16.2052 15.6564C16.2587 15.5965 16.3089 15.5334 16.3529 15.4672C16.8024 14.7732 17.1009 14.36 17.2486 14.2275C17.7421 13.7827 18.2072 13.3758 18.6409 13.0067C18.6881 12.9689 18.7383 12.9373 18.7918 12.9089C19.7912 12.4326 20.3758 12.1708 20.5392 12.1235C21.5135 11.8428 22.7612 11.8112 23.7763 12.2371C24.9014 12.7102 25.816 13.0698 26.3471 14.1896C26.6834 14.8994 26.8783 15.8173 26.9317 16.9529C26.9317 17.0097 26.9097 17.1264 26.8594 17.303C26.828 17.404 26.8154 17.5081 26.8154 17.6122C26.8217 18.4165 26.8688 19.3124 26.7494 20.0758C26.7054 20.366 26.6425 20.694 26.5608 21.0536C26.3817 21.8517 26.0108 22.6182 25.4451 23.3563C25.4137 23.3974 25.2031 23.6182 24.8134 24.0251C24.5746 24.2711 24.342 24.4667 24.1063 24.6023C23.5374 24.9399 23.1666 25.126 22.9937 25.1607C22.0572 25.3436 21.4977 25.454 20.7466 25.0156M22.4437 18.1862C22.4217 18.5679 22.6008 18.937 22.978 19.2997C23.3331 19.6404 23.7228 19.7351 24.1377 19.5805C24.7756 19.3471 24.8951 18.9748 24.9328 18.3345C24.9705 17.6941 24.8951 17.3093 24.2885 17.0033C23.8925 16.8015 23.4965 16.8488 23.1037 17.1453C22.6857 17.4607 22.4625 17.8077 22.4405 18.1894L22.4437 18.1862Z" fill="#331011"/>
<path d="M18.1852 22.8548C18.3455 23.1671 18.5498 23.4289 18.7949 23.6402C19.1155 23.921 19.7598 24.3941 20.7215 25.0692C20.6429 25.1922 20.448 25.2174 20.1432 25.1417C18.7823 24.8105 17.8018 24.4162 17.0035 23.1923L16.3121 21.9305C16.2649 21.8422 16.2398 21.7476 16.2398 21.6498C16.2398 21.4037 16.2052 21.1892 16.1455 21.0094C16.1078 20.9022 16.0952 20.7855 16.1046 20.6719C16.1643 20.0032 16.0041 18.59 16.2398 17.7383C16.2523 17.691 16.3655 17.3093 16.5823 16.587C16.6075 16.5018 16.6421 16.4198 16.6861 16.3409C17.2298 15.3441 18.0878 14.565 19.2569 14.0003C20.206 13.543 21.042 13.3915 22.0069 13.6723C22.3903 13.7827 22.7014 13.8647 22.9371 13.9215C23.022 13.9404 23.0817 14.0067 23.0974 14.0918V14.1171C23.1131 14.177 23.0628 14.2275 23.0031 14.218C22.34 14.1171 21.8151 14.0792 21.4348 14.0981C21.3217 14.1044 20.9697 14.1959 20.3757 14.3789C20.3223 14.3946 20.2751 14.4199 20.2343 14.4514L19.0494 15.3851C19.0054 15.4198 18.9646 15.4577 18.93 15.5018C18.3926 16.1327 17.9369 16.8046 17.5566 17.5112C17.4749 17.6626 17.4309 17.8266 17.4246 18.0001C17.4152 18.2809 17.3712 18.5616 17.2989 18.8392C17.2737 18.937 17.2612 19.0348 17.2612 19.1357C17.2674 19.8928 17.2737 20.429 17.2737 20.7413C17.2737 21.0126 17.3334 21.3091 17.4466 21.6309C17.5692 21.9747 17.8143 22.3816 18.1852 22.8548Z" fill="#FFF5F5"/>
<path d="M24.9328 18.3345C24.8951 18.9748 24.7756 19.3471 24.1377 19.5805C23.7197 19.7351 23.3331 19.6404 22.978 19.2997C22.5977 18.937 22.4217 18.5648 22.4437 18.1862C22.4657 17.8046 22.6857 17.4576 23.1069 17.1422C23.4997 16.8456 23.8957 16.7983 24.2917 17.0002C24.8983 17.3093 24.9706 17.691 24.936 18.3314L24.9328 18.3345Z" fill="#FFF5F5"/>
<path d="M53.6111 19.7319C54.0542 19.9748 54.5633 20.2966 55.1322 20.6972C55.5659 21 55.9179 21.3438 56.1913 21.7318C56.3139 21.9053 56.4647 21.9936 56.4553 22.2397C56.4521 22.3501 56.3359 22.4195 56.2384 22.369L54.3056 21.388C54.1359 21.3028 53.9662 21.2271 53.7902 21.1577C53.6739 21.123 53.303 20.9842 52.687 20.7382C52.4451 20.6404 52.0868 20.5268 51.6091 20.3943C49.8239 19.8991 48.1394 19.3471 46.4423 19.4575C45.5968 19.5111 44.0034 19.7761 43.5886 19.2651C43.4032 19.0348 43.3874 18.7856 43.5414 18.5175C43.7866 18.0853 44.1794 17.8361 44.7137 17.7762C45.9174 17.6342 47.1117 17.6532 48.2965 17.833C49.0382 17.9465 49.8019 18.2209 50.5531 18.2935C51.7033 18.4008 57.1656 19.0379 57.6527 20.1609C57.6936 20.2555 57.6119 20.3596 57.5113 20.3407L53.6393 19.6657C53.6205 19.6657 53.6048 19.672 53.6016 19.6877C53.5953 19.7035 53.6016 19.7224 53.6173 19.7288L53.6111 19.7319Z" fill="#331011"/>
<path d="M20.7372 25.0156C20.734 25.0345 20.7278 25.0502 20.7215 25.0692C19.7598 24.3973 19.1186 23.921 18.7949 23.6402C18.5498 23.4289 18.3455 23.1671 18.1852 22.8548C17.9872 22.4195 17.8081 22.0126 17.6478 21.6277C17.6101 21.5363 17.5566 21.3817 17.4906 21.1577C17.4372 20.9842 17.4152 20.8202 17.4215 20.6751C17.4592 19.7666 17.8521 19.0916 18.6 18.65C18.6409 18.6247 18.688 18.6153 18.7352 18.6153C18.9049 18.6247 18.9866 18.7225 18.9803 18.9118C18.9489 20.1231 19.37 21.1009 20.2437 21.8485C20.3129 21.9085 20.3915 21.9558 20.4763 21.9873C20.5109 22.0031 20.8723 22.1324 21.5543 22.3816C22.1106 22.5835 22.626 22.4983 23.1037 22.123C23.176 22.0662 23.2797 22.104 23.3048 22.1924C23.5248 23.0567 23.2954 23.738 22.6197 24.2396C22.0823 24.6402 21.5166 24.9903 20.8597 24.8515C20.7812 24.8326 20.7277 24.8642 20.7057 24.9399C20.7026 24.9525 20.712 24.9745 20.7372 25.0156Z" fill="#6A4243"/>
<path d="M9.31932 19.7193C9.58646 19.7761 9.78752 19.8045 10.0955 19.795C10.7649 19.7761 11.5569 19.9086 12.0472 20.4448L12.2044 21.265C12.2201 21.3407 12.2421 21.4164 12.2735 21.4858C12.6192 22.2712 13.0089 23.2018 13.5055 23.921C13.7821 24.3184 13.9769 24.6276 14.0932 24.8421C14.1466 24.9398 14.2158 25.0282 14.3006 25.1039C14.9732 25.7127 15.4163 26.0817 15.6269 26.2048C15.9286 26.3814 16.4189 26.618 17.0946 26.9113C18.2606 27.4192 19.5366 27.5706 20.7811 27.5107C21.6642 27.4697 22.428 27.5075 23.2199 27.3309C24.0591 27.1448 24.7882 26.9208 25.4105 26.6558C26.2308 26.3057 26.9159 25.5392 27.5162 25.0566C27.5979 24.9903 27.667 24.9146 27.7236 24.8263L28.2767 23.9525C28.305 23.9084 28.3333 23.8673 28.371 23.8295L28.723 23.4478C29.0876 23.2901 29.6313 23.1198 30.3604 22.94C32.4818 22.4163 34.4807 22.4384 36.3538 22.9999C36.8755 23.1544 37.2558 23.391 37.6958 23.5866C37.7304 23.6024 37.7681 23.615 37.8058 23.6245L39.5029 24.0566C39.8078 24.5455 40.1095 25.0439 40.408 25.5581C40.6689 26.0123 40.958 26.3814 41.2723 26.6716C41.7909 27.1448 42.2214 27.517 42.5672 27.7914C43.0951 28.2078 43.8023 28.5548 44.6823 28.8355C45.666 29.151 46.5805 29.397 47.4228 29.5831C48.4411 29.8039 49.5002 29.8796 50.6065 29.8071C51.3796 29.7566 51.9296 29.8071 52.5299 29.7535C53.1207 29.6998 53.8625 29.52 54.7456 29.2172C55.2327 29.05 55.9713 28.7094 56.9644 28.1889C57.0587 28.1384 57.1499 28.0785 57.2284 28.0091L60.9747 24.8326C61.2072 24.8074 61.4272 24.779 61.6378 24.7443C62.7346 24.5613 64.0641 24.9493 65.032 25.4445C65.0823 25.4698 65.1263 25.5013 65.1703 25.536L66.6695 26.9019C66.7449 26.9713 66.8015 27.0596 66.8297 27.1574C66.8863 27.3498 67.0026 27.741 67.1786 28.3277C67.3546 28.9207 67.2383 29.9396 67.3357 30.826C67.2572 30.848 67.21 30.8985 67.1974 30.9805C67.0057 32.277 66.5877 33.482 65.934 34.5986C65.252 35.7658 64.4475 36.854 63.4606 37.813C63.2406 38.0275 62.9138 38.365 62.4801 38.8255C62.3041 39.0148 61.7949 39.4343 60.9558 40.0842C60.6352 40.3334 60.2518 40.5636 59.7992 40.775C59.1644 41.0715 58.6741 41.5699 58.0581 41.9137C57.8318 42.0399 57.5458 42.2292 57.2693 42.3679C56.3924 42.8127 55.6067 43.3017 54.909 43.8379C53.8153 44.125 52.7688 44.4814 51.7756 44.9041C51.0088 45.229 50.4179 45.4561 50.0062 45.5791C48.7428 45.9577 47.492 46.3078 46.2505 46.6264C45.644 46.7841 44.852 46.8945 43.8714 46.9671C43.4817 46.9955 43.114 47.1437 42.7652 47.0964C42.7274 47.0933 42.6929 47.1216 42.6897 47.1595V47.2131C42.6897 47.2478 42.7212 47.273 42.7557 47.273L43.4471 47.2447C43.5666 47.2415 43.6734 47.3078 43.7237 47.415L44.3837 48.8503C44.3994 48.8849 44.412 48.9197 44.4183 48.9575C44.786 50.724 45.1317 52.2475 45.4554 53.5219C45.6063 54.1244 45.6943 54.5313 45.7163 54.7458C45.8137 55.6291 45.9457 56.7331 46.1154 58.0548C46.15 58.3356 46.2003 58.6131 46.2568 58.8939C46.3071 59.1399 46.3354 59.4207 46.3448 59.7393C46.3448 59.7897 46.3668 59.8434 46.414 59.9001C46.4391 59.9317 46.4548 59.9695 46.4611 60.0074L46.546 60.6383C46.4925 61.7234 46.3417 62.799 46.0965 63.8715C46.0871 63.9126 46.0651 63.9473 46.0337 63.9756L45.16 64.6759C45.1411 64.6917 45.1128 64.7012 45.0877 64.7043H44.9651C44.9117 64.7106 44.8614 64.7422 44.8394 64.7926C44.588 65.3131 44.2831 65.7863 43.928 66.2121C43.6829 66.5086 43.3183 67.0796 42.8437 67.9155C42.3472 68.7924 41.8694 69.7072 41.4169 70.6598C41.0272 71.2844 40.738 71.8207 40.5558 72.278C40.4049 72.6534 40.3672 73.0288 40.4458 73.3979C39.7229 73.6407 39.2358 73.8742 38.9843 74.0981C38.6072 74.4325 38.0949 74.8994 37.5041 75.3378C36.9101 75.7826 36.4292 76.4734 36.3601 77.2368C36.3412 77.4292 36.3224 77.6405 36.3004 77.8677C36.6272 78.7351 37.3155 79.0222 38.3683 78.732C37.9881 79.631 37.7115 80.4795 37.5418 81.2839C37.4129 81.757 37.5166 82.1293 37.8561 82.4005C38.2175 82.6876 38.4815 82.8074 38.9058 82.5993C39.2452 82.4352 39.5815 82.2491 39.9146 82.0378C39.9586 82.0094 40.0183 82.0409 40.0183 82.0946C40.0152 82.5393 40.1818 83.1481 40.7129 83.1797C41.3006 83.2144 41.8223 83.0724 42.2812 82.7538C42.3189 82.7286 42.3692 82.7633 42.3534 82.8074C42.1806 83.3879 42.1617 83.9967 42.7557 84.3026C43.1423 84.5014 43.356 84.5582 43.6231 84.1828C43.8777 84.208 44.1511 84.1102 44.4434 83.8863C44.8268 83.5929 45.094 83.4005 45.2448 83.3153C45.2794 83.2964 45.3108 83.2712 45.3391 83.2428C45.9865 82.5835 46.3763 82.1513 46.5114 81.94C46.7188 81.6088 47.0111 81.1325 47.3882 80.5079C47.4762 80.3628 47.6302 80.2019 47.8471 80.0284C48.0011 80.041 48.0954 80.101 48.0859 80.2713C48.0734 80.5079 48.1017 80.7255 48.1677 80.9243C48.2085 81.0504 48.218 81.1861 48.1928 81.3154C48.0168 82.1987 47.7717 83.5487 47.4574 85.3562C47.3977 85.7001 47.3411 85.9556 47.2845 86.1227C47.0708 86.7694 47.1054 87.2489 46.8665 87.9113C46.7785 88.151 46.6905 88.4854 46.6025 88.9112C46.59 88.9775 46.568 89.0437 46.5365 89.1037C45.9645 90.3213 45.5591 91.3054 44.8143 92.2107C44.6446 92.4158 44.3806 92.8227 44.016 93.4347C43.9909 93.4788 43.9594 93.5198 43.928 93.5577C43.774 93.7375 43.5791 93.9425 43.3497 94.1696C41.816 95.6743 40.9109 96.5607 40.6343 96.8193C40.3735 97.0622 40.0215 97.3556 39.7983 97.4818C38.9403 97.9707 38.3746 98.3965 37.6109 98.6678C36.8629 98.9328 36.3947 99.2009 35.5744 99.4249C35.3638 99.4817 35.0432 99.5826 34.6158 99.7277C34.4178 99.7939 33.827 99.8823 32.8496 99.9864C32.6327 100.008 32.353 99.9832 32.177 99.9485C30.6621 99.6678 29.2762 99.4943 27.8399 99.2104C27.8305 99.2104 27.821 99.2072 27.8116 99.2009L26.6142 98.6583C26.4916 98.6047 26.3816 98.5259 26.2873 98.4312C25.6273 97.7625 24.8699 97.2294 24.0056 96.8383C23.6411 96.4408 23.2922 95.9361 22.9559 95.3242C22.9151 95.2484 22.8365 95.1822 22.7265 95.1223C22.7202 94.9267 22.6919 94.7879 22.6417 94.7027C22.318 94.1602 22.0697 93.7375 21.812 93.1413C21.8025 93.1192 21.6328 92.7501 21.2997 92.0341C20.7088 90.7534 20.1714 89.3623 19.6937 87.8671C19.326 86.7189 19.1877 85.6622 18.9111 84.4099C18.8609 84.1891 18.886 83.8137 19.2097 83.8863C19.3794 84.085 19.6183 84.2175 19.9263 84.29C20.5674 84.4351 21.0357 84.2522 21.3343 83.738C21.3531 83.7033 21.4003 83.6907 21.4348 83.7159L21.7868 83.962C22.186 84.3121 22.6354 84.3437 23.1351 84.0566C23.4525 83.6497 23.7071 83.1986 23.8957 82.7065C23.9177 82.6529 23.9554 82.4857 24.0119 82.1987C24.0339 82.0914 24.0371 81.981 24.0214 81.8737L23.9208 81.1419C23.9114 81.0662 23.9837 81.0063 24.0559 81.0347C24.5462 81.2271 25.0836 81.1325 25.6682 80.7445C26.0831 80.4227 26.2842 79.9401 26.2685 79.3061C26.2559 78.8014 26.1302 78.2493 25.8913 77.6532C25.6116 76.9466 24.9674 75.9466 24.6154 75.0255C24.6342 74.7984 24.6248 74.5839 24.5839 74.3852C24.3042 73.032 23.9554 71.6755 23.5311 70.316C23.1885 69.2151 23.0785 68.5495 22.8145 67.3351C22.7705 67.1364 22.7454 66.925 22.7422 66.701C22.7359 66.4802 22.736 66.2657 22.7391 66.0607C22.9277 63.963 23.1979 61.8969 23.5562 59.8623C23.6222 59.4964 23.5594 59.1841 23.6411 58.7929C23.9208 57.446 24.1659 56.4366 24.3702 55.7679C24.7222 54.6039 24.7945 53.4115 25.0648 52.1498C25.0742 52.1056 25.0899 52.0646 25.1151 52.0267C25.1685 51.9416 25.3162 51.5 25.5582 50.705C25.7091 50.2098 26.0422 49.2919 26.5576 47.9544C26.765 47.4118 26.8908 46.9198 26.9348 46.4813C26.9379 46.4403 26.9505 46.3961 26.9693 46.3583L27.2648 45.7747C27.2993 45.7053 27.2648 45.617 27.1893 45.5949L23.7071 44.4719C23.6788 44.4625 23.6537 44.453 23.6285 44.4372C23.1131 44.147 22.6259 43.9546 22.1702 43.86C21.834 43.6139 21.5071 43.4121 21.1928 43.2543C20.5925 42.9515 20.25 42.7749 20.1683 42.7276C19.8383 42.5351 19.4548 42.3396 19.0211 42.144C18.4806 41.9011 17.7577 41.1661 17.1669 40.8223C16.84 40.633 16.4346 40.3996 16.0795 40.122C15.6615 39.7939 15.2749 39.4407 14.8789 39.1883C14.6212 39.0211 14.2818 38.7341 13.8543 38.3303C13.7161 38.201 13.2918 37.895 12.5752 37.4124C12.5249 37.3777 12.4778 37.343 12.4369 37.2988C11.7329 36.5985 11.1484 35.9172 10.6832 35.2548C10.5041 34.9992 10.3155 34.7627 10.1175 34.5513C9.5361 33.9204 9.17782 33.2706 8.77239 32.6997C8.4424 32.2391 8.29154 31.8669 8.01183 31.3875C7.72583 30.8922 7.56555 30.1825 7.36755 29.7409C7.00613 28.9428 6.92756 28.0028 6.82384 27.0754C6.80499 26.9082 6.8207 26.5612 6.86784 26.0313C6.90242 25.6685 6.88356 25.3184 6.8207 24.984C6.79556 24.8515 6.74842 24.7664 6.67927 24.7317C6.95899 23.5708 7.38012 22.5046 7.94583 21.5331C8.46126 21.0126 8.92011 20.4133 9.32867 19.7414M25.9542 29.356C25.8851 29.4033 25.8442 29.4885 25.8285 29.6115C25.7091 30.5231 25.9542 31.3275 26.5608 32.0183C26.7996 32.2896 27.4439 32.5703 27.9939 33.0435C28.0442 33.0877 28.0756 33.1507 28.0725 33.2201C28.0662 33.5261 28.1573 33.9394 28.3396 34.4598C28.6947 35.4629 29.0373 36.1033 29.4427 37.0622C29.6282 37.5007 29.8544 37.9171 30.1216 38.3114C30.4642 38.8192 30.7847 39.04 31.1839 39.5163C31.2907 39.6488 31.4541 39.7845 31.6679 39.9201C32.2996 40.327 32.947 40.5478 33.607 40.5825C34.0658 40.6046 35.1407 40.6866 35.7127 40.5415C36.4889 40.3428 37.1709 40.0589 37.7586 39.6867C39.0158 38.8886 40.078 37.283 40.6217 35.8825C40.7915 35.4503 40.9863 34.9204 41.2126 34.3021C41.6746 33.034 41.6526 32.1003 41.6557 30.8165C41.6557 30.643 41.4326 30.5799 41.3415 30.725L41.1466 31.0373C41.1466 31.0373 41.1277 31.0625 41.1183 31.072L40.1566 32.0909C40.1409 32.1098 40.122 32.1256 40.1 32.135C39.2421 32.5924 38.4438 32.9299 37.4444 33.034C37.1238 33.0687 36.8001 33.1287 36.4732 33.2138C36.3789 33.2391 36.2815 33.2485 36.1872 33.2485C35.9767 33.2454 35.7472 33.2675 35.4927 33.3211C34.8421 33.4599 34.1444 33.4063 33.5315 33.4157C33.4153 33.4157 33.3021 33.3747 33.2173 33.2959C33.0476 33.1444 32.8244 33.0498 32.5478 33.0151C32.4913 33.0088 32.4473 32.9583 32.4441 32.9016L32.3876 31.4568C32.3876 31.4221 32.4064 31.3874 32.4347 31.3685C33.0916 30.9837 33.6353 30.5673 34.0658 30.1257C34.1067 30.0847 34.157 30.0531 34.2104 30.0342L34.7572 29.8418C34.8012 29.826 34.8452 29.8039 34.883 29.7787C35.4675 29.3939 35.9641 28.8828 36.3632 28.2456C36.5738 27.9144 36.5109 27.0407 36.1118 26.7978C35.7127 26.5549 35.4487 26.3625 35.0307 26.2205C33.9621 25.8609 32.9281 25.6117 31.9319 25.4698C31.8187 25.454 31.7024 25.454 31.5893 25.4698C31.1807 25.5297 30.8916 25.5612 30.725 25.5644C30.0242 25.577 29.2573 25.9145 28.7042 26.2868C28.6633 26.3151 28.6256 26.3498 28.6005 26.394C28.2547 26.9492 28.3019 27.5359 28.6256 28.0942C28.8739 28.5201 29.141 28.9712 29.427 29.4506C29.471 29.5263 29.5244 29.5957 29.5842 29.6588C29.9644 30.0531 30.4013 30.4947 30.8916 30.9837C31.2404 31.3307 31.495 31.4379 31.9601 31.5452C32.023 31.5609 32.0638 31.6146 32.067 31.6776L32.1141 32.8826C32.1141 32.9268 32.0953 32.9709 32.0607 32.993C31.6019 33.3116 31.1273 33.2517 30.6779 33.3526C30.6276 33.3652 30.5742 33.3652 30.5239 33.3558C29.7413 33.2328 29.0405 33.0403 28.4213 32.7722C28.3459 32.7375 28.2767 32.6965 28.2139 32.646C27.9342 32.4189 27.5319 32.1161 27.007 31.7407C26.7619 31.5672 26.5639 31.359 26.4099 31.1225C26.1993 30.7944 26.1773 29.7945 26.1836 29.4822C26.1836 29.356 26.0453 29.2771 25.9385 29.3528M26.2276 27.5769C26.1396 27.5927 26.0862 27.7094 26.1082 27.8324C26.1302 27.9554 26.2213 28.0469 26.3093 28.0311C26.3973 28.0154 26.4508 27.8987 26.4288 27.7756C26.4068 27.6526 26.3156 27.5611 26.2276 27.5769ZM27.3339 29.1257C27.3339 29.0059 27.2333 28.9081 27.1139 28.9081H27.0322C26.9128 28.9081 26.8153 29.009 26.8153 29.1289V29.2771C26.8153 29.397 26.9159 29.4948 27.0353 29.4948H27.117C27.2365 29.4948 27.3339 29.3938 27.3339 29.274V29.1257ZM37.8278 29.2834C37.7492 29.397 37.7869 29.5642 37.9158 29.6557C38.0446 29.7471 38.2143 29.7282 38.2961 29.6178C38.3746 29.5043 38.3369 29.3371 38.2081 29.2456C38.0792 29.1541 37.9095 29.173 37.8278 29.2834ZM39.6349 30.3307C39.6349 30.2203 39.5469 30.1288 39.4338 30.1288C39.3206 30.1288 39.2326 30.2172 39.2326 30.3307C39.2326 30.4443 39.3206 30.5326 39.4338 30.5326C39.5469 30.5326 39.6349 30.4443 39.6349 30.3307ZM37.8718 30.6809C37.7744 30.6872 37.7053 30.8039 37.7178 30.9364C37.7273 31.0689 37.8153 31.1698 37.9127 31.1604C38.0101 31.154 38.0793 31.0373 38.0667 30.9048C38.0573 30.7724 37.9693 30.6714 37.8718 30.6809Z" fill="#F2CEA4"/>
<path d="M25.9542 29.356C26.0579 29.2834 26.1994 29.356 26.1994 29.4853C26.1931 29.7976 26.212 30.7976 26.4257 31.1256C26.5797 31.3622 26.7777 31.5673 27.0228 31.7439C27.5445 32.1193 27.9468 32.4221 28.2297 32.6492C28.2925 32.6997 28.3648 32.7407 28.4371 32.7754C29.0562 33.0435 29.7571 33.2359 30.5396 33.359C30.5899 33.3684 30.6433 33.3653 30.6936 33.3558C31.1462 33.2517 31.6176 33.3148 32.0765 32.9962C32.111 32.971 32.133 32.93 32.1299 32.8858L32.0827 31.6808C32.0827 31.6177 32.0356 31.5641 31.9759 31.5483C31.5108 31.4411 31.2562 31.3338 30.9073 30.9868C30.4171 30.4979 29.9802 30.0594 29.5999 29.662C29.5371 29.5989 29.4868 29.5295 29.4428 29.4538C29.1568 28.9743 28.8896 28.5233 28.6414 28.0974C28.3176 27.5391 28.2705 26.9492 28.6162 26.3972C28.6414 26.353 28.6791 26.3183 28.7199 26.2899C29.2731 25.9209 30.0399 25.5802 30.7408 25.5676C30.9073 25.5676 31.1965 25.5329 31.605 25.4729C31.7182 25.4572 31.8313 25.4572 31.9476 25.4729C32.9439 25.6149 33.9779 25.8672 35.0464 26.2237C35.4676 26.3656 35.7284 26.5581 36.1276 26.8009C36.5267 27.0438 36.5896 27.9208 36.379 28.2488C35.9767 28.8829 35.4833 29.3939 34.8987 29.7819C34.861 29.8071 34.817 29.8292 34.773 29.8449L34.2262 30.0374C34.1727 30.0563 34.1224 30.0878 34.0816 30.1288C33.651 30.5705 33.1073 30.9868 32.4505 31.3717C32.419 31.3906 32.4002 31.4253 32.4033 31.46L32.4599 32.9047C32.4599 32.9615 32.507 33.012 32.5636 33.0183C32.8402 33.053 33.0633 33.1476 33.233 33.299C33.321 33.3779 33.4342 33.4189 33.5473 33.4189C34.157 33.4094 34.8579 33.4599 35.5084 33.3243C35.7599 33.2706 35.9924 33.2454 36.203 33.2517C36.3004 33.2517 36.3947 33.2422 36.489 33.217C36.8127 33.1318 37.1364 33.0719 37.4601 33.0372C38.4595 32.9331 39.2578 32.5956 40.1158 32.1382C40.1378 32.1256 40.1567 32.113 40.1724 32.094L41.1341 31.0752C41.1341 31.0752 41.1529 31.0531 41.1624 31.0405L41.3572 30.7282C41.4484 30.5831 41.6715 30.6462 41.6715 30.8197C41.6684 32.1035 41.6904 33.0404 41.2284 34.3053C41.0021 34.9267 40.8041 35.4535 40.6375 35.8856C40.0938 37.2862 39.0347 38.8918 37.7744 39.6899C37.1867 40.0621 36.5047 40.346 35.7284 40.5447C35.1533 40.693 34.0816 40.6109 33.6227 40.5857C32.9596 40.551 32.3153 40.3334 31.6836 39.9233C31.4699 39.7845 31.3065 39.6488 31.1996 39.5195C30.8036 39.0432 30.4831 38.8192 30.1373 38.3145C29.8702 37.9202 29.6439 37.5038 29.4585 37.0654C29.0531 36.1064 28.7105 35.4661 28.3554 34.463C28.1731 33.9425 28.0819 33.5325 28.0882 33.2233C28.0882 33.1539 28.0599 33.0877 28.0097 33.0467C27.4597 32.5735 26.8154 32.2928 26.5765 32.0215C25.97 31.3307 25.7248 30.5263 25.8442 29.6147C25.86 29.4917 25.9008 29.4065 25.97 29.3592L25.9542 29.356Z" fill="#331011"/>
<path d="M26.2276 27.5769C26.3156 27.5611 26.4068 27.6495 26.4288 27.7756C26.4508 27.8987 26.3973 28.0154 26.3093 28.0311C26.2213 28.0469 26.1302 27.9586 26.1082 27.8324C26.0862 27.7094 26.1396 27.5927 26.2276 27.5769Z" fill="#331011"/>
<path d="M27.3339 29.274C27.3339 29.3938 27.2365 29.4916 27.117 29.4948H27.0353C26.9159 29.4948 26.8185 29.397 26.8153 29.2771V29.1289C26.8153 29.009 26.9128 28.9112 27.0322 28.9081H27.1139C27.2333 28.9081 27.3308 29.0059 27.3339 29.1257V29.274Z" fill="#331011"/>
<path d="M37.8278 29.2834C37.9064 29.1699 38.0792 29.151 38.2081 29.2456C38.3369 29.3371 38.3778 29.5043 38.2961 29.6178C38.2175 29.7314 38.0446 29.7503 37.9158 29.6557C37.7869 29.5642 37.7461 29.397 37.8278 29.2834Z" fill="#331011"/>
<path d="M39.6349 30.3307C39.6349 30.4411 39.5469 30.5326 39.4338 30.5326C39.3206 30.5326 39.2326 30.4443 39.2326 30.3307C39.2326 30.2172 39.3206 30.1288 39.4338 30.1288C39.5469 30.1288 39.6349 30.2172 39.6349 30.3307Z" fill="#331011"/>
<path d="M37.8718 30.6809C37.9693 30.6714 38.0573 30.7724 38.0667 30.9048C38.0761 31.0373 38.007 31.1509 37.9127 31.1604C37.8153 31.1698 37.7273 31.0689 37.7178 30.9364C37.7084 30.8039 37.7776 30.6903 37.8718 30.6809Z" fill="#6A4243"/>
<path d="M22.7265 66.0512C22.6008 64.8715 22.5192 63.9567 22.4846 63.3101C22.4217 62.165 22.538 61.0389 22.8272 59.9254C22.9183 59.5816 22.9969 59.1431 23.066 58.6132C23.1383 58.0706 23.2986 57.4776 23.55 56.8341C23.5846 56.7394 23.594 56.6164 23.572 56.4619C23.5626 56.3893 23.5029 56.3357 23.4274 56.3357C23.3552 56.3357 23.2923 56.3862 23.2766 56.4556C23.2766 56.4713 23.2734 56.5218 23.2734 56.607C23.2734 56.6701 23.264 56.7331 23.242 56.7899C23.0849 57.2473 22.8114 57.8277 22.7234 58.3577C22.692 58.5406 22.67 58.7078 22.6543 58.8529C22.2457 58.9444 21.9754 59.1841 21.8466 59.5721C21.7051 59.9885 21.4977 60.7676 21.2211 61.9063C21.086 62.471 20.998 63.0987 20.9603 63.7864C20.8943 64.9913 20.866 65.6254 20.866 65.6916C20.8692 65.8146 20.8786 65.9377 20.8912 66.0607C21.0106 67.149 21.4003 68.1647 21.6391 69.2088C21.9 70.3633 22.2143 71.01 22.7077 72.2875C22.9371 72.8742 23.0754 73.3632 23.1226 73.7543C23.2294 74.6375 23.2137 75.5428 23.0723 76.4734C23.066 76.5207 23.0503 76.568 23.022 76.609C22.6511 77.2084 21.9629 78.1515 21.2966 78.3029C21.1897 78.3282 20.8252 78.4102 20.2029 78.549C19.3009 78.754 18.6723 78.6373 17.8898 78.2052C17.6289 78.0601 17.3178 77.7604 16.9563 77.3093C16.7992 77.1074 16.4912 76.751 16.0418 76.2337C15.8846 76.0538 15.7086 75.9845 15.5138 76.0192C15.4698 75.6091 15.41 75.3157 15.3409 75.1328C14.9732 74.1644 14.6369 73.196 14.3383 72.2276C14.0083 71.1614 14.112 69.9501 14.1812 68.8019C14.2346 67.947 14.2598 67.3761 14.2629 67.089C14.266 66.578 14.3415 66.0134 14.486 65.3983C14.6558 64.6791 14.7406 63.8021 15.0015 62.9631C15.2592 62.1303 15.4917 61.2975 15.7023 60.4648C15.7526 60.2692 15.8595 59.9885 16.0197 59.6194C16.1706 59.2756 16.4315 58.7393 16.7992 58.0138C17.0694 57.4807 17.1857 56.9571 17.3712 56.5155C17.4026 56.4398 17.4403 56.3641 17.4843 56.2947C17.9369 55.5597 18.248 55.0802 18.5811 54.361C19.2946 52.8248 20.0803 51.3675 20.9383 49.9827C21.1237 49.6862 21.3751 49.0805 21.6957 48.1721C21.7208 48.0995 21.7397 48.0238 21.746 47.9449C21.812 47.3551 21.9157 46.7526 22.0602 46.1375C22.1294 45.8283 22.164 45.065 22.1514 43.8411C22.6071 43.9357 23.0942 44.1281 23.6097 44.4183C23.6348 44.4341 23.6599 44.4435 23.6882 44.453L27.1705 45.576C27.2459 45.6012 27.2805 45.6864 27.2459 45.7558L26.9505 46.3393C26.9316 46.3772 26.919 46.4182 26.9159 46.4624C26.875 46.9008 26.7493 47.3929 26.5388 47.9355C26.0233 49.2729 25.6902 50.1909 25.5393 50.6861C25.2974 51.481 25.1496 51.9226 25.0962 52.0078C25.0711 52.0457 25.0554 52.0867 25.0459 52.1308C24.7756 53.3926 24.7034 54.585 24.3514 55.7489C24.1471 56.4177 23.9051 57.4271 23.6222 58.774C23.5405 59.1652 23.6034 59.4774 23.5374 59.8434C23.1791 61.878 22.9057 63.9441 22.7202 66.0418L22.7265 66.0512Z" fill="#D4A06A"/>
<path d="M54.9059 43.8379C54.271 45.0397 53.9065 45.9955 53.8154 46.7084C53.8028 46.8125 53.7902 47.62 53.7808 49.1373C53.7777 49.8817 53.8374 50.6419 53.9694 51.4242C54.0794 52.0804 54.1988 52.9794 54.334 54.1213C54.3811 54.5124 54.5697 55.1086 54.6011 55.5723C54.6231 55.8846 54.7425 56.6542 54.9657 57.8845C55.1008 58.6352 55.1794 59.4869 55.2045 60.4332C55.2045 60.49 55.2171 60.5436 55.2391 60.5973L55.4308 61.0483C55.1574 61.9852 55.0222 62.8842 55.0191 63.7454C55.0191 64.2059 55.0002 64.5686 54.9688 64.8305C54.8399 65.8904 54.8808 66.4834 54.8682 67.8303C54.8682 67.9281 54.8557 68.0227 54.8305 68.1174C54.6325 68.8997 54.4722 69.6094 54.3434 70.2466C54.2271 70.8207 54.0385 71.3696 53.7714 71.9026C53.2151 73.013 52.6243 73.9467 52.0051 74.7038C51.7568 75.0066 51.4143 75.2905 51.0466 75.6722C50.8957 75.8267 50.638 76.0507 50.2703 76.3377C49.2991 77.1074 48.7366 77.5522 48.5794 77.6752C48.1677 78.0064 47.8346 78.2241 47.58 78.3345C47.5172 78.3597 47.1463 78.508 46.4612 78.7729C46.1815 78.8802 45.8169 78.9244 45.3581 78.9023C44.4686 78.8581 43.8778 78.7824 43.5855 78.6815C43.5321 78.6625 43.4818 78.6405 43.4315 78.6121C43.1172 78.4386 42.7715 78.1988 42.4038 77.896C41.9669 77.5427 41.7218 77.0601 41.5427 76.5806C41.1561 75.5428 40.7884 74.4766 40.4427 73.3884C40.3641 73.0193 40.4018 72.6439 40.5527 72.2686C40.7381 71.8143 41.0241 71.2749 41.4138 70.6503C41.8412 70.0605 42.2435 69.4643 42.6175 68.8618C42.7715 68.6158 42.9067 68.3603 43.0261 68.089C43.3215 67.4139 43.7898 66.8745 44.1166 66.3698C44.2989 66.0859 44.6163 65.8146 44.8583 65.455C44.8835 65.4203 44.9243 65.3951 44.9683 65.3951H45.0123C45.0689 65.3951 45.1192 65.3636 45.1506 65.3163C45.4083 64.9283 45.7509 64.6002 46.1783 64.3321C46.2443 64.2911 46.304 64.2406 46.3575 64.1807L47.0489 63.4047C47.0803 63.37 47.1055 63.329 47.1212 63.2848C47.1746 63.1397 47.2029 63.0198 47.1997 62.9315C47.1997 62.7833 47.0049 62.7328 46.9295 62.8621L46.7095 63.2438C46.6938 63.2722 46.6592 63.2848 46.6278 63.2722C46.5963 63.2596 46.5806 63.228 46.5869 63.1965L46.7032 62.6634C46.7126 62.6255 46.7157 62.5845 46.7157 62.5467C46.7063 62.2502 46.7157 61.9978 46.7378 61.7959C46.8257 61.0673 46.7786 60.5058 46.8603 59.5942C46.964 58.4743 46.9295 57.4965 46.9232 56.4334C46.9232 56.3451 46.8572 56.2663 46.7692 56.2536L46.7315 56.2473C46.6497 56.2316 46.5775 56.2978 46.5806 56.3798L46.6655 58.5816C46.6655 58.5816 46.6655 58.6068 46.6655 58.6194L46.5429 60.632L46.458 60.0011C46.4518 59.9601 46.436 59.9254 46.4109 59.8938C46.3669 59.837 46.3449 59.7834 46.3418 59.7329C46.3355 59.4175 46.3072 59.1368 46.2538 58.8876C46.1972 58.6068 46.15 58.3292 46.1123 58.0485C45.9395 56.7268 45.8075 55.6228 45.7132 54.7395C45.6912 54.5282 45.6032 54.1181 45.4523 53.5156C45.1286 52.2381 44.7829 50.7177 44.4152 48.9512C44.4089 48.9165 44.3964 48.8786 44.3806 48.8439L43.7206 47.4087C43.6704 47.3014 43.5635 47.2352 43.4441 47.2383L42.7526 47.2667C42.7181 47.2667 42.6898 47.2415 42.6898 47.2068V47.1532C42.6898 47.1153 42.7244 47.0838 42.7652 47.0901C43.1141 47.1374 43.4818 46.9891 43.8715 46.9608C44.8489 46.8914 45.644 46.7778 46.2506 46.6201C47.4889 46.3015 48.7397 45.9545 50.0063 45.5728C50.418 45.4498 51.0088 45.2227 51.7757 44.8978C52.7688 44.4751 53.8154 44.1186 54.9091 43.8316L54.9059 43.8379Z" fill="#D4A06A"/>
<path d="M41.4106 70.6535C41.8632 69.704 42.341 68.7893 42.8375 67.9092C43.3121 67.0701 43.6735 66.5023 43.9218 66.2058C44.2769 65.7768 44.5818 65.3037 44.8332 64.7864C44.8584 64.739 44.9055 64.7075 44.9589 64.7043H45.0815C45.1098 64.698 45.1349 64.6886 45.1538 64.6728L46.0275 63.9725C46.0589 63.9473 46.0809 63.9094 46.0903 63.8684C46.3355 62.7959 46.4863 61.7171 46.5398 60.6351L46.6623 58.6226C46.6623 58.6226 46.6623 58.5974 46.6623 58.5848L46.5775 56.383C46.5775 56.301 46.6466 56.2347 46.7283 56.2505L46.766 56.2568C46.854 56.2726 46.92 56.3483 46.92 56.4366C46.9263 57.5028 46.9578 58.4775 46.8572 59.5974C46.7755 60.5058 46.8226 61.0705 46.7346 61.7991C46.7095 62.001 46.7032 62.2534 46.7126 62.5499C46.7126 62.5877 46.7126 62.6287 46.7001 62.6666L46.5838 63.1997C46.5775 63.2312 46.5932 63.2659 46.6246 63.2754C46.656 63.288 46.6906 63.2754 46.7063 63.247L46.9263 62.8653C46.9986 62.7391 47.1935 62.7896 47.1966 62.9347C47.1966 63.023 47.1715 63.1429 47.118 63.288C47.1023 63.3322 47.0772 63.3732 47.0458 63.4079L46.3543 64.1839C46.3009 64.2406 46.2412 64.2911 46.1752 64.3353C45.7478 64.6034 45.4052 64.9314 45.1475 65.3194C45.1161 65.3668 45.0658 65.3951 45.0092 65.3983H44.9652C44.9212 65.3983 44.8803 65.4235 44.8552 65.4614C44.6132 65.8241 44.2958 66.0923 44.1135 66.3762C43.7835 66.8809 43.3152 67.4203 43.0229 68.0953C42.9035 68.3666 42.7684 68.6221 42.6144 68.8682C42.2372 69.4706 41.835 70.0668 41.4107 70.6567L41.4106 70.6535Z" fill="#331011"/>
<path d="M22.7265 66.0512C22.7265 66.2563 22.7266 66.4708 22.7297 66.6916C22.736 66.9156 22.7612 67.1269 22.802 67.3256C23.066 68.5401 23.176 69.2057 23.5186 70.3065C23.9429 71.6661 24.2917 73.0225 24.5714 74.3757C24.6123 74.5745 24.6248 74.7889 24.6028 75.0161C24.5211 75.1675 24.4206 75.1675 24.3074 75.0161C24.2791 74.9782 24.2571 74.9372 24.2477 74.8931C24.1786 74.5839 24.1786 74.3158 24.0843 73.9625C23.4337 71.4926 23.2137 70.5968 22.7706 69.0164C22.5789 68.335 22.4469 67.7105 22.3714 67.1458C22.2803 66.4771 22.1923 65.3888 22.1074 63.8842C22.0792 63.3763 22.0729 62.8748 22.0949 62.3732C22.1294 61.5278 22.164 61.0263 22.2017 60.8686C22.3526 60.203 22.5034 59.5311 22.6574 58.8529C22.6732 58.7046 22.6983 58.5406 22.7266 58.3577C22.8146 57.8277 23.0912 57.2473 23.2451 56.7899C23.264 56.7331 23.2766 56.67 23.2766 56.607C23.2766 56.5218 23.2766 56.4713 23.2797 56.4555C23.2954 56.3862 23.3583 56.3325 23.4306 56.3357C23.5029 56.3357 23.5657 56.3893 23.5751 56.4619C23.5971 56.6164 23.5909 56.7426 23.5531 56.8341C23.3049 57.4776 23.1414 58.0706 23.0691 58.6132C23 59.1431 22.9214 59.5816 22.8303 59.9254C22.538 61.0389 22.4249 62.165 22.4877 63.3101C22.5223 63.9567 22.604 64.8683 22.7297 66.0512L22.7265 66.0512Z" fill="#331011"/>
<path d="M22.6543 58.8529C22.5003 59.5311 22.3494 60.1998 22.1986 60.8685C22.164 61.0263 22.1294 61.5278 22.0917 62.3732C22.0729 62.8747 22.076 63.3794 22.1043 63.8841C22.1891 65.3888 22.2771 66.4739 22.3683 67.1458C22.4437 67.7104 22.5757 68.335 22.7674 69.0164C23.2106 70.5967 23.4306 71.4926 24.0811 73.9625C24.1754 74.3158 24.1754 74.5839 24.2445 74.893C24.254 74.9372 24.276 74.9814 24.3043 75.0161C24.4174 75.1643 24.518 75.1643 24.5997 75.0161C24.9517 75.9371 25.5928 76.9371 25.8757 77.6437C26.1145 78.2399 26.2402 78.7919 26.2528 79.2966C26.2685 79.9338 26.0674 80.4132 25.6525 80.735C25.6368 80.5678 25.5928 80.4669 25.5237 80.4322C25.508 80.4227 25.4891 80.4196 25.4702 80.4259C25.3131 80.4574 25.156 80.5142 24.9894 80.5899C24.3263 80.9085 23.8863 80.571 23.5248 80.0663C23.4651 79.9811 23.3394 79.9811 23.2797 80.0663C23.2483 80.1104 23.2483 80.1672 23.2766 80.2398C23.4683 80.776 23.5625 81.3533 23.5563 81.9684C23.5563 82.4131 23.4023 82.7444 23.2074 83.1828C23.0597 83.514 23.0283 83.8011 23.1163 84.044C22.6166 84.331 22.1671 84.2995 21.768 83.9493C21.7806 83.6402 21.6706 83.3563 21.4443 83.0913C21.3783 83.0188 21.3311 82.9305 21.3029 82.839C21.1111 82.2428 20.9446 81.451 20.5989 81.3817C20.4794 81.3596 20.3852 81.4794 20.4354 81.5898C20.7372 82.2428 20.8943 82.8453 20.9069 83.3942C20.91 83.5866 20.8126 83.7569 20.6586 83.8169C20.4637 83.8926 20.2374 83.9083 19.986 83.8673C19.2066 83.738 19.0212 82.2586 18.9489 81.6876C18.93 81.552 18.8483 81.4384 18.7257 81.3785L18.7069 81.369C18.6157 81.3249 18.512 81.3974 18.5152 81.4984C18.5215 81.6214 18.5529 81.899 18.6126 82.3343C18.6597 82.6844 18.6032 83.085 18.4398 83.5424C18.4335 83.5613 18.4398 83.5803 18.4523 83.5929L18.5058 83.6307C18.5372 83.656 18.5812 83.6434 18.5969 83.6055C18.6535 83.4604 18.7383 83.3784 18.8546 83.3626C18.908 83.3563 18.9552 83.3815 18.9772 83.4289L19.1217 83.7475C18.908 83.8358 18.7666 83.6938 18.5435 83.7727C18.1286 83.9146 17.5283 83.2901 17.3303 83.0188C17.0286 82.6087 16.9878 81.7413 16.9438 81.1766C16.8841 80.3943 16.6546 79.6625 16.3529 78.8865C16.2712 78.6783 16.1455 78.407 15.9789 78.0758C15.8501 77.8266 15.7275 77.5554 15.6049 77.2652L15.5138 76.0223C15.7086 75.9876 15.8846 76.057 16.0418 76.2368C16.4943 76.7541 16.7992 77.1106 16.9563 77.3125C17.3178 77.7667 17.6289 78.0632 17.8898 78.2083C18.6723 78.6405 19.3009 78.754 20.2029 78.5521C20.8252 78.4133 21.1897 78.3282 21.2966 78.3061C21.9629 78.1547 22.648 77.2115 23.022 76.6122C23.0471 76.5712 23.0628 76.5239 23.0723 76.4765C23.2137 75.546 23.2294 74.6407 23.1226 73.7574C23.0754 73.3663 22.9371 72.8774 22.7077 72.2906C22.2111 71.0131 21.8969 70.3665 21.6391 69.2119C21.4034 68.1678 21.0106 67.1521 20.8912 66.0638C20.8786 65.9408 20.8692 65.8178 20.866 65.6948C20.866 65.6317 20.8943 64.9945 20.9603 63.7895C20.998 63.1019 21.0829 62.4741 21.2211 61.9095C21.4946 60.7708 21.702 59.9916 21.8466 59.5752C21.9786 59.1872 22.2457 58.9475 22.6543 58.856L22.6543 58.8529Z" fill="#D78A44"/>
<path d="M55.4276 61.0484C55.6225 61.2944 55.7293 61.5026 55.7482 61.6761C55.8393 62.5436 55.943 63.1839 56.053 63.6034C56.6282 65.7674 57.0807 67.6379 57.4107 69.212C57.549 69.8713 57.6967 70.4674 57.8539 71.0068C58.0833 71.8049 58.2907 72.4894 58.407 73.1739C58.4416 73.3726 58.4667 73.4957 58.4824 73.5493C58.6553 74.0919 58.7904 74.6817 58.8816 75.3252C59.001 76.1422 59.1833 76.8677 59.3718 77.8488C59.5384 78.7036 59.9313 79.7635 60.1261 80.7508C60.2581 81.4164 60.3335 81.8012 60.3524 81.9053C60.4373 82.3848 60.497 82.9715 60.5316 83.6623C60.5818 84.6938 60.7453 85.5739 60.8804 86.7379C61.0187 87.9302 60.871 88.9586 60.7955 90.3434C60.783 90.5768 60.7453 90.8512 60.6793 91.1698C60.6101 91.5168 60.6321 91.8922 60.5755 92.277C60.4624 93.0278 60.3996 93.6492 60.3807 94.1381C60.3556 94.7942 60.2927 95.3368 60.189 95.7626C60.0601 96.2863 59.903 96.8099 59.7113 97.3335C59.6578 97.4786 59.7081 97.5859 59.859 97.6521C59.5416 97.6742 59.3436 97.7562 59.2681 97.895C58.9758 98.4313 58.781 99.1505 58.5201 99.6678C57.6842 101.305 56.6847 102.797 55.5125 104.141C55.3742 104.302 55.2265 104.444 55.0756 104.567C54.0982 105.358 53.1145 106.052 52.1214 106.645C52.0774 106.671 52.0522 106.715 52.0459 106.765C52.0428 106.816 52.0522 106.872 52.0742 106.936C51.5305 106.784 50.9742 107.377 50.5562 107.652C50.3582 107.667 50.1822 107.784 50.0251 107.999C49.9874 108.049 50.0377 108.118 50.0974 108.096L50.3582 108.008L52.0994 108.339C52.1559 108.349 52.2094 108.368 52.2596 108.393C52.8819 108.696 53.4759 109.125 54.0353 109.683C54.0731 109.724 54.1076 109.768 54.1359 109.819L54.887 111.181C54.9499 111.295 55.0002 111.412 55.0348 111.538C55.1102 111.853 55.3176 112.497 55.2642 112.913C55.1919 113.509 54.8839 113.907 54.3496 114.102C54.1956 114.159 53.8845 114.194 53.4193 114.206C53.0736 114.219 52.7593 114.251 52.4828 114.307C52.8002 113.957 53.0233 113.478 53.1459 112.875C53.1585 112.812 53.1648 112.749 53.1616 112.683C53.1333 111.778 52.8473 110.979 52.3036 110.286C52.2094 110.103 52.2502 110.077 52.4231 110.207C52.4891 110.254 52.5708 110.339 52.6776 110.456C53.1993 111.046 53.4633 111.349 53.4728 111.358C53.8028 111.752 53.9631 112.121 53.9473 112.468C53.9316 112.831 53.7462 113.333 53.3911 113.97C53.3596 114.023 53.4099 114.09 53.4696 114.074L53.6582 114.023C53.7022 114.011 53.7399 113.986 53.7619 113.948C54.2082 113.276 54.4848 112.115 53.9411 111.431C53.6142 111.021 53.2276 110.598 52.7845 110.166C52.5425 109.929 52.2754 109.816 51.9831 109.831C51.8699 109.806 51.8008 109.8 51.7788 109.812C51.6374 109.888 51.6122 110.08 51.7285 110.188C52.5236 110.929 52.8788 111.806 52.8002 112.822C52.7813 113.077 52.6431 113.434 52.3916 113.891C52.3571 113.951 52.2376 114.039 52.0302 114.15C51.9988 114.169 51.9988 114.21 52.0302 114.229C52.1276 114.282 52.2376 114.304 52.3634 114.298C51.6908 114.298 51.0182 114.298 50.3551 114.355C49.5757 114.424 48.7711 114.462 47.9414 114.471C47.5423 114.475 47.0677 114.418 46.5177 114.298C46.4046 114.273 46.2914 114.257 46.1783 114.247C44.9872 114.156 44.0003 114.09 42.9443 113.654C42.1272 113.317 41.4829 113.042 41.0146 112.834C40.7443 112.714 40.6249 112.503 40.6343 112.191C40.6595 111.267 40.6689 110.478 40.6626 109.825C40.6626 109.775 40.6972 109.487 40.7695 108.958C40.8606 108.292 40.7129 107.598 40.3232 106.882C41.42 106.794 42.5012 106.753 43.5729 106.765C44.6697 106.778 45.776 106.614 46.744 106.56C47.3348 106.525 47.9225 106.38 48.4977 106.122C49.8428 105.526 50.7165 105.134 51.1188 104.951C51.8762 104.608 52.4765 104.242 52.9259 103.854C53.3408 103.494 53.8688 103.273 54.2805 102.838C54.6608 102.437 55.0128 102.097 55.3365 101.813C55.8393 101.374 56.0185 100.684 56.3233 100.094C56.4867 99.775 56.6439 99.3807 56.7947 98.917C57.4924 96.7405 57.967 94.4062 58.2153 91.9143C58.3976 90.1005 58.297 87.9807 58.1399 86.4445C57.9859 84.9335 57.9764 83.8957 57.7533 82.5646C57.6182 81.7602 57.5616 80.694 57.3573 79.9559C57.2002 79.3786 57.0682 78.9591 56.9644 78.7036C56.4144 77.3409 56.0059 75.9782 55.7387 74.6155C55.6822 74.3284 55.569 74.1549 55.4056 74.0982L55.7199 73.5651C55.7199 73.5651 55.7356 73.5367 55.7387 73.5209L56.6282 70.4895C56.6502 70.417 56.6062 70.3381 56.5307 70.3223H56.5245C56.4365 70.3003 56.3485 70.3476 56.317 70.4359C56.1693 70.8775 56.0593 71.2939 55.987 71.6787C55.8205 72.562 55.4402 73.3506 54.9248 73.9404C54.6922 74.2086 54.4156 74.6313 54.2805 74.8805C54.0133 75.3694 53.4822 75.7952 52.9448 76.3126C52.3508 76.8867 51.6939 77.3377 50.9899 77.9213C50.8862 78.0065 50.6097 78.1453 50.1539 78.3345C50.0722 78.3692 49.9968 78.4102 49.9245 78.4607L49.2048 78.9559C49.1891 78.9654 49.1702 78.9749 49.1514 78.9843C48.7868 79.1515 48.4443 79.3503 48.1237 79.5837C48.02 79.6562 48.0074 79.7698 48.0168 79.8865L47.8251 80.0253C47.6083 80.1988 47.4543 80.3565 47.3663 80.5048C46.9891 81.1293 46.6968 81.6057 46.4894 81.9369C46.3543 82.1482 45.9646 82.5835 45.3171 83.2396C45.2889 83.268 45.2574 83.2933 45.2229 83.3122C45.0751 83.4005 44.808 83.5898 44.4214 83.8831C44.1292 84.1071 43.8557 84.2049 43.6012 84.1796C42.8343 84.0535 42.5075 83.7412 42.6206 83.2459C42.7023 82.8895 42.9066 82.4731 43.2335 81.9999C43.3529 81.8265 43.3623 81.7097 43.2555 81.6467C43.1832 81.6025 43.0889 81.6151 43.0323 81.6814L42.7149 82.0441C42.6929 82.0694 42.6677 82.0914 42.6395 82.1072C41.8066 82.5867 41.3729 82.8863 40.7726 82.8863C40.6312 82.8863 40.4992 82.8043 40.4363 82.675C39.9272 81.6435 40.7852 81.5268 41.0398 80.7413C41.0618 80.6783 41.0586 80.6341 41.0335 80.6089C40.9486 80.5205 40.8072 80.5268 40.7349 80.6215C40.6092 80.7855 40.4458 81.0221 40.2478 81.3281C40.1755 81.4416 40.0718 81.5299 39.9524 81.5899C39.6129 81.7476 39.3081 81.9116 39.0409 82.082C38.6638 82.3186 38.3935 82.4321 38.0321 82.1356C37.9881 82.0977 37.9095 81.9526 37.8027 81.7034C37.7272 81.5268 37.6329 81.388 37.523 81.2871C37.6958 80.4827 37.9724 79.6341 38.3495 78.7351C38.5067 78.5995 38.6827 78.4292 38.8869 78.2147C38.9781 78.12 39.0252 78.0222 39.0346 77.9276C39.0441 77.8014 38.8775 77.7447 38.8084 77.8488C38.5129 78.2904 38.0761 78.4828 37.5009 78.426C37.0798 78.385 36.7938 78.1989 36.6461 77.8708C36.5927 77.7541 36.5361 77.7005 36.4732 77.71C36.4104 77.7194 36.3475 77.773 36.2847 77.8677C36.3067 77.6406 36.3255 77.4292 36.3444 77.2368C36.4135 76.4734 36.8944 75.7826 37.4884 75.3378C38.0792 74.8962 38.5915 74.4325 38.9686 74.0982C39.2201 73.8742 39.7072 73.6439 40.4301 73.3979C40.7758 74.4862 41.1435 75.5523 41.53 76.5901C41.7092 77.0696 41.9575 77.5522 42.3912 77.9055C42.762 78.2084 43.1046 78.4481 43.4189 78.6216C43.4692 78.65 43.5195 78.6721 43.5729 78.691C43.8652 78.7951 44.456 78.8676 45.3454 78.9118C45.8011 78.9339 46.1689 78.8929 46.4486 78.7825C47.1337 78.5143 47.5046 78.3692 47.5674 78.344C47.822 78.2367 48.1551 78.0159 48.5668 77.6847C48.7208 77.5617 49.2834 77.1138 50.2577 76.3472C50.6254 76.057 50.8831 75.8362 51.0339 75.6817C51.4048 75.3 51.7474 75.0161 51.9925 74.7133C52.6116 73.9562 53.2025 73.0225 53.7588 71.9122C54.0259 71.3822 54.2145 70.8302 54.3308 70.2561C54.4596 69.6189 54.6199 68.9092 54.8179 68.1269C54.843 68.0322 54.8525 67.9344 54.8556 67.8398C54.8682 66.4929 54.8273 65.8999 54.9562 64.84C54.9876 64.575 55.0033 64.2122 55.0065 63.7549C55.0065 62.8937 55.1447 61.9947 55.4182 61.0578M43.3435 109.535C43.8495 109.238 44.258 109.014 44.566 108.86C46.1092 108.087 47.6994 107.917 49.34 108.342C49.3745 108.352 49.4091 108.355 49.4437 108.355L49.7517 108.342C49.8743 108.339 49.912 108.178 49.8114 108.115C49.7643 108.087 49.7077 108.065 49.6417 108.052C49.1986 107.964 48.5606 107.907 47.7246 107.882C46.0526 107.835 44.6195 108.311 43.2963 109.308C43.2586 109.336 43.2366 109.383 43.2366 109.431V109.478C43.2366 109.532 43.2995 109.566 43.3435 109.538M49.6385 110.55C49.5883 110.509 49.516 110.541 49.5128 110.607C49.5128 110.661 49.5317 110.749 49.5663 110.797C49.9905 111.383 50.264 111.976 50.3803 112.576C50.4148 112.749 50.3897 112.929 50.3111 113.087L49.9025 113.897C49.868 113.967 49.8963 114.046 49.9623 114.08L50.0063 114.102C50.1163 114.159 50.2545 114.112 50.308 113.998C50.5343 113.528 50.88 113.172 50.7888 112.554C50.6725 111.784 50.2891 111.115 49.6385 110.55ZM47.4009 114.181C47.5077 114.178 47.6114 114.124 47.6743 114.036C47.8817 113.749 48.0326 113.405 48.1237 113.008C48.306 112.222 47.448 111.118 46.8603 110.74C46.8037 110.705 46.7314 110.715 46.6874 110.768C46.6466 110.819 46.6497 110.894 46.6937 110.942C47.1934 111.462 47.5517 112.039 47.7623 112.667C47.7811 112.721 47.7843 112.777 47.7717 112.834C47.6554 113.323 47.4511 113.724 47.1589 114.023C47.0991 114.087 47.1431 114.191 47.2311 114.188L47.3977 114.181H47.4009Z" fill="#D78A44"/>
<path d="M55.4151 74.095C54.8148 75.0697 54.2679 75.7794 53.7839 76.2211C53.2402 76.7163 52.7814 77.1327 52.4042 77.4734C51.9517 77.8803 51.4614 78.2304 50.9302 78.5269C50.1194 78.9812 49.3431 79.4102 48.6014 79.8139C48.3814 79.9338 48.1897 79.9559 48.0263 79.8833C48.02 79.7666 48.0326 79.6562 48.1331 79.5805C48.4568 79.3471 48.7994 79.1452 49.1608 78.9812C49.1797 78.9717 49.1954 78.9622 49.2143 78.9528L49.934 78.4575C50.0063 78.4071 50.0817 78.3661 50.1634 78.3314C50.6191 78.1389 50.8988 78.0033 50.9994 77.9181C51.7034 77.3314 52.3602 76.8835 52.9542 76.3094C53.4916 75.7921 54.0196 75.3694 54.2899 74.8773C54.4251 74.6312 54.6985 74.2085 54.9342 73.9373C55.4528 73.3442 55.833 72.5556 55.9965 71.6756C56.0688 71.2907 56.1787 70.8743 56.3265 70.4327C56.3547 70.3444 56.4459 70.2971 56.5339 70.3192H56.5402C56.6156 70.3381 56.6596 70.4138 56.6376 70.4895L55.7482 73.5209C55.745 73.5367 55.7356 73.5524 55.7293 73.565L55.415 74.0981L55.4151 74.095Z" fill="#331011"/>
<path d="M55.4151 74.095C55.5816 74.1518 55.6948 74.3252 55.7482 74.6123C56.0154 75.975 56.4239 77.3345 56.9739 78.7004C57.0776 78.9559 57.2096 79.3755 57.3668 79.9527C57.5679 80.6877 57.6276 81.7539 57.7628 82.5614C57.9859 83.8894 57.9954 84.9304 58.1494 86.4413C58.3065 87.9775 58.4071 90.0973 58.2248 91.9111C57.9765 94.4031 57.5019 96.7373 56.8042 98.9138C56.6565 99.3807 56.4994 99.7719 56.3328 100.09C56.0279 100.683 55.8488 101.374 55.346 101.81C55.0222 102.09 54.6702 102.434 54.29 102.835C53.8783 103.27 53.3503 103.494 52.9354 103.851C52.486 104.239 51.8857 104.604 51.1283 104.948C50.726 105.131 49.8523 105.522 48.5072 106.119C47.932 106.374 47.3443 106.519 46.7535 106.557C45.7823 106.611 44.6761 106.775 43.5824 106.762C42.5138 106.749 41.4295 106.79 40.3327 106.879L39.8896 106.349C39.7953 106.235 39.6444 106.185 39.503 106.223L39.1133 106.324C39.0944 106.327 39.0787 106.33 39.0599 106.33C38.3307 106.336 36.9824 106.342 35.0119 106.349C34.6662 106.349 34.2293 106.264 33.7045 106.09C33.6699 106.081 33.6385 106.074 33.6039 106.074L32.3908 106.084L32.6705 105.721L33.2456 105.888C33.3179 105.907 33.3933 105.872 33.4248 105.806C33.4562 105.74 33.4311 105.658 33.3713 105.617C32.4096 104.989 31.5297 104.358 30.7314 103.715C30.3888 103.44 29.8137 103.122 29.6345 102.885C29.3328 102.485 28.962 102.122 28.522 101.8C28.1385 101.519 27.9405 101.283 27.6451 100.942C27.356 100.611 27.0291 100.381 26.5986 100.1C26.5703 100.081 26.5483 100.062 26.5263 100.04L25.0114 98.3839C24.9926 98.3618 24.9769 98.3398 24.9612 98.3145L24.5463 97.5669C24.5306 97.5385 24.5117 97.5133 24.4897 97.4944C24.3169 97.324 24.1503 97.1032 23.9932 96.8288C24.8543 97.2231 25.6149 97.753 26.2749 98.4218C26.3691 98.5164 26.4791 98.5953 26.6017 98.6489L27.7991 99.1914C27.7991 99.1914 27.818 99.1977 27.8274 99.2009C29.2668 99.4816 30.6497 99.6551 32.1645 99.939C32.3405 99.9737 32.6202 99.999 32.8371 99.9769C33.8145 99.8728 34.4053 99.7845 34.6033 99.7182C35.0308 99.5763 35.3482 99.4722 35.5619 99.4154C36.3822 99.1883 36.8504 98.9233 37.5984 98.6583C38.3621 98.3902 38.9279 97.9612 39.7858 97.4723C40.009 97.3461 40.361 97.0527 40.6218 96.8099C40.9015 96.5512 41.8067 95.668 43.3372 94.1602C43.5698 93.933 43.7615 93.728 43.9155 93.5482C43.9501 93.5104 43.9784 93.4693 44.0035 93.4252C44.3681 92.8132 44.6321 92.4063 44.8018 92.2013C45.5435 91.2928 45.9521 90.3118 46.5241 89.0942C46.5555 89.0342 46.5775 88.968 46.5901 88.9018C46.6781 88.4759 46.7661 88.1416 46.854 87.9018C47.0929 87.2394 47.0583 86.7599 47.272 86.1133C47.3255 85.9461 47.3852 85.6906 47.4449 85.3467C47.7592 83.5361 48.0043 82.1892 48.1803 81.306C48.2055 81.1766 48.1992 81.041 48.1552 80.9148C48.0892 80.7161 48.0609 80.4984 48.0735 80.2618C48.0829 80.0915 47.9886 80.0316 47.8346 80.0189L48.0263 79.8802C48.1897 79.9527 48.3815 79.9338 48.6015 79.8108C49.3432 79.407 50.1163 78.978 50.9303 78.5238C51.4614 78.2272 51.9517 77.8771 52.4043 77.4702C52.7814 77.1327 53.2403 76.7163 53.784 76.2179C54.2711 75.7763 54.8148 75.0665 55.4151 74.0918M41.9952 97.5669C41.7847 98.1631 41.5332 98.693 41.3761 99.2293C41.0807 100.236 40.5841 101.213 40.4113 102.21C40.3201 102.74 40.1881 103.336 40.0153 103.996C39.9524 104.242 39.8675 104.854 39.7607 105.831C39.7481 105.945 39.8204 106.052 39.9304 106.084L39.9524 106.09C40.0498 106.115 40.1441 106.046 40.1504 105.945C40.2038 104.901 40.2918 104.131 40.4207 103.636C40.7538 102.355 40.933 101.485 41.2818 100.526C41.5427 99.8128 41.7815 98.6615 42.2027 97.7562C42.2372 97.6836 42.2215 97.5953 42.1587 97.5417L42.1398 97.5259C42.0895 97.4817 42.0141 97.5038 41.9921 97.5637L41.9952 97.5669Z" fill="#D4A06A"/>
<path d="M19.1312 83.7506C19.1658 83.7822 19.1877 83.8232 19.2003 83.8768C18.8766 83.8074 18.8515 84.1796 18.9017 84.4004C19.1814 85.6527 19.3197 86.7063 19.6843 87.8577C20.162 89.356 20.6994 90.7439 21.2903 92.0246C21.6203 92.7407 21.7931 93.1098 21.8026 93.1318C22.0603 93.728 22.3086 94.1507 22.6323 94.6933C22.6826 94.7784 22.7077 94.9172 22.7171 95.1128C22.626 95.097 22.5852 95.1664 22.5946 95.321C22.4846 95.9582 22.516 96.5386 22.6889 97.0622C22.8366 97.5101 22.9843 97.9675 23.1257 98.4344C23.2546 98.8571 23.4432 99.2325 23.6035 99.5794C23.8423 100.094 24.4772 101.308 25.5143 103.229C25.706 103.586 26.0329 104.567 25.4986 104.759C25.2723 104.841 24.9894 104.948 24.6437 105.081C24.584 105.103 24.518 105.112 24.452 105.106C23.528 105.002 22.8366 104.885 22.3746 104.753C20.9823 104.349 19.6309 103.879 18.3298 103.352C17.5001 103.015 16.8778 102.601 16.0418 102.119C15.781 101.967 15.4258 101.68 14.9796 101.261C14.8004 101.09 14.593 101.046 14.3573 101.122C14.2253 100.803 14.0618 100.497 13.867 100.204C13.6219 99.835 13.4741 99.5984 13.4301 99.4974C13.273 99.1473 13.031 98.8413 12.9273 98.5101C12.7136 97.8287 12.5439 97.3398 12.6664 96.6742C12.6821 96.5985 12.6821 96.5197 12.6727 96.4408C12.3459 94.0214 12.5973 91.501 13.7664 89.2961C13.8167 89.1983 13.9204 88.8797 14.0713 88.3403C14.1624 88.0091 14.2693 87.6936 14.3918 87.394C14.8161 86.3372 15.1335 85.4162 15.3441 84.6275C15.4195 84.3405 15.4635 83.9304 15.4698 83.4036C15.4698 83.3753 15.473 82.5109 15.4793 80.8044C15.4793 80.5584 15.5013 80.2871 15.5453 79.9874C15.671 79.101 15.561 78.2052 15.6175 77.2778C15.7401 77.568 15.8627 77.8393 15.9915 78.0885C16.1613 78.4197 16.2838 78.6878 16.3655 78.8991C16.6641 79.6751 16.8935 80.407 16.9564 81.1892C17.0004 81.7539 17.0412 82.6213 17.343 83.0314C17.541 83.3027 18.1444 83.9304 18.5561 83.7853C18.7792 83.7065 18.9207 83.8484 19.1344 83.7601L19.1312 83.7506Z" fill="#D4A06A"/>
<path d="M38.3621 78.7257C37.3124 79.0159 36.621 78.7256 36.2941 77.8613C36.357 77.7667 36.4198 77.7131 36.4827 77.7037C36.5455 77.6942 36.6053 77.7478 36.6555 77.8645C36.8033 78.1926 37.0893 78.3755 37.5104 78.4197C38.0855 78.4765 38.5192 78.2841 38.8178 77.8424C38.8869 77.7383 39.0535 77.792 39.0441 77.9213C39.0378 78.0159 38.9875 78.1137 38.8964 78.2084C38.6921 78.4197 38.5129 78.5932 38.359 78.7288L38.3621 78.7257Z" fill="black"/>
<path d="M25.6557 80.735C25.0711 81.123 24.5337 81.2208 24.0434 81.0252C23.9743 80.9968 23.8988 81.0568 23.9083 81.1325L24.0088 81.8643C24.0246 81.9715 24.0214 82.082 23.9994 82.1892C23.9428 82.4731 23.9051 82.6434 23.8831 82.6971C23.6946 83.1892 23.4431 83.6402 23.1226 84.0472C23.0346 83.8043 23.066 83.5172 23.2137 83.186C23.4085 82.7475 23.5594 82.4163 23.5625 81.9715C23.5688 81.3564 23.4745 80.7792 23.2828 80.2429C23.2545 80.1704 23.2577 80.1104 23.2859 80.0694C23.3457 79.9843 23.4714 79.9843 23.5311 80.0694C23.8925 80.5741 24.3294 80.9117 24.9956 80.5931C25.1591 80.5142 25.3194 80.4606 25.4765 80.429C25.4922 80.4259 25.5111 80.429 25.5299 80.4353C25.5991 80.47 25.6431 80.571 25.6588 80.7382L25.6557 80.735Z" fill="#331011"/>
<path d="M43.6169 84.1733C43.3497 84.5487 43.1361 84.4919 42.7495 84.2932C42.1524 83.9872 42.1744 83.3784 42.3472 82.798C42.3598 82.7538 42.3127 82.7191 42.2749 82.7444C41.8192 83.063 41.2975 83.2049 40.7067 83.1702C40.1755 83.1387 40.009 82.5299 40.0121 82.0851C40.0121 82.0315 39.9555 81.9999 39.9084 82.0283C39.5753 82.2396 39.239 82.4289 38.8996 82.5898C38.4721 82.798 38.2081 82.6781 37.8499 82.3911C37.5104 82.1198 37.4067 81.7476 37.5356 81.2744C37.6456 81.3753 37.7399 81.5141 37.8153 81.6908C37.9221 81.94 38.0007 82.0851 38.0447 82.1229C38.403 82.4195 38.6733 82.3059 39.0536 82.0693C39.3238 81.899 39.6287 81.7381 39.965 81.5772C40.0875 81.5204 40.1881 81.429 40.2604 81.3154C40.4584 81.0094 40.6218 80.7729 40.7475 80.6088C40.8198 80.5142 40.9612 80.5079 41.0461 80.5962C41.0712 80.6214 41.0744 80.6656 41.0524 80.7287C40.7978 81.5141 39.9398 81.6309 40.449 82.6623C40.5118 82.7917 40.6438 82.8705 40.7852 82.8737C41.3855 82.8737 41.8192 82.574 42.6521 82.0946C42.6804 82.0788 42.7055 82.0567 42.7275 82.0315L43.0449 81.6687C43.1015 81.6056 43.1958 81.5898 43.2681 81.634C43.3718 81.7002 43.3655 81.817 43.2461 81.9873C42.9192 82.4605 42.7149 82.8768 42.6332 83.2333C42.5201 83.7285 42.8469 84.0408 43.6138 84.167L43.6169 84.1733Z" fill="black"/>
<path d="M21.7743 83.9557L21.4223 83.7096C21.3878 83.6844 21.3438 83.6938 21.3218 83.7317C21.0263 84.2459 20.5549 84.4288 19.9138 84.2837C19.6058 84.2143 19.3669 84.0787 19.1972 83.88C19.1846 83.8263 19.1626 83.7822 19.1281 83.7538L18.9835 83.4352C18.9615 83.3879 18.9143 83.3627 18.8609 83.369C18.7446 83.3879 18.6598 83.4668 18.6032 83.6119C18.5875 83.6497 18.5435 83.6623 18.5121 83.6371L18.4586 83.5992C18.4586 83.5992 18.4398 83.5677 18.4461 83.5488C18.6095 83.0914 18.6661 82.6876 18.6189 82.3406C18.5592 81.9053 18.5278 81.6277 18.5215 81.5047C18.5152 81.4038 18.6221 81.3312 18.7132 81.3754L18.7321 81.3848C18.8546 81.4448 18.9363 81.5583 18.9552 81.694C19.0243 82.2649 19.2129 83.7443 19.9923 83.8737C20.2438 83.9147 20.47 83.8989 20.6649 83.8232C20.8189 83.7633 20.9195 83.5961 20.9132 83.4005C20.9006 82.8485 20.7435 82.246 20.4418 81.5962C20.3883 81.4858 20.4858 81.3659 20.6052 81.388C20.9509 81.4574 21.1175 82.2492 21.3092 82.8453C21.3375 82.9368 21.3877 83.0251 21.4506 83.0977C21.6769 83.3627 21.7868 83.6497 21.7743 83.9557Z" fill="#331011"/>
<path d="M80.8687 102.784C80.6487 102.787 80.4822 102.724 80.3627 102.589C80.3439 102.567 80.2527 102.403 80.0956 102.1C79.8002 101.538 79.4985 100.98 79.1873 100.428C79.1465 100.355 78.8919 99.8381 78.4268 98.8792C78.1785 98.3682 77.9051 97.8634 77.6065 97.3651C77.9553 97.2105 78.3199 97.0654 78.6939 96.9235C79.0742 96.7815 79.7059 96.2326 80.193 95.9519C80.4947 95.7784 80.7305 95.6018 81.007 95.485C81.4596 95.2926 81.8304 95.075 82.1227 94.8352C82.855 94.2327 83.2573 94.0592 84.2158 93.4978C85.0707 92.9962 86.2272 92.9521 87.1009 93.4126C88.0438 93.911 88.3172 95.0213 87.7892 95.9487C87.4781 96.4945 87.1544 96.9613 86.8149 97.343C86.7741 97.3903 86.7395 97.4376 86.7081 97.4912C86.4975 97.8414 86.2838 98.1379 86.0607 98.3808C85.3975 99.0905 84.9953 99.652 84.2724 100.251C83.1536 101.182 82.4841 101.715 82.2704 101.847C81.7833 102.147 81.3119 102.459 80.8687 102.784Z" fill="black"/>
<path d="M22.7171 95.1128C22.8303 95.1728 22.9057 95.239 22.9466 95.3147C23.2828 95.9267 23.6317 96.4314 23.9963 96.8288C24.1534 97.1064 24.32 97.3272 24.4928 97.4944C24.5148 97.5164 24.5337 97.5417 24.5494 97.5669L24.9643 98.3145C24.9768 98.3397 24.9957 98.3618 25.0145 98.3839L26.5294 100.04C26.5514 100.062 26.5734 100.084 26.6017 100.1C27.0322 100.381 27.3591 100.611 27.6482 100.942C27.9437 101.283 28.1417 101.519 28.5251 101.8C28.9651 102.122 29.3359 102.485 29.6376 102.885C29.8168 103.122 30.3919 103.44 30.7345 103.715C31.5359 104.355 32.4128 104.989 33.3745 105.617C33.4373 105.658 33.4625 105.74 33.4279 105.806C33.3933 105.872 33.321 105.91 33.2487 105.888L32.6736 105.721C32.3593 105.421 31.8282 105.037 31.0896 104.57C30.5805 104.248 29.9739 103.75 29.2699 103.078C28.1668 102.021 27.004 100.942 26.2685 100.267C25.7531 99.7939 25.1968 99.1441 24.8794 98.8097C24.8197 98.7467 24.7694 98.6741 24.7254 98.5952C24.4237 98.0369 24.078 97.5511 23.682 97.1411C23.5846 97.0401 23.5029 96.9297 23.4337 96.8098L22.5883 95.321C22.5789 95.1664 22.6229 95.0938 22.7109 95.1128L22.7171 95.1128Z" fill="#6A4243"/>
<path d="M32.6767 105.724L32.3971 106.087C31.6679 106.519 31.0582 107.049 31.0174 107.945C30.9577 109.197 30.9577 110.213 31.0205 110.986C31.0834 111.749 30.7942 112.241 30.1531 112.459C29.0877 112.822 27.8746 112.557 26.8374 112.746C26.3566 112.834 25.8506 112.891 25.3194 112.923C24.4709 112.97 23.5626 113.052 22.5883 113.166C21.702 113.27 21.1332 113.266 20.1306 113.326C19.8101 113.345 19.3041 113.358 18.6158 113.355C18.1978 113.355 17.6981 113.304 17.1167 113.207C16.2273 113.058 15.3347 112.916 14.4358 112.784L14.6433 112.61C14.6778 112.582 14.6936 112.541 14.6841 112.497C14.5867 111.938 14.5993 111.386 14.7218 110.831C14.8853 110.103 15.2436 109.639 15.7967 109.443C15.4636 109.967 15.275 110.503 15.231 111.052C15.1964 111.497 15.1933 111.992 15.2216 112.531C15.2247 112.61 15.2781 112.677 15.3567 112.702L15.5107 112.746C15.5704 112.765 15.6238 112.711 15.6113 112.651C15.4415 111.92 15.4761 111.194 15.7118 110.472C15.9161 109.841 16.3027 109.525 16.903 108.894C17.0255 108.765 17.0915 108.62 17.0978 108.459C17.1041 108.327 16.9564 108.248 16.8495 108.323L16.4441 108.617L15.8973 108.844C15.8627 108.86 15.8281 108.879 15.7998 108.901C15.1021 109.446 14.4201 110.292 14.3447 111.226C14.3133 111.607 14.3038 111.976 14.3164 112.336C14.3227 112.478 14.1781 112.579 14.0493 112.525C13.9644 112.49 13.7884 112.481 13.5244 112.494C13.0781 111.462 13.2227 110.421 13.9613 109.364C14.7344 108.257 15.4698 107.57 16.7175 107.289C17.2172 107.178 17.7452 107.125 18.3047 107.131C18.4461 107.131 18.8358 107.204 19.4706 107.352C19.9169 107.456 20.4041 107.488 20.9352 107.453C21.0232 107.447 21.0735 107.346 21.0201 107.273C20.9635 107.197 20.8881 107.128 20.7938 107.062C20.4323 106.813 19.9106 106.491 19.2349 106.1C19.2286 106.1 19.2224 106.093 19.2192 106.09L17.4907 104.756C17.4467 104.721 17.4027 104.683 17.3618 104.645L15.7213 103.065L14.3636 101.116C14.5993 101.04 14.8036 101.087 14.9858 101.254C15.4321 101.677 15.7873 101.964 16.0481 102.112C16.8841 102.595 17.5064 103.008 18.3361 103.346C19.6372 103.873 20.9855 104.343 22.3809 104.746C22.8429 104.882 23.5343 104.999 24.4583 105.1C24.5243 105.106 24.5903 105.1 24.65 105.074C24.9957 104.942 25.2786 104.835 25.5049 104.753C26.0423 104.56 25.7123 103.579 25.5206 103.223C24.4834 101.302 23.8486 100.087 23.6097 99.5732C23.4495 99.2262 23.2609 98.8508 23.132 98.4281C22.9906 97.9613 22.846 97.5039 22.6952 97.0559C22.5223 96.5323 22.4878 95.9551 22.6009 95.3147L23.4463 96.8036C23.5155 96.9266 23.6003 97.037 23.6946 97.1348C24.0906 97.5449 24.4394 98.0306 24.738 98.589C24.7789 98.6678 24.8292 98.7404 24.892 98.8035C25.2063 99.1379 25.7626 99.7877 26.2811 100.261C27.0134 100.936 28.1794 102.015 29.2825 103.071C29.9865 103.743 30.5931 104.242 31.1022 104.563C31.8408 105.03 32.3719 105.412 32.6862 105.715M30.0336 106.169C29.8733 105.683 29.5747 104.841 29.1442 104.626C29.1096 104.611 29.0845 104.604 29.0687 104.611C29.009 104.636 28.9933 104.715 29.0373 104.772C29.3359 105.169 29.5339 105.626 29.6376 106.147C29.6565 106.248 29.7476 106.32 29.8513 106.317H29.9393C30.0116 106.311 30.0619 106.238 30.0399 106.169M29.9582 106.775L29.9393 106.781C29.8576 106.803 29.8042 106.882 29.8136 106.967C29.9204 107.847 29.867 108.727 29.6596 109.604C29.6376 109.696 29.7539 109.756 29.8167 109.683C29.9047 109.579 29.9613 109.472 29.9833 109.361C30.0399 109.081 30.1122 108.453 30.2002 107.475C30.2127 107.327 30.1939 107.128 30.1373 106.882C30.1184 106.803 30.0399 106.756 29.9613 106.778M28.2359 109.604C27.8274 109.159 27.3874 108.819 26.9159 108.585C26.6582 108.456 26.3094 108.216 25.9731 108.09C24.5431 107.563 23.0283 107.317 21.4286 107.355C21.3249 107.355 21.2337 107.415 21.1834 107.503L21.174 107.519C21.1332 107.589 21.1834 107.677 21.262 107.68C22.186 107.718 23.0597 107.787 23.8831 107.888C24.7285 107.992 25.4545 108.213 26.058 108.547C26.6048 108.85 27.2742 109.26 28.0631 109.781C28.1134 109.812 28.1668 109.803 28.2202 109.756C28.2768 109.702 28.2831 109.651 28.2359 109.601M17.8961 112.841L16.8809 112.913C16.8809 112.913 16.8621 112.919 16.8589 112.929L16.8118 113.024C16.7961 113.052 16.8181 113.087 16.8495 113.087L17.9903 113.112C18.1412 113.181 18.2921 113.191 18.4398 113.134C18.5152 113.106 18.5121 112.995 18.4367 112.97C17.9747 112.822 17.9149 111.752 17.9904 111.374C18.0029 111.311 18.0249 111.251 18.0595 111.2C18.2984 110.812 18.5152 110.421 18.7101 110.033C18.8452 109.765 19.0967 109.598 19.2349 109.396C19.2789 109.333 19.2349 109.248 19.1564 109.251L19.0055 109.257C18.9049 109.26 18.8138 109.308 18.7509 109.383C18.2481 109.992 17.893 110.525 17.6824 110.986C17.4058 111.595 17.475 112.213 17.8929 112.841L17.8961 112.841Z" fill="#D78A44"/>
<path d="M77.6065 97.3651C77.9051 97.8634 78.1785 98.3682 78.4268 98.8792C78.8919 99.8381 79.1465 100.355 79.1873 100.428C79.4985 100.98 79.8002 101.538 80.0956 102.1C80.2527 102.403 80.3407 102.567 80.3627 102.589C80.479 102.724 80.6487 102.787 80.8687 102.784C80.655 103.134 80.3879 103.384 80.0642 103.535C79.8096 103.617 79.5896 103.756 79.4042 103.951C79.1465 104.09 78.8825 104.216 78.6091 104.333C78.3136 104.459 77.9931 104.614 77.6442 104.797C76.8271 105.229 76.2582 105.63 75.5228 105.86C74.6554 106.131 73.9608 106.32 73.4328 106.434C73.4077 106.44 73.4045 106.459 73.4265 106.491L73.26 106.491L73.0683 106.283C73.0306 106.242 73.0023 106.188 72.9929 106.131C72.7949 105.04 72.5089 103.986 72.138 102.974C72.094 102.851 72.0626 102.721 72.0437 102.589C71.962 101.97 71.83 101.349 71.6446 100.721C71.4623 100.103 71.2737 99.5069 71.0852 98.9296C72.3706 98.794 73.348 98.6331 74.0206 98.4439C74.9854 98.1726 75.6737 98.0054 76.076 97.9423C76.3902 97.8918 76.8994 97.6994 77.6097 97.3651H77.6065Z" fill="#331011"/>
<path d="M41.9952 97.5669C42.0172 97.5038 42.0958 97.4849 42.1429 97.5291L42.1618 97.5449C42.2215 97.5985 42.2404 97.6868 42.2058 97.7594C41.7846 98.6647 41.5426 99.816 41.2849 100.529C40.9361 101.488 40.7569 102.358 40.4238 103.639C40.2949 104.134 40.2038 104.904 40.1535 105.948C40.1504 106.049 40.0529 106.119 39.9555 106.093L39.9335 106.087C39.8235 106.055 39.7512 105.948 39.7638 105.835C39.8675 104.857 39.9555 104.245 40.0184 103.999C40.1912 103.34 40.3201 102.743 40.4144 102.213C40.5872 101.217 41.0838 100.239 41.3792 99.2325C41.5364 98.6962 41.7878 98.1663 41.9984 97.5701L41.9952 97.5669Z" fill="black"/>
<path d="M65.3024 98.9138C65.4658 99.1378 65.5098 99.4028 65.4406 99.7088C65.1735 100.848 64.9001 101.986 64.6235 103.122C64.2558 104.626 63.6901 106.317 63.2689 107.935C63.0364 107.92 62.807 107.913 62.5775 107.91C60.695 107.898 59.0261 107.879 57.5679 107.86C56.4365 107.844 55.5942 107.771 55.0442 107.652C54.029 107.424 53.0611 107.27 52.0711 106.935C52.0491 106.872 52.0365 106.816 52.0428 106.765C52.0459 106.715 52.0742 106.671 52.1182 106.645C53.1113 106.052 54.0951 105.361 55.0725 104.567C55.2265 104.444 55.371 104.302 55.5093 104.141C56.6784 102.797 57.681 101.308 58.517 99.6677C58.781 99.1504 58.9758 98.4281 59.265 97.895C59.3404 97.7562 59.5384 97.6741 59.8558 97.6521C60.8867 98.0748 61.6818 98.3271 62.2381 98.406C63.2847 98.5542 64.3029 98.7246 65.2961 98.9138L65.3024 98.9138Z" fill="#A26D3F"/>
<path d="M71.0852 98.9296C71.2769 99.5069 71.4623 100.103 71.6446 100.721C71.83 101.346 71.9652 101.967 72.0437 102.589C72.0626 102.721 72.094 102.851 72.138 102.974C72.5089 103.986 72.7949 105.04 72.9929 106.131C73.0023 106.188 73.0274 106.242 73.0683 106.283L73.26 106.488C72.0469 106.828 70.642 107.046 69.5986 107.289C68.8349 107.469 68.1183 107.626 67.4458 107.762C67.2038 107.812 66.7669 107.841 66.1258 107.847C66.0535 107.847 65.6135 107.872 64.8026 107.923C64.2935 107.954 63.7812 107.958 63.2689 107.935C63.6869 106.317 64.2527 104.623 64.6235 103.122C64.9032 101.986 65.1735 100.848 65.4406 99.7088C65.5098 99.4028 65.4658 99.1378 65.3024 98.9138C65.8146 98.9549 66.3301 99.0527 66.8141 99.0558C68.2409 99.0684 69.6646 99.0243 71.0821 98.9296L71.0852 98.9296Z" fill="#D4A06A"/>
<path d="M80.0642 103.535L79.4042 103.951C79.5896 103.756 79.8096 103.617 80.0642 103.535Z" fill="#6A4243"/>
<path d="M79.4042 103.951C79.1936 104.134 79.0553 104.242 78.9862 104.27C77.9962 104.699 77.0376 105.191 76.1105 105.749C76.0571 105.784 75.9974 105.809 75.9377 105.825L73.4265 106.491C73.4045 106.459 73.4077 106.44 73.4328 106.434C73.9608 106.324 74.6585 106.131 75.5228 105.86C76.2582 105.63 76.8271 105.229 77.6442 104.797C77.9931 104.614 78.3136 104.459 78.6091 104.333C78.8825 104.216 79.1465 104.09 79.4042 103.951Z" fill="#6A4243"/>
<path d="M30.0336 106.169C30.0556 106.238 30.0054 106.311 29.9331 106.311H29.8451C29.7414 106.32 29.6534 106.248 29.6314 106.147C29.5276 105.626 29.3297 105.169 29.0311 104.772C28.9871 104.715 29.0028 104.636 29.0625 104.611C29.0782 104.604 29.1034 104.611 29.1379 104.626C29.5716 104.841 29.8671 105.686 30.0274 106.169H30.0336Z" fill="#F2CEA4"/>
<path d="M30.1342 106.882C30.1907 107.128 30.2096 107.327 30.197 107.475C30.109 108.453 30.0367 109.084 29.9802 109.361C29.9582 109.469 29.9016 109.576 29.8136 109.683C29.7539 109.756 29.6376 109.699 29.6565 109.604C29.867 108.727 29.9173 107.847 29.8105 106.967C29.801 106.882 29.8545 106.803 29.9362 106.781L29.955 106.775C30.0336 106.753 30.1122 106.8 30.131 106.879L30.1342 106.882Z" fill="#F2CEA4"/>
<path d="M28.2359 109.604C28.2799 109.651 28.2736 109.705 28.2202 109.759C28.1668 109.809 28.1165 109.816 28.0631 109.784C27.2742 109.264 26.6048 108.853 26.0579 108.551C25.4545 108.216 24.7285 107.995 23.8831 107.891C23.0597 107.787 22.186 107.718 21.262 107.683C21.1803 107.683 21.1331 107.592 21.174 107.522L21.1834 107.507C21.2337 107.418 21.328 107.361 21.4286 107.358C23.0283 107.32 24.5431 107.563 25.9731 108.093C26.3125 108.219 26.6614 108.459 26.9159 108.588C27.3873 108.825 27.8242 109.166 28.2359 109.607L28.2359 109.604Z" fill="black"/>
<path d="M50.5594 107.648C50.4431 107.775 50.374 107.894 50.3583 108.005L50.0974 108.093C50.0377 108.112 49.9874 108.046 50.0251 107.995C50.1823 107.781 50.3583 107.664 50.5563 107.648H50.5594Z" fill="#F2CEA4"/>
<path d="M43.3435 109.535C43.2963 109.563 43.2398 109.528 43.2366 109.475V109.427C43.2366 109.38 43.2555 109.333 43.2932 109.304C44.6163 108.308 46.0494 107.831 47.7214 107.879C48.5574 107.904 49.1986 107.961 49.6385 108.049C49.7077 108.062 49.7611 108.084 49.8083 108.112C49.912 108.175 49.8711 108.336 49.7485 108.339L49.4405 108.352C49.406 108.352 49.3714 108.352 49.3368 108.339C47.6994 107.91 46.106 108.084 44.5629 108.857C44.2549 109.011 43.8495 109.235 43.3403 109.532L43.3435 109.535Z" fill="black"/>
<path d="M15.7998 109.446L16.4441 108.62L16.8495 108.327C16.9564 108.251 17.1041 108.327 17.0978 108.462C17.0915 108.623 17.0255 108.768 16.903 108.898C16.2995 109.528 15.9161 109.841 15.7118 110.475C15.4761 111.197 15.4447 111.926 15.6113 112.654C15.627 112.714 15.5704 112.768 15.5107 112.749L15.3567 112.705C15.2813 112.683 15.2278 112.617 15.2215 112.535C15.1933 111.995 15.1964 111.503 15.231 111.055C15.275 110.506 15.4635 109.97 15.7967 109.446H15.7998Z" fill="#331011"/>
<path d="M16.4441 108.62L15.7998 109.446C15.2435 109.642 14.8884 110.106 14.725 110.834C14.6024 111.39 14.5898 111.942 14.6873 112.5C14.6935 112.544 14.6778 112.588 14.6464 112.613L14.439 112.787L13.5213 112.5C13.7884 112.484 13.9644 112.497 14.0461 112.531C14.1781 112.585 14.3195 112.484 14.3133 112.342C14.3007 111.986 14.3133 111.614 14.3415 111.232C14.417 110.298 15.099 109.453 15.7967 108.907C15.8281 108.882 15.8595 108.863 15.8941 108.85L16.441 108.623L16.4441 108.62Z" fill="#A26D3F"/>
<path d="M17.9935 113.112L17.8961 112.841C17.4781 112.213 17.4089 111.595 17.6855 110.986C17.8929 110.528 18.2512 109.992 18.7541 109.383C18.8169 109.308 18.9112 109.26 19.0086 109.257L19.1595 109.251C19.2349 109.251 19.2821 109.333 19.2381 109.396C19.0998 109.598 18.8484 109.765 18.7132 110.033C18.5184 110.421 18.2984 110.812 18.0626 111.2C18.0281 111.254 18.0061 111.314 17.9935 111.374C17.9181 111.752 17.9778 112.822 18.4398 112.97C18.5184 112.995 18.5215 113.106 18.4429 113.134C18.2952 113.191 18.1444 113.184 17.9935 113.112Z" fill="black"/>
<path d="M51.9925 109.831C52.0837 110.049 52.1906 110.2 52.31 110.282C52.8568 110.976 53.1428 111.778 53.168 112.68C53.168 112.746 53.168 112.809 53.1523 112.872C53.0266 113.475 52.8066 113.954 52.4891 114.304C52.4514 114.304 52.4137 114.298 52.3759 114.295C52.2502 114.301 52.1402 114.279 52.0428 114.225C52.0114 114.21 52.0114 114.165 52.0428 114.146C52.2502 114.036 52.3697 113.948 52.4042 113.888C52.6557 113.43 52.7939 113.074 52.8128 112.818C52.8914 111.803 52.5362 110.926 51.7411 110.185C51.6248 110.077 51.65 109.885 51.7914 109.809C51.8134 109.8 51.8794 109.806 51.9957 109.828L51.9925 109.831Z" fill="black"/>
<path d="M52.31 110.282C52.1874 110.2 52.0837 110.049 51.9925 109.831C52.2848 109.819 52.5488 109.932 52.7939 110.166C53.2402 110.601 53.6268 111.024 53.9505 111.431C54.4942 112.112 54.2176 113.276 53.7714 113.948C53.7462 113.986 53.7085 114.011 53.6676 114.024L53.4791 114.074C53.4194 114.09 53.3722 114.023 53.4005 113.97C53.7556 113.333 53.9411 112.831 53.9568 112.468C53.9725 112.121 53.8122 111.752 53.4822 111.358C53.4728 111.345 53.2056 111.046 52.6871 110.456C52.5834 110.339 52.4985 110.254 52.4325 110.207C52.2597 110.074 52.2188 110.103 52.3131 110.286L52.31 110.282Z" fill="#331011"/>
<path d="M49.6385 110.55C50.2891 111.112 50.6725 111.781 50.7888 112.554C50.88 113.172 50.5343 113.528 50.308 113.998C50.2545 114.112 50.1163 114.159 50.0063 114.102L49.9623 114.08C49.8963 114.046 49.8711 113.964 49.9025 113.897L50.3111 113.087C50.3897 112.929 50.4148 112.749 50.3803 112.576C50.2608 111.976 49.9905 111.383 49.5663 110.797C49.5317 110.749 49.5097 110.658 49.5128 110.607C49.5128 110.541 49.5883 110.509 49.6385 110.55Z" fill="black"/>
<path d="M47.162 114.023C47.4543 113.721 47.6586 113.323 47.7749 112.834C47.7874 112.781 47.7843 112.721 47.7654 112.667C47.5549 112.039 47.1966 111.462 46.6969 110.942C46.6497 110.894 46.6466 110.819 46.6906 110.768C46.7314 110.714 46.8069 110.705 46.8634 110.74C47.4511 111.118 48.3091 112.219 48.1269 113.008C48.0357 113.405 47.8848 113.749 47.6774 114.036C47.6146 114.124 47.514 114.178 47.404 114.181L47.2374 114.188C47.1494 114.188 47.1023 114.087 47.1651 114.023H47.162Z" fill="black"/>
<path d="M17.9935 113.112L16.8526 113.087C16.8181 113.087 16.7992 113.052 16.8149 113.024L16.8621 112.929C16.8621 112.929 16.8746 112.916 16.8841 112.913L17.8992 112.841L17.9966 113.112H17.9935Z" fill="#6A4243"/>
</g>
<defs>
<clipPath id="clip0_1119_6580">
<rect width="88.055" height="114.472" fill="white"/>
</clipPath>
</defs>
</svg>
