<svg width="87" height="113" viewBox="0 0 87 113" fill="none" xmlns="http://www.w3.org/2000/svg">
<g clip-path="url(#clip0_1119_6583)">
<path d="M13.8097 28.5754L14.0228 28.3537C14.4916 28.3111 14.645 27.9019 15.1224 27.6974C16.401 27.1348 17.6882 27.1774 19.0777 27.2541C19.1459 27.2626 19.2311 27.237 19.2908 27.2541C19.3334 27.3564 19.4101 27.4416 19.5124 27.4757C19.5806 27.4928 19.6659 27.4587 19.734 27.4757C22.4789 36.4944 34.1486 37.2446 40.593 31.5418C40.772 31.3799 41.309 30.9366 40.8061 30.7661C40.9169 30.7064 40.9169 30.5274 41.2409 30.5445C41.5477 30.57 41.9313 30.7832 42.5621 30.7661C41.4369 35.1646 47.0118 37.8583 50.6517 36.5456C51.1376 36.3666 51.1972 36.1108 51.3421 36.0341C52.2883 35.5141 52.8765 35.1646 53.5329 34.2781C54.624 32.8119 54.4365 32.0874 54.1978 30.3314C55.0076 30.1524 55.0246 30.9025 55.5276 31.3031C59.3379 34.3634 63.7365 34.8152 68.2885 33.3404C72.8319 31.8657 74.5709 28.8481 76.2587 24.6201C76.8213 24.4922 77.077 25.6004 77.3072 25.8817C77.3839 25.984 77.6652 25.9158 77.6822 25.9414C77.8698 26.1886 78.7392 27.9275 78.7819 28.1321C79.3786 31.0815 78.4665 34.8407 76.9832 37.4236C74.3748 41.9415 69.7717 44.6266 65.322 47.0475C64.6827 47.397 62.3044 48.3262 62.1339 48.7012C62.0657 48.8461 62.0998 49.0422 62.0998 49.2042C61.7929 48.974 61.648 48.7865 61.2133 48.8461C60.5569 48.9484 58.8094 49.7668 57.9826 50.0395C57.6927 50.1333 57.5223 50.5084 57.4882 50.5254C52.1349 52.4775 42.1785 52.4178 36.6377 51.1818C34.0975 50.6192 30.756 49.5792 28.2925 48.5478C21.4389 45.6751 13.6562 39.8104 13.588 31.6441L13.8097 28.5754Z" fill="#ECCFAA"/>
<path d="M36.4161 35.8125C36.7145 36.2899 37.3623 36.1108 37.7118 36.6053C38.2574 37.3724 38.8455 39.3757 39.2973 40.2878C41.2835 44.3027 44.2244 48.1471 49.2537 47.6698C50.1146 47.5845 51.6235 47.0646 52.2202 46.4508C52.4503 46.2121 52.7742 45.5899 52.8765 45.4705C54.9564 43.2201 55.5872 40.5946 56.8318 37.7901C56.9852 37.4492 57.8462 35.48 57.957 35.4118C58.2042 35.2669 58.7157 35.4204 59.0225 35.3778C59.0481 34.9089 59.0993 34.4486 58.5878 34.2781C58.5281 34.2611 58.4429 34.2866 58.3662 34.2781C58.2042 33.7667 57.7183 33.8263 57.2665 33.8434C57.1216 33.8434 56.9767 33.8349 56.8318 33.8434C56.917 34.7981 57.1983 35.3437 56.8062 36.2984C56.5334 36.9718 53.7119 38.1396 52.9277 38.3868C50.3192 39.2052 47.6426 39.6143 44.9234 39.0517C43.8834 38.8386 39.1183 37.0656 38.7177 36.2558C38.1295 35.0709 40.0219 34.3548 38.8285 34.2781C38.0869 34.2355 36.1604 34.8833 36.4161 35.8125Z" fill="#ECCFAA"/>
<path d="M4.48409 12.9929C5.30241 10.6658 7.69775 7.94656 10.1186 7.21347C13.7415 6.11384 16.8614 7.90394 19.5721 10.1373C19.7085 10.2481 19.7511 10.393 19.734 10.572H20.058C22.9562 5.58533 28.5737 2.20971 34.0037 0.58157C40.3629 -1.31935 48.3842 -1.37902 54.8627 -0.0748013C60.574 1.06745 66.3279 3.6077 69.891 8.37278C73.1217 4.61356 77.793 2.55068 82.1745 5.96893C88.8661 11.1943 87.0249 25.1656 78.7819 28.1321C78.7392 27.9275 77.8698 26.1886 77.6822 25.9414C77.6567 25.805 77.7248 25.6004 77.6822 25.4981C78.9268 25.3106 79.89 24.5945 80.7595 23.7421C84.2545 20.3068 85.6439 12.4815 80.9726 9.47241C80.8703 9.40422 80.7936 9.12292 80.4867 8.98653C77.4521 7.67379 74.5794 10.4783 73.7355 13.2061C72.6188 12.9844 71.5788 12.49 70.7605 12.3366C69.7717 12.1661 68.3396 12.2343 67.2996 12.1149C65.9443 10.1799 63.2165 8.15967 60.7785 9.3616C60.0284 9.72814 60.2159 10.018 59.9005 10.3504C59.7301 10.538 58.4344 10.8619 59.355 11.6632C61.4775 10.393 65.0492 10.3078 66.9246 12.1064C63.4552 11.9359 60.0199 12.294 56.6613 13.1464C54.3512 13.726 51.1887 15.3883 49.0406 15.6184C44.4545 16.1214 38.9649 13.4788 34.1231 13.1975C28.0367 12.8395 22.4448 14.3568 16.5715 15.5843C16.1794 15.4906 14.969 12.3622 14.0228 12.3281C13.9546 12.2428 13.8779 12.1831 13.8097 12.1064C13.6562 11.9615 13.5369 11.9615 13.4261 11.9189C13.409 11.9104 13.3834 11.9018 13.3664 11.8933C12.5054 11.3733 11.5422 10.9471 10.5108 11.0153C10.3744 11.0238 10.3232 11.1773 10.3062 11.2199H10.2977C10.2209 11.2455 10.1357 11.2114 10.076 11.2284C8.82294 11.5523 9.01048 11.5097 8.09838 12.3281C7.91937 12.49 7.82561 12.5667 7.66364 12.7713C4.92735 16.0787 5.66044 20.9887 7.62103 24.5519C8.15806 25.5237 8.48197 25.4299 8.97639 25.9414C9.0531 26.0096 9.1213 26.0863 9.19802 26.1545L9.30883 26.2653C9.30883 26.2653 9.37703 26.342 9.41113 26.3761C9.59866 26.5892 9.7521 26.7853 10.076 27.0325C10.1527 27.1007 10.2124 27.1944 10.2977 27.2541C11.3888 28.081 12.3435 28.6521 13.8097 28.5754L13.588 31.6441C5.58372 29.8711 1.93532 20.2897 4.48409 12.9929ZM28.1816 12.7628C30.5173 10.8789 33.2536 11.2114 35.9728 11.8848C36.0751 11.3222 35.5637 11.092 35.3165 10.7937C35.2568 10.717 35.1716 10.6402 35.0948 10.572C35.0096 10.4868 34.9584 10.2481 34.7794 10.1288C33.39 9.23373 31.2504 9.71109 29.9547 10.5976C29.6222 10.8278 29.6393 11.2028 29.6137 11.2284C29.2898 11.4927 27.9088 11.97 28.1816 12.7628Z" fill="#CCA272"/>
<path d="M41.2409 30.5445C41.5477 30.57 41.9313 30.7832 42.5621 30.7661H42.9969C43.3208 29.9989 44.8466 28.9419 45.6394 28.6862C47.4465 28.0895 51.6746 28.3452 53.0982 29.6665C53.0641 29.4278 53.2601 29.4875 53.3198 29.4534C53.4221 29.3852 53.6693 29.4278 53.7545 29.2317C53.1493 28.4816 51.9303 26.163 51.5212 25.2083C50.9926 23.9808 50.575 21.6281 49.9101 20.6819C48.9894 19.3776 46.3043 19.4544 45.3496 20.733C44.5568 24.2962 43.2611 27.5183 41.2409 30.5445Z" fill="#CCA272"/>
<path d="M15.1224 27.6974C16.401 27.1348 17.6882 27.1774 19.0777 27.2541C19.359 26.879 19.2823 26.5722 19.2055 26.1545C18.9839 25.0122 18.677 23.4352 18.3872 22.3441C18.3275 22.0884 17.7735 20.6733 17.6456 20.6733C16.546 22.0202 16.2902 23.7932 15.7191 25.3873C15.6765 25.5066 15.4208 25.4896 15.3099 25.805C15.1139 26.3761 14.7473 27.1518 15.1224 27.6974Z" fill="#CCA272"/>
<path d="M59.355 11.6632C61.4775 10.393 65.0492 10.3078 66.9246 12.1064H67.2996C65.9443 10.1799 63.2165 8.15967 60.7785 9.3616C60.0284 9.72814 60.2159 10.018 59.9005 10.3504C59.7301 10.538 58.4344 10.8619 59.355 11.6632Z" fill="#2F1212"/>
<path d="M16.2306 15.5502C16.2902 15.9594 15.9919 16.4112 16.0004 16.8289C16.0345 17.9626 16.5374 19.1901 17.3217 20.0084C17.3558 20.0511 17.8076 20.1278 18.0974 20.4347C19.2055 21.5769 19.2993 25.6601 19.9557 27.4757C21.4815 31.7635 24.448 33.8178 28.8721 34.4742C32.2818 34.9771 35.9387 34.4145 38.8711 32.5136C39.5275 32.0959 40.2179 31.0986 40.8061 30.7661C40.9169 30.7064 40.9169 30.5274 41.2409 30.5445C43.2611 27.5183 44.5568 24.2962 45.3496 20.733C46.3043 19.4544 48.9894 19.3776 49.9101 20.6819C50.575 21.6281 50.9926 23.9808 51.5212 25.2083C51.9303 26.163 53.1493 28.4816 53.7545 29.2317C58.298 34.8151 69.712 35.3607 73.6502 29.155C74.1702 28.3282 75.7216 24.3729 75.9262 23.5205C76.1905 22.4038 76.02 20.6904 76.4718 19.5652C76.8042 18.7383 77.8868 18.4144 78.4324 17.3574C78.833 16.5732 79.3786 14.9706 78.6881 14.2886C77.9721 13.5896 74.9118 13.4447 73.7355 13.2061C72.6188 12.9844 71.5788 12.49 70.7605 12.3366C69.7717 12.1661 68.3396 12.2343 67.2996 12.1149H66.9246C63.4552 11.9359 60.0199 12.294 56.6613 13.1464C54.3512 13.726 51.1887 15.3883 49.0406 15.6184C44.4545 16.1214 38.9649 13.4788 34.1231 13.1975C28.0367 12.8395 22.4448 14.3568 16.5715 15.5843C16.1794 15.4906 14.969 12.3622 14.0228 12.3281C14.3041 12.652 16.1965 15.3542 16.2306 15.5502Z" fill="black"/>
<path d="M53.5329 34.2781C54.624 32.8119 54.4365 32.0874 54.1978 30.3314C55.0076 30.1524 55.0246 30.9025 55.5276 31.3031C59.3379 34.3634 63.7365 34.8152 68.2885 33.3404C72.8319 31.8657 74.5709 28.8481 76.2587 24.6201C76.8213 24.4922 77.077 25.6004 77.3072 25.8817C77.3839 25.984 77.6652 25.9158 77.6822 25.9414C77.6567 25.805 77.7248 25.6004 77.6822 25.4981C77.3668 24.6798 76.4973 24.1342 75.9262 23.5205C75.7216 24.3729 74.1702 28.3282 73.6502 29.155C69.712 35.3607 58.298 34.8151 53.7545 29.2317C53.6693 29.4278 53.4221 29.3852 53.3198 29.4534L53.0982 29.6665C54.3768 30.8599 54.0784 32.8034 53.5329 34.2781Z" fill="#ECCFAA"/>
<path d="M19.734 27.4757C22.4789 36.4944 34.1486 37.2446 40.593 31.5418C40.772 31.3799 41.309 30.9366 40.8061 30.7661C40.2179 31.0986 39.5275 32.0959 38.8711 32.5136C35.9387 34.4145 32.2818 34.9771 28.8721 34.4742C24.448 33.8178 21.4815 31.7635 19.9557 27.4757L19.734 27.4757Z" fill="#ECCFAA"/>
<path d="M14.0228 28.3537C14.4916 28.3111 14.645 27.9019 15.1224 27.6974C14.7473 27.1518 15.1224 26.3761 15.3099 25.805C15.4208 25.4896 15.6765 25.5066 15.7191 25.3873C16.2902 23.7932 16.546 22.0202 17.6456 20.6733C17.7735 20.6733 18.3275 22.0884 18.3872 22.3441C18.677 23.4352 18.9839 25.0122 19.2055 26.1545C19.2823 26.5722 19.359 26.879 19.0777 27.2541C19.1459 27.2626 19.2311 27.237 19.2908 27.2541C19.3931 27.2797 19.4783 27.3734 19.5124 27.4757C19.5806 27.4928 19.6659 27.4587 19.734 27.4757L19.9557 27.4757C19.2993 25.6601 19.2055 21.5769 18.0974 20.4347C17.8076 20.1278 17.3558 20.0511 17.3217 20.0084C16.3243 22.6851 15.1139 25.2765 14.0228 27.9105C13.9887 28.0128 14.0483 28.2173 14.0228 28.3537Z" fill="#CCA272"/>
<path d="M38.8285 34.2781C40.0219 34.3548 38.1295 35.0709 38.7177 36.2558C39.1183 37.0656 43.8834 38.8386 44.9234 39.0517C47.6426 39.6143 50.3192 39.2052 52.9277 38.3868C53.7119 38.1396 56.5334 36.9718 56.8062 36.2984C57.1983 35.3437 56.917 34.7981 56.8318 33.8434C56.9767 33.8349 57.1216 33.8434 57.2665 33.8434C57.7183 33.8263 58.2042 33.7667 58.3662 34.2781C58.4429 34.2866 58.5281 34.2611 58.5878 34.2781C59.0993 34.4486 59.0481 34.9089 59.0225 35.3778C58.7157 35.4204 58.2042 35.2669 57.957 35.4118C57.8462 35.48 56.9852 37.4492 56.8318 37.7901C55.5872 40.5946 54.9564 43.2201 52.8765 45.4705C52.7742 45.5899 52.5526 45.8115 52.4418 45.9138C52.4162 45.9308 52.4503 46.2121 52.2202 46.4508C51.6235 47.0646 50.1146 47.5845 49.2537 47.6698C44.2244 48.1471 41.2835 44.3027 39.2973 40.2878C38.8455 39.3757 38.2574 37.3724 37.7118 36.6053C37.3623 36.1108 36.7145 36.2899 36.4161 35.8125C36.1604 34.8833 38.0869 34.2355 38.8285 34.2781ZM51.9985 43.2798C51.8366 43.0581 51.7598 43.007 51.5638 42.8365C49.5606 41.1658 45.5712 41.1317 43.4572 42.7427C42.5792 43.4076 42.6303 43.4588 43.2185 44.1578C43.389 44.3538 43.4913 44.4306 43.6618 44.5925C45.5371 46.3656 50.4727 47.38 52.1008 45.0273C52.7316 44.1322 52.4844 43.9447 51.9985 43.2798Z" fill="#2F1212"/>
<path d="M19.2908 27.2541C19.3334 27.3564 19.4101 27.4416 19.5124 27.4757C19.4783 27.3734 19.3931 27.2797 19.2908 27.2541Z" fill="#E4A867"/>
<path d="M76.4718 19.5652C76.02 20.6904 76.1905 22.4038 75.9262 23.5205C76.4973 24.1342 77.3668 24.6798 77.6822 25.4981C78.9268 25.3106 79.89 24.5945 80.7595 23.7421L81.4159 22.3697C83.9391 19.335 84.5699 13.5385 81.646 10.4698L80.9726 9.47241C80.8703 9.40422 80.7936 9.12292 80.4867 8.98653C77.4521 7.67379 74.5794 10.4783 73.7355 13.2061C74.9118 13.4447 77.9721 13.5896 78.6881 14.2886C79.3786 14.9706 78.833 16.5732 78.4324 17.3574C77.8868 18.4144 76.8042 18.7383 76.4718 19.5652Z" fill="#2F1212"/>
<path d="M80.7595 23.7421C84.2545 20.3068 85.6439 12.4815 80.9726 9.47241L81.646 10.4698C84.5699 13.5385 83.9391 19.335 81.4159 22.3697L80.7595 23.7421Z" fill="#2F1212"/>
<path d="M28.1816 12.7628C30.5173 10.8789 33.2536 11.2114 35.9728 11.8848C36.0751 11.3222 35.5637 11.092 35.3165 10.7937C35.2568 10.717 35.1716 10.6402 35.0948 10.572C35.0096 10.4868 34.9584 10.2481 34.7794 10.1288C33.39 9.23373 31.2504 9.71109 29.9547 10.5976C29.6222 10.8278 29.6393 11.2028 29.6137 11.2284C29.2898 11.4927 27.9088 11.97 28.1816 12.7628Z" fill="#2F1212"/>
<path d="M7.62103 24.5519C8.15806 25.5237 8.48197 25.4299 8.97639 25.9414C9.0531 26.0096 9.1213 26.0863 9.19802 26.1545L9.30883 26.2653C9.30883 26.2653 9.37703 26.342 9.41113 26.3761C9.59866 26.5892 9.7521 26.7853 10.076 27.0325C10.1527 27.1007 10.2124 27.1944 10.2977 27.2541C11.3888 28.081 12.3435 28.6521 13.8097 28.5754L14.0228 28.3537C14.0483 28.2173 13.9887 28.0128 14.0228 27.9105C15.1139 25.2765 16.3243 22.6851 17.3217 20.0084C16.5374 19.1901 16.0345 17.9626 16.0004 16.8289C15.9919 16.4112 16.2902 15.9594 16.2306 15.5502C16.1965 15.3542 14.3041 12.652 14.0228 12.3281C13.9546 12.2428 13.8779 12.1831 13.8097 12.1064C13.6562 11.9615 13.5369 11.9615 13.4261 11.9189C13.409 11.9104 13.3834 11.9018 13.3664 11.8933C12.5054 11.3733 11.5422 10.9471 10.5108 11.0153C10.3744 11.0238 10.3232 11.1773 10.3062 11.2199H10.2977C10.2209 11.2455 10.1357 11.2114 10.076 11.2284C8.82294 11.5523 9.01048 11.5097 8.09838 12.3281C7.91937 12.49 7.82561 12.5667 7.66364 12.7713C4.92735 16.0787 5.66044 20.9887 7.62103 24.5519Z" fill="#2F1212"/>
<path d="M43.2185 44.1578C43.389 44.3538 43.4913 44.4306 43.6618 44.5925C45.5371 46.3656 50.4727 47.38 52.1008 45.0273C52.7316 44.1322 52.4844 43.9447 51.9985 43.2798C51.8366 43.0581 51.7598 43.007 51.5638 42.8365C49.5606 41.1658 45.5712 41.1317 43.4572 42.7427C42.5792 43.4076 42.6303 43.4588 43.2185 44.1578Z" fill="#DC6159"/>
<path d="M43.2185 32.9654C43.2355 33.0336 43.2014 33.1103 43.2185 33.1785C43.3037 33.4939 43.2696 33.8263 43.4231 34.1758C44.0368 35.5482 47.5318 36.7672 49.0491 36.4774L51.3421 36.0341C52.2883 35.5141 52.8765 35.1646 53.5329 34.2781C54.0784 32.8034 54.3768 30.8599 53.0982 29.6665C51.6746 28.3452 47.4465 28.0895 45.6394 28.6862C44.8466 28.9419 43.3208 29.9989 42.9969 30.7661C42.707 31.4821 43.0821 32.309 43.2185 32.9654Z" fill="#2F1212"/>
<path d="M50.6517 36.5456C51.1376 36.3666 51.1972 36.1108 51.3421 36.0341L49.0491 36.4774C47.5318 36.7672 44.0368 35.5482 43.4231 34.1758C43.2696 33.8263 43.3037 33.4939 43.2185 33.1785C43.2014 33.1103 43.2355 33.0336 43.2185 32.9654C43.0821 32.309 42.707 31.4821 42.9969 30.7661H42.5621C41.4369 35.1646 47.0118 37.8583 50.6517 36.5456Z" fill="#ECCFAA"/>
<path d="M53.3198 29.4534L53.0982 29.6665C53.0641 29.4278 53.2601 29.4875 53.3198 29.4534Z" fill="#F0C793"/>
<path d="M24.1241 102.762C24.7804 103.743 25.7011 104.527 26.221 105.609L28.7357 107.374C28.7698 107.459 28.9232 107.544 28.9403 107.587H28.9488C29.5199 107.655 31.8641 106.266 32.8444 106.112C33.7821 105.967 35.0011 106.036 35.9728 106.061C36.1092 105.661 36.4758 105.601 36.7997 105.447C41.0618 103.385 41.8802 97.8779 40.593 93.6499C39.5445 90.1975 36.2115 87.2481 32.6825 86.5235C32.6228 86.1485 33.211 86.2849 33.4326 86.319C33.9185 86.4042 35.0863 86.7622 35.5381 86.9583C35.0011 84.7249 35.0778 82.4404 35.0948 80.1559C36.024 80.19 36.1433 80.531 36.8508 80.5992C36.9361 80.0877 36.2456 79.8831 35.9046 79.6871C33.748 78.4596 30.8497 77.3344 28.9744 75.8596C27.6105 74.7941 26.4768 73.2001 25.2237 72.0322C25.5562 75.4761 24.465 78.9795 23.7746 82.3466C23.6126 83.1479 22.9903 86.2593 22.7602 86.9753C22.6323 87.3589 22.6323 87.4527 22.513 87.8363C22.1209 89.0212 21.7799 92.6781 21.7117 93.9823C21.5242 97.4091 22.2317 99.9664 24.1241 102.762Z" fill="#CCA272"/>
<path d="M58.8094 106.718C60.6592 106.539 61.3497 106.206 62.9778 105.84C63.1824 105.797 63.9411 105.635 64.0774 105.618C66.4983 104.697 68.6891 103.282 70.2235 101.228C71.0844 100.478 71.6215 100.077 72.15 98.8753C75.2187 91.8427 69.7717 85.2279 66.9246 79.0563C66.7882 79.0733 66.6177 79.0307 66.4898 79.0563C65.68 80.4202 64.9981 82.0398 64.0774 83.4463C64.6401 85.799 64.461 88.1773 64.265 90.5555C64.1201 91.4335 63.8984 92.2689 63.6342 93.1043L63.6086 95.8236C63.1909 98.449 62.3982 101.057 61.0343 103.351C60.3353 104.535 59.176 105.473 58.8094 106.718Z" fill="#CCA272"/>
<path d="M35.9728 106.061C37.4902 106.095 39.4167 105.899 40.3629 107.374H40.5845C44.1221 107.34 47.6767 107.042 51.1631 106.436C51.6149 106.351 52.7913 105.891 52.9959 105.916C53.2004 105.933 54.0017 106.803 55.0758 106.939C55.2122 106.956 55.3656 106.931 55.5105 106.939C56.7466 107.024 57.7013 106.828 58.8094 106.718C59.176 105.473 60.3353 104.535 61.0343 103.351C62.3982 101.057 63.1909 98.449 63.6086 95.8236L63.6342 93.1043C63.208 94.4938 62.2703 96.7442 61.2218 97.716C61.1451 97.7841 61.0769 97.8694 61.0002 97.9376C60.9235 98.6707 60.1648 99.0287 59.6874 99.472C59.6107 99.5401 59.5425 99.6254 59.4658 99.6936C55.4423 103.342 47.5915 106.129 42.9969 102.106C42.7497 101.893 42.5536 101.714 42.3405 101.45C42.2723 101.356 42.0336 101.296 41.9313 101.1C41.4454 100.162 42.0166 97.4346 41.9143 96.0622C41.6415 92.6269 40.073 90.9391 38.1721 88.5012C37.1066 88.1091 36.4672 87.376 35.5381 86.9583C35.0863 86.7622 33.9185 86.4042 33.4326 86.319C33.211 86.2849 32.6228 86.1485 32.6825 86.5235C36.2115 87.2481 39.5445 90.1975 40.593 93.6499C41.8802 97.8779 41.0618 103.385 36.7997 105.447C36.4758 105.601 36.1092 105.661 35.9728 106.061Z" fill="#CC8D51"/>
<path d="M57.4882 54.0374C57.6075 57.5921 58.2213 61.1041 59.1845 64.5223C59.696 66.321 60.8638 68.6225 61.2218 70.2762C61.2474 70.4041 61.2048 70.5746 61.2218 70.7195L62.2106 67.8639C62.8073 67.932 62.6539 68.0684 62.6027 68.4776C62.5005 69.3641 61.2048 72.4585 60.6592 73.1234C60.5399 73.2683 60.3438 73.5666 60.233 73.6178C60.2245 73.6178 60.1051 73.6945 60.1051 73.703L59.9005 73.7968C59.9091 74.0184 59.892 74.24 59.9005 74.4617C60.0114 77.4025 62.168 79.9343 65.2708 79.491C65.68 79.4313 66.0295 79.15 66.4898 79.0648C66.6433 78.8005 66.8905 78.6897 66.9246 78.63C67.436 77.8032 68.1947 77.0701 68.7232 76.1409C74.1105 66.5852 66.4643 59.1179 62.7562 50.7471C62.6198 50.4487 62.4749 50.0225 62.3214 49.656L62.2021 49.5366C62.151 49.494 62.1083 49.4599 62.0998 49.4343C62.0828 49.3832 62.0998 49.2894 62.0998 49.2127C61.7929 48.9825 61.648 48.795 61.2133 48.8547C60.5569 48.957 58.8094 49.7753 57.9826 50.0481C57.6927 50.1418 57.5223 50.5169 57.4882 50.534C57.5137 51.7018 57.4455 52.8781 57.4882 54.046V54.0374Z" fill="#CCA272"/>
<path d="M7.87675 99.0372C11.4484 101.33 13.5454 102.191 17.7564 102.549C18.0462 102.575 18.3361 102.6 18.6174 102.677C18.7111 102.703 18.8731 102.754 19.2908 102.762C19.2737 101.901 18.5577 101.407 18.2423 100.631C17.4666 98.7133 17.603 96.6504 17.7564 94.6472C16.5715 94.6472 11.1757 93.5646 10.076 93.1043C8.74623 94.6642 8.06429 97.034 7.87675 99.0372Z" fill="#CCA272"/>
<path d="M0.000297546 88.2028C0.000297546 88.4159 0.281601 90.2998 0.375374 90.6067C0.597 91.3312 1.64549 93.343 2.2081 94.059C3.58051 95.8321 5.98435 97.8182 7.87675 99.0372C8.06429 97.034 8.74623 94.6642 10.076 93.1043C9.44522 92.8486 7.10104 91.0926 6.35943 90.5641C5.24274 89.7628 2.18253 86.677 0.767487 87.197C0.707817 87.2225 -0.0167465 87.393 0.000297546 88.2028Z" fill="#563737"/>
<path d="M18.2423 100.631C18.5577 101.407 19.2737 101.901 19.2908 102.762C20.8933 102.831 22.5215 102.72 24.1241 102.762C22.2317 99.9664 21.5242 97.4091 21.7117 93.9823C20.4671 94.2892 19.3675 94.3829 18.1059 94.4426C17.9354 94.4511 17.7905 94.6472 17.7564 94.6472C17.603 96.6504 17.4666 98.7133 18.2423 100.631Z" fill="#CC8D51"/>
<path d="M66.4898 79.0563C66.6177 79.0307 66.7882 79.0733 66.9246 79.0563C66.8819 78.971 66.9587 78.7494 66.9246 78.6215C66.8905 78.6812 66.6433 78.792 66.4898 79.0563Z" fill="#CCA272"/>
<path d="M37.2941 80.5992C37.8738 81.409 38.7688 81.9034 39.4848 82.5683C39.5786 82.1335 40.0475 82.7984 40.1497 82.9007C40.7976 83.5656 41.812 85.0744 43.0139 84.2305C43.8663 83.6338 42.2723 81.4601 41.991 80.8378C41.8461 80.5224 41.8376 80.2156 42.2297 80.3775C42.9457 80.6674 43.9175 83.2673 43.9004 84.0856C45.2047 84.6311 45.4689 82.8496 45.4007 81.8352C45.341 81.0254 44.8296 79.8149 44.3181 79.1671C45.3325 79.5251 45.7758 80.71 45.861 81.6903H46.5003C46.9777 80.1303 46.3128 78.1015 45.3751 76.7888C45.1535 76.4819 43.3293 74.2997 43.0054 74.6662C43.2355 76.9593 40.7038 80.3264 38.4364 80.5651C38.1124 80.5906 37.976 80.3775 37.9505 80.3775C37.5754 80.4116 37.3282 80.5992 37.2941 80.5992Z" fill="#CC8D51"/>
<path d="M43.0054 74.6662C43.3293 74.2997 45.1535 76.4819 45.3751 76.7888C46.3128 78.1015 46.9777 80.1303 46.5003 81.6817H45.861C45.7758 80.71 45.3325 79.5251 44.3181 79.1671C44.8296 79.8149 45.341 81.0254 45.4007 81.8352C45.4689 82.8496 45.2047 84.6311 43.9004 84.0856C43.9175 83.2673 42.9457 80.6674 42.2297 80.3775C41.8376 80.2156 41.8461 80.5224 41.991 80.8378C42.2723 81.4601 43.8663 83.6338 43.0139 84.2305C41.812 85.0744 40.7976 83.5656 40.1497 82.9007C40.0475 82.7984 39.5786 82.1335 39.4848 82.5683C40.056 83.0968 41.275 84.6141 41.8461 84.7249C42.8775 84.938 43.0224 84.222 43.5765 84.1623C43.9516 84.1282 45.0001 84.5203 45.4178 84.1112C45.5201 84.0004 45.7502 82.8751 45.9718 82.5853C46.2531 82.2273 46.7817 82.2529 46.901 82.0824C47.9069 80.727 45.9377 76.4222 44.7529 75.3311C44.6761 75.2629 44.6165 75.1692 44.5398 75.1095C44.0113 74.6748 43.1332 74.2486 42.5621 73.7882V74.0099C43.0821 75.0925 42.1871 77.0019 41.5563 77.9481C40.6527 79.312 39.4678 79.8661 37.9505 80.3775C37.976 80.3775 38.1124 80.5906 38.4364 80.5651C40.7038 80.3264 43.2355 76.9593 43.0054 74.6662Z" fill="#9A6F47"/>
<path d="M35.5381 86.9583C36.4672 87.376 37.1066 88.1091 38.1721 88.5012C40.073 90.9391 41.6415 92.6269 41.9143 96.0622C42.0166 97.4346 41.4454 100.162 41.9313 101.1C42.0336 101.296 42.2723 101.356 42.3405 101.45C42.5536 101.714 42.7497 101.893 42.9969 102.106C47.5915 106.129 55.4423 103.342 59.4658 99.6936C59.5425 99.6254 59.6107 99.5401 59.6874 99.472C60.1648 99.0287 60.9235 98.6707 61.0002 97.9376C61.0769 97.8694 61.1451 97.7841 61.2218 97.716C62.2703 96.7442 63.208 94.4938 63.6342 93.1043C63.8984 92.2689 64.1201 91.4335 64.265 90.5555C64.461 88.1773 64.6401 85.799 64.0774 83.4463C62.9522 85.1511 63.0204 84.3413 61.4434 84.3243C60.9917 84.3243 60.4802 84.8187 59.6789 84.4351C59.2868 84.2476 58.8521 82.9945 58.8094 82.5683C56.7039 82.645 57.2921 79.2864 57.7098 77.9651C57.7268 77.7861 57.7524 77.6071 57.795 77.4196C57.8291 77.2321 57.8718 77.0445 57.9314 76.8485C57.9826 76.6609 58.0508 76.4734 58.1275 76.2859C58.2127 76.0472 58.315 75.8085 58.4429 75.5783C58.494 75.459 58.5537 75.3397 58.6219 75.2288C58.7071 75.0754 58.8009 74.922 58.9032 74.7771C58.9884 74.6321 59.2697 74.7344 59.3806 74.6066C59.3806 74.5981 59.3806 74.4702 59.3806 74.4617C59.4829 74.3167 59.4317 74.1889 59.5681 74.061C59.6022 74.0184 59.6704 73.9758 59.713 73.9332C59.713 73.9332 59.892 73.7542 59.9602 73.6689C60.0455 73.5666 60.0369 73.4046 60.1051 73.3194C60.7444 72.5352 61.0598 71.6998 61.2218 70.711C61.2048 70.5661 61.2474 70.3956 61.2218 70.2677C60.8638 68.614 59.696 66.3124 59.1845 64.5138C58.2213 61.0956 57.6075 57.5836 57.4882 54.0289C57.4455 52.8611 57.5137 51.6847 57.4882 50.5169C52.1349 52.469 42.1785 52.4093 36.6377 51.1733L37.5157 55.5633C37.5754 55.5803 37.6607 55.7594 37.7288 55.7849C37.7629 56.2879 37.6862 56.8164 37.7288 57.3193C38.0954 61.0444 37.9164 64.5735 37.5157 68.2986C37.8738 69.0061 37.5413 69.0317 38.3937 70.0546C38.7262 70.4552 38.9393 70.6087 39.2717 70.9326L39.4848 71.1457C39.5616 71.2224 39.6298 71.2991 39.7065 71.3673C40.7209 72.3221 41.4369 72.8847 42.5621 73.7797C43.1332 74.24 44.0113 74.6662 44.5398 75.101C44.6165 75.1607 44.6761 75.2544 44.7529 75.3226C45.9377 76.4137 47.9069 80.7185 46.901 82.0739C46.7817 82.2443 46.2531 82.2188 45.9718 82.5768C45.7502 82.8666 45.5201 83.9918 45.4178 84.1026C45.0001 84.5118 43.9516 84.1197 43.5765 84.1538C43.0224 84.2135 42.8775 84.9295 41.8461 84.7164C41.275 84.6056 40.056 83.0883 39.4848 82.5597C38.7688 81.8949 37.8738 81.4004 37.2941 80.5906C37.1492 80.5821 36.9958 80.5992 36.8508 80.5906C36.1433 80.5224 36.024 80.1815 35.0948 80.1474C35.0778 82.4319 35.0011 84.7164 35.5381 86.9498V86.9583Z" fill="#ECCFAA"/>
<path d="M58.8094 82.5683C58.656 81.247 59.1248 79.4569 60.5569 79.0563C60.7274 79.2267 59.8835 80.2241 59.7897 80.5906C59.4829 81.7244 59.2783 82.986 59.7386 84.0344C59.8579 84.2987 60.233 84.4266 60.6677 84.3243C61.3667 83.8981 61.1621 83.1053 61.4264 82.4489C61.5287 82.2017 62.7391 79.4569 63.1909 79.9343L61.4434 84.3243C63.0204 84.3413 62.9522 85.1511 64.0774 83.4463C64.9981 82.0398 65.68 80.4202 66.4898 79.0563C66.0295 79.1415 65.68 79.4228 65.2708 79.4825C62.168 79.9257 60.0114 77.394 59.9005 74.4531C59.892 74.2315 59.9432 74.1718 60.0966 74.0099C60.1648 73.9332 60.2245 73.8564 60.2245 73.8564C60.2245 73.8564 60.3097 73.7541 60.3182 73.7456C60.4802 73.5496 60.5484 73.2683 60.6677 73.1234C61.2133 72.4585 62.509 69.3641 62.6113 68.4776C62.6624 68.0684 62.8159 67.932 62.2192 67.8639L61.2303 70.7195C61.0684 71.7083 60.753 72.5437 60.1136 73.3279C60.0455 73.4132 59.9687 73.5069 59.8835 73.6092C59.8153 73.6945 59.696 73.7968 59.696 73.7968C59.6533 73.8394 59.6022 73.9246 59.5681 73.9673C59.4488 74.0951 59.3465 74.1889 59.2356 74.3338C59.2356 74.3338 59.2186 74.3594 59.2101 74.3679C59.0993 74.4958 59.0055 74.6321 58.9202 74.7771C58.818 74.922 58.7242 75.0754 58.6389 75.2288C58.5708 75.3397 58.5111 75.459 58.4599 75.5783C58.3321 75.8085 58.2298 76.0472 58.1445 76.2859C58.0678 76.4734 58.0081 76.6609 57.9485 76.8485C57.8888 77.0445 57.8462 77.2321 57.8121 77.4196C57.7695 77.6071 57.6842 77.7606 57.6416 77.9396C57.3688 79.2949 56.721 82.645 58.8265 82.5683H58.8094Z" fill="#CC8D51"/>
<path d="M55.5105 106.939C56.7466 107.024 57.7013 106.828 58.8094 106.718C60.6592 106.539 61.3497 106.206 62.9778 105.84C63.1824 105.797 63.9411 105.635 64.0774 105.618C64.9981 105.524 67.2826 105.695 68.2458 105.84C69.6609 106.053 71.647 106.607 72.508 107.834C73.1558 108.746 73.6929 110.698 71.9795 110.451C72.3034 108.175 70.0615 106.666 68.0242 106.496C68.672 107.203 69.8484 107.323 70.5474 108.03C71.2464 108.746 71.3401 109.744 71.5362 110.664L68.7061 110.86C68.5442 109.292 67.7258 108.329 66.1574 108.03L67.6406 109.624L67.8026 110.886C64.3588 110.877 60.3438 110.741 57.0449 109.684C55.2889 109.113 55.4338 108.755 55.5105 106.939ZM65.7226 108.03V107.817C65.5777 107.885 65.5777 107.962 65.7226 108.03Z" fill="#CC8D51"/>
<path d="M56.0135 109.837C58.7924 111.355 69.3796 111.798 72.4313 111.014C73.1217 110.835 73.4542 110.647 73.5309 109.906C73.8037 107.195 70.6838 105.217 68.2458 105.84C69.6609 106.053 71.647 106.607 72.508 107.834C73.1558 108.746 73.6929 110.698 71.9795 110.451C72.3034 108.175 70.0615 106.666 68.0242 106.496C68.672 107.203 69.8484 107.323 70.5474 108.03C71.2464 108.746 71.3401 109.744 71.5362 110.664L68.7061 110.86C68.5442 109.292 67.7258 108.329 66.1574 108.03L67.6406 109.624L67.8026 110.886C64.3588 110.877 60.3438 110.741 57.0449 109.684C55.2889 109.113 55.4338 108.755 55.5105 106.939C55.3656 106.931 55.2122 106.956 55.0758 106.939C55.1099 108.252 54.6922 109.104 56.0135 109.837Z" fill="#431C0B"/>
<path d="M65.7226 108.03V107.817C65.5777 107.885 65.5777 107.962 65.7226 108.03Z" fill="#431C0B"/>
<path d="M28.9232 108.073C28.9232 108.073 28.9403 108.047 28.9488 108.03C28.9744 107.979 28.9744 107.664 28.9488 107.596C29.5199 107.655 31.8641 106.266 32.8444 106.112C33.7821 105.967 35.0011 106.036 35.9728 106.061C37.4902 106.095 39.4167 105.899 40.3629 107.374C40.3714 107.382 40.2265 107.493 40.2861 107.596C41.5307 109.539 42.6133 111.295 39.7065 112.207C39.5957 112.241 39.4081 112.182 39.2717 112.207C38.5131 112.318 38.9052 111.074 38.7688 110.392C38.5301 109.121 38.0357 107.928 36.6377 107.596C36.4843 108.286 37.0043 107.868 37.3112 108.175C38.0954 108.968 38.5813 111.568 38.1721 112.642C38.0272 112.642 37.8823 112.642 37.7288 112.642C36.6889 112.642 35.862 112.48 34.8817 112.42C34.3703 111.244 35.0778 109.488 33.4582 108.908C33.3729 109.505 33.8759 109.889 33.9782 110.579C34.0719 111.176 33.9696 111.815 34.0037 112.42C32.7592 112.318 30.3553 112.412 29.3239 111.559C29.0511 111.329 28.9318 110.75 28.8721 110.409C28.8124 110.076 28.7528 109.275 28.7357 108.908C28.7272 108.763 28.7357 108.619 28.7357 108.474L28.9232 108.073ZM36.3053 107.596V107.374C36.1604 107.451 36.1604 107.519 36.3053 107.596Z" fill="#CC8D51"/>
<path d="M28.2925 109.676C28.2925 111.304 28.821 111.9 30.3383 112.463C31.6851 112.966 34.805 113.179 36.2797 113.051C36.6974 113.017 37.4049 112.906 37.7288 112.642C36.6889 112.642 35.862 112.48 34.8817 112.42C34.7027 112.412 34.4726 112.463 34.0037 112.42C32.7592 112.318 30.3553 112.412 29.3239 111.559C29.0511 111.329 28.9318 110.75 28.8721 110.409C28.8124 110.076 28.7528 109.275 28.7357 108.908C28.0879 108.789 28.2839 109.258 28.2925 109.676Z" fill="#563737"/>
<path d="M37.3112 108.175C38.0954 108.968 38.5813 111.568 38.1721 112.642C38.5301 112.633 38.9393 112.693 39.2717 112.642V112.207C38.5131 112.318 38.9052 111.074 38.7688 110.392C38.5301 109.121 38.0357 107.928 36.6377 107.596C36.4843 108.286 37.0043 107.868 37.3112 108.175Z" fill="#431C0B"/>
<path d="M39.7065 112.207V112.42C41.7523 111.96 42.332 111.755 41.7523 109.394C41.5136 108.422 40.951 108.158 40.5845 107.374H40.3629C40.3629 107.374 40.2265 107.493 40.2861 107.596C41.5307 109.539 42.6133 111.295 39.7065 112.207Z" fill="#431C0B"/>
<path d="M39.2717 112.207V112.642C39.4934 112.616 39.6298 112.446 39.7065 112.42V112.207C39.5957 112.241 39.4081 112.182 39.2717 112.207Z" fill="#563737"/>
<path d="M33.9782 110.579C34.0719 111.176 33.9696 111.815 34.0037 112.42C34.4726 112.463 34.7027 112.412 34.8817 112.42C34.3703 111.244 35.0778 109.488 33.4582 108.908C33.3729 109.505 33.8759 109.889 33.9782 110.579Z" fill="#431C0B"/>
<path d="M36.3053 107.596V107.374C36.1604 107.451 36.1604 107.519 36.3053 107.596Z" fill="#431C0B"/>
<path d="M24.7719 71.8873C24.9083 72.1601 25.1811 71.9981 25.2237 72.0322C26.4768 73.2001 27.6105 74.7941 28.9744 75.8596C30.8497 77.3344 33.748 78.4596 35.9046 79.6871C36.2456 79.8831 36.9361 80.0877 36.8508 80.5992C36.9958 80.6077 37.1492 80.5906 37.2941 80.5992C37.3282 80.5992 37.5754 80.4116 37.9505 80.3775C39.4678 79.8661 40.6527 79.312 41.5563 77.9481C42.1871 77.0019 43.0821 75.0925 42.5621 74.0099C39.9963 72.5181 37.5413 70.8729 36.3735 68.0173C36.1263 67.395 35.5381 65.6902 35.5381 65.119V60.4051L36.3905 66.0311C36.3053 67.0285 37.2685 67.8212 37.5157 68.3071C37.9164 64.582 38.0954 61.0529 37.7288 57.3278C37.6862 56.8249 37.7629 56.2964 37.7288 55.7934C37.6607 55.7679 37.5754 55.5889 37.5157 55.5718L36.6377 51.1818C34.0975 50.6192 30.756 49.5792 28.2925 48.5478C28.0964 49.1871 27.7213 50.9005 27.6531 51.3011C26.9627 55.4866 25.1811 60.2431 24.5929 64.4882C24.3542 66.2101 24.0559 70.4041 24.7719 71.8873Z" fill="#CCA272"/>
<path d="M35.5381 60.4051V65.119C35.5381 65.6902 36.1263 67.395 36.3735 68.0173C37.5413 70.8729 39.9963 72.5181 42.5621 74.0099V73.7882C41.4369 72.8932 40.7209 72.3306 39.7065 71.3759C39.6298 71.3077 39.5616 71.2309 39.4848 71.1542L39.2717 70.9411C38.9393 70.6172 38.7262 70.4638 38.3937 70.0631C37.5413 69.0402 37.8738 69.0146 37.5157 68.3071C37.2685 67.8212 36.3053 67.0285 36.3905 66.0311L35.5381 60.4051Z" fill="#CC8D51"/>
<path d="M58.8094 82.5683C58.8521 82.9945 59.2868 84.2476 59.6789 84.4351C60.4802 84.8187 60.9917 84.3243 61.4434 84.3243L63.1909 79.9343C62.7391 79.4569 61.5287 82.2017 61.4264 82.4489C61.1621 83.1053 61.3667 83.8981 60.6677 84.3243C60.233 84.4266 60.0369 84.2049 59.9176 83.9407C59.4573 82.8922 59.4829 81.7244 59.7897 80.5906C59.8835 80.2241 60.7274 79.2267 60.5569 79.0563C59.1248 79.4569 58.656 81.247 58.8094 82.5683Z" fill="#9A6F47"/>
</g>
<defs>
<clipPath id="clip0_1119_6583">
<rect width="86.2492" height="112.124" fill="white" transform="matrix(-1 0 0 1 86.2492 0)"/>
</clipPath>
</defs>
</svg>
