<svg width="100" height="130" viewBox="0 0 100 130" fill="none" xmlns="http://www.w3.org/2000/svg">
<path d="M44.5409 0C44.9002 0.0812702 45.1611 0.235281 45.3151 0.461982L37.7527 0.453427C38.005 0.248113 38.2702 0.0983797 38.5483 0H44.5409Z" fill="#FFF5F5"/>
<path d="M37.7527 0.453427L45.3151 0.461982C47.6676 0.795617 49.9774 1.28324 52.2444 1.92912C54.5243 2.57928 56.9153 3.73418 59.0583 4.36295C60.457 4.77358 61.2269 5.27403 62.4118 5.71888C62.6641 5.81298 63.0876 6.02685 63.6821 6.36049C64.9311 7.0577 66.1887 7.84046 67.4505 8.70021C68.3872 9.33754 68.9733 9.89788 70.0169 10.7662C70.1495 10.8774 70.342 10.8688 70.4661 10.7534C71.2788 9.98342 72.4807 9.09373 73.6228 8.71732C74.2387 8.51628 75.0043 8.06716 75.7572 7.89606C77.1601 7.57526 78.5075 7.54104 79.9918 7.58809C80.6334 7.6052 81.2151 7.75491 81.7327 8.02866C82.7763 8.57617 83.4051 8.91836 83.6147 9.05523C83.7003 9.11084 83.7815 9.16644 83.8671 9.22633C83.8799 9.23488 84.4274 9.79522 85.5139 10.9031C85.8475 11.241 86.0571 11.5233 86.1512 11.7457C86.6987 13.0631 87.2163 14.2865 87.7039 15.4071C87.8493 15.7408 87.9477 16.0872 88.0033 16.4423C88.153 17.4132 88.2514 17.7939 88.2899 18.7563C88.2942 18.8718 88.3583 19.7701 88.4738 21.4511C88.4738 21.5195 88.4738 21.5922 88.4738 21.6607L88.2343 24.2014C88.23 24.2613 88.2172 24.3212 88.2001 24.3768L87.5371 26.3572C87.5028 26.4684 87.4515 26.5754 87.3874 26.6737C86.78 27.6191 86.1469 28.8124 85.3171 29.8347C84.3675 31.0067 83.3153 32.0718 82.1604 33.0385C81.3306 33.7314 80.2741 34.1848 79.2518 34.7494C78.8198 34.9847 77.8445 35.2713 76.3261 35.6006C76.1763 34.8478 76.1122 34.0522 76.1293 33.2181C76.1378 32.8075 76.0609 32.337 75.8898 31.798C75.7828 31.4516 75.723 31.2035 75.7187 31.0495C75.7187 31.0067 75.7016 30.9682 75.6759 30.9383L74.5552 29.638C74.5552 29.638 74.5424 29.6251 74.5381 29.6209C74.2259 29.4113 73.781 29.1632 73.1993 28.8809C72.1385 28.359 70.928 28.1537 69.5592 28.2607C69.7047 27.5036 69.7175 26.7978 69.5977 26.1434C69.5036 25.6301 69.3924 25.0056 69.2556 24.2784C68.9904 22.8498 68.5626 21.6136 68.2119 20.2791C67.3863 17.1224 65.4273 14.4447 62.771 12.5456C62.2235 12.1563 61.6932 11.7799 61.1756 11.4292C61.1414 11.4035 61.0986 11.3821 61.0601 11.365C59.5587 10.7149 57.8435 10.3855 55.9059 10.3727C54.8921 10.3684 53.9939 10.5095 53.2111 10.7961C51.6969 11.3522 50.3495 12.7167 49.3144 13.9956C48.4803 15.0222 48.044 15.5611 47.997 15.6125C47.3083 16.3824 46.6838 17.6314 46.4315 18.4013C45.7385 20.5186 45.2381 22.6316 44.9301 24.7447C44.8702 25.1596 44.8446 25.6429 44.8531 26.1904C44.8574 26.6695 44.8617 27.1528 44.8574 27.6404C44.049 27.2897 43.1678 27.1828 42.4535 26.8833C41.6707 26.5497 41.1104 26.3487 40.7725 26.2631C38.9846 25.8311 37.2565 25.7498 35.5883 26.015C34.8184 26.1391 33.9544 26.3401 33.0005 26.6139C33.471 24.9756 33.6763 23.3075 33.625 21.6051C33.5779 20.1336 33.4454 18.5767 33.5052 17.0154C33.5309 16.3011 33.4411 15.6467 33.2315 15.0478C33.0732 14.6073 32.915 14.0127 32.6669 13.5465C32.3931 13.0417 31.9953 12.336 31.4778 11.4377C31.3751 11.2666 31.2468 11.1084 31.0885 10.9843C29.754 9.91499 28.8044 9.29049 27.1961 9.25627C26.4219 9.23916 25.468 9.34182 24.3345 9.56424C23.6587 9.69684 23.0428 9.92354 22.491 10.2529C21.3575 10.9244 20.7886 11.2624 20.7886 11.2666C20.6731 11.3565 20.5619 11.4548 20.455 11.5575L18.1794 13.7561C18.158 13.7775 18.1323 13.8074 18.1152 13.8331C16.9518 15.42 16.2717 16.4337 16.0664 16.8743C15.7242 17.6185 15.3905 18.3072 15.0655 18.9317C14.5522 19.9326 14.0474 21.5067 13.5555 23.6625C13.316 23.1107 12.9524 22.8198 12.4648 22.7984C11.9301 22.7728 11.404 22.7086 10.8822 22.6102C11.4382 21.7163 11.7804 21.1089 11.9088 20.8009C12.5717 19.2397 12.9524 18.3671 13.0679 18.1874C13.5128 17.4646 13.6325 16.746 14.0346 15.976C14.2485 15.5611 14.4538 15.0949 14.6506 14.573C15.0954 13.3839 15.4846 12.5841 15.151 11.4976C15.0612 11.2025 14.8045 10.7191 14.3768 10.039C13.8977 9.27766 13.2732 8.52484 12.5076 7.7763C12.4605 7.72925 12.4007 7.68647 12.3365 7.65225C11.4981 7.20741 10.6854 6.93365 9.88983 6.831C9.06857 6.72834 8.20454 7.10047 7.52016 7.22452C6.6433 7.38278 6.01025 8.20831 5.38148 8.84992C4.47039 9.77811 3.83306 11.3778 3.43955 12.5327C3.1273 13.4524 3.10163 14.2565 2.90915 15.3858C2.84499 15.7579 2.8621 16.1386 2.9562 16.5235C3.10163 17.1095 3.4096 18.0334 3.87156 19.2996C4.73131 21.6393 6.53637 23.4401 8.78627 24.6933C8.45263 25.2922 8.19171 25.8054 7.99923 26.2289C7.71692 26.8534 7.51589 27.5677 7.39184 28.3633C6.89567 28.0938 6.48932 27.6233 6.14713 27.3966C5.48413 26.9561 5.00507 26.6267 4.50034 26.1134C4.02982 25.6343 3.53365 25.151 3.01181 24.6591C2.87921 24.5351 2.768 24.3939 2.67817 24.2399C2.49425 23.9148 2.31887 23.547 2.15633 23.1406C1.81414 22.2937 1.11265 21.2586 0.898784 20.4716C0.329893 18.4056 0.0390311 16.7802 0.000534672 15.5782C-0.00802008 15.2189 0.0860822 14.3036 0.282842 12.8364C0.402608 11.9596 0.646419 11.0784 1.02283 10.1887C1.60455 8.81998 1.91252 8.08427 1.9553 7.98589C2.24616 7.28868 2.65251 6.61285 3.18718 5.96269C4.35063 4.55115 5.58679 3.36632 6.90422 2.40391C7.12664 2.24137 7.37901 2.12588 7.64421 2.066C8.73922 1.80508 9.7444 1.60404 10.6598 1.45433C11.5067 1.31746 12.6915 1.30035 13.4101 1.53988C14.1544 1.78369 14.7019 1.92912 15.0569 1.97617C15.2622 2.00184 15.4633 2.07028 15.6429 2.16866C16.7422 2.77177 17.3453 3.11396 17.448 3.18667C18.235 3.76412 18.8253 4.16619 19.2273 4.38861C19.8561 4.74364 20.3609 5.26975 20.7544 5.659C20.8827 5.78304 21.0709 5.81298 21.2249 5.72743C21.9991 5.3168 22.9102 4.7693 23.8769 4.45705C25.2542 4.01221 26.5502 3.28505 27.6837 2.72471C28.0302 2.55362 28.6975 2.36541 29.6813 2.1601C31.0885 1.86496 32.5257 1.43722 34.0485 1.00949C34.9638 0.748566 36.1957 0.564639 37.7484 0.457704M76.1935 31.1222C77.2799 31.1906 78.8497 30.5277 79.7394 29.916C80.0902 29.6765 80.5649 29.3856 81.1552 29.0391C81.4076 28.8937 81.6257 28.6927 81.7883 28.4488C82.2673 27.7431 82.7892 27.0202 83.3453 26.2759C84.3547 24.9371 84.5557 22.9781 84.7653 21.2244C84.8594 20.4373 84.7653 19.6332 84.7055 18.8889C84.6969 18.7478 84.667 18.6109 84.6242 18.474C84.4616 17.9778 84.2991 17.4645 84.128 16.9256C83.6917 15.544 82.9047 14.8382 81.7241 13.6534C81.6429 13.5721 81.5445 13.5122 81.4375 13.478C80.334 13.1358 79.6881 12.9562 79.4913 12.9348C77.0447 12.6696 75.4107 14.1752 74.4697 16.2797C73.9864 17.3619 73.6228 18.2088 73.3747 18.8162C73.0881 19.5177 73.0753 20.2277 73.3447 20.9463C73.9564 22.5931 74.4013 24.1458 74.6836 25.6129C75.0514 27.5506 75.6117 29.099 75.9839 30.934C76.0053 31.0367 76.0908 31.1137 76.1978 31.1179L76.1935 31.1222Z" fill="#CCA272"/>
<path d="M10.8737 22.5846C10.1166 23.162 9.41503 23.855 8.77342 24.6677C6.52352 23.4144 4.71424 21.6136 3.85876 19.2739C3.39253 18.0078 3.08883 17.0839 2.9434 16.4979C2.8493 16.1129 2.83219 15.7322 2.89635 15.3601C3.08883 14.2308 3.11877 13.4267 3.42675 12.5071C3.82026 11.3522 4.45759 9.75243 5.36868 8.82424C6.00173 8.17836 6.6305 7.35282 7.50736 7.19884C8.19174 7.07479 9.05577 6.70266 9.87703 6.80532C10.6726 6.9037 11.4896 7.17745 12.3237 7.62657C12.3879 7.66079 12.4435 7.70357 12.4948 7.75062C13.2604 8.49916 13.8849 9.25198 14.364 10.0134C14.7875 10.6892 15.0441 11.1768 15.1382 11.4719C15.4761 12.5584 15.0869 13.3583 14.6378 14.5474C14.4453 15.0649 14.24 15.5354 14.0218 15.9503C13.624 16.7203 13.5 17.4389 13.0551 18.1618C12.9439 18.3414 12.5589 19.214 11.896 20.7752C11.7634 21.0875 11.4212 21.6906 10.8694 22.5846H10.8737Z" fill="black"/>
<path d="M32.992 26.601C32.4445 26.7679 32.0295 27.0972 31.7429 27.5934C31.3323 28.3077 31.0628 28.6969 30.4597 29.1888C28.6076 30.703 26.7127 31.4516 24.3259 31.4687C21.8622 31.4858 19.7064 31.5457 17.743 30.1042C17.2084 29.7107 16.3615 29.2615 16.0064 28.5643C15.6899 27.9398 15.3606 27.3752 15.0098 26.8662C14.4495 26.0492 13.9618 24.9756 13.5469 23.6454C14.0388 21.4938 14.5436 19.9197 15.0569 18.9146C15.3819 18.2901 15.7113 17.6014 16.0578 16.8571C16.2631 16.4166 16.9432 15.4028 18.1066 13.8159C18.1237 13.7903 18.1494 13.7603 18.1708 13.7389L20.4464 11.5404C20.5533 11.4377 20.6602 11.3436 20.78 11.2495C20.78 11.2495 21.3489 10.9116 22.4824 10.2358C23.0342 9.9064 23.6501 9.6797 24.3259 9.5471C25.4594 9.32468 26.4133 9.22202 27.1875 9.23913C28.7958 9.27335 29.7497 9.90212 31.0799 10.9672C31.2382 11.0912 31.3665 11.2452 31.4692 11.4206C31.9867 12.3188 32.3845 13.0246 32.6583 13.5293C32.9064 13.9956 33.0646 14.5859 33.2229 15.0307C33.4325 15.6295 33.5266 16.284 33.4966 16.9983C33.4367 18.5595 33.5651 20.1208 33.6164 21.5879C33.672 23.2903 33.4624 24.9585 32.9919 26.5967M18.9665 26.4256C19.2744 26.7593 19.5738 27.0844 19.8775 27.4052C20.4678 28.0339 20.7886 28.1794 21.5842 28.4189C21.7852 28.4788 22.2558 28.6157 22.9872 28.8338C23.1027 28.868 23.2224 28.8167 23.2567 28.714C23.2866 28.6371 23.2652 28.6028 23.1968 28.6157C23.2438 28.5857 23.2866 28.5686 23.3293 28.5729C23.7571 28.9322 24.2532 29.0776 24.8221 28.9963C25.5707 28.8894 26.1096 28.744 26.4347 28.5515C27.3201 28.0339 28.09 27.4223 28.7316 26.7165C29.1936 26.2075 29.3946 25.3777 29.7625 24.7104C29.8309 24.5864 29.8822 24.4538 29.9122 24.3126C30.1859 23.1021 30.2843 21.8574 30.2159 20.5827C30.3741 19.7273 30.3741 18.8803 30.2073 18.0377C29.9165 16.5492 29.493 15.6466 28.2611 14.8425C26.2123 13.508 24.0394 13.3326 21.8408 14.5217C20.2239 15.3986 18.9664 16.6005 18.0767 18.1232C17.9997 18.2558 17.9441 18.397 17.9141 18.551C17.6404 19.8984 17.2469 21.0832 17.4051 22.4862C17.4821 23.1962 17.5249 23.7009 17.5335 23.9918C17.5335 24.056 17.4607 24.103 17.4051 24.0688L15.1167 22.7471C14.997 22.6786 14.843 22.7171 14.7746 22.8369L14.6933 22.9781C14.6633 23.0294 14.6804 23.0978 14.7275 23.1321C15.6429 23.7309 16.4427 24.2527 17.1357 24.6976C17.7901 25.1168 17.9954 25.8225 18.3205 26.4727C18.4189 26.6694 18.6156 26.7849 18.8038 26.755C18.8766 26.7464 18.9322 26.6352 18.9749 26.4342L18.9665 26.4256Z" fill="#BAA3A3"/>
<path d="M69.5464 28.2521C68.4342 28.9835 67.3607 29.8219 66.3298 30.7714C65.7652 31.289 65.3375 31.644 65.0381 31.8408C63.263 33.0042 61.5777 33.8041 59.3919 33.9067C59.1866 33.9153 58.2713 33.9452 56.6501 33.9966C54.8109 34.0522 52.8518 33.71 50.7687 32.97C49.7037 32.5893 48.583 31.7595 47.6292 31.2719C47.3896 31.1478 47.1758 30.9896 46.9875 30.7971C46.316 30.1127 45.6316 29.3471 45.2424 28.4702C45.1098 28.1665 44.9729 27.8885 44.8403 27.6233C44.8403 27.1357 44.8403 26.6524 44.836 26.1733C44.8317 25.6258 44.8531 25.1425 44.913 24.7275C45.2167 22.6145 45.7172 20.4972 46.4144 18.3842C46.6667 17.6143 47.2912 16.3653 47.9799 15.5953C48.0227 15.544 48.4632 15.0051 49.2973 13.9785C50.3325 12.7038 51.6798 11.3394 53.194 10.779C53.9768 10.4924 54.875 10.3513 55.8888 10.3556C57.8264 10.3641 59.5417 10.6977 61.043 11.3479C61.0815 11.365 61.1243 11.3864 61.1585 11.4121C61.6761 11.7628 62.2065 12.1392 62.754 12.5285C65.4102 14.4276 67.3693 17.1053 68.1948 20.262C68.5455 21.5965 68.9775 22.8327 69.2385 24.2613C69.3753 24.9927 69.4866 25.6172 69.5807 26.1262C69.7004 26.7807 69.6876 27.4822 69.5422 28.2435M49.3444 26.5753C49.4385 27.3624 50.0074 28.1366 50.4009 28.791C50.5121 28.9707 50.6661 29.1247 50.8543 29.2273C51.4531 29.5567 51.9023 29.8219 52.206 30.0229C53.0572 30.5918 53.8228 30.8741 54.798 31.212C55.1488 31.3361 55.4739 31.3746 55.7562 31.3232C55.7733 31.3917 55.8032 31.4301 55.8374 31.4301C57.0052 31.5157 58.036 31.4387 58.9257 31.2077C59.6743 31.011 60.4784 30.6388 61.3339 30.0828C61.9199 29.8946 62.4802 29.5139 63.0192 28.945C63.0491 28.9151 63.0876 28.898 63.1304 28.8894L67.0271 28.4617C67.1083 28.4531 67.1682 28.3804 67.1597 28.2949L67.1511 28.2093C67.1383 28.0853 67.0228 27.9912 66.8987 28.004L64.9525 28.1879C64.9312 28.1879 64.9055 28.1794 64.8927 28.158V28.1452C64.8713 28.081 64.9012 28.0168 64.9654 27.9955C65.5984 27.7859 66.2229 27.4437 66.8474 26.9689C66.9586 26.8833 67.0099 26.7679 67.0057 26.6181C67.0057 26.4941 66.8773 26.4 66.7362 26.4214C66.4796 26.4556 66.2614 26.5283 66.0732 26.631C65.4958 26.9475 64.914 27.187 64.3238 27.3539C64.2639 27.371 64.2083 27.3239 64.2125 27.264L64.3152 26.199C64.3152 26.199 64.3195 26.1647 64.328 26.1519C64.5419 25.6386 64.6488 24.9286 64.6403 24.0132C64.6274 22.1953 64.1869 20.6042 63.3314 19.2482C63.1047 18.8846 62.6599 18.4184 62.0054 17.8538C61.6718 17.5629 61.4066 17.225 61.12 16.9171C61.0259 16.8144 60.9104 16.7374 60.7864 16.6818C59.5588 16.1343 58.7546 15.8178 58.3782 15.7279C56.9496 15.39 54.9691 15.5269 53.6089 16.2797C52.4754 16.9085 51.4317 17.6955 50.4779 18.6408C50.3752 18.7435 50.2897 18.859 50.2255 18.9873C49.5925 20.2277 49.2118 21.0789 49.092 21.5452C48.6985 23.085 48.9894 25.0526 49.3401 26.5668L49.3444 26.5753Z" fill="#BAA3A3"/>
<path d="M76.1935 31.1222C76.0865 31.1179 76.001 31.0409 75.9796 30.9383C75.6075 29.1033 75.0471 27.5549 74.6793 25.6172C74.397 24.1501 73.9521 22.5931 73.3405 20.9506C73.071 20.232 73.0838 19.5219 73.3704 18.8205C73.6185 18.2131 73.9821 17.3704 74.4654 16.284C75.4064 14.1838 77.0404 12.6739 79.4871 12.9391C79.6795 12.9605 80.3297 13.1401 81.4333 13.4823C81.5402 13.5165 81.6386 13.5764 81.7198 13.6577C82.9004 14.8425 83.6874 15.5483 84.1237 16.9299C84.2948 17.4688 84.4616 17.9821 84.6199 18.4783C84.6627 18.6151 84.6926 18.752 84.7012 18.8932C84.7568 19.6374 84.8594 20.4373 84.7611 21.2286C84.5515 22.9823 84.3504 24.9457 83.341 26.2802C82.7806 27.0202 82.2631 27.7473 81.784 28.4531C81.6215 28.6926 81.4033 28.898 81.1509 29.0434C80.5564 29.3856 80.0859 29.6807 79.7351 29.9202C78.8454 30.5319 77.2799 31.1949 76.1892 31.1265L76.1935 31.1222Z" fill="black"/>
<path d="M30.2117 20.5785C29.9336 20.0395 29.6085 19.5134 29.2364 19.0001C28.4921 17.9778 27.4827 17.2806 26.6272 16.3823C26.5759 16.331 26.5074 16.3011 26.4347 16.3011H25.977C26.0497 16.284 26.084 16.254 26.0797 16.2241C26.0754 16.1514 26.0412 16.1043 25.9813 16.0786C22.9743 14.7997 20.9725 16.0872 19.0349 18.2473C18.8039 18.5039 18.6242 18.829 18.4916 19.2311C17.957 20.8223 18.0297 22.4819 18.1024 24.0303C18.1281 24.6163 18.2008 25.0226 18.3163 25.2408C18.5387 25.66 18.7526 26.0578 18.9664 26.4299C18.9279 26.6309 18.868 26.7422 18.7953 26.7507C18.6071 26.7764 18.4103 26.6652 18.312 26.4684C17.9869 25.8182 17.7816 25.1125 17.1271 24.6933C16.4385 24.2485 15.6343 23.7266 14.719 23.1278C14.6676 23.0936 14.6505 23.0294 14.6847 22.9738L14.766 22.8326C14.8344 22.7129 14.9884 22.6701 15.1082 22.7428L17.3966 24.0645C17.4522 24.0987 17.5249 24.056 17.5249 23.9875C17.5206 23.6967 17.4779 23.1919 17.3966 22.4819C17.2383 21.0789 17.6319 19.8898 17.9056 18.5467C17.9355 18.3927 17.9912 18.2516 18.0681 18.119C18.9621 16.5962 20.2154 15.3943 21.8322 14.5174C24.0308 13.3283 26.2037 13.5037 28.2526 14.8382C29.4845 15.6424 29.9122 16.5449 30.1988 18.0334C30.3656 18.8761 30.3656 19.7273 30.2073 20.5785L30.2117 20.5785Z" fill="#2F1212"/>
<path d="M25.977 16.3053C25.6947 16.284 25.4082 16.2498 25.1173 16.2027C24.1378 16.0487 23.278 16.2626 22.5423 16.8443C21.7211 17.4902 20.8485 18.0976 20.3138 19.0472C19.5995 20.309 19.3214 21.7462 19.4754 23.363C19.4027 24.4281 19.7791 25.4974 20.6089 26.5753C20.6945 26.6865 20.7929 26.7806 20.9041 26.8705L23.1968 28.6199C23.2652 28.6071 23.2866 28.637 23.2566 28.7183C23.2224 28.821 23.1027 28.8723 22.9872 28.8381C22.2557 28.6242 21.7895 28.4873 21.5842 28.4232C20.7886 28.1836 20.4678 28.0382 19.8775 27.4094C19.5738 27.0886 19.2744 26.7635 18.9664 26.4299C18.7526 26.0578 18.5387 25.66 18.3163 25.2408C18.2008 25.0184 18.1281 24.612 18.1024 24.0303C18.0297 22.4862 17.957 20.8223 18.4916 19.2311C18.6242 18.8333 18.8082 18.5039 19.0349 18.2473C20.9768 16.0872 22.9743 14.7997 25.9813 16.0786C26.0412 16.1043 26.0754 16.1514 26.0797 16.2241C26.0797 16.254 26.0498 16.284 25.977 16.3053Z" fill="#FFF5F5"/>
<path d="M61.3381 30.0828C62.4631 29.0648 63.2287 27.7559 63.6394 26.169C64.0158 24.6976 63.7506 22.9653 63.464 21.5409C63.2929 20.6897 62.4118 20.0481 61.505 19.2054C61.4665 19.1712 61.428 19.1285 61.3937 19.0814C60.7179 18.1275 59.3492 17.888 58.2499 17.965C58.0702 17.9778 57.8221 17.9351 57.5013 17.841C57.1591 17.7383 56.8512 17.7469 56.5902 17.8581C55.6877 17.841 54.8493 18.0633 54.0665 18.5381C52.8004 19.2995 51.8166 20.1764 51.1023 21.1687C50.512 21.9943 50.2682 22.8027 50.1185 23.7523C49.9774 24.6163 49.5753 25.6215 49.34 26.5753C48.9936 25.0611 48.6984 23.0935 49.0919 21.5537C49.2117 21.0875 49.5924 20.232 50.2255 18.9958C50.2896 18.8675 50.3794 18.752 50.4778 18.6493C51.436 17.704 52.4796 16.917 53.6089 16.2882C54.9691 15.5354 56.9495 15.3985 58.3781 15.7365C58.7545 15.8263 59.5587 16.1428 60.7863 16.6903C60.9103 16.7459 61.0258 16.8272 61.1199 16.9256C61.4065 17.2335 61.6717 17.5715 62.0054 17.8623C62.6641 18.4269 63.1046 18.8932 63.3313 19.2567C64.1868 20.6127 64.6231 22.2039 64.6402 24.0217C64.6445 24.9371 64.5418 25.6471 64.328 26.1604C64.3237 26.1733 64.3194 26.1904 64.3151 26.2075L64.2125 27.2725C64.2125 27.3324 64.2638 27.3795 64.3237 27.3624C64.914 27.1955 65.4957 26.956 66.0731 26.6395C66.2571 26.5368 66.4795 26.4684 66.7361 26.4299C66.8773 26.4085 67.0013 26.5026 67.0056 26.6267C67.0056 26.7764 66.9586 26.8919 66.8473 26.9774C66.2228 27.4522 65.5984 27.7944 64.9653 28.004C64.9054 28.0211 64.8712 28.0895 64.8883 28.1537V28.1665C64.8883 28.1665 64.9311 28.1965 64.9525 28.1965L66.8987 28.0125C67.0227 27.9997 67.1339 28.0938 67.151 28.2178L67.1596 28.3034C67.1681 28.3847 67.1083 28.4617 67.027 28.4702L63.1303 28.8979C63.0875 28.9022 63.049 28.9236 63.0191 28.9536C62.4801 29.5224 61.9198 29.9031 61.3338 30.0913L61.3381 30.0828Z" fill="#2F1212"/>
<path d="M25.977 16.3053H26.4347C26.5074 16.3053 26.5759 16.331 26.6272 16.3823C27.4827 17.2806 28.4921 17.9735 29.2364 19.0001C29.6085 19.5091 29.9336 20.0352 30.2117 20.5785C30.2801 21.8574 30.1817 23.1021 29.908 24.3083C29.878 24.4495 29.8267 24.5821 29.7582 24.7061C29.3904 25.3777 29.1894 26.2075 28.7274 26.7122C28.0815 27.418 27.3159 28.0296 26.4305 28.5472C26.1054 28.7354 25.5707 28.8851 24.8179 28.9921C24.249 29.0733 23.7528 28.9322 23.3251 28.5686C23.2181 28.5002 23.2652 28.4489 23.4662 28.4061C23.5133 28.3975 23.5646 28.3975 23.6159 28.4061C24.48 28.5515 25.1301 27.9655 25.7931 27.3795C26.3877 26.8534 26.5588 26.2118 26.3064 25.4547C26.2594 25.3178 26.0968 25.2708 25.9856 25.3563C25.5579 25.69 25.0873 25.8012 24.5655 25.69C23.0855 25.3691 21.982 24.7147 21.5414 23.1663C21.396 22.6487 21.3233 22.1226 21.3233 21.5837C21.3233 21.3655 21.0923 21.2244 20.8955 21.3227C20.6517 21.4468 20.4507 21.6607 20.2967 21.9644C20.0657 22.422 19.7877 22.884 19.4712 23.3545C19.3172 21.7377 19.5952 20.3004 20.3095 19.0386C20.8442 18.0933 21.721 17.4859 22.538 16.8357C23.2737 16.254 24.1335 16.0402 25.113 16.1941C25.4081 16.2412 25.6947 16.2754 25.9728 16.2968M26.6615 19.4492C25.853 19.4877 25.2371 20.2192 25.2799 21.0832C25.3227 21.9472 26.007 22.6145 26.8155 22.5717C27.6239 22.5332 28.2398 21.8018 28.197 20.9378C28.1543 20.0737 27.4699 19.4065 26.6615 19.4492Z" fill="#220404"/>
<path d="M61.3381 30.0828C60.4826 30.6388 59.6785 31.011 58.93 31.2078C58.0403 31.4387 57.0095 31.5157 55.8417 31.4302C55.8075 31.4302 55.7776 31.3917 55.7605 31.3233C55.846 31.2463 55.9358 31.1949 56.0299 31.1735C57.5783 30.8356 58.7717 29.993 59.7598 29.0819C60.6067 28.2991 61.1885 27.4394 61.4964 26.5112C61.9627 25.3007 61.8899 24.6206 61.8857 23.0765C61.8857 22.4349 61.4151 20.8907 60.8634 20.3518C60.2132 19.7187 59.6187 19.0985 59.0669 18.4911C58.9642 18.3799 58.8316 18.3029 58.6819 18.273L56.5988 17.8581C56.8597 17.7426 57.1634 17.7383 57.5099 17.841C57.8307 17.9351 58.0788 17.9778 58.2584 17.965C59.3577 17.888 60.7265 18.1318 61.4023 19.0814C61.4323 19.1284 61.4708 19.1712 61.5135 19.2054C62.4203 20.0481 63.3015 20.6897 63.4726 21.5409C63.7592 22.9653 64.0244 24.6976 63.6479 26.169C63.2373 27.7602 62.4717 29.0648 61.3467 30.0828L61.3381 30.0828Z" fill="#FFF5F5"/>
<path d="M56.5945 17.858L58.6776 18.273C58.8273 18.3029 58.9599 18.3799 59.0626 18.4911C59.6101 19.0985 60.2089 19.7187 60.8591 20.3518C61.4109 20.8907 61.8771 22.4348 61.8814 23.0765C61.8814 24.6206 61.9583 25.3007 61.4921 26.5112L61.1072 25.4376C61.0045 25.1553 60.8676 24.8858 60.6965 24.6334L60.025 23.6325C59.9394 23.5042 59.7427 23.5512 59.717 23.701C59.5758 24.5693 59.1994 25.9038 58.5749 26.5411C57.6382 27.495 56.5004 27.9099 55.153 27.7816C55.0033 27.7687 54.8579 27.726 54.7253 27.6575L53.3394 26.9774C53.2154 26.9175 53.0742 26.9389 52.9759 27.033C52.7149 27.2854 52.6679 27.5207 52.732 27.9013C52.8133 28.3676 52.8818 28.6713 52.9288 28.8124C53.1598 29.4882 53.8228 29.9416 54.4601 30.4977C54.8836 30.8656 55.3584 31.0195 55.8845 30.9554C55.9572 30.9468 56 30.9639 56.0214 31.011C56.0342 31.0495 56.0342 31.1051 56.0214 31.1735C55.9315 31.1906 55.8417 31.242 55.7519 31.3232C55.4653 31.3703 55.1445 31.3318 54.7938 31.212C53.8185 30.8741 53.0572 30.5918 52.2017 30.0229C51.898 29.8219 51.4489 29.5567 50.85 29.2273C50.6661 29.1247 50.5078 28.975 50.3966 28.791C50.0031 28.1323 49.4341 27.3624 49.34 26.5753C49.5753 25.6258 49.9816 24.6163 50.1185 23.7523C50.2725 22.8027 50.512 21.9943 51.1023 21.1687C51.8124 20.1721 52.8004 19.2995 54.0665 18.5381C54.845 18.0676 55.6877 17.841 56.5902 17.8581M56.0599 21.2885C55.3113 21.7205 55.0804 22.7214 55.5423 23.5213C56.0043 24.3212 56.9881 24.6206 57.7366 24.1886C58.4852 23.7566 58.7161 22.7556 58.2542 21.9558C57.7922 21.1559 56.8084 20.8565 56.0599 21.2885Z" fill="#220404"/>
<path d="M26.6615 19.4492C27.4699 19.4107 28.1543 20.078 28.197 20.9378C28.2398 21.7975 27.6196 22.5289 26.8155 22.5717C26.007 22.6102 25.3227 21.9429 25.2799 21.0832C25.2371 20.2234 25.8573 19.492 26.6615 19.4492Z" fill="#FFF5F5"/>
<path d="M56.0599 21.2885C56.8084 20.8565 57.7922 21.1559 58.2542 21.9558C58.7161 22.7556 58.4852 23.7566 57.7366 24.1886C56.9881 24.6206 56.0043 24.3212 55.5423 23.5213C55.0804 22.7214 55.3113 21.7205 56.0599 21.2885Z" fill="#FFF5F5"/>
<path d="M23.3251 28.5686C23.2866 28.5686 23.2439 28.5815 23.1925 28.6114L20.8999 26.862C20.7886 26.7764 20.6903 26.678 20.6047 26.5668C19.7749 25.4932 19.3984 24.4196 19.4712 23.3545C19.792 22.884 20.0657 22.422 20.2967 21.9644C20.4507 21.6607 20.6517 21.4468 20.8955 21.3227C21.0923 21.2244 21.3233 21.3655 21.3233 21.5837C21.3233 22.1226 21.396 22.6487 21.5414 23.1663C21.982 24.7147 23.0855 25.3691 24.5655 25.69C25.0831 25.8012 25.5579 25.69 25.9856 25.3563C26.0968 25.2708 26.2594 25.3178 26.3064 25.4547C26.5588 26.2118 26.3877 26.8534 25.7931 27.3795C25.1301 27.9655 24.4842 28.5515 23.6159 28.4061C23.5646 28.3975 23.5133 28.3975 23.4662 28.4061C23.2652 28.4446 23.2181 28.5002 23.3251 28.5686Z" fill="#644444"/>
<path d="M10.8737 22.5846C11.3955 22.6829 11.9216 22.7471 12.4562 22.7728C12.9481 22.7984 13.3074 23.0893 13.547 23.6368C13.9619 24.9713 14.4495 26.0407 15.0098 26.8577C15.3563 27.3667 15.6899 27.9356 16.0065 28.5558C16.3572 29.253 17.2084 29.7021 17.7431 30.0956C19.7064 31.5414 21.8622 31.4815 24.326 31.4601C26.7127 31.443 28.6076 30.6902 30.4597 29.1803C31.0628 28.6884 31.3323 28.3034 31.7429 27.5848C32.0295 27.0886 32.4444 26.7593 32.9919 26.5925C33.9458 26.3144 34.8098 26.1134 35.5797 25.9936C37.2479 25.7284 38.976 25.814 40.7639 26.2417C41.1018 26.323 41.6579 26.5283 42.4449 26.8619C43.1593 27.1656 44.0404 27.2683 44.8488 27.619C44.9814 27.8799 45.1183 28.1623 45.2509 28.4659C45.6401 29.3428 46.3245 30.1085 46.9961 30.7928C47.1843 30.9853 47.3981 31.1436 47.6377 31.2676C48.5915 31.7595 49.7079 32.5893 50.7773 32.9657C52.8561 33.7057 54.8194 34.0479 56.6587 33.9923C58.2798 33.941 59.1951 33.911 59.4005 33.9025C61.5862 33.7998 63.2715 33 65.0466 31.8365C65.346 31.6398 65.7738 31.2847 66.3384 30.7672C67.3692 29.8176 68.4386 28.9792 69.5549 28.2478C70.9194 28.1409 72.1342 28.3462 73.195 28.868C73.7767 29.1546 74.2216 29.3984 74.5338 29.608C74.5381 29.608 74.5466 29.6166 74.5509 29.6251L75.6716 30.9254C75.6973 30.9554 75.7144 30.9939 75.7144 31.0366C75.7187 31.1906 75.7785 31.4387 75.8855 31.7852C76.0566 32.3241 76.1378 32.7989 76.125 33.2053C76.1079 34.0394 76.172 34.835 76.3218 35.5878L74.6921 39.6855C74.6493 39.7967 74.5851 39.9037 74.5124 39.9978C73.6227 41.1099 72.7715 42.269 71.7407 43.2443C71.4669 43.5009 70.9194 44.057 70.0939 44.9082C69.9741 45.0322 69.8415 45.1392 69.6961 45.229L62.5614 49.6988C62.0781 49.7288 61.7188 49.7972 61.4878 49.9084C60.3458 50.4559 59.2294 50.8837 58.1386 51.1917C57.2233 51.4483 56.2609 51.9316 55.5209 52.1327C53.2496 52.7486 50.9227 53.2106 48.5402 53.5185C48.4418 53.5314 48.3691 53.6169 48.3648 53.7153C48.3648 53.8137 48.4333 53.8992 48.5359 53.9163L49.648 54.096C49.8448 54.1259 50.0073 54.2628 50.0758 54.4467C50.6318 55.9224 50.9398 57.4067 51.0082 58.8995C51.0382 59.5753 51.2863 60.5805 51.7525 61.9108C51.8081 62.0733 51.8509 62.2401 51.8723 62.4069C52.0049 63.3308 52.2915 64.1735 52.3813 65.0717C52.4925 66.1753 52.5609 67.2703 52.5951 68.3568C52.4326 69.0411 52.3043 70.1019 52.2102 71.5349C52.1631 72.2577 51.8081 72.9464 51.1537 73.5966C51.1237 73.6265 51.0938 73.665 51.0681 73.7035C50.0672 75.1792 49.0022 76.719 47.8644 78.3231C46.6795 79.9912 45.8112 81.5011 45.4776 83.503L43.7367 84.5295C43.5656 84.6322 43.4031 84.7605 43.2576 84.9017C42.7272 85.4406 42.1712 85.9539 41.5895 86.4501C41.2515 86.7367 41.0334 87.0147 40.935 87.2799C40.8024 87.6349 40.8195 87.9814 40.9863 88.3193C41.1532 89.3074 41.8718 89.7223 43.1379 89.5683C43.1592 90.0003 43.0395 90.4708 42.7786 90.9713C42.7187 91.0867 42.6802 91.2065 42.6588 91.3348L42.4535 92.5539C42.1241 93.0928 42.9368 93.7302 43.4031 93.9355C43.5485 93.9996 43.711 93.9911 43.8479 93.9141L44.96 93.2725C45.0242 93.234 45.1055 93.2639 45.1268 93.3324L45.4519 94.2349C45.4519 94.2349 45.469 94.2648 45.4819 94.2734C45.8583 94.5643 46.1876 94.6584 46.4657 94.56C47.257 94.282 47.8173 94.0937 48.151 93.9868C48.1937 93.974 48.2322 94.0168 48.2108 94.0553C47.9585 94.6327 47.8986 95.424 48.6172 95.7234C48.9594 95.8689 49.3443 95.8389 49.7678 95.6379C50.465 95.4539 51.0981 95.0134 51.667 94.3162C51.9835 93.9355 52.1418 93.7387 52.146 93.7345C52.8689 92.8961 53.2795 92.0877 53.8484 91.2792C54.0238 91.0269 54.2377 90.8814 54.4857 90.8429C54.5456 90.8686 54.5756 90.9028 54.5756 90.937C54.7723 91.8182 54.8493 92.494 54.8066 92.9645C54.7381 93.7601 54.4815 95.1845 54.0495 97.2419C53.9468 97.7338 53.8527 98.307 53.7671 98.97C53.673 99.6886 53.472 100.399 53.1683 101.104C52.4583 102.73 51.9279 104.043 51.0211 105.339C50.9655 105.42 50.6404 105.908 50.0458 106.798C49.9603 106.926 49.8405 107.02 49.6994 107.071L49.0749 107.294C49.015 107.315 48.9594 107.345 48.9123 107.388L44.8616 110.87C44.806 110.917 44.7462 110.959 44.682 110.994C42.184 112.251 39.8785 113.325 37.1966 113.577C36.9485 113.599 36.6961 113.59 36.448 113.552L31.4948 112.752C31.4136 112.739 31.3366 112.713 31.2681 112.675L29.3947 111.657C29.3647 111.644 29.339 111.622 29.3177 111.597C28.6675 110.921 27.9361 110.408 27.1148 110.048L25.5322 107.952C25.2328 107.272 24.6382 106.011 23.7485 104.167C22.7006 101.994 21.9435 99.5859 21.4729 96.9468C21.4729 96.9296 21.4216 96.7243 21.3275 96.3308C21.2035 95.809 21.3275 95.4967 21.6868 95.4026C22.2899 95.856 23.5261 95.9287 24.0009 95.146C24.0565 95.0562 24.1848 95.069 24.2233 95.1674C24.2917 95.3599 24.4457 95.4368 24.6853 95.3941C24.8991 95.6892 25.3183 95.7277 25.9471 95.5096C26.5374 95.0861 26.8881 94.4231 26.9993 93.512C27.0549 93.0843 26.9437 92.6394 26.9266 92.2074C26.9266 92.1433 26.9822 92.0877 27.0506 92.1048C27.765 92.263 28.4322 92.0962 29.0482 91.6043C29.369 91.1039 29.5144 90.5777 29.4845 90.0131C29.4588 89.4229 29.3262 88.7898 29.091 88.1097C28.9969 87.8317 28.7402 87.3269 28.3253 86.5955C28.0302 86.0779 27.8035 85.5561 27.6495 85.0343C27.4399 83.8922 27.2217 82.7673 26.9908 81.6551C26.8624 81.0306 26.6315 80.2008 26.2893 79.17C25.9385 78.1006 25.699 77.1211 25.575 76.2314C25.545 76.0004 25.5236 75.4273 25.5193 74.5119L27.0421 64.2719C27.0506 64.2034 27.0678 64.135 27.0891 64.0666C27.2688 63.4934 27.4784 63.0528 27.6238 62.3727C27.966 60.7687 28.0473 59.9389 28.4921 58.7156C28.6932 58.1638 28.9926 57.1757 29.3861 55.7428C29.4246 55.6016 29.4759 55.469 29.5401 55.3407C29.955 54.5152 30.2074 53.9078 30.2929 53.5143C30.4212 52.9582 30.5709 52.4706 30.7506 52.0471C30.7976 51.9359 30.7549 51.8076 30.6522 51.7434C29.8609 51.2558 29.0011 50.9136 28.0729 50.7211C27.7564 50.657 27.3757 50.5329 26.9138 50.3447C26.3449 50.1138 25.776 49.9983 25.2157 49.9854L20.5747 47.4874C20.5319 47.4661 20.4849 47.4361 20.4464 47.4062C19.3343 46.555 18.2179 45.7551 17.0972 45.0023C16.7379 44.7585 16.4043 44.4933 16.1006 44.1981C15.4675 43.5822 14.796 43.0518 14.0816 42.5984C13.8763 42.4658 13.6924 42.3033 13.5341 42.1151C12.7 41.1313 12.2295 40.588 12.1226 40.4768C11.404 39.7411 10.942 38.8086 10.1764 37.9874C9.76149 37.5383 9.17121 36.5117 8.86752 35.7161C8.72636 35.344 8.41411 34.6297 7.93933 33.5817C7.89655 33.4876 7.86233 33.3935 7.84095 33.2908C7.66985 32.538 7.54581 31.7424 7.47737 30.8998C7.46881 30.7843 7.49448 30.3651 7.55436 29.6465C7.59714 29.1503 7.53725 28.7098 7.37044 28.3162C7.49448 27.5164 7.69979 26.8063 7.97782 26.1818C8.1703 25.7584 8.43122 25.2451 8.76486 24.6462C9.40647 23.8335 10.108 23.1406 10.8651 22.5632M29.168 33.5774C29.0226 34.9333 29.0739 36.0155 30.37 36.8154C30.8191 37.0934 31.1613 37.3201 31.3923 37.4998C31.5077 37.5896 31.5847 37.7136 31.6104 37.8548C31.82 38.8985 31.9868 39.5529 32.1066 39.8181C32.7867 41.3023 33.193 42.1963 33.3299 42.5C33.8432 43.6549 34.6944 44.9296 35.7894 45.5583C37.1838 46.3625 37.9538 46.2342 39.8615 46.2299C40.1181 46.2299 40.3747 46.1871 40.6143 46.0973L42.4878 45.4215C42.6418 45.3659 42.7872 45.2803 42.9112 45.1691C43.9849 44.2024 44.7548 43.2742 45.2253 42.3802C45.6274 41.6103 46.0594 40.6094 46.5128 39.3818C47.086 37.8334 47.1715 36.6614 47.0902 35.1001C47.086 34.9504 46.8892 34.9034 46.8122 35.0274C46.3716 35.7375 45.837 36.2893 45.2039 36.6828C44.5281 37.0977 43.6812 37.4313 42.6589 37.6751C41.0078 38.0729 39.3995 38.244 37.8297 38.1884C37.7527 38.1884 37.68 38.167 37.6158 38.1285L36.739 37.6195C36.6876 37.5896 36.6577 37.534 36.6577 37.4741C36.662 36.9138 36.6149 36.4732 36.508 36.1567C36.4823 36.0839 36.5208 36.0027 36.5978 35.9813C36.8716 35.8957 37.2694 35.6006 37.7827 35.0916C38.2232 34.6553 38.8263 34.2404 39.592 33.8426C40.3149 33.4662 40.6784 33.1069 40.9736 32.4182C41.4227 31.3617 41.0506 30.4549 39.9641 30.0486C38.0564 29.3385 36.2086 29.0862 34.4206 29.2957C33.7833 29.3685 33.2187 29.5267 32.7268 29.7705C30.7763 30.7287 33.1331 33.4662 33.9416 34.4842C34.519 35.2114 35.1392 35.6776 35.9605 36.0283C36.0845 36.0797 36.1658 36.2037 36.1658 36.3449V37.5939C36.1658 37.7564 36.0546 37.8933 35.9006 37.9275C35.3702 38.0515 34.7201 38.1799 34.1811 38.0986C33.1203 37.9318 32.2349 37.5554 31.5291 36.9608C30.8918 36.4219 30.0534 36.1139 29.6642 35.3226C29.4546 34.8991 29.5188 34.065 29.3348 33.556C29.3049 33.4705 29.1809 33.4833 29.168 33.5731M29.399 31.6397L29.4931 31.9007C29.5359 32.0204 29.7112 31.9991 29.7241 31.8707L29.7455 31.6226C29.7497 31.5628 29.707 31.5072 29.6428 31.4986L29.5145 31.4858C29.4289 31.4772 29.3648 31.5585 29.3947 31.6397M30.8704 33.3764C30.8704 33.201 30.725 33.0556 30.5496 33.0556C30.3742 33.0556 30.2288 33.201 30.2288 33.3764C30.2288 33.5517 30.3742 33.6972 30.5496 33.6972C30.725 33.6972 30.8704 33.5517 30.8704 33.3764ZM42.8513 33.7357C42.9112 33.8212 42.9626 33.8725 43.0139 33.8854C43.0866 33.9068 43.1636 33.8768 43.1978 33.8084C43.2748 33.6544 43.2876 33.5432 43.2406 33.4747C43.1935 33.402 43.0823 33.3764 42.9112 33.3935C42.8342 33.3978 42.7744 33.4576 42.7701 33.5346C42.7701 33.5817 42.7915 33.6544 42.8513 33.7357ZM44.635 34.3431C44.5452 34.3431 44.4725 34.4714 44.4768 34.6211C44.4768 34.7751 44.558 34.8948 44.6478 34.8948C44.7377 34.8948 44.8104 34.7665 44.8061 34.6168C44.8061 34.4628 44.7248 34.3431 44.635 34.3431ZM42.8128 35.0445C42.7102 35.0617 42.6418 35.1771 42.6631 35.3097C42.6802 35.4381 42.7829 35.5322 42.8856 35.5193C42.9882 35.5022 43.0567 35.3867 43.0353 35.2541C43.0182 35.1258 42.9155 35.0317 42.8128 35.0445Z" fill="#ECCFA9"/>
<path d="M61.4921 26.5112C61.1841 27.4437 60.6067 28.2991 59.7555 29.0819C58.7631 29.9972 57.5698 30.8356 56.0257 31.1735C56.0385 31.1051 56.0385 31.0495 56.0256 31.011C56.0085 30.9639 55.9615 30.9425 55.8888 30.9554C55.3626 31.0195 54.8878 30.8698 54.4644 30.4977C53.8271 29.9416 53.1641 29.4839 52.9331 28.8124C52.886 28.667 52.8176 28.3633 52.7363 27.9013C52.6722 27.5206 52.7192 27.2811 52.9801 27.033C53.0785 26.9389 53.2197 26.9175 53.3437 26.9774L54.7296 27.6575C54.8622 27.7259 55.0076 27.7644 55.1573 27.7815C56.5047 27.9099 57.6425 27.495 58.5792 26.5411C59.2037 25.9038 59.5844 24.5692 59.7213 23.7009C59.7427 23.5512 59.9394 23.5084 60.0293 23.6325L60.7008 24.6334C60.8676 24.8858 61.0088 25.1552 61.1114 25.4375L61.4964 26.5112L61.4921 26.5112Z" fill="#644444"/>
<path d="M29.168 33.5774C29.1766 33.4876 29.3049 33.4747 29.3348 33.5603C29.5188 34.0693 29.4546 34.9034 29.6642 35.3268C30.0534 36.1139 30.8918 36.4261 31.5291 36.9651C32.2349 37.5596 33.1203 37.9403 34.1811 38.1029C34.7201 38.1884 35.3702 38.0601 35.9006 37.9318C36.0546 37.8975 36.1658 37.7607 36.1658 37.5981V36.3491C36.1658 36.208 36.0845 36.0839 35.9605 36.0326C35.1392 35.6819 34.519 35.2156 33.9416 34.4885C33.1331 33.4705 30.7763 30.7329 32.7268 29.7748C33.2187 29.531 33.7833 29.377 34.4206 29.3C36.2086 29.0947 38.0564 29.3428 39.9641 30.0528C41.0506 30.4592 41.4227 31.366 40.9736 32.4225C40.6784 33.1112 40.3149 33.4705 39.592 33.8469C38.8263 34.2447 38.2232 34.6596 37.7827 35.0959C37.2651 35.6049 36.8716 35.9 36.5978 35.9855C36.5208 36.0069 36.4823 36.0882 36.508 36.1609C36.6149 36.4817 36.6663 36.918 36.6577 37.4784C36.6577 37.5382 36.6876 37.5938 36.739 37.6238L37.6158 38.1328C37.68 38.1713 37.757 38.1927 37.8297 38.1927C39.3952 38.2483 41.0078 38.0772 42.6589 37.6794C43.6769 37.4356 44.5281 37.1019 45.2039 36.687C45.837 36.2935 46.3759 35.7417 46.8122 35.0317C46.8892 34.9034 47.0859 34.9547 47.0902 35.1044C47.1715 36.6657 47.0902 37.8377 46.5128 39.3861C46.0594 40.6137 45.6316 41.6103 45.2253 42.3845C44.7548 43.2785 43.9848 44.2067 42.9112 45.1734C42.7872 45.2846 42.6418 45.3701 42.4878 45.4257L40.6143 46.1015C40.3747 46.1914 40.1181 46.2341 39.8615 46.2341C37.9538 46.2341 37.1838 46.3667 35.7894 45.5626C34.6987 44.9338 33.8475 43.6592 33.3299 42.5043C33.193 42.2006 32.7867 41.3109 32.1066 39.8224C31.9868 39.5572 31.82 38.9027 31.6104 37.859C31.5847 37.7179 31.5035 37.5938 31.3923 37.504C31.157 37.3244 30.8148 37.0977 30.37 36.8196C29.0739 36.0155 29.0226 34.9333 29.168 33.5817V33.5774Z" fill="#2F1212"/>
<path d="M29.399 31.6397C29.3691 31.5585 29.4332 31.4772 29.5187 31.4858L29.6471 31.4986C29.707 31.5029 29.754 31.5585 29.7497 31.6226L29.7283 31.8707C29.7198 31.999 29.5401 32.0204 29.4974 31.9007L29.4033 31.6397H29.399Z" fill="#2F1212"/>
<path d="M30.8704 33.3764C30.8704 33.5517 30.725 33.6972 30.5496 33.6972C30.3742 33.6972 30.2288 33.5517 30.2288 33.3764C30.2288 33.201 30.3742 33.0556 30.5496 33.0556C30.725 33.0556 30.8704 33.201 30.8704 33.3764Z" fill="#2F1212"/>
<path d="M43.2406 33.4747C43.2876 33.5432 43.2705 33.6544 43.1978 33.8084C43.1636 33.8768 43.0866 33.911 43.0139 33.8854C42.9668 33.8725 42.9112 33.8212 42.8513 33.7357C42.7957 33.6501 42.7658 33.5817 42.7701 33.5346C42.7744 33.4576 42.8342 33.3978 42.9112 33.3935C43.0823 33.3764 43.1893 33.402 43.2406 33.4747Z" fill="#2F1212"/>
<path d="M44.635 34.3431C44.7248 34.3431 44.8018 34.4628 44.8061 34.6168C44.8061 34.7708 44.7377 34.8948 44.6478 34.8948C44.558 34.8948 44.481 34.7751 44.4768 34.6211C44.4768 34.4671 44.5452 34.3431 44.635 34.3431Z" fill="#2F1212"/>
<path d="M42.8128 35.0445C42.9155 35.0274 43.0139 35.1215 43.0353 35.2541C43.0524 35.3825 42.9882 35.5022 42.8856 35.5193C42.7829 35.5364 42.6845 35.4423 42.6631 35.3097C42.646 35.1814 42.7102 35.0617 42.8128 35.0445Z" fill="#644444"/>
<path d="M62.5572 49.7031C62.5059 50.1608 62.4502 50.4474 62.3904 50.5586C61.8471 51.5723 61.3253 52.4663 61.2782 53.5912C61.2654 53.9848 61.2569 55.0584 61.2611 56.8078C61.2611 57.8515 61.4108 58.6385 61.4878 59.6737C61.5007 59.8319 61.5605 60.2083 61.6675 60.8072C62.0268 62.7919 62.2406 63.951 62.3134 64.2847C62.5657 65.4438 62.6598 66.5303 62.8609 67.8905C62.9208 68.284 62.9293 68.823 62.8908 69.5074C62.3262 72.0823 62.0909 74.6402 62.1808 77.1852C62.1808 77.2836 62.1722 77.382 62.1508 77.4804L61.2055 81.3728C61.2012 81.3985 61.1884 81.4284 61.1756 81.4541C60.4741 82.8143 59.6742 84.0419 58.7803 85.1326C58.4423 85.5475 58.0274 85.941 57.5398 86.3175C56.4662 87.1515 55.3412 88.2594 54.3403 88.8112C53.5062 89.2688 52.8133 89.5426 52.2573 89.6367C51.5044 89.7607 50.7645 89.7222 50.0458 89.5255C49.2075 89.2945 48.5445 88.7769 47.535 88.1439C47.4751 88.1054 47.4281 88.0541 47.3939 87.9899C46.7651 86.7965 46.363 85.5432 46.1919 84.2344C46.1663 84.0376 46.0294 83.7467 45.7813 83.3618C46.1406 82.5747 46.5085 81.7877 46.8849 80.9921C47.1116 80.5088 47.3212 80.1452 47.5094 79.9014C47.8516 79.4523 48.074 79.0972 48.1809 78.8363C48.2622 78.6396 48.6129 78.1134 49.2331 77.2665C49.7037 76.6249 50.0886 75.7309 50.6447 74.9952C51.3889 74.0072 52.2786 73.0875 53.3095 72.2406C53.4164 72.1551 53.4806 72.0225 53.4806 71.8856V71.4151C53.4806 71.368 53.4207 71.3466 53.3865 71.3851L52.7278 72.1936C52.6978 72.2278 52.6508 72.2363 52.608 72.2149C52.5695 72.1936 52.5524 72.1422 52.5738 72.0994L52.8475 71.4664C52.8689 71.4151 52.8817 71.3552 52.8775 71.2953C52.8347 70.5553 53.07 69.8282 53.0443 69.1652C53.0101 68.3097 53.2325 67.2831 53.2154 66.3977C53.1983 65.6192 53.1769 64.8279 53.1469 64.028C53.1469 63.9853 53.1085 63.9468 53.0657 63.9468H52.8304C52.7791 63.9468 52.7363 63.9853 52.7363 64.0366C52.7235 64.3146 52.7534 64.9776 52.8433 66.0213C52.8946 66.6287 52.8176 67.4072 52.608 68.361C52.5781 67.2746 52.5053 66.1796 52.3941 65.076C52.3043 64.1777 52.0177 63.3351 51.8851 62.4112C51.8637 62.2401 51.821 62.0733 51.7654 61.915C51.2991 60.5805 51.051 59.5796 51.0211 58.9037C50.9527 57.4067 50.6447 55.9224 50.0886 54.451C50.0202 54.2671 49.8576 54.1302 49.6609 54.1003L48.5488 53.9206C48.4504 53.9035 48.3777 53.8179 48.3777 53.7196C48.3777 53.6212 48.4547 53.5356 48.553 53.5228C50.9313 53.2106 53.2624 52.7486 55.5337 52.1369C56.2737 51.9359 57.2361 51.4525 58.1515 51.1959C59.2422 50.8879 60.3543 50.4602 61.5007 49.9127C61.7316 49.8015 62.0909 49.733 62.5743 49.7031H62.5572Z" fill="#CCA272"/>
<path d="M25.5279 74.5247C25.4167 73.5581 25.344 72.6171 25.297 71.7017C25.2499 70.7136 25.3312 69.7427 25.5408 68.7845C25.7803 67.6895 25.9814 66.6416 26.1439 65.6449C26.1824 65.3969 26.3578 64.9819 26.6572 64.4002C26.7042 64.3104 26.67 64.2035 26.5802 64.1521L26.5631 64.1436C26.469 64.0965 26.3578 64.1307 26.3064 64.2248C25.9856 64.8493 25.6777 65.4311 25.5793 66.1753C25.5451 66.4534 25.498 66.7228 25.4424 66.9795C24.9248 67.4029 24.5655 67.9632 24.3645 68.6562C23.9838 69.9736 23.6245 71.2012 23.6203 72.4673C23.6203 73.8061 23.3679 75.0936 23.7443 76.4196C24.3517 78.5626 24.9163 80.6286 25.7204 82.6689C25.7846 82.8314 25.8317 82.9939 25.8701 83.165C25.9728 83.6698 26.0584 84.1788 26.1353 84.6921C26.3663 86.3132 25.8702 87.6392 24.6511 88.67C24.5527 88.7513 24.4458 88.8155 24.326 88.8582C23.5689 89.1491 22.7733 89.333 21.935 89.41C20.7843 89.5169 19.8219 88.7556 19.0862 88.0412C19.0221 87.9771 18.9622 87.9087 18.9151 87.8359C18.5259 87.2628 18.081 86.7324 17.5891 86.249C17.3967 85.586 17.0459 84.5552 16.5454 83.1437C15.8439 81.1632 16.1861 79.1015 16.2332 77.0313C16.2545 76.0133 16.3315 75.2433 16.4641 74.7258C16.7593 73.5837 16.8705 72.4844 17.2554 71.3467C17.5035 70.6195 17.7302 69.8752 17.9313 69.1181C18.0853 68.5492 18.359 67.8221 18.7482 66.941C19.6294 64.9306 20.5704 63.0657 21.567 61.3461C22.029 60.5463 22.2215 60.0758 22.6107 59.2203C22.7091 59.0064 22.8246 58.8054 22.9615 58.6172C23.8512 57.381 24.4628 56.1064 24.7879 54.7932C24.9547 54.1302 24.9761 53.232 25.0274 52.5176C25.0702 51.9231 25.2627 50.888 25.2328 49.9983C25.7974 50.0068 26.3663 50.1266 26.9309 50.3576C27.3886 50.5415 27.7735 50.6698 28.09 50.734C29.0225 50.9265 29.8823 51.2687 30.6693 51.7563C30.772 51.8204 30.8147 51.9487 30.7677 52.06C30.5923 52.4834 30.4383 52.971 30.31 53.5271C30.2245 53.9163 29.9721 54.528 29.5572 55.3535C29.493 55.4819 29.4417 55.6187 29.4032 55.7556C29.0097 57.1885 28.7103 58.1766 28.5092 58.7284C28.0644 59.9517 27.9831 60.7815 27.6409 62.3856C27.4955 63.0657 27.2859 63.5062 27.1062 64.0794C27.0849 64.1478 27.072 64.2163 27.0592 64.2847L25.5364 74.5247H25.5279Z" fill="#CCA272"/>
<path d="M45.7813 83.3661C45.6487 83.4816 45.5461 83.5286 45.4776 83.5115C45.8113 81.5097 46.6796 79.9998 47.8644 78.3316C49.0022 76.7276 50.0672 75.1877 51.0682 73.712C51.0938 73.6735 51.1238 73.6393 51.1537 73.6051C51.8081 72.9506 52.1632 72.2663 52.2102 71.5434C52.3043 70.1147 52.4326 69.054 52.5952 68.3653C52.8048 67.4114 52.8818 66.633 52.8304 66.0256C52.7449 64.9819 52.7107 64.3189 52.7235 64.0409C52.7235 63.9896 52.7663 63.9511 52.8176 63.9511H53.0529C53.0956 63.9511 53.1341 63.9853 53.1341 64.0323C53.1641 64.8322 53.1855 65.6235 53.2026 66.402C53.2197 67.2832 52.9973 68.3097 53.0315 69.1695C53.0571 69.8325 52.8262 70.5553 52.8647 71.2996C52.8647 71.3595 52.8604 71.4151 52.8347 71.4707L52.561 72.1038C52.5439 72.1465 52.561 72.1936 52.5952 72.2192C52.6337 72.2406 52.685 72.2321 52.7149 72.1979L53.3737 71.3894C53.4036 71.3509 53.4678 71.3723 53.4678 71.4194V71.8899C53.4678 72.0268 53.4079 72.1594 53.2967 72.2449C52.2658 73.0918 51.3804 74.0115 50.6319 74.9995C50.0758 75.7353 49.6908 76.6335 49.2203 77.2708C48.6001 78.1178 48.2494 78.6439 48.1681 78.8406C48.0612 79.1015 47.8387 79.4566 47.4965 79.9057C47.3083 80.1495 47.0988 80.5131 46.8721 80.9964C46.4956 81.792 46.1278 82.579 45.7685 83.3661H45.7813Z" fill="black"/>
<path d="M25.5279 74.5247C25.5279 75.4401 25.5493 76.0133 25.5835 76.2443C25.7076 77.134 25.9471 78.1135 26.2978 79.1828C26.6358 80.2137 26.871 81.0435 26.9993 81.668C27.2303 82.7801 27.4485 83.9051 27.658 85.0471C27.6495 85.1968 27.5682 85.2909 27.4228 85.3294C27.3415 85.3508 27.2602 85.2952 27.2517 85.2097C27.0806 83.503 26.7213 81.869 26.1738 80.3121C25.6477 78.8107 25.19 77.2024 25.0617 75.8721C24.8606 73.819 24.8093 71.676 24.912 69.4475C24.912 69.3663 24.9248 69.285 24.9462 69.208L25.4466 66.9752C25.5022 66.7186 25.5493 66.4534 25.5835 66.1711C25.6819 65.4268 25.9899 64.8408 26.3107 64.2206C26.3577 64.1265 26.4732 64.0922 26.5673 64.1393L26.5844 64.1479C26.6742 64.1949 26.7085 64.3061 26.6614 64.3959C26.3577 64.9777 26.1866 65.3926 26.1481 65.6407C25.9856 66.6416 25.7846 67.6852 25.545 68.7803C25.3354 69.7384 25.2542 70.7136 25.3012 71.6974C25.344 72.6128 25.421 73.5581 25.5322 74.5205L25.5279 74.5247Z" fill="#220404"/>
<path d="M25.4424 66.9795L24.9419 69.2122C24.9248 69.2892 24.912 69.3705 24.9077 69.4518C24.805 71.676 24.8521 73.819 25.0574 75.8764C25.1857 77.2109 25.6434 78.8149 26.1695 80.3163C26.717 81.8733 27.0763 83.5072 27.2474 85.2139C27.256 85.2952 27.3372 85.355 27.4185 85.3337C27.5639 85.2994 27.6409 85.2011 27.6538 85.0514C27.8078 85.5732 28.0345 86.0908 28.3296 86.6126C28.7445 87.344 29.0011 87.8488 29.0952 88.1268C29.3305 88.8026 29.4588 89.4399 29.4888 90.0302C29.5144 90.5948 29.369 91.1252 29.0525 91.6214C28.8429 91.3862 28.4365 91.4246 27.8249 91.7283C27.7393 91.7711 27.5297 91.754 27.2089 91.6813C26.9052 91.6086 26.7384 91.1637 26.4476 90.9627C26.3534 90.8985 26.2337 90.9884 26.2765 91.0953C26.5716 91.8781 26.824 93.1827 26.439 93.974C26.2037 94.4573 26.0455 94.9749 25.9557 95.5267C25.3269 95.7448 24.9077 95.7063 24.6938 95.4112L24.0608 94.3119C24.0608 94.3119 24.0522 94.2948 24.0479 94.2862L23.3892 92.618C23.3593 92.5453 23.2866 92.4983 23.2053 92.5068L23.1069 92.5197C22.9872 92.5325 22.9187 92.6565 22.97 92.7635C23.2609 93.3495 24.0779 95.2572 23.0556 95.4154C22.6706 95.4753 22.1916 95.4539 21.9734 95.0775C21.6013 94.4274 21.3789 93.666 21.2976 92.7849C21.2848 92.6223 21.1522 92.4983 20.9896 92.4854H20.9255C20.8014 92.4641 20.6988 92.571 20.7201 92.695L20.9383 93.974C20.9426 94.0125 20.9383 94.051 20.934 94.0852L20.6603 95.1032C20.4678 95.2486 20.2667 95.2272 20.0657 95.039C19.6551 94.6541 19.3557 94.1793 19.1717 93.6147C19.1418 93.5206 19.0605 92.9602 18.9365 91.9337C18.8039 90.8643 18.436 89.8634 17.8329 88.9267C17.7559 88.4519 17.6661 87.9086 17.5592 87.3013C17.5036 86.9633 17.5078 86.6212 17.5763 86.2619C18.0682 86.7452 18.513 87.2756 18.9023 87.8488C18.9536 87.9215 19.0092 87.9899 19.0734 88.0541C19.8048 88.7684 20.7672 89.5298 21.9221 89.4228C22.7605 89.3458 23.5603 89.1576 24.3131 88.8711C24.4329 88.8283 24.5398 88.7598 24.6382 88.6829C25.8573 87.652 26.3534 86.326 26.1225 84.7049C26.0498 84.1916 25.9599 83.6826 25.8573 83.1779C25.8231 83.0068 25.7717 82.84 25.7076 82.6817C24.9034 80.6414 24.3388 78.5754 23.7314 76.4324C23.355 75.1022 23.6031 73.8147 23.6074 72.4801C23.6074 71.214 23.971 69.9822 24.3516 68.669C24.5527 67.9761 24.912 67.4157 25.4295 66.9923L25.4424 66.9795Z" fill="#CC8D51"/>
<path d="M67.7798 110.951C67.335 111.152 67.0227 111.481 66.8388 111.939C66.2357 113.419 65.7395 114.48 65.3503 115.108C65.1749 115.391 64.8669 115.81 64.4264 116.37C64.0713 116.819 63.7676 117.243 63.5196 117.649C63.3613 117.897 63.1731 118.12 62.9464 118.304L60.8419 120.045C60.7093 120.156 60.5596 120.241 60.4014 120.31C59.7726 120.566 59.2764 120.93 58.9043 121.396C58.3397 121.499 57.7623 121.833 57.172 122.393C57.0437 122.517 57.1292 122.735 57.3089 122.739C58.6819 122.765 59.8667 123.236 60.8548 124.147C60.9446 124.228 61.0216 124.318 61.0858 124.42C61.3895 124.904 62.2492 126.063 62.4375 126.786C62.6043 127.427 62.7839 128.916 62.0653 129.327C61.6889 129.54 61.2954 129.682 60.8805 129.759H60.7094C59.7427 129.84 58.776 129.878 57.805 129.87C57.1335 129.865 56.5475 129.887 56.0428 129.947C55.4953 130.007 54.9093 130.015 54.2805 129.977C53.0999 129.904 51.9835 129.78 50.9356 129.613C50.3453 129.519 49.6481 129.327 48.8439 129.031C47.9457 128.702 46.239 128.347 45.9268 127.628C45.9011 127.564 45.8883 127.496 45.8926 127.427C45.9567 126.572 45.9824 125.87 45.9695 125.323C45.9482 124.587 46.0679 123.98 46.1321 123.184C46.1577 122.833 45.9738 122.205 45.5803 121.311C47.92 121.362 50.2042 121.281 52.4455 121.054C53.3052 120.969 53.9469 120.857 54.3746 120.729C56.3122 120.139 58.3012 119.099 59.9395 118.068C60.4271 117.76 60.9233 117.371 61.4237 116.896C62.5401 115.84 63.0919 115.506 63.571 114.416C64.1056 113.201 64.5419 111.986 64.8756 110.776C65.1493 109.783 65.4487 109.013 65.5984 108.145C65.9706 105.938 66.1203 103.401 66.039 100.535C65.9406 97.1564 65.731 94.4531 65.406 92.4299C65.1621 90.9071 64.6617 89.7223 64.0158 88.0113C63.9431 87.8146 63.8875 87.6093 63.849 87.4039C63.6651 86.3132 63.3571 85.2225 62.9379 84.1403C63.2373 83.6399 63.4212 83.2292 63.4854 82.9127C63.7249 81.745 63.9516 80.8339 64.1612 80.1752C64.1912 80.0811 64.157 79.9741 64.0714 79.9185L64.0115 79.8758C63.9645 79.8415 63.896 79.8672 63.8832 79.9271L63.4555 82.0529C63.4512 82.0914 63.4384 82.1257 63.4255 82.1642C63.0021 83.1565 62.5316 83.9264 62.0097 84.4825C61.5563 84.9616 61.2569 85.8128 60.7479 86.202C60.1704 86.6426 59.8197 86.912 59.6914 87.0147C59.6058 87.0789 59.5246 87.1559 59.4561 87.2371C58.9471 87.8317 58.3953 88.2808 57.8008 88.5888C56.6673 89.1705 55.769 89.795 54.6184 90.4152C54.4772 90.4922 54.4388 90.6419 54.4986 90.8686C54.2505 90.9071 54.0367 91.0526 53.8613 91.3049C53.2881 92.1176 52.8818 92.926 52.1589 93.7601C52.1546 93.7644 51.9921 93.9612 51.6798 94.3419C51.111 95.0348 50.4779 95.4754 49.7807 95.6636L48.7113 95.3727C48.5873 95.3385 48.5018 95.223 48.506 95.0947C48.5274 94.2435 48.7969 93.5976 49.3059 93.1699C49.3829 93.1057 49.4043 92.9902 49.353 92.9004L49.3444 92.8833C49.3016 92.8105 49.199 92.7934 49.1348 92.8533C48.7584 93.1955 48.4889 93.3923 48.3307 93.4479C47.6591 93.6789 47.0731 93.9013 46.5684 94.1152C46.2903 94.2349 45.9824 94.1793 45.7985 93.9868C45.6787 93.8585 45.5675 93.6575 45.4691 93.3794C45.4477 93.311 45.4563 93.2297 45.499 93.1699L46.4272 91.8524C46.4871 91.7669 46.4743 91.6471 46.3973 91.5787H46.393C46.3203 91.506 46.2048 91.5145 46.1364 91.5915C45.7813 92.0235 45.4178 92.6309 45.0328 92.8918C44.5238 93.2383 42.8599 94.1194 42.7786 92.7721C42.7743 92.6822 42.7444 92.6138 42.6845 92.5796C42.6204 92.5368 42.5476 92.5368 42.4706 92.5753L42.676 91.3562C42.6973 91.2279 42.7358 91.1081 42.7957 90.9927C43.0567 90.4879 43.1764 90.0217 43.155 89.5897C43.5015 89.4186 43.8052 89.1705 44.0661 88.8497C44.1559 88.7385 44.173 88.6358 44.1217 88.5417C44.0918 88.4904 44.0191 88.4776 43.9763 88.5203C43.0524 89.4186 42.0643 89.3587 41.0035 88.345C40.8367 88.007 40.8196 87.6606 40.9522 87.3056C41.0506 87.0404 41.2687 86.7623 41.6066 86.4758C42.1883 85.9796 42.7444 85.4663 43.2748 84.9273C43.4202 84.7819 43.5785 84.6579 43.7539 84.5552L45.4948 83.5286C45.5632 83.5458 45.6659 83.503 45.7985 83.3832C46.0465 83.7682 46.1791 84.059 46.2091 84.2558C46.3802 85.5647 46.7822 86.8137 47.411 88.0113C47.4452 88.0712 47.4923 88.1268 47.5522 88.1653C48.5659 88.7984 49.2289 89.3202 50.063 89.5469C50.7816 89.7437 51.5216 89.7822 52.2744 89.6581C52.8305 89.5683 53.5277 89.2945 54.3575 88.8326C55.3584 88.2851 56.4833 87.173 57.557 86.3389C58.0446 85.9625 58.4595 85.5647 58.7974 85.154C59.6957 84.0633 60.4912 82.8357 61.1927 81.4755C61.2056 81.4498 61.2141 81.4242 61.2227 81.3942L62.168 77.5018C62.1894 77.4034 62.2022 77.3051 62.1979 77.2067C62.1081 74.6616 62.3433 72.1038 62.908 69.5288C63.2074 70.504 63.4426 71.4408 63.618 72.3433C63.9688 74.1526 64.157 75.1022 64.1826 75.1878C64.5419 76.4881 65.0167 78.5327 65.4829 80.1452C65.8893 81.5482 66.0989 83.1052 66.4069 84.4012C66.7576 85.8855 67.1896 87.7333 67.6901 89.949C67.75 90.2099 67.9553 90.6548 68.0066 91.0141C68.2162 92.5026 68.4087 93.6703 68.5883 94.5215C68.614 94.6541 68.6311 94.791 68.6311 94.9236C68.6311 95.6379 68.6867 96.3052 68.7936 96.9339C69.2043 99.3763 69.0417 101.802 68.7423 104.218C68.6183 105.215 68.537 105.827 68.4985 106.058C68.3017 107.251 68.2975 108.243 68.0665 109.437C67.9724 109.937 67.8826 110.446 67.7927 110.964M49.2075 124.42C49.2717 124.455 49.3487 124.45 49.4043 124.412C50.4095 123.723 51.081 123.325 51.4232 123.218C52.7791 122.791 54.2506 122.722 55.8332 123.017C55.8674 123.022 56.0813 123.013 56.4705 122.983C56.5261 122.983 56.5689 122.923 56.5603 122.868V122.851C56.5475 122.791 56.4962 122.744 56.432 122.739C56.0128 122.718 55.4696 122.671 54.8023 122.594C54.1907 122.525 53.3609 122.56 52.3043 122.697C51.3334 122.821 50.2854 123.338 49.1605 124.245C49.1049 124.288 49.1134 124.373 49.1733 124.408L49.2033 124.425M58.9386 129.75C59.8454 129.972 60.0036 129.074 60.2474 128.257C60.2774 128.163 60.2902 128.065 60.2859 127.962C60.256 126.901 59.8967 126.012 59.208 125.289C59.1781 125.254 59.208 125.199 59.2508 125.207C60.1191 125.366 61.5606 127.192 61.1927 128.155C60.9917 128.681 60.7907 129.155 60.5854 129.583C60.5682 129.622 60.5896 129.664 60.6324 129.673L60.7436 129.69C60.7436 129.69 60.7736 129.69 60.7821 129.673C61.1371 129.027 61.351 128.492 61.428 128.073C61.629 126.944 60.611 125.669 59.7256 125.148C59.4604 124.994 59.1268 124.985 58.9856 124.818C58.9086 124.728 58.7675 124.745 58.7161 124.852V124.865C58.6563 124.972 58.6734 125.1 58.7546 125.19C59.2765 125.768 59.6315 126.516 59.8154 127.432C59.8967 127.842 59.8924 128.142 59.8026 128.33C59.6315 128.685 59.4732 129.404 58.93 129.613C58.8701 129.634 58.8744 129.724 58.9386 129.741M56.3123 125.511C56.2395 125.477 56.154 125.511 56.1412 125.588C56.1241 125.661 56.1412 125.738 56.201 125.806C56.7528 126.482 57.0437 127.252 57.0693 128.125C57.0693 128.223 57.0565 128.321 57.0223 128.42L56.663 129.365C56.6373 129.438 56.6716 129.519 56.7443 129.54L56.8255 129.566C56.9068 129.592 56.9966 129.549 57.0223 129.468C57.1207 129.173 57.2533 128.869 57.4201 128.561C57.7708 127.911 57.1592 126.696 56.8084 126.003C56.6972 125.785 56.5304 125.622 56.3123 125.515M53.5876 129.69H53.6902C53.8314 129.69 53.9597 129.622 54.041 129.506C54.5286 128.809 54.6783 128.163 54.4815 127.573C54.2805 126.965 53.6859 126.131 53.1171 125.665C53.0443 125.605 52.9417 125.627 52.8946 125.699C52.8433 125.781 52.8476 125.866 52.9117 125.943C53.378 126.521 53.9683 127.265 54.1436 127.975C54.1607 128.039 54.1607 128.107 54.1436 128.167C54.0324 128.646 53.81 129.083 53.4892 129.472C53.4207 129.557 53.4806 129.682 53.5876 129.682V129.69Z" fill="#CC8D51"/>
<path d="M62.9336 84.136C62.5871 84.6194 62.2578 85.0685 61.9498 85.4919C61.2056 86.5142 60.41 87.143 59.5802 87.9642C59.2551 88.2893 58.7846 88.6358 58.1686 88.9994C57.0009 89.688 55.8032 90.3425 54.5799 90.9541C54.5799 90.9199 54.5542 90.8857 54.4901 90.8601C54.4302 90.6334 54.4687 90.4837 54.6098 90.4067C55.7604 89.7864 56.6544 89.1619 57.7922 88.5802C58.3867 88.2722 58.9385 87.8231 59.4475 87.2286C59.5203 87.1473 59.5972 87.0703 59.6828 87.0061C59.8111 86.9078 60.1619 86.6383 60.7393 86.1934C61.2483 85.8042 61.5477 84.953 62.0011 84.4739C62.5187 83.9222 62.9935 83.1479 63.4169 82.1556C63.4298 82.1214 63.4426 82.0829 63.4469 82.0444L63.8746 79.9185C63.8875 79.8586 63.9559 79.833 64.0029 79.8672L64.0628 79.91C64.1441 79.9656 64.1826 80.0725 64.1526 80.1666C63.9431 80.8253 63.7206 81.7364 63.4768 82.9041C63.4127 83.2207 63.2287 83.6313 62.9293 84.1317L62.9336 84.136Z" fill="#220404"/>
<path d="M62.9336 84.136C63.3528 85.2182 63.6565 86.3089 63.8447 87.3997C63.8789 87.605 63.9345 87.8103 64.0115 88.0071C64.6574 89.718 65.1579 90.9028 65.4017 92.4256C65.7268 94.4531 65.9364 97.1564 66.0347 100.531C66.116 103.397 65.9706 105.934 65.5942 108.141C65.4445 109.009 65.145 109.783 64.8713 110.771C64.5377 111.982 64.1014 113.197 63.5667 114.411C63.0876 115.502 62.5358 115.831 61.4194 116.892C60.919 117.367 60.4228 117.756 59.9352 118.064C58.297 119.095 56.308 120.134 54.3703 120.725C53.9426 120.853 53.301 120.964 52.4412 121.05C50.1999 121.277 47.9115 121.362 45.576 121.306L45.1226 120.695C45.0499 120.596 44.9259 120.554 44.8061 120.588C44.5067 120.673 44.2543 120.72 44.0447 120.725C43.7282 120.733 42.1798 120.742 39.3867 120.75C39.237 120.75 38.9333 120.699 38.4799 120.588C38.3986 120.571 38.3131 120.562 38.2275 120.575L36.0674 120.827C36.3326 120.588 36.662 120.383 37.0641 120.216C37.2437 120.31 37.4319 120.37 37.633 120.391C37.7698 120.404 37.8596 120.254 37.7869 120.139L37.7228 120.04C37.68 119.976 37.6244 119.921 37.5602 119.882C36.6406 119.335 36.1017 118.697 35.212 118.218C34.6302 117.902 34.1298 117.495 33.702 116.995C33.4069 116.648 33.1075 116.375 32.7995 116.178C32.2948 115.857 31.7901 115.391 31.2853 114.783C30.8533 114.266 30.2502 113.907 29.7626 113.534C29.6813 113.47 29.6043 113.398 29.5444 113.316C29.0568 112.688 28.505 112.029 27.8848 111.34C27.6923 111.122 27.4357 110.699 27.1192 110.061C27.9361 110.416 28.6718 110.934 29.322 111.61C29.3434 111.631 29.3691 111.652 29.399 111.67L31.2725 112.688C31.3409 112.726 31.4179 112.752 31.4992 112.765L36.4524 113.564C36.7005 113.603 36.9528 113.611 37.2009 113.59C39.8829 113.338 42.1884 112.264 44.6863 111.007C44.7505 110.972 44.8104 110.934 44.866 110.882L48.9167 107.401C48.9637 107.362 49.0193 107.328 49.0792 107.307L49.7037 107.084C49.8491 107.033 49.9689 106.934 50.0502 106.81C50.6447 105.921 50.9698 105.437 51.0254 105.352C51.9322 104.056 52.4626 102.743 53.1727 101.117C53.4806 100.416 53.6817 99.7057 53.7715 98.9828C53.857 98.3198 53.9511 97.7424 54.0538 97.2548C54.4858 95.2016 54.7382 93.773 54.8109 92.9774C54.8537 92.5069 54.7767 91.831 54.5799 90.9499C55.8075 90.334 57.0052 89.6838 58.1686 88.9951C58.7846 88.6316 59.2551 88.2851 59.5802 87.96C60.4057 87.1388 61.2013 86.5143 61.9498 85.4877C62.2578 85.0642 62.5872 84.6108 62.9336 84.1318M47.7532 111.015C47.3725 111.31 47.0902 111.768 46.9148 112.388C46.7694 112.897 46.6796 113.47 46.4785 114.013C45.7214 116.071 45.2595 117.465 45.1825 119.531C45.1825 119.604 45.1397 119.754 45.0584 119.972C44.99 120.152 45.0157 120.323 45.1782 120.404C45.2766 120.451 45.3921 120.382 45.3964 120.271L45.452 118.749C45.452 118.659 45.4648 118.569 45.4905 118.479C45.9096 116.781 46.3203 115.314 46.7181 114.082C46.8207 113.761 46.9277 113.329 47.0346 112.782C47.1629 112.131 47.4238 111.571 47.8302 111.096C47.8473 111.075 47.8473 111.045 47.8302 111.024C47.8131 111.002 47.7789 111.002 47.7575 111.019L47.7532 111.015Z" fill="#CCA272"/>
<path d="M43.1422 89.5811C41.8761 89.7394 41.1575 89.3202 40.9907 88.3321C42.0472 89.3501 43.0395 89.4057 43.9634 88.5075C44.0062 88.4647 44.0789 88.4776 44.1089 88.5289C44.1602 88.623 44.1431 88.7256 44.0533 88.8369C43.7923 89.1619 43.4929 89.4057 43.1422 89.5768V89.5811Z" fill="#220404"/>
<path d="M20.6645 95.0989C20.8399 95.1289 20.9725 95.0989 21.0581 95.0134C21.1009 94.9706 21.118 94.9364 21.1094 94.9021C21.0837 94.8166 21.1094 94.7738 21.1992 94.7738C21.2249 94.7738 21.2463 94.7824 21.2634 94.8038L21.6954 95.4154C21.3318 95.5095 21.2077 95.8218 21.3361 96.3437C21.4302 96.7372 21.4815 96.9425 21.4815 96.9596C21.952 99.5987 22.7091 102.007 23.757 104.18C24.6467 106.023 25.2413 107.285 25.5407 107.965L25.391 108.025C25.2199 109.06 25.3397 110.083 25.7589 111.088C26.1567 112.046 26.6742 113.222 27.303 114.617C27.5425 115.147 27.8334 115.652 28.1756 116.127C28.5563 116.657 29.6898 118.479 28.753 118.928C28.5948 119.005 28.244 119.163 27.7008 119.399C27.6067 119.441 27.4998 119.45 27.3971 119.429C27.1362 119.373 26.794 119.292 26.3705 119.198C25.1472 118.92 23.8683 118.475 22.8716 118.274C22.2985 118.158 21.4515 117.846 21.0281 117.619C20.0229 117.076 19.0605 116.571 18.1323 116.101C18.0339 116.05 17.9398 115.985 17.8585 115.913C17.3495 115.451 16.7849 115.053 16.1604 114.719C15.8011 114.155 15.429 113.526 15.0526 112.829C14.6505 112.084 14.4409 111.293 14.4281 110.45C14.4153 109.501 14.3896 108.992 14.3511 108.923C14.3383 108.893 14.3297 108.333 14.334 107.247C14.3425 105.399 14.7446 103.684 15.5402 102.097C15.7626 101.656 15.8952 100.822 16.139 100.206C16.8705 98.3241 17.3025 97.1179 17.4222 96.5832C17.7088 95.3299 17.6105 93.8671 17.7003 92.494C17.773 91.352 17.82 90.1628 17.8372 88.931C18.4403 89.8677 18.8081 90.8686 18.9407 91.938C19.0648 92.9645 19.1418 93.5249 19.176 93.619C19.3599 94.1836 19.6593 94.6541 20.0699 95.0433C20.271 95.2315 20.472 95.2529 20.6645 95.1075L20.6645 95.0989Z" fill="#CCA272"/>
<path d="M29.0525 91.6171C28.4366 92.109 27.7692 92.2759 27.0549 92.1176C26.9907 92.1048 26.9266 92.1561 26.9309 92.2203C26.948 92.6523 27.0592 93.0928 27.0036 93.5249C26.8924 94.4359 26.5416 95.0989 25.9513 95.5224C26.0369 94.9706 26.1994 94.453 26.4347 93.9697C26.8239 93.1741 26.5716 91.8695 26.2721 91.091C26.2336 90.9841 26.3534 90.8943 26.4432 90.9584C26.7341 91.1595 26.9009 91.6086 27.2046 91.677C27.5297 91.7497 27.735 91.7669 27.8206 91.7241C28.4322 91.4204 28.8386 91.3862 29.0482 91.6171L29.0525 91.6171Z" fill="black"/>
<path d="M49.7721 95.655C49.3487 95.856 48.9637 95.8817 48.6215 95.7406C47.9029 95.4411 47.9628 94.6498 48.2152 94.0724C48.2323 94.0339 48.1981 93.9911 48.1553 94.0039C47.8217 94.1109 47.2613 94.3034 46.47 94.5771C46.192 94.6755 45.8626 94.5771 45.4862 94.2905C45.4734 94.282 45.4648 94.2691 45.4563 94.252L45.1312 93.3495C45.1098 93.2811 45.0243 93.2511 44.9644 93.2896L43.8522 93.9312C43.7154 94.0082 43.5486 94.0168 43.4074 93.9526C42.9412 93.743 42.1327 93.11 42.4578 92.571C42.5391 92.5325 42.6118 92.5368 42.6717 92.5753C42.7273 92.6095 42.7572 92.6779 42.7658 92.7678C42.8471 94.1152 44.5067 93.234 45.02 92.8875C45.4049 92.6266 45.7685 92.0192 46.1235 91.5872C46.1877 91.5102 46.3032 91.5017 46.3802 91.5701L46.3844 91.5701C46.4657 91.6428 46.4786 91.7626 46.4144 91.8481L45.4862 93.1656C45.4434 93.2297 45.4349 93.3067 45.4563 93.3752C45.5546 93.6532 45.6616 93.8542 45.7856 93.9826C45.9695 94.175 46.2775 94.2306 46.5555 94.1109C47.0646 93.897 47.6506 93.6746 48.3178 93.4436C48.4761 93.388 48.7456 93.1912 49.122 92.8491C49.1861 92.7892 49.2888 92.8063 49.3316 92.879L49.3401 92.8961C49.3914 92.9859 49.3701 93.0971 49.2931 93.1656C48.7841 93.5976 48.5189 94.2392 48.4932 95.0904C48.4932 95.2187 48.5745 95.3342 48.6985 95.3684L49.7679 95.6593L49.7721 95.655Z" fill="#220404"/>
<path d="M24.6938 95.4069C24.4543 95.4454 24.3003 95.3727 24.2319 95.1802C24.1976 95.0818 24.065 95.069 24.0094 95.1588C23.5346 95.9416 22.2985 95.8688 21.6954 95.4154L21.2634 94.8038C21.2634 94.8038 21.2249 94.7695 21.1992 94.7738C21.1094 94.7738 21.0795 94.8166 21.1094 94.9021C21.118 94.9321 21.1051 94.9706 21.0581 95.0134C20.9725 95.0989 20.8399 95.1289 20.6645 95.0989L20.9383 94.0809C20.9469 94.0467 20.9511 94.0082 20.9426 93.9697L20.7244 92.6908C20.7031 92.5667 20.8057 92.4598 20.9298 92.4769H20.9939C21.1565 92.494 21.2848 92.6223 21.3019 92.7849C21.3789 93.6617 21.6056 94.4274 21.9777 95.0776C22.1916 95.4497 22.6749 95.4711 23.0599 95.4155C24.0779 95.2529 23.2609 93.3495 22.9743 92.7635C22.923 92.6566 22.9915 92.5325 23.1112 92.5197L23.2096 92.5069C23.2909 92.4983 23.3636 92.5453 23.3935 92.6181L24.0522 94.2862C24.0522 94.2862 24.0608 94.3034 24.0651 94.3119L24.6981 95.4112L24.6938 95.4069Z" fill="black"/>
<path d="M91.4337 117.003C90.852 115.759 90.1933 114.574 89.4576 113.449C89.1667 113.004 88.7561 112.024 88.2171 110.506C90.7878 109.27 92.918 107.798 95.3048 106.366C96.2886 105.775 96.9986 105.673 98.0851 105.869C99.6634 106.156 100.224 107.401 99.7703 108.851C99.7447 108.945 99.6976 109.03 99.6377 109.107C98.6026 110.468 97.9311 111.366 97.6188 111.802C97.1184 112.508 96.7462 112.82 96.1388 113.427C95.9207 113.65 95.7026 113.842 95.4844 114.005C94.7059 114.604 94.0258 115.147 93.4398 115.63C93.35 115.703 93.2559 115.771 93.149 115.823C92.5245 116.152 91.9556 116.541 91.4295 117.003L91.4337 117.003Z" fill="black"/>
<path d="M25.5407 107.97L27.1233 110.065C27.4399 110.703 27.6923 111.126 27.8891 111.344C28.5093 112.033 29.0611 112.692 29.5487 113.321C29.6129 113.402 29.6856 113.479 29.7668 113.539C30.2545 113.911 30.8576 114.266 31.2896 114.788C31.7943 115.399 32.2991 115.866 32.8038 116.182C33.1118 116.375 33.4112 116.648 33.7063 116.999C34.1298 117.504 34.6345 117.91 35.2162 118.222C36.1059 118.702 36.6449 119.339 37.5645 119.886C37.6287 119.925 37.6843 119.98 37.727 120.045L37.7912 120.143C37.8639 120.258 37.7741 120.408 37.6372 120.395C37.4362 120.374 37.248 120.314 37.0683 120.22C36.5465 119.831 36.046 119.416 35.5712 118.975C35.4686 118.881 35.0152 118.62 34.211 118.188C34.1383 118.15 34.0699 118.098 34.0143 118.039C33.424 117.418 32.9364 116.944 32.5557 116.61C31.4949 115.677 30.571 114.629 29.3519 113.671C29.3306 113.654 29.3092 113.637 29.2921 113.616L27.3758 111.387C27.3758 111.387 27.3587 111.366 27.3501 111.353C26.8967 110.48 26.3492 109.676 25.7076 108.941C25.5408 108.748 25.4381 108.449 25.3954 108.038L25.5451 107.978L25.5407 107.97Z" fill="#644444"/>
<path d="M25.3911 108.029C25.4339 108.44 25.5365 108.739 25.7033 108.932C26.3449 109.668 26.8924 110.472 27.3458 111.344C27.3501 111.357 27.3587 111.37 27.3715 111.379L29.2878 113.607C29.2878 113.607 29.3263 113.646 29.3476 113.663C30.5667 114.621 31.4906 115.669 32.5514 116.601C32.9321 116.935 33.4154 117.414 34.01 118.03C34.0656 118.09 34.134 118.141 34.2067 118.18C35.0109 118.607 35.4643 118.868 35.567 118.967C36.0417 119.407 36.5379 119.822 37.064 120.211C36.6662 120.378 36.3326 120.579 36.0674 120.823C35.8321 120.956 35.6439 121.131 35.4985 121.353C35.2547 121.726 35.1093 122.051 35.0579 122.333C34.8398 123.565 34.8184 124.797 34.9895 126.029C35.1563 127.201 34.3864 127.551 33.3598 127.804C33.3342 127.808 33.3085 127.812 33.2828 127.812H31.0757C30.9944 127.812 30.9089 127.821 30.8319 127.838C30.2117 127.971 29.7625 128.107 29.168 128.15C27.8891 128.244 26.6144 128.351 25.344 128.467L22.9872 128.39C22.9872 128.39 22.9658 128.398 22.9701 128.411V128.462C22.9786 128.492 23.0043 128.518 23.0385 128.51C23.3251 128.454 23.5988 128.467 23.8683 128.544L20.4806 128.693C20.4208 128.693 20.3609 128.693 20.301 128.685L19.3172 128.522L20.6603 128.437C20.733 128.437 20.7544 128.338 20.6902 128.3L20.5149 128.202C20.4635 128.172 20.4208 128.125 20.3994 128.065C19.7022 126.285 20.6945 125.438 21.7168 124.172C21.7681 124.108 21.7168 124.01 21.6398 124.01H21.4901C21.3447 124.01 21.2121 124.07 21.118 124.177C20.7031 124.634 20.3566 125.143 20.0786 125.704C19.6808 126.512 19.685 127.286 20.0914 128.026C20.1684 128.163 20.0486 128.33 19.8946 128.304C19.4797 128.236 19.0434 128.266 18.5815 128.398L17.5763 128.223C17.14 126.362 17.6276 124.775 19.0434 123.466C19.1589 123.36 19.2145 123.253 19.2103 123.15C19.1974 122.987 19.0049 122.91 18.8552 123.005C18.6157 123.154 18.3804 123.351 18.1495 123.599C18.0768 123.676 18.0211 123.766 17.9827 123.864C17.7217 124.566 17.2341 125.207 17.1015 125.952C16.9689 126.67 17.0031 127.415 17.1999 128.176C16.3829 128.15 15.7499 128.005 15.2965 127.744C14.7105 127.406 14.7874 126.401 14.8473 125.819C14.8559 125.738 14.873 125.657 14.9029 125.58C15.8611 122.915 17.7175 121.623 20.4849 121.691C21.3361 121.713 22.3242 122.081 23.2395 122.064C23.3508 122.064 23.4235 122.046 23.4534 122.021C23.5604 121.935 23.5475 121.76 23.4278 121.666C22.6707 121.075 21.8537 120.536 20.9768 120.049C20.964 120.045 20.9512 120.036 20.9383 120.023L18.4831 118.03C18.4831 118.03 18.4532 118 18.4403 117.983C17.8372 117.192 17.2298 116.396 16.6182 115.596C16.4856 115.421 16.3359 115.126 16.169 114.711C16.7935 115.049 17.3582 115.446 17.8672 115.904C17.9484 115.981 18.0425 116.045 18.1409 116.092C19.0691 116.563 20.0358 117.068 21.0367 117.611C21.4559 117.837 22.3028 118.15 22.8802 118.265C23.8769 118.466 25.1558 118.911 26.3791 119.189C26.8026 119.288 27.1491 119.365 27.4057 119.42C27.5084 119.441 27.6153 119.433 27.7094 119.39C28.2526 119.155 28.6034 118.997 28.7616 118.92C29.6941 118.471 28.5649 116.653 28.1842 116.118C27.8463 115.643 27.5511 115.138 27.3116 114.608C26.6828 113.214 26.1653 112.037 25.7675 111.079C25.3483 110.074 25.2243 109.052 25.3996 108.017M33.8988 120.669C33.8988 120.669 33.9031 120.661 33.8988 120.656C33.7405 120.1 33.5866 119.668 33.4368 119.36C33.2829 119.039 33.0647 118.843 32.7824 118.77C32.714 118.753 32.6584 118.826 32.6969 118.885L33.7534 120.716C33.7748 120.75 33.8218 120.759 33.8517 120.725L33.8945 120.673M33.9801 121.392C33.9801 121.362 33.9587 121.336 33.9287 121.336H33.7961C33.7662 121.332 33.7405 121.353 33.7405 121.383L33.6079 124.549C33.6079 124.579 33.6293 124.604 33.6593 124.604H33.7919C33.8218 124.609 33.8475 124.587 33.8475 124.557L33.9801 121.392ZM23.8641 122.303C25.0446 122.303 26.2252 122.427 27.41 122.667C28.3553 122.855 28.7488 122.919 29.4332 123.27C30.139 123.629 30.8533 124.095 31.5805 124.656C31.6446 124.707 31.7216 124.728 31.8029 124.716C31.8927 124.703 31.9398 124.596 31.8842 124.523C31.5291 124.044 31.0629 123.655 30.494 123.36C28.535 122.346 26.4348 121.867 24.2063 121.931C24.0908 121.931 23.9838 121.978 23.9026 122.064L23.8085 122.158C23.7529 122.213 23.7914 122.307 23.8683 122.307M16.1946 126.636C16.293 125.678 16.7037 124.869 17.4351 124.215C17.4565 124.198 17.4565 124.164 17.4351 124.142L17.4265 124.134C17.4051 124.108 17.3666 124.108 17.341 124.134C16.6694 124.775 16.0492 125.695 16.1561 126.64C16.1561 126.649 16.1647 126.653 16.1733 126.653C16.1818 126.653 16.1904 126.649 16.1904 126.64L16.1946 126.636Z" fill="#CC8D51"/>
<path d="M88.2171 110.506C88.7561 112.024 89.171 113.004 89.4576 113.449C90.1933 114.574 90.852 115.759 91.4337 117.003C90.6381 118.137 89.5902 118.252 88.5679 118.83C87.8408 119.24 87.1222 119.668 86.4164 120.109C86.1683 120.263 85.6636 120.404 84.8937 120.532C84.56 120.511 84.2264 120.601 83.8885 120.802L83.0544 120.823C82.9646 120.823 82.8833 120.767 82.8576 120.682C82.2802 118.813 81.8396 116.918 81.5402 114.997C81.4589 114.463 81.1296 113.65 80.5607 112.568C80.5863 112.358 80.7318 112.243 80.9927 112.23C81.66 112.191 82.2118 112.114 82.6523 112.012C83.85 111.725 85.146 111.503 86.0315 111.336C86.6602 111.22 87.3874 110.947 88.2172 110.51L88.2171 110.506Z" fill="#2F1212"/>
<path d="M74.6279 112.692C74.3456 113.188 74.1531 113.706 74.0505 114.232C73.7468 115.81 73.3704 117.346 72.917 118.834C72.6945 119.561 72.5448 120.126 72.4636 120.524C72.4465 120.626 72.4122 120.725 72.3695 120.819C72.1727 121.234 72.0145 121.73 71.8904 122.307C71.8434 122.521 71.6081 122.641 71.4113 122.543C71.3172 122.496 71.1932 122.47 71.0392 122.466C69.3582 122.397 67.6729 122.419 65.9705 122.525C64.7899 122.491 63.588 122.389 62.3604 122.218C61.2697 122.064 60.1148 121.79 58.9 121.396C59.2678 120.926 59.7683 120.562 60.3971 120.31C60.5596 120.246 60.705 120.156 60.8376 120.045L62.9421 118.304C63.1688 118.12 63.3613 117.897 63.5153 117.649C63.7634 117.247 64.0671 116.819 64.4221 116.37C64.8627 115.81 65.1706 115.391 65.346 115.108C65.7352 114.475 66.2314 113.419 66.8345 111.939C67.0185 111.481 67.335 111.152 67.7756 110.951L68.9903 111.404C69.0245 111.417 69.0588 111.426 69.093 111.43C71.3001 111.772 72.7801 112.033 73.5286 112.213C73.7382 112.26 74.1018 112.422 74.6194 112.692L74.6279 112.692Z" fill="#9A6F47"/>
<path d="M47.7532 111.015C47.7532 111.015 47.8045 111.002 47.8259 111.019C47.843 111.036 47.843 111.071 47.8259 111.092C47.4238 111.567 47.1586 112.127 47.0303 112.777C46.9234 113.325 46.8207 113.757 46.7138 114.078C46.316 115.31 45.9054 116.777 45.4862 118.475C45.4648 118.565 45.452 118.654 45.4477 118.744L45.3921 120.267C45.3921 120.378 45.2723 120.447 45.1739 120.4C45.0114 120.323 44.9857 120.152 45.0542 119.968C45.1354 119.749 45.1782 119.6 45.1782 119.527C45.2552 117.461 45.7172 116.067 46.4742 114.009C46.6753 113.466 46.7694 112.893 46.9105 112.384C47.0859 111.764 47.3682 111.306 47.7489 111.011L47.7532 111.015Z" fill="black"/>
<path d="M80.5607 112.568C81.1296 113.65 81.4589 114.463 81.5402 114.997C81.8439 116.918 82.2802 118.813 82.8576 120.682C82.8833 120.767 82.9646 120.827 83.0544 120.823L83.8885 120.802L83.9526 120.849C83.3538 121.191 82.8961 121.396 82.5838 121.465C80.6077 121.871 79.2817 122.153 78.6059 122.316C77.5152 122.577 76.4929 122.731 75.539 122.778C74.1489 122.846 73.0667 122.876 72.2968 122.868C72.1855 122.868 72.0743 122.855 71.9631 122.825C71.3044 122.658 70.6371 122.585 69.957 122.607C68.6481 122.641 67.3179 122.62 65.9705 122.534C67.6686 122.423 69.3582 122.401 71.0392 122.474C71.1932 122.478 71.3172 122.504 71.4113 122.551C71.6081 122.65 71.8433 122.534 71.8904 122.316C72.0144 121.738 72.1727 121.247 72.3695 120.827C72.4122 120.733 72.4465 120.635 72.4636 120.532C72.5406 120.134 72.6945 119.57 72.917 118.843C73.3704 117.354 73.7468 115.819 74.0505 114.24C74.1531 113.71 74.3456 113.197 74.6279 112.7C75.1155 112.769 75.5476 112.799 75.9282 112.79C77.3398 112.752 78.7513 112.73 80.1628 112.735C80.2569 112.735 80.3895 112.683 80.5649 112.576L80.5607 112.568Z" fill="#CCA272"/>
<path d="M33.7576 120.712L32.7011 118.881C32.6669 118.821 32.7182 118.749 32.7866 118.766C33.0689 118.838 33.2871 119.039 33.4411 119.356C33.5908 119.664 33.7448 120.096 33.903 120.652C33.903 120.652 33.903 120.661 33.903 120.665L33.8603 120.716C33.8346 120.746 33.7833 120.742 33.7619 120.708L33.7576 120.712Z" fill="#ECCFA9"/>
<path d="M84.898 120.532L83.9569 120.849L83.8928 120.802C84.2307 120.601 84.5643 120.511 84.898 120.532Z" fill="#644444"/>
<path d="M33.8475 124.557C33.8475 124.587 33.8217 124.609 33.7918 124.609H33.6592C33.6292 124.6 33.6036 124.574 33.6079 124.544L33.7404 121.379C33.7404 121.349 33.7661 121.328 33.7961 121.328H33.9287C33.9586 121.336 33.9843 121.362 33.9801 121.392L33.8475 124.557Z" fill="#ECCFA9"/>
<path d="M23.8641 122.303C23.7871 122.303 23.7486 122.209 23.8042 122.153L23.8983 122.059C23.9796 121.978 24.0865 121.931 24.202 121.927C26.4348 121.867 28.5307 122.342 30.4897 123.355C31.0586 123.65 31.5206 124.035 31.8799 124.519C31.9355 124.591 31.8884 124.698 31.7986 124.711C31.7173 124.724 31.6403 124.707 31.5762 124.651C30.849 124.087 30.1347 123.625 29.4289 123.265C28.7446 122.915 28.3553 122.851 27.4057 122.662C26.2209 122.423 25.0403 122.303 23.8598 122.299L23.8641 122.303Z" fill="black"/>
<path d="M49.2075 124.42L49.1776 124.403C49.1177 124.373 49.1092 124.288 49.1648 124.241C50.294 123.334 51.3419 122.816 52.3086 122.692C53.3609 122.555 54.195 122.521 54.8066 122.59C55.4739 122.667 56.0128 122.714 56.4363 122.735C56.4962 122.735 56.5518 122.782 56.5603 122.846V122.863C56.5732 122.919 56.5304 122.975 56.4748 122.979C56.0856 123.005 55.8717 123.017 55.8375 123.013C54.2506 122.718 52.7834 122.786 51.4275 123.214C51.0853 123.321 50.4138 123.719 49.4086 124.408C49.3487 124.446 49.2717 124.45 49.2118 124.416L49.2075 124.42Z" fill="black"/>
<path d="M17.572 128.232C17.4052 128.244 17.2769 128.232 17.1913 128.184C16.9946 127.423 16.9604 126.679 17.093 125.96C17.2298 125.216 17.7132 124.574 17.9741 123.873C18.0126 123.774 18.0682 123.685 18.1409 123.608C18.3762 123.36 18.6114 123.163 18.8467 123.013C18.9964 122.919 19.1889 123 19.2017 123.159C19.206 123.261 19.1547 123.364 19.0349 123.475C17.6191 124.784 17.1315 126.367 17.5678 128.232H17.572Z" fill="black"/>
<path d="M19.3129 128.527C19.0819 128.539 18.8338 128.501 18.5771 128.407C19.0391 128.274 19.4754 128.24 19.8903 128.313C20.0443 128.338 20.164 128.172 20.0871 128.035C19.6764 127.295 19.6722 126.516 20.0742 125.712C20.3523 125.152 20.6987 124.643 21.1136 124.185C21.2077 124.078 21.3446 124.018 21.4858 124.018H21.6355C21.7167 124.018 21.7681 124.112 21.7125 124.181C20.6944 125.447 19.6978 126.294 20.395 128.073C20.4164 128.129 20.4592 128.18 20.5105 128.21L20.6859 128.309C20.7501 128.343 20.7244 128.441 20.6559 128.445L19.3129 128.531L19.3129 128.527Z" fill="black"/>
<path d="M16.1605 126.636C16.0536 125.691 16.6695 124.771 17.3453 124.129C17.3667 124.108 17.4052 124.108 17.4309 124.129L17.4394 124.138C17.4394 124.138 17.4565 124.189 17.4394 124.211C16.7123 124.869 16.2974 125.678 16.199 126.632C16.199 126.64 16.1904 126.645 16.1819 126.645C16.1733 126.645 16.1691 126.64 16.1648 126.632L16.1605 126.636Z" fill="#2F1212"/>
<path d="M58.93 129.622C59.4775 129.412 59.6315 128.698 59.8026 128.338C59.8924 128.15 59.8967 127.847 59.8154 127.44C59.6315 126.525 59.2764 125.776 58.7546 125.199C58.6733 125.109 58.6562 124.981 58.7118 124.874V124.861C58.7717 124.754 58.9129 124.737 58.9899 124.827C59.131 124.994 59.4646 124.998 59.7298 125.156C60.6153 125.674 61.6333 126.953 61.4322 128.082C61.3552 128.505 61.1414 129.04 60.7864 129.682C60.7778 129.694 60.765 129.703 60.7479 129.699L60.6366 129.682C60.5939 129.677 60.5725 129.63 60.5896 129.592C60.7949 129.164 60.9959 128.689 61.197 128.163C61.5606 127.201 60.1234 125.374 59.2551 125.216C59.2123 125.207 59.1823 125.263 59.2123 125.297C59.8967 126.016 60.256 126.906 60.2902 127.971C60.2902 128.073 60.2816 128.172 60.2517 128.266C60.0079 129.078 59.8496 129.981 58.9428 129.759C58.8786 129.741 58.8744 129.652 58.9342 129.63L58.93 129.622Z" fill="black"/>
<path d="M56.3123 125.511C56.5304 125.618 56.6929 125.781 56.8084 125.999C57.1591 126.692 57.7708 127.911 57.42 128.557C57.249 128.869 57.1163 129.168 57.0222 129.463C56.9966 129.545 56.9068 129.592 56.8255 129.562L56.7442 129.536C56.6715 129.515 56.633 129.433 56.6629 129.361L57.0222 128.415C57.0565 128.321 57.0736 128.223 57.0693 128.12C57.0436 127.248 56.7528 126.473 56.201 125.802C56.1454 125.734 56.124 125.657 56.1411 125.584C56.1582 125.511 56.2438 125.473 56.3122 125.507L56.3123 125.511Z" fill="black"/>
<path d="M53.4891 129.48C53.8142 129.091 54.0323 128.655 54.1435 128.176C54.1564 128.112 54.1564 128.043 54.1435 127.983C53.9682 127.273 53.3779 126.529 52.9116 125.952C52.8475 125.87 52.8389 125.789 52.8945 125.708C52.9416 125.631 53.0485 125.614 53.117 125.674C53.6859 126.14 54.2804 126.974 54.4814 127.581C54.6782 128.172 54.5285 128.813 54.0409 129.515C53.9596 129.63 53.8313 129.699 53.6901 129.699H53.5875C53.4763 129.699 53.4164 129.57 53.4891 129.489V129.48Z" fill="black"/>
<path d="M25.344 128.471L23.864 128.552C23.5945 128.475 23.3208 128.462 23.0342 128.518C23.0042 128.522 22.9743 128.501 22.97 128.471V128.42C22.97 128.42 22.97 128.398 22.9828 128.398L25.3397 128.475L25.344 128.471Z" fill="#644444"/>
<path d="M60.8761 129.754C60.8162 129.763 60.7606 129.763 60.705 129.754L60.8761 129.754Z" fill="black"/>
</svg>
