<svg width="100" height="130" viewBox="0 0 100 130" fill="none" xmlns="http://www.w3.org/2000/svg">
<path d="M23.1766 35.0112C23.2876 34.0046 23.1551 32.8475 23.3557 32.174C23.5527 31.5077 23.6888 31.0635 23.7533 30.845C23.7855 30.7339 23.85 30.6336 23.936 30.5548L25.6448 29.0037C25.6913 28.9642 25.7451 28.9248 25.8024 28.8998C26.9057 28.3409 28.4211 27.9003 29.6713 28.1045C29.9113 28.1439 30.1656 28.1797 30.4272 28.2048C30.3054 27.9469 30.248 27.6424 30.2516 27.2913C30.2767 25.9193 30.4486 24.5545 30.7675 23.2039C30.9179 22.5734 30.9466 22.0182 31.1221 21.4092C31.4517 20.2772 31.8923 19.0305 32.4476 17.6692C32.795 16.8095 33.1784 16.1002 33.5903 15.5449C34.5683 14.2195 35.7505 13.0301 37.1404 11.9734C38.9495 10.6013 41.0344 9.84905 43.1766 9.78815C43.6459 9.77382 44.1582 9.77382 44.7242 9.78815C45.2006 9.7989 45.5373 9.83114 45.738 9.88846C46.7052 10.1607 47.461 10.5798 48.4068 11.153C48.8044 11.393 49.1053 11.6116 49.3203 11.805C49.8719 12.3065 50.1478 12.5609 50.1549 12.568C50.1836 12.611 50.592 13.1054 51.3837 14.0583C51.7885 14.5455 52.1395 15.0792 52.4333 15.6631C52.9993 16.7772 53.3575 17.5439 53.5116 17.9558C53.6405 18.3069 53.7803 18.8478 53.9235 19.5822C54.2065 21.0295 54.7797 22.5018 54.9445 23.8881C55.0341 24.6297 55.0806 25.0703 55.0878 25.2029C55.1272 25.9229 55.0699 26.6322 54.9123 27.3307L56.8467 26.8399C56.8897 26.8292 56.9291 26.8149 56.9721 26.797C57.4736 26.5749 57.9071 26.3062 58.5018 26.1306C60.6404 25.493 62.9152 25.4715 65.3332 26.0626C66.1643 26.2632 66.7841 26.4566 67.1996 26.6393L66.7017 25.3819C66.6802 25.3318 66.6659 25.2816 66.6587 25.2315C66.279 22.9101 66.3542 20.3918 66.5011 17.9773C66.5405 17.3361 66.3972 16.3509 66.4903 15.6237C66.6229 14.5848 66.8736 13.7179 67.2426 13.0301C67.6474 12.2743 67.8659 11.8659 67.8982 11.8014C68.5358 10.5583 69.5174 9.63767 70.7855 9.14689C72.5731 8.45909 74.2604 8.84598 76.2844 9.20063C76.6498 9.26511 77.0259 9.4084 77.4128 9.62692C78.7633 10.39 79.881 11.2855 80.773 12.3101C80.8447 12.3925 80.9235 12.4677 81.0059 12.5322C81.5074 12.9262 81.8585 13.2558 82.0591 13.5209C82.5212 14.1263 83.0478 14.9287 83.6389 15.9246C84.101 16.7056 84.3983 17.4435 84.8784 18.271C85.0969 18.6508 85.2617 19.1702 85.3799 19.4747C85.67 20.2127 85.8026 21.1297 86.0247 21.9178C86.0534 22.0181 86.0677 22.1149 86.0713 22.2188C86.082 22.5591 86.1286 22.8922 86.2074 23.2182C86.7662 22.6056 87.669 22.4588 88.432 22.4803C88.7831 22.491 89.0088 22.4588 89.3168 22.3943C88.7795 21.5381 88.303 20.639 87.8768 19.7004C87.6152 19.1236 87.4433 18.5111 87.1567 17.9522C86.7985 17.2573 86.4582 16.6339 86.1429 16.0858C85.8993 15.6631 85.799 15.3085 85.6235 14.7353C85.4264 14.0833 85.0467 13.614 84.8998 13.0122C84.6849 12.1381 84.6527 11.3643 85.0933 10.544C85.6199 9.56961 86.125 8.82449 86.6158 8.10086C86.8379 7.77129 87.0062 7.57784 87.1209 7.52052C88.2601 6.96168 89.2452 6.65002 90.087 6.58554C90.2984 6.56763 90.6423 6.62853 91.1152 6.76466C91.4913 6.87212 91.828 6.9581 92.129 7.019C92.7738 7.15513 93.3004 7.43813 93.7052 7.87517C94.153 8.35878 94.6473 9.00002 95.1883 9.80246C95.568 10.3649 95.9298 11.153 96.2701 12.1632C96.571 13.0552 96.5352 14.1442 96.7501 15.1043C96.786 15.2583 96.7788 15.5306 96.7788 15.6989C96.7824 15.8422 96.7681 15.9891 96.7287 16.1324L96.0695 18.683C96.0194 18.8765 95.9441 19.0627 95.8402 19.2383C95.4319 19.9404 95.2026 20.5243 94.787 21.0545C94.1745 21.8355 93.6192 22.4731 93.1213 22.9639C93.0604 23.0248 92.9887 23.0821 92.9171 23.1287L90.8931 24.4362C91.5343 25.5396 92.0179 26.7504 92.3367 28.0687C92.763 27.7176 93.1786 27.3988 93.5834 27.1122C94.1494 26.7074 94.5578 26.3922 94.8049 26.1665C94.9124 26.0662 95.1811 25.8405 95.6038 25.4894C96.6355 24.6332 97.4881 23.555 97.9896 22.3835C98.5234 21.1476 99.2112 20.0909 99.3867 18.683C99.3939 18.615 99.4082 18.5469 99.4261 18.4788C99.659 17.6406 99.7808 17.1569 99.7951 17.0352C99.9563 15.6237 100.014 14.0582 99.7235 12.6611C99.6626 12.3638 99.5873 11.8909 99.5014 11.2461C99.4799 11.0885 99.3222 10.655 99.0249 9.94575C98.8458 9.51229 98.6882 9.08241 98.5485 8.65254C98.1831 7.51336 97.5669 6.34911 96.7573 5.39979C96.3561 4.92693 96.0014 4.39316 95.4426 3.89164C95.396 3.84865 95.1954 3.65521 94.8479 3.31489C94.0813 2.5626 93.372 2.04316 92.72 1.753C91.3337 1.14042 89.8291 0.818013 88.2063 0.785773C87.4612 0.771443 86.8236 0.835925 86.2898 0.9828C84.7781 1.40193 83.2197 2.05391 81.9552 3.01755C81.3999 3.44027 80.8984 3.65521 80.422 4.07076C80.2751 4.19614 79.7664 4.59735 78.8995 5.26725C78.8565 5.30307 78.7956 5.30307 78.7454 5.27083C77.9573 4.74781 77.1298 4.32868 76.2557 4.01702C74.9124 3.53699 74.2031 3.21458 73.0639 2.60201C72.3259 2.20437 71.5593 1.95719 70.7605 1.85688C70.6709 1.84614 70.5813 1.82823 70.4954 1.79957C69.6177 1.52373 68.3352 1.14042 66.6515 0.638898C66.0963 0.474111 65.5625 0.366642 65.0467 0.31649C64.5487 0.266337 64.0293 0.119462 63.5672 0.108715C62.5784 0.0872214 60.4183 0.0693098 57.0903 0.0549806C56.7572 0.0549806 56.5028 0.0442336 56.3201 0.0263221C55.4926 -0.0632358 54.5756 0.101551 53.9164 0.137374C53.4292 0.166032 52.9635 0.226932 52.5265 0.327237C51.7205 0.509935 50.6458 0.585163 49.7824 0.835925C49.1412 1.01862 48.5609 1.0831 47.9949 1.30879C47.3608 1.55955 46.7554 1.76016 46.1786 1.9142C45.5589 2.08257 44.9535 2.2796 44.3624 2.50887C42.9868 3.04621 42.2022 3.40086 41.1598 3.71252C40.1997 4.00269 39.1752 4.41107 38.0897 4.94484C37.9393 5.02007 37.5703 5.16336 36.9792 5.38546C36.5601 5.54309 36.1087 5.79743 35.6251 6.1485C35.2705 6.40642 34.726 6.74316 33.9808 7.15871C33.3647 7.50261 32.8237 7.85368 32.3652 8.21191C31.1687 9.14331 30.3484 9.81679 29.9006 10.2288C29.6964 10.4186 29.5244 10.4329 29.3847 10.2717C29.1698 10.021 28.9728 9.83112 28.7936 9.69857C27.6688 8.87464 26.3756 8.16892 24.9212 7.58142C24.6632 7.47754 24.3874 7.40231 24.1116 7.37007C23.5384 7.29842 22.9294 7.21245 22.2846 7.11572C21.8153 7.04408 21.4356 7.01542 21.1382 7.02616C20.7048 7.04049 20.0743 6.98318 19.6086 7.06557C19.082 7.16229 18.5554 7.302 18.0288 7.48828C17.0759 7.8286 16.2412 8.68119 15.4137 9.17555C15.2919 9.2472 15.1844 9.34034 15.0949 9.45139L13.7049 11.1888C13.644 11.264 13.5975 11.3464 13.5581 11.4324L11.9317 15.2118C11.8815 15.3264 11.8493 15.4446 11.8314 15.5664C11.5914 17.2859 11.4517 19.0341 11.4158 20.8109C11.3764 22.5233 11.6236 24.0923 12.1538 25.5252C12.3329 26.016 12.6195 26.5605 13.0064 27.1588C13.0959 27.2949 13.4291 27.8143 14.0094 28.7063C14.3426 29.2222 14.8943 29.8706 15.6573 30.6479C16.0836 31.085 16.6532 31.8373 17.0007 32.063C17.6813 32.5143 18.2903 32.9514 18.8312 33.3741C18.9817 33.4923 19.1465 33.5926 19.3184 33.6786C20.4791 34.241 21.6863 34.6888 22.9401 35.0148C22.9796 35.0255 23.0584 35.0255 23.1909 35.0148M23.6459 30.6086C23.6244 30.7268 23.5276 30.8199 23.4058 30.8307C22.9867 30.8737 22.5819 30.845 22.1914 30.7375C21.475 30.5441 20.8731 30.3363 20.3967 30.1178C20.1137 29.9888 19.4725 29.5625 18.473 28.8389C18.0682 28.5452 17.7995 28.3123 17.6634 28.1404C17.0007 27.2878 16.3415 26.3098 15.8651 25.4465C15.471 24.7336 15.231 24.1747 15.1379 23.7807C15.0268 23.2863 14.8943 22.2188 14.7402 20.5781C14.6972 20.1088 14.7689 19.6825 14.7868 19.1881C14.8405 17.8233 15.342 16.5874 16.1087 15.3407C16.5851 14.5634 17.2049 13.9257 17.9751 13.4242C19.6014 12.3603 21.9192 12.2743 23.37 13.7C24.108 14.4237 24.7814 15.3658 25.3904 16.5193C25.4728 16.6769 25.5373 16.8453 25.5803 17.0173C25.8167 17.9809 26.3827 18.8872 26.3577 19.7291C26.3469 20.0873 26.2108 20.6103 25.9493 21.3089C25.8741 21.5059 25.8167 21.7137 25.7738 21.9215C25.6842 22.3872 25.5767 22.8278 25.4549 23.2397C25.1934 24.1138 25.0824 24.7336 24.8065 25.8799C24.4949 27.1695 23.9145 28.4341 23.7533 29.7416C23.6924 30.2396 23.653 30.5298 23.6387 30.6121L23.6459 30.6086Z" fill="#D4A06A"/>
<path d="M89.3061 22.3943C89.7718 23.1609 90.2984 23.838 90.8823 24.429L92.9063 23.1215C92.9815 23.0749 93.0496 23.0176 93.1105 22.9567C93.6084 22.4624 94.1637 21.8247 94.7763 21.0474C95.1918 20.5172 95.4211 19.9368 95.8295 19.2311C95.9298 19.0592 96.0086 18.8729 96.0587 18.6759L96.7179 16.1253C96.7573 15.9855 96.7716 15.8387 96.768 15.6918C96.768 15.5234 96.7752 15.2512 96.7394 15.0971C96.5208 14.1335 96.5602 13.048 96.2593 12.156C95.919 11.1458 95.5572 10.3613 95.1775 9.7953C94.6365 8.99286 94.1422 8.35163 93.6944 7.86802C93.2896 7.43098 92.763 7.14439 92.1182 7.01185C91.8208 6.95095 91.4841 6.86497 91.1044 6.7575C90.6315 6.62137 90.2912 6.56047 90.0763 6.57839C89.238 6.64287 88.2493 6.95453 87.1101 7.51337C86.9955 7.57069 86.8271 7.76413 86.605 8.0937C86.1142 8.81733 85.6091 9.56245 85.0825 10.5368C84.6419 11.3572 84.6741 12.131 84.8891 13.0051C85.0359 13.6069 85.4157 14.0762 85.6127 14.7282C85.7882 15.3013 85.8885 15.656 86.1321 16.0787C86.451 16.6304 86.7877 17.2501 87.1459 17.9451C87.4325 18.5039 87.6045 19.1165 87.866 19.6932C88.2887 20.6318 88.7687 21.531 89.3061 22.3871V22.3943Z" fill="black"/>
<path d="M67.1924 26.6321L67.5937 27.0657C67.6331 27.1086 67.6689 27.1552 67.7011 27.2054L68.3316 28.1977C68.3925 28.298 68.4749 28.384 68.5681 28.4592C69.2487 29.0073 70.0296 29.8778 70.9682 30.2754C71.6775 30.5763 72.5086 30.8307 73.4651 31.042C74.3678 31.2426 75.2419 31.1997 76.245 31.2462C77.66 31.3107 79.118 31.1423 80.447 30.5656C81.2208 30.2288 81.7761 29.9637 82.12 29.7631C82.36 29.6234 82.8651 29.2079 83.6317 28.5129C83.7284 28.4269 83.8072 28.3302 83.8681 28.2156C84.0007 27.972 84.2228 27.6209 84.538 27.1695C85.104 26.3528 85.5482 25.2996 85.9423 24.404C85.9781 24.3252 86.0032 24.2392 86.0211 24.1532L86.2002 23.2218C86.1214 22.8958 86.0784 22.5627 86.0641 22.2223C86.0605 22.122 86.0462 22.0217 86.0175 21.9214C85.7954 21.1297 85.6629 20.2127 85.3727 19.4783C85.2545 19.1738 85.0897 18.6543 84.8712 18.2746C84.3911 17.4471 84.0938 16.7056 83.6317 15.9282C83.0406 14.9287 82.514 14.1263 82.0519 13.5245C81.8513 13.2594 81.5002 12.9298 80.9987 12.5358C80.9163 12.4677 80.8375 12.396 80.7658 12.3137C79.8738 11.2855 78.7526 10.3935 77.4056 9.6305C77.0187 9.41197 76.6426 9.26868 76.2772 9.2042C74.2532 8.84955 72.5695 8.46266 70.7783 9.15047C69.5102 9.63766 68.5322 10.5583 67.891 11.805C67.8588 11.8659 67.6402 12.2778 67.2354 13.0337C66.8665 13.7215 66.6157 14.5848 66.4832 15.6273C66.39 16.3545 66.5369 17.3396 66.4939 17.9809C66.3434 20.3954 66.2718 22.9137 66.6515 25.2351C66.6587 25.2852 66.673 25.3354 66.6945 25.3855L67.1924 26.6429M80.5509 26.3384C79.641 27.7284 78.5233 28.1726 76.9722 28.5523C76.6211 28.6383 76.4026 28.6096 76.313 28.4699C76.3059 28.4484 76.2987 28.4305 76.2951 28.409C75.4389 28.9069 74.8049 28.7816 73.7338 28.5738C73.5367 28.5344 73.114 28.323 72.4656 27.9397C72.2005 27.7821 71.9319 27.5636 71.6596 27.2841C71.2154 26.822 70.9754 26.5713 70.9395 26.5247C70.2947 25.6864 69.872 24.8159 69.6678 23.9096C69.5747 23.4976 69.5066 23.1287 69.4529 22.7991C69.3168 21.9322 69.3705 20.9148 69.3777 20.0013C69.3777 19.8831 69.3633 19.7649 69.3275 19.6502C69.2666 19.4496 69.2415 19.3171 69.2451 19.2526C69.306 17.9665 69.5245 16.9205 69.9114 16.1145C70.5168 14.8428 71.5593 14.4344 72.8418 13.897C73.9953 13.4134 75.421 13.4528 76.5315 13.7681C76.7178 13.8218 77.3841 14.1191 78.5233 14.6601C78.5842 14.6887 78.6415 14.7245 78.6953 14.7711C79.1896 15.1867 79.7162 15.6488 80.2822 16.1575C80.4506 16.3115 80.7945 16.7808 81.3032 17.5653C81.3533 17.6441 81.4071 17.7122 81.4716 17.7803C81.7044 18.0346 81.8298 18.2316 81.8477 18.3749C81.9193 18.9123 82.0268 19.4138 82.1665 19.8759C82.1916 19.9547 82.2059 20.03 82.2131 20.1088C82.3421 21.3088 82.3134 22.5483 82.1343 23.8236C82.1271 23.8666 82.1773 23.8953 82.2131 23.8666C82.8794 23.297 83.6066 23.1072 84.4986 22.688C84.6419 22.6236 84.8103 22.6343 84.9392 22.7203H84.9464C85.0467 22.7919 85.036 22.9388 84.9285 22.9889C84.2658 23.3042 83.5529 23.7162 82.7827 24.2284C82.188 24.6225 81.7116 25.493 81.3318 26.1772C81.1599 26.4853 80.8446 26.7289 80.5581 26.3348L80.5509 26.3384Z" fill="#BFA2A3"/>
<path d="M30.4272 28.2048L34.6973 31.8122C34.7904 31.891 34.8907 31.9591 34.9982 32.0164C36.1302 32.6075 36.972 32.9944 37.5273 33.1843C38.5339 33.5282 39.3758 33.7323 40.0528 33.7932C40.7371 33.8541 41.364 33.7968 42.2452 33.8541C43.5062 33.9365 44.7134 33.8541 45.8741 33.5998C46.8342 33.392 47.8766 33.109 48.9979 32.7508C50.0045 32.432 50.8069 32.0343 51.4088 31.565C51.8064 31.257 52.2972 30.8307 52.8847 30.2933C53.2429 29.9673 53.5725 29.5446 53.8698 29.0288C54.2066 28.4449 54.5505 27.8788 54.9015 27.3236C55.0592 26.625 55.1201 25.9157 55.0771 25.1957C55.0699 25.0595 55.0198 24.6225 54.9338 23.881C54.769 22.4946 54.1959 21.0223 53.9129 19.575C53.7696 18.8406 53.6334 18.2997 53.5009 17.9487C53.3468 17.5367 52.985 16.7737 52.4226 15.656C52.1289 15.0721 51.7778 14.5383 51.373 14.0511C50.5813 13.1018 50.1729 12.6038 50.1443 12.5609C50.1407 12.5537 49.8613 12.2993 49.3096 11.7978C49.0982 11.6044 48.7937 11.3859 48.3961 11.1458C47.4504 10.5727 46.6945 10.1535 45.7273 9.88128C45.5302 9.82396 45.1899 9.79172 44.7135 9.78098C44.151 9.77023 43.6352 9.77023 43.1659 9.78098C41.0237 9.84188 38.9388 10.5942 37.1297 11.9662C35.7398 13.0194 34.5576 14.2087 33.5796 15.5378C33.1677 16.0966 32.7844 16.8059 32.4369 17.6621C31.8816 19.0269 31.4446 20.2736 31.1114 21.402C30.9323 22.011 30.9072 22.5663 30.7568 23.1967C30.4379 24.5473 30.266 25.9121 30.2409 27.2842C30.2337 27.6316 30.2911 27.9361 30.4165 28.1977M38.8205 22.4086C38.8205 22.4086 38.8456 22.38 38.8384 22.3621C38.8348 22.3442 38.8169 22.3334 38.7954 22.337L34.382 23.1036C34.2674 23.1251 34.1743 23.0069 34.2208 22.8994C34.7761 21.6241 41.0021 20.9005 42.3133 20.7787C43.1659 20.6999 44.0399 20.3846 44.8854 20.2557C46.2359 20.0515 47.5972 20.03 48.9692 20.1912C49.5782 20.2628 50.026 20.5423 50.3054 21.033C50.4809 21.3375 50.463 21.6205 50.2517 21.882C49.7788 22.4624 47.9626 22.1615 46.9989 22.1006C45.0645 21.9752 43.1444 22.5985 41.1096 23.1645C40.5651 23.315 40.1567 23.4439 39.8809 23.555C39.1752 23.8344 38.756 23.992 38.6235 24.0314C38.4229 24.1102 38.2258 24.1962 38.036 24.2929L35.8329 25.407C35.7218 25.4644 35.5893 25.3855 35.5857 25.2602C35.5749 24.9807 35.7433 24.8804 35.8866 24.6834C36.1983 24.2464 36.6031 23.8523 37.0938 23.5084C37.7422 23.0535 38.3226 22.6881 38.8277 22.4122L38.8205 22.4086Z" fill="#BFA2A3"/>
<path d="M23.6459 30.6086C23.6602 30.5298 23.6996 30.236 23.7605 29.738C23.9217 28.4305 24.5021 27.1695 24.8137 25.8763C25.0896 24.73 25.2006 24.1102 25.4621 23.2361C25.5839 22.8242 25.6914 22.3836 25.781 21.9179C25.8204 21.7101 25.8813 21.5023 25.9565 21.3053C26.218 20.6103 26.3541 20.0837 26.3649 19.7255C26.39 18.8836 25.8275 17.9773 25.5875 17.0137C25.5445 16.8381 25.48 16.6733 25.3977 16.5157C24.7887 15.3622 24.1152 14.4201 23.3772 13.6964C21.9264 12.2707 19.6086 12.3567 17.9823 13.4206C17.2156 13.9221 16.5923 14.5598 16.1159 15.3371C15.3493 16.5838 14.8477 17.8197 14.794 19.1845C14.7761 19.6825 14.7044 20.1052 14.7474 20.5745C14.9015 22.2188 15.0304 23.2863 15.1451 23.7771C15.2346 24.1747 15.4782 24.73 15.8723 25.4428C16.3487 26.3062 17.0043 27.2842 17.6706 28.1367C17.8067 28.3087 18.0754 28.5415 18.4802 28.8353C19.4797 29.5589 20.1209 29.9852 20.4039 30.1142C20.8803 30.3327 21.4822 30.5405 22.1986 30.7339C22.5891 30.8378 22.9939 30.8701 23.413 30.8271C23.5313 30.8163 23.6316 30.7268 23.6531 30.605L23.6459 30.6086Z" fill="black"/>
<path d="M76.2915 28.409C76.3202 28.366 76.3309 28.3374 76.3274 28.323C76.3023 28.2371 76.2414 28.2012 76.1518 28.2227C75.4067 28.3839 74.7619 27.9827 74.1457 27.5278C73.3755 26.9582 73.114 26.1808 73.3648 25.2028C73.3899 25.1025 73.5117 25.0596 73.5941 25.124C74.1386 25.5503 74.7297 25.6471 75.3601 25.4178C76.1375 25.1348 76.5459 24.9843 76.5889 24.97C76.6856 24.9306 76.7752 24.8769 76.854 24.8124C77.8463 23.9669 78.3263 22.8564 78.2941 21.4772C78.2905 21.2623 78.3836 21.1512 78.5735 21.1405C78.6272 21.1405 78.6809 21.1512 78.7275 21.1799C79.5801 21.6814 80.0279 22.448 80.0709 23.4798C80.0781 23.6445 80.0494 23.8308 79.9921 24.0278C79.9133 24.2822 79.8524 24.4577 79.813 24.5616C79.6303 24.9987 79.4261 25.4644 79.2004 25.9551C79.6231 25.4178 79.9026 24.9556 80.0423 24.5652C80.1748 24.1998 80.2393 23.863 80.2393 23.555C80.2393 23.2003 80.2465 22.5913 80.2536 21.7316C80.2536 21.6169 80.2393 21.5059 80.2106 21.3948C80.1283 21.0796 80.0781 20.7607 80.0674 20.4419C80.0602 20.2485 80.01 20.0586 79.9169 19.8867C79.4834 19.0806 78.964 18.3212 78.3514 17.6047C78.312 17.5582 78.2655 17.5116 78.2153 17.4722L76.8648 16.4118C76.8182 16.376 76.7645 16.3473 76.7036 16.3294C76.0301 16.1252 75.6253 16.0178 75.4963 16.0106C75.0593 15.9855 74.4646 16.0321 73.7087 16.1467C73.6407 16.1575 73.5834 16.1002 73.5941 16.0321V16.0034C73.6156 15.9067 73.6873 15.8315 73.7804 15.81C74.0526 15.7491 74.4073 15.6524 74.8408 15.527C75.9405 15.2082 76.8934 15.3801 77.9753 15.8995C79.3079 16.5408 80.2823 17.4256 80.9056 18.5576C80.9558 18.6472 80.9952 18.7367 81.0238 18.837C81.2674 19.6574 81.4 20.0909 81.4143 20.1446C81.683 21.1118 81.5003 22.7167 81.5683 23.4761C81.5791 23.6051 81.5683 23.7341 81.5218 23.8594C81.4501 24.0636 81.4143 24.3072 81.4143 24.5867C81.4143 24.6977 81.3856 24.8052 81.3319 24.9055L80.5438 26.3384C80.8304 26.7325 81.1456 26.4889 81.3175 26.1808C81.7008 25.4966 82.1737 24.6261 82.7684 24.232C83.5385 23.7198 84.255 23.3078 84.9142 22.9926C85.0216 22.9424 85.0324 22.7955 84.9321 22.7275H84.9249C84.7924 22.6343 84.6276 22.6236 84.4843 22.6881C83.5923 23.1072 82.8651 23.3006 82.1988 23.8666C82.1665 23.8953 82.1164 23.8666 82.12 23.8237C82.3027 22.5483 82.3277 21.3089 82.1988 20.1088C82.1916 20.03 82.1773 19.9512 82.1522 19.8759C82.0125 19.4138 81.9086 18.9123 81.8334 18.375C81.8119 18.2317 81.6901 18.031 81.4572 17.7803C81.3963 17.7122 81.339 17.6406 81.2889 17.5653C80.7766 16.7772 80.4363 16.308 80.2679 16.1575C79.7055 15.6524 79.1753 15.1903 78.6809 14.7711C78.6272 14.7282 78.5699 14.6923 78.509 14.6601C77.3698 14.1192 76.7035 13.8218 76.5172 13.7681C75.4067 13.4493 73.9845 13.4134 72.8274 13.8971C71.545 14.4344 70.5025 14.8428 69.8971 16.1145C69.5138 16.9205 69.2917 17.963 69.2308 19.2526C69.2308 19.3171 69.2559 19.4496 69.3132 19.6503C69.349 19.7649 69.3633 19.8831 69.3633 20.0013C69.3562 20.9148 69.3024 21.9322 69.4386 22.7991C69.4887 23.1287 69.5604 23.5012 69.6535 23.9096C69.8577 24.816 70.2804 25.6865 70.9252 26.5247C70.961 26.5713 71.2011 26.822 71.6453 27.2842C71.9175 27.5636 72.1826 27.7857 72.4513 27.9397C73.0997 28.323 73.5224 28.5344 73.7194 28.5738C74.787 28.7816 75.4246 28.907 76.2808 28.409M74.3464 20.6533C74.3715 21.0867 74.1673 21.5059 73.7374 21.9178C73.3326 22.3047 72.8884 22.4122 72.4155 22.2366C71.6883 21.9716 71.5522 21.5488 71.5092 20.8216C71.4662 20.0944 71.5522 19.6574 72.2436 19.3099C72.6949 19.0806 73.1463 19.1344 73.5941 19.4711C74.0706 19.8293 74.3249 20.2234 74.35 20.6568L74.3464 20.6533Z" fill="#331011"/>
<path d="M79.2004 25.9551C79.0177 26.3098 78.7848 26.6071 78.5054 26.8471C78.14 27.1659 77.4056 27.7033 76.3094 28.4699C76.399 28.6096 76.6211 28.6383 76.9686 28.5523C78.5198 28.1761 79.6374 27.7283 80.5473 26.3384L81.3355 24.9055C81.3892 24.8052 81.4178 24.6977 81.4178 24.5867C81.4178 24.3072 81.4573 24.0636 81.5253 23.8594C81.5683 23.7376 81.5826 23.6051 81.5719 23.4761C81.5038 22.7167 81.6865 21.1118 81.4178 20.1446C81.4035 20.0909 81.2746 19.6574 81.0274 18.837C80.9987 18.7403 80.9593 18.6472 80.9092 18.5576C80.2894 17.4256 79.3114 16.5408 77.9788 15.8995C76.897 15.3801 75.9441 15.2082 74.8443 15.527C74.4073 15.6524 74.0526 15.7455 73.7839 15.81C73.6872 15.8315 73.6192 15.9067 73.6012 16.0034V16.0321C73.5833 16.1002 73.6407 16.1575 73.7087 16.1467C74.4646 16.0321 75.0629 15.9891 75.4963 16.0106C75.6253 16.0178 76.0265 16.1216 76.7036 16.3294C76.7645 16.3473 76.8182 16.376 76.8648 16.4118L78.2153 17.4722C78.2655 17.5116 78.312 17.5546 78.3514 17.6047C78.964 18.3212 79.4834 19.0842 79.9169 19.8867C80.01 20.0586 80.0602 20.2449 80.0674 20.4419C80.0781 20.7607 80.1283 21.0796 80.2106 21.3948C80.2393 21.5059 80.2536 21.6169 80.2536 21.7316C80.2465 22.5913 80.2393 23.2003 80.2393 23.555C80.2393 23.863 80.1712 24.1998 80.0423 24.5652C79.9026 24.9556 79.6231 25.4178 79.2004 25.9551Z" fill="#FFF5F5"/>
<path d="M71.5092 20.8216C71.5522 21.5488 71.6883 21.9716 72.4155 22.2366C72.892 22.4122 73.3326 22.3047 73.7374 21.9178C74.1709 21.5059 74.3715 21.0831 74.3464 20.6533C74.3213 20.2198 74.0705 19.8258 73.5905 19.4676C73.1427 19.1308 72.6913 19.0771 72.2399 19.3063C71.5485 19.6574 71.4661 20.0909 71.5055 20.8181L71.5092 20.8216Z" fill="#FFF5F5"/>
<path d="M38.8205 22.4086C38.3154 22.6845 37.7351 23.0499 37.0867 23.5048C36.5924 23.8487 36.1912 24.2392 35.8795 24.6798C35.7398 24.8768 35.5678 24.9771 35.5786 25.2566C35.5822 25.3819 35.7147 25.4607 35.8258 25.4034L38.0289 24.2893C38.2223 24.1926 38.4158 24.1066 38.6164 24.0278C38.7489 23.9884 39.1716 23.8308 39.8738 23.5514C40.1496 23.4403 40.558 23.3114 41.1025 23.1609C43.1373 22.5985 45.0574 21.9716 46.9918 22.097C47.9555 22.1579 49.7717 22.4588 50.2446 21.8784C50.4559 21.6169 50.4739 21.3339 50.2983 21.0294C50.0189 20.5386 49.5711 20.2556 48.9621 20.1876C47.5901 20.0264 46.2288 20.0479 44.8783 20.2521C44.0329 20.381 43.1623 20.6927 42.3062 20.7751C40.995 20.8969 34.769 21.6205 34.2137 22.8958C34.1672 23.0033 34.2603 23.1215 34.3749 23.1L38.7883 22.3334C38.8098 22.3334 38.8277 22.3406 38.8313 22.3585C38.8385 22.3764 38.8313 22.3979 38.8134 22.405L38.8205 22.4086Z" fill="#331011"/>
<path d="M76.2915 28.409C76.2951 28.4305 76.3023 28.4484 76.3094 28.4699C77.4056 27.7069 78.1364 27.1659 78.5054 26.8471C78.7848 26.6071 79.0177 26.3098 79.2004 25.9551C79.4261 25.4608 79.6303 24.9987 79.813 24.5616C79.8559 24.4577 79.9168 24.2822 79.9921 24.0278C80.053 23.8308 80.0781 23.6445 80.0709 23.4798C80.0279 22.448 79.5801 21.6814 78.7275 21.1799C78.6809 21.1512 78.6272 21.1405 78.5735 21.1405C78.38 21.1512 78.2869 21.2623 78.2941 21.4772C78.3299 22.8528 77.8499 23.9634 76.854 24.8124C76.7752 24.8804 76.6856 24.9342 76.5889 24.97C76.5495 24.9879 76.1375 25.1348 75.3601 25.4178C74.7261 25.6471 74.1386 25.5503 73.5941 25.124C73.5117 25.0596 73.3935 25.1025 73.3648 25.2028C73.114 26.1844 73.3755 26.9582 74.1457 27.5278C74.7583 27.9827 75.4031 28.3804 76.1518 28.2227C76.2414 28.2012 76.3023 28.2371 76.3274 28.323C76.3309 28.3374 76.3202 28.3624 76.2915 28.409Z" fill="#6A4243"/>
<path d="M89.3061 22.3943C89.0016 22.4588 88.7724 22.491 88.4213 22.4803C87.6583 22.4588 86.7555 22.6092 86.1967 23.2182L86.0176 24.1496C85.9997 24.2356 85.9746 24.3216 85.9388 24.4004C85.5447 25.2924 85.1005 26.3492 84.5345 27.1659C84.2193 27.6173 83.9972 27.9684 83.8646 28.212C83.8037 28.323 83.7249 28.4233 83.6282 28.5093C82.8616 29.2007 82.3565 29.6198 82.1164 29.7595C81.7725 29.9601 81.2137 30.2288 80.4435 30.562C79.1145 31.1387 77.66 31.3107 76.2414 31.2426C75.2348 31.196 74.3643 31.239 73.4616 31.0384C72.5051 30.8271 71.674 30.5727 70.9647 30.2718C70.0297 29.8742 69.2488 29.0037 68.5645 28.4556C68.4714 28.3803 68.3926 28.2944 68.3281 28.1941L67.6976 27.2018C67.6654 27.1516 67.6331 27.105 67.5902 27.062L67.1889 26.6286C66.7734 26.4495 66.1536 26.256 65.3226 26.0518C62.9045 25.4572 60.6261 25.4822 58.4911 26.1199C57.8964 26.2954 57.463 26.5641 56.9614 26.7862C56.922 26.8041 56.879 26.8185 56.8361 26.8292L54.9016 27.32C54.5541 27.8752 54.2102 28.4412 53.8699 29.0252C53.5726 29.541 53.243 29.9601 52.8848 30.2897C52.2937 30.8271 51.8029 31.2498 51.4088 31.5614C50.807 32.0343 50.001 32.4284 48.9979 32.7472C47.8767 33.1054 46.8342 33.3848 45.8742 33.5962C44.7135 33.847 43.5063 33.9329 42.2453 33.8505C41.364 33.7932 40.7371 33.8505 40.0529 33.7896C39.3794 33.7287 38.534 33.5245 37.5274 33.1806C36.9721 32.9908 36.1303 32.6039 34.9983 32.0128C34.8908 31.9555 34.7869 31.8874 34.6973 31.8086L30.4272 28.2012C30.1621 28.1726 29.9114 28.1403 29.6714 28.1009C28.4211 27.8931 26.9058 28.3338 25.8025 28.8962C25.7451 28.9249 25.695 28.9607 25.6448 29.0001L23.9361 30.5512C23.8501 30.63 23.7856 30.7303 23.7534 30.8414C23.6889 31.0599 23.5564 31.5041 23.3557 32.1704C23.1551 32.8439 23.2877 34.001 23.1766 35.0076C23.2662 35.0327 23.3199 35.09 23.3343 35.1832C23.5528 36.6555 24.0292 38.0239 24.7743 39.2921C25.5517 40.6175 26.4688 41.8534 27.5936 42.9424C27.8444 43.186 28.2169 43.5694 28.7113 44.0924C28.9119 44.3073 29.4922 44.7838 30.4487 45.5217C30.8141 45.8047 31.2512 46.0662 31.767 46.3062C32.4906 46.643 33.0495 47.209 33.7516 47.5995C34.0095 47.7427 34.3355 47.9577 34.6508 48.1153C35.6502 48.6204 36.5458 49.1757 37.3411 49.7847C38.5877 50.1107 39.7807 50.5155 40.9127 50.9955C41.7867 51.3645 42.4602 51.6224 42.9295 51.7621C44.3696 52.192 45.7954 52.5896 47.2104 52.9514C47.9018 53.1306 48.8045 53.2559 49.9222 53.3383C50.3664 53.3706 50.7855 53.5389 51.1832 53.4852C51.2261 53.4816 51.2656 53.5139 51.2691 53.5568V53.6177C51.2691 53.6571 51.2333 53.6858 51.1939 53.6858L50.4058 53.6536C50.2697 53.65 50.1479 53.7252 50.0905 53.847L49.3383 55.477C49.3204 55.5164 49.306 55.5558 49.2989 55.5988C48.8797 57.6049 48.4857 59.3351 48.1167 60.7824C47.9447 61.4666 47.8444 61.9287 47.8194 62.1723C47.7083 63.1754 47.5578 64.4292 47.3644 65.9302C47.325 66.249 47.2677 66.5642 47.2032 66.8831C47.1459 67.1625 47.1136 67.4813 47.1029 67.8431C47.1029 67.9004 47.0778 67.9613 47.0241 68.0258C46.9954 68.0616 46.9775 68.1046 46.9704 68.1476L46.8736 68.8641C46.9345 70.0964 47.1065 71.318 47.3859 72.5359C47.3967 72.5825 47.4217 72.6219 47.4576 72.6542L48.4534 73.4494C48.4749 73.4673 48.5072 73.4781 48.5358 73.4817H48.6755C48.7364 73.4888 48.7938 73.5247 48.8188 73.582C49.1054 74.1731 49.4529 74.7104 49.8577 75.194C50.1371 75.5308 50.5527 76.1792 51.0936 77.1285C51.6596 78.1244 52.2041 79.1632 52.72 80.2451C53.1642 80.9544 53.4937 81.5634 53.7015 82.0828C53.8735 82.5091 53.9165 82.9354 53.8269 83.3545C54.6508 83.6304 55.2061 83.8955 55.4927 84.1498C55.9226 84.5295 56.5065 85.0597 57.18 85.5577C57.857 86.0628 58.4051 86.8473 58.4839 87.7142C58.5054 87.9327 58.5269 88.1728 58.552 88.4307C58.1794 89.4158 57.3949 89.7418 56.1948 89.4122C56.6283 90.4332 56.9435 91.3968 57.137 92.3103C57.2838 92.8477 57.1656 93.2704 56.7787 93.5785C56.3668 93.9045 56.0659 94.0406 55.5822 93.8041C55.1954 93.6179 54.812 93.4065 54.4323 93.1665C54.3822 93.1343 54.3141 93.1701 54.3141 93.231C54.3177 93.7361 54.1278 94.4275 53.5224 94.4633C52.8525 94.5027 52.2579 94.3415 51.7348 93.9797C51.6918 93.951 51.6345 93.9904 51.6524 94.0406C51.8495 94.6997 51.871 95.3911 51.1939 95.7386C50.7533 95.9643 50.5097 96.0288 50.2052 95.6025C49.915 95.6311 49.6034 95.5201 49.2702 95.2657C48.8332 94.9326 48.5287 94.7141 48.3567 94.6173C48.3173 94.5958 48.2815 94.5672 48.2492 94.5349C47.5113 93.7862 47.0671 93.2955 46.913 93.0554C46.6766 92.6793 46.3435 92.1384 45.9136 91.4291C45.8133 91.2643 45.6377 91.0816 45.3906 90.8846C45.215 90.8989 45.1076 90.967 45.1183 91.1604C45.1326 91.4291 45.1004 91.6763 45.0252 91.9019C44.9786 92.0452 44.9678 92.1993 44.9965 92.3462C45.1971 93.3492 45.4765 94.8824 45.8348 96.9351C45.9028 97.3256 45.9673 97.6157 46.0318 97.8056C46.2754 98.54 46.236 99.0845 46.5082 99.8368C46.6085 100.109 46.7089 100.489 46.8092 100.972C46.8235 101.048 46.8486 101.123 46.8844 101.191C47.5364 102.574 47.9985 103.691 48.8475 104.719C49.0409 104.952 49.3418 105.414 49.7574 106.109C49.7861 106.16 49.8219 106.206 49.8577 106.249C50.0332 106.453 50.2553 106.686 50.5168 106.944C52.265 108.653 53.2967 109.659 53.612 109.953C53.9093 110.229 54.3105 110.562 54.5649 110.706C55.5428 111.261 56.1877 111.744 57.0582 112.052C57.9107 112.353 58.4445 112.658 59.3795 112.912C59.6195 112.977 59.9849 113.091 60.4721 113.256C60.6978 113.331 61.3713 113.432 62.4854 113.55C62.7325 113.575 63.0514 113.546 63.252 113.507C64.9786 113.188 66.5584 112.991 68.1956 112.669C68.2063 112.669 68.2171 112.665 68.2278 112.658L69.5927 112.042C69.7324 111.981 69.8578 111.891 69.9652 111.784C70.7175 111.024 71.5809 110.419 72.566 109.975C72.9815 109.523 73.3792 108.95 73.7625 108.255C73.8091 108.169 73.8986 108.094 74.024 108.026C74.0312 107.804 74.0634 107.646 74.1207 107.549C74.4897 106.933 74.7727 106.453 75.0664 105.776C75.0772 105.751 75.2706 105.332 75.6504 104.519C76.3238 103.064 76.9364 101.485 77.4809 99.7866C77.9001 98.4827 78.0577 97.2826 78.3729 95.8604C78.4302 95.6096 78.4016 95.1833 78.0326 95.2657C77.8392 95.4914 77.5669 95.6419 77.2158 95.7243C76.485 95.8891 75.9513 95.6813 75.611 95.0974C75.5895 95.058 75.5357 95.0436 75.4963 95.0723L75.0951 95.3517C74.6402 95.7493 74.1279 95.7852 73.5583 95.4592C73.1965 94.9971 72.9063 94.4848 72.6914 93.9259C72.6663 93.8651 72.6233 93.6752 72.5588 93.3492C72.5338 93.2274 72.5302 93.102 72.5481 92.9802L72.6627 92.1491C72.6735 92.0631 72.5911 91.9951 72.5087 92.0273C71.9498 92.2458 71.3373 92.1384 70.6709 91.6977C70.1981 91.3324 69.9688 90.7843 69.9867 90.0642C70.0011 89.491 70.1443 88.8641 70.4166 88.1871C70.7354 87.3846 71.4698 86.2491 71.871 85.203C71.8495 84.9451 71.8603 84.7015 71.9068 84.4758C72.2257 82.939 72.6233 81.3986 73.1069 79.8546C73.4974 78.6044 73.6228 77.8485 73.9237 76.4693C73.9738 76.2436 74.0025 76.0036 74.0061 75.7493C74.0132 75.4985 74.0132 75.2549 74.0097 75.0221C73.7947 72.6398 73.4866 70.2934 73.0783 67.9828C73.003 67.5673 73.0747 67.2126 72.9815 66.7684C72.6627 65.2388 72.3833 64.0924 72.1504 63.333C71.7492 62.0111 71.6668 60.657 71.3588 59.2241C71.348 59.1739 71.3301 59.1273 71.3014 59.0844C71.2405 58.9876 71.0722 58.4861 70.7963 57.5834C70.6244 57.0209 70.2447 55.9785 69.6572 54.4596C69.4207 53.8434 69.2774 53.2846 69.2273 52.7866C69.2237 52.7401 69.2094 52.6899 69.1879 52.6469L68.8511 51.9842C68.8117 51.9054 68.8511 51.8051 68.9371 51.78L72.9063 50.5047C72.9386 50.494 72.9672 50.4832 72.9959 50.4653C73.5834 50.1357 74.1386 49.9172 74.6581 49.8097C75.0414 49.5303 75.4139 49.3011 75.7722 49.1219C76.4564 48.778 76.8469 48.5774 76.94 48.5237C77.3161 48.3052 77.7532 48.0831 78.2475 47.861C78.8637 47.5851 79.6876 46.7504 80.3611 46.36C80.7337 46.145 81.1958 45.8799 81.6006 45.5647C82.077 45.1921 82.5177 44.7909 82.969 44.5043C83.2628 44.3145 83.6497 43.9885 84.1369 43.5299C84.2945 43.3831 84.7781 43.0356 85.5949 42.4875C85.6522 42.4481 85.7059 42.4087 85.7525 42.3585C86.5549 41.5633 87.2212 40.7895 87.7514 40.0372C87.9556 39.747 88.1706 39.4784 88.3962 39.2383C89.059 38.5219 89.4674 37.7839 89.9295 37.1355C90.3056 36.6125 90.4776 36.1898 90.7964 35.6453C91.1224 35.0829 91.3051 34.2768 91.5308 33.7753C91.9427 32.869 92.0323 31.8014 92.1505 30.7482C92.172 30.5584 92.1541 30.1643 92.1004 29.5625C92.0609 29.1505 92.0824 28.7529 92.1541 28.3732C92.1827 28.2227 92.2365 28.126 92.3153 28.0866C91.9965 26.7683 91.5164 25.5575 90.8716 24.4541C90.2841 23.863 89.7611 23.1824 89.2954 22.4194M70.345 33.3382C70.4238 33.392 70.4703 33.4887 70.4882 33.6284C70.6244 34.6637 70.345 35.5772 69.6536 36.3617C69.3813 36.6698 68.6469 36.9886 68.02 37.526C67.9627 37.5761 67.9269 37.6478 67.9305 37.7266C67.9376 38.0741 67.8338 38.5433 67.626 39.1344C67.2212 40.2736 66.8307 41.0008 66.3686 42.0898C66.1572 42.5878 65.8993 43.0606 65.5948 43.5084C65.2043 44.0852 64.8389 44.3359 64.384 44.8769C64.2622 45.0273 64.0759 45.1814 63.8323 45.3354C63.1123 45.7975 62.3743 46.0483 61.622 46.0877C61.099 46.1128 59.8738 46.2059 59.2219 46.0411C58.337 45.8154 57.5597 45.493 56.8898 45.0703C55.4569 44.164 54.246 42.3406 53.6263 40.7501C53.4328 40.2593 53.2107 39.6574 52.9528 38.9553C52.4262 37.5152 52.4513 36.4549 52.4477 34.9969C52.4477 34.7998 52.7021 34.7282 52.8059 34.893L53.028 35.2476C53.028 35.2476 53.0495 35.2763 53.0603 35.287L54.1565 36.4441C54.1744 36.4656 54.1959 36.4835 54.221 36.4943C55.1989 37.0137 56.1088 37.397 57.248 37.5152C57.6134 37.5546 57.9824 37.6227 58.3549 37.7194C58.4624 37.7481 58.5735 37.7588 58.6809 37.7588C58.921 37.7552 59.1825 37.7803 59.4726 37.8412C60.2142 37.9988 61.0094 37.9379 61.708 37.9487C61.8405 37.9487 61.9695 37.9021 62.0662 37.8126C62.2597 37.6406 62.514 37.5331 62.8293 37.4937C62.8937 37.4866 62.9439 37.4292 62.9475 37.3648L63.012 35.7241C63.012 35.6847 62.9905 35.6453 62.9582 35.6238C62.2095 35.1867 61.5898 34.7139 61.099 34.2123C61.0524 34.1658 60.9951 34.1299 60.9342 34.1084L60.3109 33.8899C60.2607 33.872 60.2106 33.8469 60.1676 33.8183C59.5013 33.3812 58.9353 32.8009 58.4803 32.0773C58.2403 31.7011 58.312 30.7088 58.7669 30.433C59.2219 30.1571 59.5228 29.9386 59.9992 29.7774C61.2172 29.369 62.3958 29.086 63.5314 28.9248C63.6604 28.9069 63.7929 28.9069 63.9219 28.9248C64.3876 28.9929 64.7171 29.0287 64.907 29.0323C65.7059 29.0466 66.5799 29.4299 67.2104 29.8526C67.257 29.8849 67.3 29.9243 67.3286 29.9744C67.7227 30.6049 67.669 31.2712 67.3 31.9053C67.017 32.3889 66.7125 32.9012 66.3865 33.4457C66.3363 33.5317 66.2754 33.6105 66.2074 33.6821C65.7739 34.1299 65.276 34.6315 64.7171 35.1867C64.3195 35.5808 64.0293 35.7026 63.4992 35.8244C63.4275 35.8423 63.3809 35.9032 63.3774 35.9748L63.3236 37.3433C63.3236 37.3934 63.3451 37.4436 63.3845 37.4687C63.9075 37.8305 64.4485 37.7624 64.9607 37.877C65.0181 37.8914 65.079 37.8914 65.1363 37.8806C66.0283 37.7409 66.8271 37.5224 67.5328 37.2179C67.6188 37.1785 67.6976 37.1319 67.7693 37.0746C68.0881 36.8167 68.5466 36.4728 69.1449 36.0465C69.4243 35.8494 69.65 35.613 69.8255 35.3443C70.0655 34.9718 70.0906 33.8362 70.0834 33.4815C70.0834 33.3382 70.2411 33.2487 70.3629 33.3347M70.0333 31.3178C70.1336 31.3357 70.1945 31.4683 70.1694 31.608C70.1443 31.7477 70.0405 31.8516 69.9402 31.8337C69.8398 31.8158 69.7789 31.6832 69.804 31.5435C69.8291 31.4038 69.933 31.2999 70.0333 31.3178ZM68.7723 33.0767C68.7723 32.9406 68.887 32.8296 69.0231 32.8296H69.1162C69.2523 32.8296 69.3634 32.9442 69.3634 33.0803V33.2487C69.3634 33.3848 69.2488 33.4959 69.1126 33.4959H69.0195C68.8834 33.4959 68.7723 33.3812 68.7723 33.2451V33.0767ZM56.811 33.2558C56.9005 33.3848 56.8575 33.5747 56.7107 33.6786C56.5638 33.7824 56.3703 33.761 56.2772 33.6356C56.1876 33.5066 56.2306 33.3167 56.3775 33.2129C56.5244 33.109 56.7178 33.1305 56.811 33.2558ZM54.7511 34.4452C54.7511 34.3198 54.8514 34.2159 54.9804 34.2159C55.1094 34.2159 55.2097 34.3162 55.2097 34.4452C55.2097 34.5741 55.1094 34.6744 54.9804 34.6744C54.8514 34.6744 54.7511 34.5741 54.7511 34.4452ZM56.7607 34.8428C56.8718 34.85 56.9506 34.9826 56.9363 35.133C56.9255 35.2835 56.8252 35.3981 56.7142 35.3874C56.6031 35.3802 56.5243 35.2477 56.5386 35.0972C56.5494 34.9467 56.6497 34.8321 56.7607 34.8428Z" fill="#F2CEA4"/>
<path d="M70.345 33.3382C70.2267 33.2558 70.0655 33.3383 70.0655 33.4851C70.0726 33.8398 70.0512 34.9754 69.8076 35.3479C69.632 35.6166 69.4063 35.8495 69.1269 36.0501C68.5323 36.4764 68.0737 36.8203 67.7513 37.0782C67.6797 37.1355 67.5973 37.1821 67.5149 37.2215C66.8092 37.526 66.0103 37.7445 65.1183 37.8842C65.061 37.895 65.0001 37.8914 64.9428 37.8806C64.4269 37.7624 63.8896 37.8341 63.3666 37.4723C63.3271 37.4436 63.3021 37.397 63.3057 37.3469L63.3594 35.9784C63.3594 35.9068 63.4131 35.8459 63.4812 35.828C64.0114 35.7062 64.3015 35.5844 64.6992 35.1903C65.258 34.6351 65.756 34.1371 66.1894 33.6857C66.2611 33.6141 66.3184 33.5353 66.3685 33.4493C66.6945 32.9048 66.999 32.3925 67.282 31.9089C67.651 31.2749 67.7047 30.605 67.3107 29.9781C67.282 29.9279 67.239 29.8885 67.1925 29.8563C66.562 29.4371 65.6879 29.0502 64.889 29.0359C64.6992 29.0359 64.3696 28.9965 63.9039 28.9284C63.7749 28.9105 63.646 28.9105 63.5134 28.9284C62.3778 29.0896 61.1993 29.3762 59.9813 29.781C59.5012 29.9422 59.2039 30.1607 58.749 30.4366C58.294 30.7124 58.2223 31.7083 58.4624 32.0809C58.9209 32.8009 59.4833 33.3813 60.1496 33.8219C60.1926 33.8505 60.2428 33.8756 60.2929 33.8935L60.9163 34.112C60.9771 34.1335 61.0345 34.1694 61.081 34.2159C61.5718 34.7175 62.1916 35.1903 62.9403 35.6274C62.9761 35.6489 62.9976 35.6883 62.994 35.7277L62.9295 37.3684C62.9295 37.4328 62.8758 37.4902 62.8113 37.4973C62.4961 37.5367 62.2417 37.6442 62.0483 37.8162C61.948 37.9057 61.819 37.9523 61.69 37.9523C60.9951 37.9415 60.1962 37.9989 59.4547 37.8448C59.1681 37.7839 58.903 37.7553 58.663 37.7624C58.5519 37.7624 58.4445 37.7517 58.337 37.723C57.968 37.6263 57.599 37.5582 57.23 37.5188C56.0909 37.4006 55.181 37.0173 54.203 36.4979C54.1779 36.4835 54.1564 36.4692 54.1385 36.4477L53.0423 35.2906C53.0423 35.2906 53.0208 35.2655 53.0101 35.2512L52.788 34.8966C52.6841 34.7318 52.4297 34.8034 52.4297 35.0005C52.4333 36.4585 52.4083 37.5224 52.9349 38.9589C53.1928 39.6646 53.4185 40.2629 53.6083 40.7537C54.2281 42.3442 55.4353 44.1676 56.8718 45.0739C57.5417 45.4966 58.3191 45.819 59.2039 46.0447C59.8595 46.2131 61.081 46.12 61.6041 46.0913C62.3599 46.0519 63.0943 45.8047 63.8143 45.339C64.0579 45.1814 64.2442 45.0274 64.366 44.8805C64.8174 44.3396 65.1828 44.0852 65.5768 43.512C65.8813 43.0642 66.1393 42.5914 66.3506 42.0934C66.8127 41.0044 67.2032 40.2772 67.608 39.138C67.8158 38.5469 67.9197 38.0812 67.9125 37.7302C67.9125 37.6514 67.9448 37.5761 68.0021 37.5296C68.629 36.9922 69.3633 36.6734 69.6356 36.3653C70.327 35.5808 70.6064 34.6673 70.4703 33.632C70.4524 33.4923 70.4058 33.3956 70.327 33.3418L70.345 33.3382Z" fill="#331011"/>
<path d="M70.0333 31.3178C69.933 31.2999 69.8291 31.4002 69.804 31.5435C69.7789 31.6832 69.8398 31.8158 69.9402 31.8337C70.0405 31.8516 70.1443 31.7513 70.1694 31.608C70.1945 31.4683 70.1336 31.3357 70.0333 31.3178Z" fill="#331011"/>
<path d="M68.7723 33.2451C68.7723 33.3812 68.8834 33.4923 69.0195 33.4959H69.1126C69.2488 33.4959 69.3598 33.3848 69.3634 33.2487V33.0803C69.3634 32.9442 69.2523 32.8331 69.1162 32.8296H69.0231C68.887 32.8296 68.7759 32.9406 68.7723 33.0767V33.2451Z" fill="#331011"/>
<path d="M56.811 33.2558C56.7214 33.1269 56.5244 33.1054 56.3775 33.2129C56.2306 33.3167 56.1841 33.5066 56.2772 33.6356C56.3668 33.7645 56.5638 33.786 56.7107 33.6786C56.8575 33.5747 56.9041 33.3848 56.811 33.2558Z" fill="#331011"/>
<path d="M54.7511 34.4452C54.7511 34.5706 54.8514 34.6744 54.9804 34.6744C55.1094 34.6744 55.2097 34.5741 55.2097 34.4452C55.2097 34.3162 55.1094 34.2159 54.9804 34.2159C54.8514 34.2159 54.7511 34.3162 54.7511 34.4452Z" fill="#331011"/>
<path d="M56.7607 34.8428C56.6497 34.8321 56.5494 34.9467 56.5386 35.0972C56.5279 35.2477 56.6067 35.3766 56.7142 35.3874C56.8252 35.3981 56.9255 35.2835 56.9363 35.133C56.947 34.9826 56.8682 34.8536 56.7607 34.8428Z" fill="#6A4243"/>
<path d="M74.024 75.0113C74.1673 73.6716 74.2603 72.6327 74.2998 71.8983C74.3714 70.5979 74.2389 69.3191 73.9093 68.0545C73.8054 67.664 73.7158 67.1661 73.637 66.5643C73.5546 65.9481 73.3719 65.2746 73.0853 64.5438C73.0459 64.4364 73.0352 64.2967 73.0603 64.1211C73.071 64.0387 73.1391 63.9778 73.2251 63.9778C73.3075 63.9778 73.3791 64.0351 73.397 64.114C73.397 64.1319 73.4006 64.1892 73.4006 64.2859C73.4006 64.3576 73.4113 64.4292 73.4364 64.4937C73.6155 65.0131 73.9272 65.6723 74.0275 66.2741C74.0633 66.4819 74.0884 66.6717 74.1063 66.8365C74.572 66.9404 74.8801 67.2126 75.027 67.6532C75.1882 68.1261 75.4246 69.0109 75.7399 70.3041C75.8939 70.9454 75.9942 71.6583 76.0372 72.4392C76.1124 73.8077 76.1447 74.5277 76.1447 74.6029C76.1411 74.7426 76.1304 74.8823 76.116 75.0221C75.9799 76.258 75.5357 77.4115 75.2634 78.5972C74.9661 79.9083 74.6079 80.6427 74.0454 82.0936C73.7839 82.7599 73.6263 83.3151 73.5726 83.7593C73.4508 84.7624 73.4687 85.7905 73.6299 86.8473C73.6371 86.901 73.655 86.9548 73.6872 87.0013C74.1099 87.682 74.8945 88.7531 75.6539 88.925C75.7757 88.9537 76.1912 89.0468 76.9005 89.2044C77.9287 89.4373 78.6451 89.3047 79.5371 88.814C79.8345 88.6492 80.1891 88.3089 80.6011 87.7966C80.7802 87.5673 81.1313 87.1625 81.6435 86.575C81.8226 86.3708 82.0233 86.292 82.2454 86.3314C82.2955 85.8657 82.3636 85.5326 82.4424 85.3248C82.8616 84.225 83.2449 83.1253 83.5852 82.0255C83.9613 80.8147 83.8431 79.4391 83.7643 78.1351C83.7034 77.1643 83.6747 76.5159 83.6712 76.1899C83.6676 75.6096 83.5816 74.9683 83.4168 74.2698C83.2234 73.453 83.1267 72.4571 82.8293 71.5042C82.5356 70.5585 82.2705 69.6128 82.0305 68.667C81.9731 68.4449 81.8513 68.1261 81.6687 67.707C81.4967 67.3165 81.1994 66.7075 80.7802 65.8836C80.4722 65.2782 80.3396 64.6835 80.1283 64.182C80.0924 64.096 80.0494 64.01 79.9993 63.9312C79.4834 63.0965 79.1288 62.552 78.7491 61.7353C77.9359 59.9907 77.0403 58.3357 76.0623 56.763C75.851 56.4263 75.5644 55.7385 75.199 54.7068C75.1703 54.6244 75.1488 54.5384 75.1417 54.4488C75.0664 53.7789 74.9482 53.0947 74.7834 52.3962C74.7046 52.0451 74.6652 51.1782 74.6796 49.7882C74.1601 49.8957 73.6049 50.1142 73.0174 50.4438C72.9887 50.4617 72.96 50.4725 72.9278 50.4832L68.9586 51.7585C68.8726 51.7872 68.8332 51.8839 68.8726 51.9627L69.2094 52.6254C69.2309 52.6684 69.2452 52.715 69.2488 52.7652C69.2953 53.2631 69.4386 53.8219 69.6786 54.4381C70.2661 55.957 70.6459 56.9994 70.8178 57.5619C71.0937 58.4646 71.262 58.9661 71.3229 59.0629C71.3516 59.1059 71.3695 59.1524 71.3802 59.2026C71.6883 60.6355 71.7707 61.9896 72.1719 63.3115C72.4048 64.0709 72.6806 65.2173 73.003 66.7469C73.0962 67.1911 73.0245 67.5458 73.0998 67.9613C73.5081 70.2719 73.8198 72.6183 74.0312 75.0006L74.024 75.0113Z" fill="#D4A06A"/>
<path d="M37.3446 49.7846C38.0683 51.1495 38.4838 52.235 38.5877 53.0446C38.602 53.1628 38.6163 54.0798 38.6271 55.8029C38.6306 56.6484 38.5626 57.5117 38.4121 58.4001C38.2867 59.1452 38.1506 60.1662 37.9966 61.463C37.9428 61.9072 37.7279 62.5843 37.6921 63.1109C37.667 63.4655 37.5309 64.3396 37.2765 65.7367C37.1225 66.5893 37.0329 67.5565 37.0043 68.6312C37.0043 68.6957 36.9899 68.7566 36.9649 68.8175L36.7463 69.3298C37.058 70.3937 37.2121 71.4147 37.2156 72.3926C37.2156 72.9157 37.2371 73.3276 37.2729 73.625C37.4198 74.8286 37.3733 75.5021 37.3876 77.0317C37.3876 77.1428 37.4019 77.2503 37.4306 77.3577C37.6563 78.2461 37.839 79.0522 37.9858 79.7758C38.1184 80.4278 38.3333 81.0511 38.6378 81.6565C39.2719 82.9175 39.9454 83.9778 40.6511 84.8376C40.9341 85.1815 41.3246 85.5039 41.7437 85.9374C41.9156 86.1129 42.2094 86.3672 42.6285 86.6932C43.7354 87.5673 44.3767 88.0724 44.5558 88.2121C45.0251 88.5883 45.4048 88.8355 45.695 88.9608C45.7666 88.9895 46.1893 89.1579 46.9703 89.4588C47.2891 89.5806 47.7047 89.6307 48.2277 89.6057C49.2415 89.5555 49.9149 89.4695 50.2481 89.3549C50.309 89.3334 50.3663 89.3083 50.4236 89.2761C50.7819 89.0791 51.1759 88.8068 51.595 88.4629C52.093 88.0617 52.3724 87.5136 52.5766 86.9691C53.0172 85.7905 53.4364 84.5797 53.8304 83.3438C53.92 82.9246 53.877 82.4983 53.705 82.0721C53.4937 81.5562 53.1677 80.9436 52.7235 80.2343C52.2363 79.5644 51.7777 78.8874 51.3514 78.2032C51.1759 77.9237 51.0219 77.6336 50.8857 77.3255C50.549 76.5589 50.0152 75.9463 49.6427 75.3731C49.4349 75.0507 49.0731 74.7426 48.7973 74.3343C48.7686 74.2948 48.722 74.2662 48.6719 74.2662H48.6217C48.5572 74.2662 48.4999 74.2304 48.4641 74.1766C48.1703 73.736 47.7799 73.3634 47.2927 73.059C47.2175 73.0124 47.1494 72.9551 47.0885 72.887L46.3004 72.0057C46.2646 71.9663 46.2359 71.9198 46.218 71.8696C46.1571 71.7048 46.1249 71.5687 46.1284 71.4684C46.1284 71.3 46.3505 71.2427 46.4365 71.3896L46.6873 71.8231C46.7052 71.8553 46.7446 71.8696 46.7804 71.8553C46.8162 71.841 46.8341 71.8051 46.827 71.7693L46.6944 71.1639C46.6837 71.1209 46.6801 71.0743 46.6801 71.0314C46.6909 70.6946 46.6801 70.408 46.655 70.1788C46.5547 69.3513 46.6085 68.7136 46.5153 67.6783C46.3971 66.4066 46.4365 65.2961 46.4437 64.0888C46.4437 63.9885 46.5189 63.899 46.6192 63.8846L46.6622 63.8775C46.7553 63.8596 46.8377 63.9348 46.8341 64.0279L46.7374 66.5284C46.7374 66.5284 46.7374 66.5571 46.7374 66.5714L46.8771 68.8569L46.9739 68.1404C46.981 68.0939 46.9989 68.0545 47.0276 68.0186C47.0777 67.9542 47.1028 67.8933 47.1064 67.8359C47.1136 67.4777 47.1458 67.1589 47.2067 66.8759C47.2712 66.5571 47.3249 66.2418 47.3679 65.923C47.5649 64.422 47.7154 63.1682 47.8229 62.1651C47.8479 61.9251 47.9482 61.4594 48.1202 60.7752C48.4892 59.3244 48.8832 57.5977 49.3024 55.5916C49.3095 55.5522 49.3239 55.5092 49.3418 55.4698L50.0941 53.8398C50.1514 53.718 50.2732 53.6428 50.4093 53.6464L51.1974 53.6786C51.2368 53.6786 51.2691 53.65 51.2691 53.6106V53.5497C51.2691 53.5067 51.2296 53.4709 51.1831 53.478C50.7854 53.5318 50.3663 53.3634 49.9221 53.3311C48.808 53.2523 47.9017 53.1234 47.2103 52.9443C45.7989 52.5824 44.3731 52.1884 42.9294 51.7549C42.4601 51.6152 41.7867 51.3573 40.9126 50.9883C39.7806 50.5083 38.5877 50.1035 37.341 49.7775L37.3446 49.7846Z" fill="#D4A06A"/>
<path d="M52.7271 80.2379C52.2113 79.1596 51.6667 78.1208 51.1007 77.1213C50.5597 76.1684 50.1478 75.5236 49.8648 75.1869C49.46 74.6997 49.1125 74.1624 48.8259 73.5749C48.7972 73.5211 48.7435 73.4853 48.6826 73.4817H48.5429C48.5107 73.4745 48.482 73.4638 48.4605 73.4459L47.4646 72.6506C47.4288 72.622 47.4037 72.579 47.393 72.5324C47.1136 71.3144 46.9416 70.0893 46.8807 68.8605L46.741 66.575C46.741 66.575 46.741 66.5463 46.741 66.532L46.8377 64.0316C46.8377 63.9384 46.7589 63.8632 46.6658 63.8811L46.6228 63.8883C46.5225 63.9062 46.4472 63.9922 46.4472 64.0925C46.4401 65.3033 46.4043 66.4102 46.5189 67.6819C46.612 68.7137 46.5583 69.3549 46.6586 70.1824C46.6873 70.4117 46.6944 70.6982 46.6837 71.035C46.6837 71.078 46.6837 71.1245 46.698 71.1675L46.8306 71.7729C46.8377 71.8088 46.8198 71.8482 46.784 71.8589C46.7482 71.8733 46.7088 71.8589 46.6908 71.8267L46.4401 71.3932C46.3577 71.2499 46.1356 71.3072 46.132 71.472C46.132 71.5723 46.1607 71.7085 46.2216 71.8733C46.2395 71.9234 46.2681 71.97 46.304 72.0094L47.0921 72.8906C47.153 72.9551 47.221 73.0124 47.2963 73.0626C47.7835 73.3671 48.1739 73.7396 48.4677 74.1803C48.5035 74.234 48.5608 74.2662 48.6253 74.2698H48.6754C48.7256 74.2698 48.7722 74.2985 48.8008 74.3415C49.0767 74.7534 49.4385 75.0579 49.6463 75.3803C50.0224 75.9535 50.5562 76.5661 50.8893 77.3327C51.0254 77.6408 51.1795 77.9309 51.355 78.2104C51.7849 78.8946 52.2434 79.5716 52.727 80.2415L52.7271 80.2379Z" fill="#331011"/>
<path d="M74.024 75.0113C74.024 75.2442 74.0239 75.4878 74.0203 75.7386C74.0132 75.9929 73.9845 76.2329 73.938 76.4586C73.637 77.8378 73.5117 78.5937 73.1212 79.8439C72.6376 81.3879 72.2399 82.9283 71.9211 84.4651C71.8745 84.6908 71.8602 84.9343 71.8853 85.1923C71.9785 85.3642 72.0931 85.3642 72.222 85.1923C72.2543 85.1493 72.2793 85.1027 72.2901 85.0526C72.3689 84.7015 72.3689 84.397 72.4764 83.9958C73.2179 81.1908 73.4687 80.1735 73.9738 78.3787C74.1923 77.6049 74.3428 76.8956 74.4287 76.2544C74.5326 75.495 74.6329 74.2591 74.7296 72.5503C74.7619 71.9735 74.769 71.404 74.744 70.8344C74.7046 69.8743 74.6652 69.3047 74.6222 69.1256C74.4502 68.3697 74.2783 67.6067 74.1027 66.8365C74.0848 66.6681 74.0562 66.4818 74.0239 66.2741C73.9236 65.6722 73.6084 65.0131 73.4328 64.4937C73.4113 64.4292 73.397 64.3575 73.397 64.2859C73.397 64.1892 73.397 64.1319 73.3934 64.1139C73.3755 64.0351 73.3039 63.9742 73.2215 63.9778C73.1391 63.9778 73.0674 64.0387 73.0567 64.1211C73.0316 64.2966 73.0388 64.4399 73.0818 64.5438C73.3648 65.2746 73.5511 65.9481 73.6335 66.5642C73.7123 67.1661 73.8018 67.664 73.9057 68.0545C74.2389 69.319 74.3678 70.5979 74.2962 71.8983C74.2568 72.6327 74.1636 73.668 74.0203 75.0113L74.024 75.0113Z" fill="#331011"/>
<path d="M74.1063 66.8365C74.2818 67.6067 74.4538 68.3661 74.6258 69.1256C74.6652 69.3047 74.7046 69.8743 74.7476 70.8343C74.7691 71.4039 74.7655 71.9771 74.7332 72.5503C74.6365 74.259 74.5362 75.4913 74.4323 76.2544C74.3464 76.8956 74.1959 77.6049 73.9774 78.3787C73.4723 80.1734 73.2215 81.1908 72.48 83.9958C72.3725 84.397 72.3725 84.7015 72.2937 85.0525C72.2829 85.1027 72.2579 85.1528 72.2256 85.1923C72.0967 85.3606 71.982 85.3606 71.8889 85.1923C71.4877 86.2383 70.7569 87.3739 70.4345 88.1763C70.1622 88.8534 70.0189 89.4803 70.0046 90.0535C69.9867 90.7771 70.216 91.3216 70.6888 91.687C70.7067 91.4971 70.7569 91.3825 70.8357 91.3431C70.8536 91.3323 70.8751 91.3288 70.8966 91.3359C71.0757 91.3717 71.2548 91.4362 71.4447 91.5222C72.2006 91.884 72.7021 91.5007 73.114 90.9275C73.1821 90.8308 73.3254 90.8308 73.3935 90.9275C73.4293 90.9777 73.4293 91.0422 73.397 91.1246C73.1785 91.7336 73.0711 92.3891 73.0782 93.0877C73.0782 93.5928 73.2538 93.9689 73.4759 94.4669C73.6442 94.843 73.68 95.169 73.5797 95.4448C74.1493 95.7708 74.6616 95.735 75.1166 95.3374C75.1022 94.9863 75.2276 94.6639 75.4855 94.363C75.5608 94.2806 75.6145 94.1803 75.6467 94.0764C75.8653 93.3993 76.0551 92.5002 76.4492 92.4214C76.5853 92.3963 76.6928 92.5324 76.6355 92.6578C76.2916 93.3993 76.1124 94.0836 76.0981 94.7069C76.0945 94.9254 76.2056 95.1189 76.3811 95.1869C76.6032 95.2729 76.8611 95.2908 77.1477 95.2442C78.0361 95.0974 78.2475 93.4173 78.3299 92.7689C78.3514 92.6148 78.4445 92.4858 78.5842 92.4178L78.6057 92.407C78.7096 92.3569 78.8278 92.4393 78.8243 92.5539C78.8171 92.6936 78.7813 93.0089 78.7132 93.5032C78.6595 93.9009 78.7239 94.3558 78.9102 94.8753C78.9174 94.8967 78.9102 94.9182 78.8959 94.9326L78.835 94.9756C78.7992 95.0042 78.749 94.9899 78.7311 94.9469C78.6666 94.7821 78.5699 94.689 78.4374 94.6711C78.3765 94.6639 78.3227 94.6926 78.2977 94.7463L78.1329 95.1081C78.3765 95.2084 78.5377 95.0472 78.792 95.1368C79.2649 95.298 79.9491 94.5887 80.1748 94.2806C80.5187 93.8149 80.5653 92.8298 80.6154 92.1885C80.6835 91.3001 80.945 90.469 81.2889 89.5878C81.382 89.3513 81.5253 89.0432 81.7152 88.6671C81.8621 88.3841 82.0018 88.076 82.1415 87.7464L82.2454 86.335C82.0233 86.2956 81.8226 86.3744 81.6435 86.5786C81.1277 87.1661 80.7802 87.5709 80.6011 87.8002C80.1891 88.316 79.8345 88.6528 79.5371 88.8176C78.6451 89.3083 77.9287 89.4373 76.9005 89.208C76.1912 89.0504 75.7757 88.9537 75.6539 88.9286C74.8945 88.7567 74.1135 87.6855 73.6872 87.0049C73.6586 86.9583 73.6406 86.9046 73.6299 86.8509C73.4687 85.7941 73.4508 84.766 73.5726 83.7629C73.6263 83.3187 73.7839 82.7634 74.0454 82.0971C74.6115 80.6463 74.9697 79.9119 75.2634 78.6008C75.5321 77.415 75.9799 76.2615 76.116 75.0256C76.1304 74.8859 76.1411 74.7462 76.1447 74.6065C76.1447 74.5349 76.1124 73.8112 76.0372 72.4428C75.9942 71.6618 75.8975 70.949 75.7399 70.3077C75.4282 69.0145 75.1918 68.1297 75.027 67.6568C74.8765 67.2162 74.572 66.9439 74.1063 66.84L74.1063 66.8365Z" fill="#D78A44"/>
<path d="M36.75 69.3298C36.5279 69.6092 36.4061 69.8457 36.3846 70.0427C36.2807 71.0278 36.1625 71.755 36.0371 72.2315C35.3815 74.6889 34.8657 76.8133 34.4895 78.6008C34.3319 79.3495 34.1636 80.0266 33.9844 80.6392C33.7229 81.5455 33.4865 82.3229 33.354 83.1002C33.3145 83.3259 33.2859 83.4656 33.268 83.5265C33.0709 84.1427 32.9169 84.8126 32.813 85.5434C32.6769 86.4712 32.4691 87.2951 32.2542 88.4092C32.0643 89.38 31.6165 90.5837 31.3944 91.7049C31.244 92.4608 31.158 92.8979 31.1365 93.0161C31.0398 93.5606 30.9717 94.2269 30.9323 95.0114C30.875 96.1828 30.6887 97.1823 30.5347 98.5042C30.377 99.8583 30.5454 101.026 30.6314 102.599C30.6457 102.864 30.6887 103.176 30.7639 103.537C30.8428 103.931 30.8177 104.358 30.8822 104.795C31.0111 105.647 31.0828 106.353 31.1043 106.908C31.1329 107.653 31.2046 108.27 31.3228 108.753C31.4697 109.348 31.6488 109.943 31.8673 110.537C31.9282 110.702 31.8709 110.824 31.6989 110.899C32.0607 110.924 32.2864 111.017 32.3724 111.175C32.7056 111.784 32.9277 112.601 33.225 113.188C34.1779 115.047 35.3171 116.742 36.6533 118.268C36.8109 118.451 36.9793 118.612 37.1512 118.751C38.2653 119.651 39.3866 120.439 40.5186 121.112C40.5687 121.141 40.5974 121.191 40.6046 121.248C40.6081 121.306 40.5974 121.37 40.5723 121.442C41.1921 121.27 41.8261 121.943 42.3026 122.255C42.5283 122.273 42.7289 122.405 42.908 122.649C42.951 122.706 42.8937 122.785 42.8256 122.76L42.5283 122.66L40.5437 123.036C40.4792 123.047 40.4183 123.068 40.361 123.097C39.6517 123.441 38.9746 123.928 38.3369 124.562C38.294 124.609 38.2546 124.659 38.2223 124.716L37.3661 126.264C37.2945 126.392 37.2372 126.525 37.1978 126.668C37.1118 127.027 36.8754 127.757 36.9363 128.23C37.0187 128.907 37.3697 129.359 37.9787 129.581C38.1543 129.645 38.5089 129.685 39.0391 129.699C39.4331 129.713 39.7914 129.749 40.1066 129.814C39.7448 129.416 39.4905 128.871 39.3507 128.187C39.3364 128.116 39.3293 128.044 39.3328 127.969C39.3651 126.941 39.6911 126.034 40.3108 125.246C40.4183 125.038 40.3717 125.01 40.1747 125.157C40.0994 125.21 40.0063 125.307 39.8845 125.44C39.2898 126.109 38.9889 126.453 38.9782 126.464C38.602 126.912 38.4193 127.331 38.4373 127.725C38.4552 128.137 38.6665 128.707 39.0713 129.43C39.1072 129.491 39.0498 129.566 38.9818 129.549L38.7668 129.491C38.7167 129.477 38.6737 129.448 38.6486 129.405C38.1399 128.642 37.8247 127.324 38.4444 126.547C38.817 126.081 39.2576 125.601 39.7627 125.11C40.0386 124.841 40.343 124.712 40.6762 124.73C40.8052 124.702 40.884 124.694 40.9091 124.709C41.0703 124.795 41.0989 125.013 40.9664 125.135C40.06 125.977 39.6552 126.973 39.7448 128.126C39.7663 128.417 39.9239 128.821 40.2105 129.341C40.2499 129.409 40.386 129.509 40.6225 129.634C40.6583 129.656 40.6583 129.703 40.6225 129.724C40.5114 129.785 40.386 129.81 40.2427 129.803C41.0094 129.803 41.776 129.803 42.5318 129.867C43.4203 129.946 44.3373 129.989 45.2831 130C45.738 130.003 46.2789 129.939 46.9058 129.803C47.0348 129.774 47.1638 129.756 47.2927 129.746C48.6504 129.642 49.7753 129.566 50.9789 129.072C51.9103 128.689 52.6447 128.377 53.1785 128.141C53.4866 128.005 53.6227 127.765 53.6119 127.41C53.5833 126.36 53.5725 125.465 53.5797 124.723C53.5797 124.666 53.5403 124.34 53.4579 123.738C53.354 122.982 53.5224 122.194 53.9666 121.381C52.7164 121.281 51.484 121.234 50.2625 121.248C49.0122 121.263 47.7513 121.076 46.6479 121.015C45.9744 120.976 45.3046 120.811 44.649 120.517C43.1158 119.84 42.1199 119.396 41.6613 119.188C40.798 118.798 40.1138 118.382 39.6015 117.942C39.1286 117.533 38.5268 117.283 38.0575 116.788C37.6241 116.333 37.2229 115.946 36.8539 115.624C36.2807 115.126 36.0765 114.342 35.729 113.672C35.5427 113.31 35.3636 112.862 35.1917 112.335C34.3964 109.864 33.8555 107.213 33.5725 104.383C33.3647 102.323 33.4793 99.9156 33.6584 98.171C33.834 96.4551 33.8447 95.2765 34.0991 93.7648C34.2531 92.8513 34.3176 91.6405 34.5504 90.8022C34.7296 90.1466 34.88 89.6702 34.9982 89.38C35.6251 87.8325 36.0908 86.2849 36.3953 84.7373C36.4598 84.4114 36.5888 84.2143 36.7751 84.1498L36.4168 83.5444C36.4168 83.5444 36.3989 83.5122 36.3953 83.4943L35.3815 80.0517C35.3565 79.9693 35.4066 79.8797 35.4926 79.8618H35.4998C35.6001 79.8367 35.7004 79.8905 35.7362 79.9908C35.9046 80.4923 36.0299 80.9652 36.1123 81.4022C36.3022 82.4053 36.7357 83.3008 37.3232 83.9707C37.5882 84.2752 37.9035 84.7552 38.0575 85.0383C38.362 85.5935 38.9674 86.0771 39.58 86.6646C40.2571 87.3166 41.0058 87.8289 41.8082 88.4916C41.9264 88.5883 42.2417 88.746 42.7611 88.9609C42.8543 89.0003 42.9402 89.0469 43.0226 89.1042L43.843 89.6666C43.8609 89.6774 43.8824 89.6881 43.9039 89.6988C44.3194 89.8887 44.7099 90.1144 45.0753 90.3795C45.1935 90.4619 45.2078 90.5908 45.1971 90.7234L45.4156 90.881C45.6628 91.078 45.8383 91.2572 45.9386 91.4255C46.3685 92.1348 46.7017 92.6758 46.9381 93.0519C47.0921 93.2919 47.5363 93.7863 48.2743 94.5314C48.3065 94.5636 48.3424 94.5923 48.3818 94.6138C48.5501 94.7141 48.8546 94.929 49.2952 95.2622C49.6284 95.5165 49.9401 95.6276 50.2302 95.5989C51.1043 95.4556 51.4769 95.101 51.3479 94.5386C51.2548 94.1338 51.0219 93.6609 50.6494 93.1235C50.5132 92.9265 50.5025 92.794 50.6243 92.7223C50.7067 92.6722 50.8142 92.6865 50.8786 92.7617L51.2404 93.1737C51.2655 93.2023 51.2942 93.2274 51.3264 93.2453C52.2757 93.7898 52.7701 94.1302 53.4543 94.1302C53.6155 94.1302 53.766 94.037 53.8376 93.8902C54.418 92.7187 53.44 92.5862 53.1498 91.6942C53.1247 91.6226 53.1283 91.5724 53.157 91.5437C53.2537 91.4434 53.4149 91.4506 53.4973 91.5581C53.6406 91.7443 53.8269 92.013 54.0526 92.3605C54.135 92.4895 54.2532 92.5898 54.3893 92.6578C54.7762 92.837 55.1237 93.0232 55.4282 93.2167C55.8581 93.4854 56.1661 93.6143 56.5781 93.2776C56.6283 93.2346 56.7178 93.0698 56.8396 92.7868C56.9256 92.5862 57.033 92.4286 57.1584 92.3139C56.9614 91.4005 56.6462 90.4368 56.2163 89.4158C56.0372 89.2618 55.8366 89.0684 55.6037 88.8248C55.4998 88.7173 55.4461 88.6062 55.4353 88.4988C55.4246 88.3555 55.6145 88.291 55.6933 88.4092C56.03 88.9107 56.5279 89.1293 57.1835 89.0648C57.6635 89.0182 57.9895 88.8068 58.1579 88.4343C58.2188 88.3017 58.2833 88.2408 58.3549 88.2516C58.4266 88.2623 58.4982 88.3232 58.5699 88.4307C58.5448 88.1728 58.5233 87.9328 58.5018 87.7142C58.423 86.8473 57.8749 86.0628 57.1978 85.5577C56.5244 85.0562 55.9404 84.5296 55.5106 84.1498C55.224 83.8955 54.6687 83.634 53.8448 83.3546C53.4507 84.5905 53.0316 85.8013 52.591 86.9799C52.3868 87.5244 52.1038 88.0725 51.6094 88.4737C51.1867 88.8176 50.7962 89.0899 50.438 89.2869C50.3807 89.3191 50.3234 89.3442 50.2625 89.3657C49.9293 89.4839 49.2558 89.5663 48.2421 89.6165C47.7226 89.6415 47.3035 89.595 46.9847 89.4696C46.2037 89.1651 45.781 89.0003 45.7094 88.9716C45.4192 88.8498 45.0395 88.5991 44.5702 88.2229C44.3946 88.0832 43.7534 87.5745 42.6429 86.704C42.2238 86.3745 41.93 86.1237 41.7581 85.9482C41.3353 85.5147 40.9449 85.1923 40.6655 84.8484C39.9597 83.9886 39.2863 82.9283 38.6522 81.6673C38.3477 81.0655 38.1328 80.4386 38.0002 79.7866C37.8533 79.063 37.6706 78.2569 37.445 77.3685C37.4163 77.261 37.4055 77.15 37.402 77.0425C37.3876 75.5129 37.4342 74.8394 37.2873 73.6357C37.2515 73.3348 37.2336 72.9229 37.23 72.4034C37.23 71.4255 37.0724 70.4045 36.7607 69.3406M50.524 124.394C49.9472 124.057 49.4815 123.802 49.1304 123.627C47.3715 122.749 45.5589 122.556 43.6889 123.039C43.6495 123.05 43.6101 123.054 43.5707 123.054L43.2196 123.039C43.0799 123.036 43.0369 122.853 43.1516 122.781C43.2053 122.749 43.2698 122.724 43.345 122.71C43.8501 122.61 44.5773 122.545 45.5302 122.516C47.436 122.463 49.0695 123.004 50.5777 124.136C50.6207 124.168 50.6458 124.222 50.6458 124.275V124.329C50.6458 124.39 50.5741 124.429 50.524 124.397M43.3486 125.547C43.4059 125.5 43.4883 125.536 43.4919 125.612C43.4919 125.672 43.4704 125.773 43.431 125.826C42.9474 126.493 42.6357 127.166 42.5032 127.847C42.4638 128.044 42.4924 128.248 42.582 128.427L43.0477 129.348C43.0871 129.427 43.0548 129.516 42.9796 129.556L42.9295 129.581C42.8041 129.645 42.6465 129.591 42.5856 129.463C42.3276 128.929 41.9336 128.524 42.0375 127.822C42.17 126.948 42.607 126.188 43.3486 125.547ZM45.8992 129.67C45.7774 129.667 45.6592 129.606 45.5875 129.505C45.3511 129.18 45.1791 128.789 45.0753 128.338C44.8675 127.446 45.8455 126.192 46.5154 125.762C46.5798 125.723 46.6622 125.733 46.7124 125.794C46.7589 125.852 46.7554 125.938 46.7052 125.991C46.1356 126.582 45.7272 127.238 45.4872 127.951C45.4657 128.012 45.4622 128.076 45.4765 128.141C45.609 128.696 45.8419 129.151 46.175 129.491C46.2431 129.563 46.1929 129.681 46.0926 129.677L45.9028 129.67H45.8992Z" fill="#D78A44"/>
<path d="M36.7643 84.1462C37.4485 85.2532 38.0718 86.0592 38.6235 86.5607C39.2433 87.1231 39.7663 87.596 40.1962 87.9829C40.712 88.445 41.2708 88.8427 41.8763 89.1794C42.8005 89.6952 43.6853 90.1824 44.5308 90.641C44.7815 90.7771 45 90.8022 45.1863 90.7198C45.1935 90.5872 45.1792 90.4619 45.0645 90.3759C44.6955 90.1108 44.3051 89.8815 43.8931 89.6952C43.8716 89.6845 43.8537 89.6738 43.8322 89.663L43.0119 89.1006C42.9295 89.0433 42.8435 88.9967 42.7503 88.9573C42.2309 88.7388 41.9121 88.5847 41.7975 88.488C40.995 87.8217 40.2463 87.313 39.5693 86.661C38.9567 86.0735 38.3548 85.5935 38.0468 85.0347C37.8927 84.7552 37.5811 84.2752 37.3124 83.9671C36.7213 83.2936 36.2879 82.3981 36.1016 81.3986C36.0192 80.9616 35.8938 80.4887 35.7254 79.9872C35.6932 79.8869 35.5893 79.8331 35.489 79.8582H35.4818C35.3959 79.8797 35.3457 79.9657 35.3708 80.0517L36.3846 83.4943C36.3882 83.5122 36.3989 83.5301 36.4061 83.5444L36.7643 84.1498L36.7643 84.1462Z" fill="#331011"/>
<path d="M36.7643 84.1462C36.5744 84.2107 36.4454 84.4077 36.3845 84.7337C36.08 86.2813 35.6143 87.8253 34.9874 89.3764C34.8692 89.6666 34.7187 90.143 34.5396 90.7986C34.3104 91.6333 34.2423 92.8441 34.0883 93.7612C33.8339 95.2693 33.8232 96.4515 33.6476 98.1674C33.4685 99.912 33.3539 102.319 33.5617 104.379C33.8447 107.209 34.3856 109.86 35.1809 112.332C35.3492 112.862 35.5283 113.306 35.7182 113.668C36.0657 114.342 36.2699 115.126 36.8431 115.62C37.212 115.939 37.6133 116.33 38.0467 116.785C38.516 117.279 39.1178 117.533 39.5907 117.938C40.103 118.379 40.7872 118.794 41.6505 119.185C42.1091 119.393 43.1049 119.837 44.6382 120.514C45.2937 120.804 45.9636 120.969 46.6371 121.012C47.744 121.073 49.005 121.259 50.2517 121.245C51.4696 121.23 52.7055 121.277 53.9558 121.377L54.4609 120.775C54.5683 120.646 54.7403 120.589 54.9015 120.632L55.3457 120.747C55.3672 120.75 55.3851 120.754 55.4066 120.754C56.2377 120.761 57.7745 120.768 60.0206 120.775C60.4147 120.775 60.9126 120.679 61.5109 120.482C61.5503 120.471 61.5861 120.464 61.6255 120.464L63.0083 120.474L62.6895 120.063L62.0339 120.252C61.9515 120.274 61.8655 120.234 61.8297 120.159C61.7939 120.084 61.8225 119.991 61.8906 119.944C62.9868 119.231 63.9898 118.515 64.8997 117.784C65.2902 117.472 65.9458 117.111 66.15 116.842C66.4939 116.387 66.9166 115.975 67.4181 115.61C67.8552 115.291 68.0808 115.022 68.4176 114.635C68.7471 114.259 69.1197 113.998 69.6105 113.679C69.6427 113.657 69.6678 113.636 69.6929 113.611L71.4196 111.73C71.441 111.705 71.459 111.68 71.4769 111.651L71.9497 110.802C71.9676 110.77 71.9891 110.741 72.0142 110.72C72.2112 110.526 72.4011 110.276 72.5802 109.964C71.5987 110.412 70.7318 111.014 69.9795 111.773C69.872 111.88 69.7466 111.97 69.6069 112.031L68.242 112.647C68.242 112.647 68.2205 112.654 68.2098 112.658C66.5691 112.977 64.9929 113.174 63.2662 113.496C63.0656 113.536 62.7468 113.564 62.4996 113.539C61.3855 113.421 60.712 113.321 60.4863 113.245C59.9991 113.084 59.6373 112.966 59.3937 112.901C58.4587 112.644 57.925 112.343 57.0724 112.042C56.2019 111.737 55.5571 111.25 54.5791 110.695C54.3247 110.551 53.9235 110.218 53.6262 109.942C53.3074 109.649 52.2757 108.646 50.5311 106.933C50.266 106.675 50.0475 106.443 49.8719 106.238C49.8325 106.195 49.8003 106.149 49.7716 106.099C49.3561 105.404 49.0552 104.942 48.8617 104.709C48.0163 103.677 47.5506 102.563 46.8986 101.18C46.8628 101.112 46.8377 101.037 46.8234 100.962C46.7231 100.478 46.6228 100.098 46.5225 99.826C46.2502 99.0737 46.2896 98.5292 46.046 97.7948C45.9851 97.605 45.9171 97.3148 45.849 96.9243C45.4908 94.8681 45.2113 93.3384 45.0107 92.3354C44.9821 92.1885 44.9892 92.0345 45.0394 91.8912C45.1146 91.6655 45.1469 91.4183 45.1325 91.1496C45.1218 90.9562 45.2293 90.8881 45.4048 90.8738L45.1863 90.7162C45 90.7986 44.7815 90.7771 44.5307 90.6374C43.6853 90.1788 42.804 89.6916 41.8762 89.1758C41.2708 88.8391 40.712 88.4414 40.1961 87.9793C39.7662 87.596 39.2432 87.1231 38.6235 86.5571C38.0682 86.0556 37.4485 85.2496 36.7642 84.1426M52.0607 110.802C52.3007 111.479 52.5873 112.081 52.7664 112.69C53.1032 113.833 53.6692 114.943 53.8662 116.075C53.9701 116.677 54.1206 117.354 54.3176 118.103C54.3892 118.382 54.486 119.077 54.6078 120.188C54.6221 120.317 54.5397 120.439 54.4143 120.474L54.3892 120.482C54.2782 120.51 54.1707 120.431 54.1636 120.317C54.1027 119.131 54.0023 118.257 53.8555 117.695C53.4757 116.24 53.2716 115.251 52.8739 114.162C52.5766 113.353 52.3043 112.045 51.8243 111.017C51.7849 110.935 51.8028 110.834 51.8745 110.774L51.896 110.756C51.9533 110.705 52.0392 110.731 52.0643 110.799L52.0607 110.802Z" fill="#D4A06A"/>
<path d="M78.1221 95.1117C78.0827 95.1475 78.0576 95.1941 78.0433 95.255C78.4123 95.1762 78.441 95.5989 78.3836 95.8497C78.0648 97.2718 77.9072 98.4683 77.4916 99.7759C76.9471 101.477 76.3346 103.054 75.6611 104.508C75.2849 105.321 75.0879 105.74 75.0772 105.766C74.7834 106.443 74.5004 106.923 74.1314 107.539C74.0741 107.635 74.0454 107.793 74.0347 108.015C74.1386 107.997 74.1851 108.076 74.1744 108.252C74.2998 108.975 74.2639 109.634 74.0669 110.229C73.8985 110.738 73.7301 111.257 73.5689 111.787C73.4221 112.267 73.2071 112.694 73.0244 113.088C72.7522 113.672 72.0285 115.051 70.8464 117.232C70.6279 117.637 70.2553 118.751 70.8643 118.97C71.1222 119.063 71.4446 119.185 71.8387 119.335C71.9068 119.36 71.982 119.371 72.0572 119.364C73.1104 119.246 73.8985 119.113 74.4251 118.963C76.0121 118.504 77.5525 117.97 79.0356 117.372C79.9813 116.989 80.6906 116.52 81.6435 115.972C81.9408 115.8 82.3456 115.474 82.8543 114.997C83.0585 114.804 83.2949 114.754 83.5636 114.84C83.7141 114.478 83.9003 114.13 84.1224 113.797C84.4019 113.378 84.5702 113.109 84.6204 112.995C84.7995 112.597 85.0753 112.249 85.1936 111.873C85.4372 111.1 85.6306 110.544 85.4909 109.788C85.473 109.702 85.473 109.613 85.4837 109.523C85.8563 106.776 85.5697 103.913 84.2371 101.409C84.1798 101.298 84.0615 100.937 83.8896 100.324C83.7857 99.9478 83.6639 99.5896 83.5242 99.2493C83.0406 98.0492 82.6788 97.0032 82.4388 96.1076C82.3528 95.7816 82.3026 95.3159 82.2955 94.7176C82.2955 94.6854 82.2919 93.7038 82.2847 91.7658C82.2847 91.4864 82.2596 91.1783 82.2095 90.838C82.0662 89.8314 82.1916 88.814 82.1271 87.7608C81.9874 88.0904 81.8477 88.3984 81.7008 88.6814C81.5074 89.0576 81.3676 89.3621 81.2745 89.6021C80.9342 90.4833 80.6727 91.3144 80.601 92.2029C80.5509 92.8441 80.5043 93.8292 80.1604 94.2949C79.9347 94.603 79.2469 95.3159 78.7776 95.1511C78.5233 95.0615 78.3621 95.2227 78.1185 95.1224L78.1221 95.1117Z" fill="#D4A06A"/>
<path d="M56.2019 89.4051C57.3984 89.7347 58.1865 89.4051 58.5591 88.4235C58.4875 88.316 58.4158 88.2552 58.3442 88.2444C58.2725 88.2337 58.2045 88.2946 58.1471 88.4271C57.9788 88.7997 57.6528 89.0075 57.1727 89.0576C56.5172 89.1221 56.0228 88.9036 55.6825 88.4021C55.6037 88.2838 55.4138 88.3447 55.4246 88.4916C55.4317 88.5991 55.4891 88.7101 55.5929 88.8176C55.8258 89.0576 56.03 89.2546 56.2055 89.4087L56.2019 89.4051Z" fill="black"/>
<path d="M70.6852 91.687C71.3515 92.1276 71.9641 92.2387 72.5229 92.0166C72.6018 91.9844 72.6877 92.0524 72.677 92.1384L72.5624 92.9695C72.5444 93.0913 72.548 93.2167 72.5731 93.3385C72.6376 93.6609 72.6806 93.8543 72.7056 93.9152C72.9206 94.4741 73.2072 94.9863 73.5726 95.4485C73.6729 95.1726 73.6371 94.8466 73.4687 94.4705C73.2466 93.9725 73.0747 93.5964 73.0711 93.0913C73.0639 92.3927 73.1714 91.7372 73.3899 91.1282C73.4222 91.0458 73.4186 90.9777 73.3863 90.9311C73.3183 90.8344 73.175 90.8344 73.1069 90.9311C72.695 91.5043 72.197 91.8876 71.4376 91.5258C71.2513 91.4362 71.0686 91.3753 70.8895 91.3395C70.8716 91.3359 70.8501 91.3395 70.8286 91.3467C70.7498 91.3861 70.6996 91.5007 70.6817 91.6906L70.6852 91.687Z" fill="#331011"/>
<path d="M50.2124 95.5917C50.5168 96.018 50.7604 95.9535 51.201 95.7279C51.8816 95.3804 51.8566 94.689 51.6595 94.0298C51.6452 93.9797 51.6989 93.9403 51.7419 93.9689C52.2613 94.3307 52.856 94.492 53.5295 94.4525C54.1349 94.4167 54.3248 93.7253 54.3212 93.2202C54.3212 93.1593 54.3857 93.1235 54.4394 93.1557C54.8191 93.3958 55.2024 93.6107 55.5893 93.7934C56.0765 94.0298 56.3774 93.8937 56.7858 93.5677C57.1727 93.2596 57.2909 92.8369 57.144 92.2996C57.0187 92.4142 56.9112 92.5718 56.8252 92.7724C56.7034 93.0554 56.6139 93.2202 56.5637 93.2632C56.1553 93.6 55.8472 93.471 55.4138 93.2023C55.1057 93.0089 54.7582 92.8262 54.3749 92.6435C54.2352 92.579 54.1206 92.4751 54.0382 92.3461C53.8125 91.9987 53.6262 91.73 53.4829 91.5437C53.4005 91.4362 53.2393 91.4291 53.1426 91.5294C53.1139 91.558 53.1104 91.6082 53.1354 91.6798C53.4256 92.5718 54.4036 92.7044 53.8232 93.8758C53.7516 94.0227 53.6011 94.1122 53.4399 94.1158C52.7557 94.1158 52.2614 93.7755 51.312 93.231C51.2798 93.2131 51.2511 93.188 51.2261 93.1593L50.8642 92.7474C50.7998 92.6757 50.6923 92.6578 50.6099 92.7079C50.4917 92.7832 50.4989 92.9157 50.635 93.1092C51.0075 93.6465 51.2404 94.1194 51.3335 94.5242C51.4625 95.0866 51.0899 95.4413 50.2159 95.5845L50.2124 95.5917Z" fill="black"/>
<path d="M75.1094 95.3445L75.5106 95.0651C75.55 95.0365 75.6001 95.0472 75.6252 95.0902C75.9619 95.6741 76.4993 95.8819 77.2301 95.7171C77.5812 95.6383 77.8534 95.4843 78.0469 95.2586C78.0612 95.1977 78.0863 95.1475 78.1257 95.1153L78.2905 94.7535C78.3155 94.6998 78.3693 94.6711 78.4302 94.6783C78.5627 94.6998 78.6594 94.7893 78.7239 94.9541C78.7418 94.9971 78.792 95.0114 78.8278 94.9828L78.8887 94.9398C78.8887 94.9398 78.9102 94.9039 78.903 94.8825C78.7168 94.363 78.6523 93.9045 78.706 93.5104C78.7741 93.0161 78.8099 92.7008 78.8171 92.5611C78.8242 92.4465 78.7024 92.3641 78.5985 92.4142L78.577 92.425C78.4373 92.4931 78.3442 92.622 78.3227 92.7761C78.2439 93.4245 78.029 95.1046 77.1405 95.2514C76.854 95.298 76.596 95.2801 76.3739 95.1941C76.1984 95.1261 76.0838 94.9362 76.0909 94.7141C76.1053 94.0872 76.2844 93.403 76.6283 92.665C76.6892 92.5396 76.5781 92.4035 76.442 92.4286C76.0479 92.5074 75.8581 93.4066 75.6395 94.0836C75.6073 94.1875 75.55 94.2878 75.4783 94.3702C75.2204 94.6711 75.0951 94.9971 75.1094 95.3445Z" fill="#331011"/>
<path d="M7.75117 116.727C8.00193 116.731 8.1918 116.659 8.32793 116.505C8.34942 116.48 8.45331 116.294 8.63242 115.95C8.96916 115.312 9.31306 114.678 9.66771 114.051C9.71428 113.969 10.0044 113.382 10.5346 112.292C10.8176 111.712 11.1293 111.139 11.4696 110.573C11.072 110.397 10.6564 110.233 10.2301 110.071C9.79668 109.91 9.07663 109.287 8.52137 108.968C8.17747 108.771 7.90879 108.57 7.59354 108.438C7.07769 108.219 6.65498 107.972 6.32183 107.7C5.48715 107.016 5.02861 106.819 3.936 106.181C2.96162 105.611 1.64333 105.561 0.647446 106.084C-0.427246 106.65 -0.738914 107.911 -0.137085 108.965C0.217567 109.584 0.586548 110.114 0.973434 110.548C1.02 110.602 1.05941 110.655 1.09523 110.716C1.33524 111.114 1.57885 111.451 1.83319 111.727C2.58906 112.533 3.0476 113.17 3.87153 113.851C5.14684 114.908 5.90986 115.513 6.15346 115.663C6.70872 116.004 7.24606 116.358 7.75117 116.727Z" fill="black"/>
<path d="M74.0347 108.015C73.9057 108.083 73.8198 108.159 73.7732 108.244C73.3899 108.939 72.9922 109.513 72.5767 109.964C72.3976 110.279 72.2077 110.53 72.0107 110.72C71.9856 110.745 71.9641 110.774 71.9462 110.802L71.4733 111.651C71.459 111.68 71.4375 111.705 71.416 111.73L69.6893 113.611C69.6643 113.636 69.6392 113.661 69.6069 113.679C69.1162 113.998 68.7436 114.259 68.414 114.635C68.0773 115.022 67.8516 115.291 67.4146 115.61C66.913 115.975 66.4903 116.387 66.1464 116.842C65.9422 117.111 65.2867 117.472 64.8962 117.784C63.9827 118.511 62.9832 119.231 61.8871 119.944C61.8154 119.991 61.7868 120.084 61.8262 120.159C61.8656 120.234 61.948 120.277 62.0303 120.252L62.6859 120.062C63.0441 119.722 63.6496 119.285 64.4914 118.755C65.0717 118.39 65.7631 117.824 66.5656 117.061C67.8229 115.86 69.1484 114.635 69.9867 113.869C70.5742 113.331 71.2082 112.593 71.57 112.214C71.6381 112.142 71.6954 112.06 71.7456 111.97C72.0895 111.336 72.4835 110.784 72.9349 110.319C73.046 110.204 73.1391 110.079 73.2179 109.942L74.1816 108.252C74.1923 108.076 74.1422 107.994 74.0418 108.015L74.0347 108.015Z" fill="#6A4243"/>
<path d="M62.6823 120.066L63.0011 120.478C63.8322 120.969 64.5272 121.571 64.5737 122.588C64.6418 124.01 64.6418 125.164 64.5702 126.041C64.4985 126.908 64.8281 127.467 65.5589 127.714C66.7733 128.126 68.1561 127.825 69.3382 128.04C69.8863 128.141 70.4631 128.205 71.0685 128.241C72.0357 128.295 73.071 128.388 74.1815 128.517C75.1917 128.635 75.8401 128.631 76.9829 128.7C77.3483 128.721 77.925 128.735 78.7096 128.732C79.186 128.732 79.7556 128.674 80.4183 128.563C81.4321 128.395 82.4495 128.234 83.474 128.083L83.2376 127.886C83.1982 127.854 83.1803 127.808 83.191 127.757C83.3021 127.123 83.2878 126.496 83.148 125.866C82.9618 125.038 82.5534 124.512 81.9229 124.29C82.3026 124.884 82.5176 125.493 82.5677 126.117C82.6071 126.622 82.6107 127.184 82.5785 127.797C82.5749 127.886 82.514 127.962 82.4244 127.99L82.2489 128.04C82.1808 128.062 82.1199 128.001 82.1343 127.933C82.3277 127.102 82.2883 126.278 82.0196 125.458C81.7868 124.741 81.3461 124.383 80.6619 123.666C80.5222 123.519 80.447 123.355 80.4398 123.172C80.4327 123.022 80.601 122.932 80.7228 123.018L81.1849 123.351L81.8083 123.609C81.8477 123.627 81.8871 123.648 81.9193 123.674C82.7146 124.293 83.492 125.253 83.5779 126.314C83.6138 126.747 83.6245 127.166 83.6102 127.575C83.603 127.736 83.7678 127.851 83.9147 127.79C84.0114 127.75 84.212 127.739 84.5129 127.754C85.0216 126.582 84.8568 125.4 84.015 124.2C83.1337 122.943 82.2955 122.162 80.8733 121.843C80.3037 121.718 79.7019 121.657 79.0642 121.664C78.903 121.664 78.4588 121.746 77.7352 121.915C77.2265 122.033 76.6712 122.069 76.0658 122.029C75.9655 122.022 75.9082 121.907 75.9691 121.825C76.0336 121.739 76.1195 121.66 76.227 121.585C76.639 121.302 77.2336 120.937 78.0038 120.492C78.011 120.492 78.0182 120.485 78.0218 120.482L79.992 118.966C80.0422 118.927 80.0923 118.884 80.1389 118.841L82.0089 117.046L83.5564 114.832C83.2878 114.746 83.0549 114.8 82.8471 114.99C82.3384 115.47 81.9336 115.796 81.6363 115.964C80.6834 116.512 79.9741 116.982 79.0284 117.365C77.5453 117.963 76.0085 118.497 74.4179 118.956C73.8913 119.11 73.1032 119.242 72.05 119.357C71.9748 119.364 71.8996 119.357 71.8315 119.328C71.4375 119.178 71.1151 119.056 70.8571 118.963C70.2446 118.744 70.6207 117.63 70.8392 117.225C72.0214 115.044 72.745 113.665 73.0173 113.081C73.2 112.687 73.4149 112.26 73.5618 111.78C73.723 111.25 73.8878 110.731 74.0597 110.222C74.2567 109.627 74.2962 108.972 74.1672 108.244L73.2035 109.935C73.1247 110.075 73.028 110.2 72.9205 110.311C72.4692 110.777 72.0715 111.329 71.7312 111.963C71.6846 112.052 71.6273 112.135 71.5557 112.207C71.1975 112.586 70.5634 113.324 69.9723 113.862C69.1376 114.628 67.8086 115.853 66.5512 117.053C65.7487 117.816 65.0574 118.382 64.477 118.748C63.6352 119.278 63.0298 119.711 62.6715 120.055M65.6951 120.571C65.8778 120.02 66.2181 119.063 66.7089 118.819C66.7483 118.802 66.777 118.794 66.7949 118.802C66.8629 118.83 66.8809 118.92 66.8307 118.984C66.4904 119.436 66.2647 119.955 66.1465 120.546C66.125 120.661 66.0211 120.743 65.9029 120.74H65.8026C65.7202 120.732 65.6629 120.65 65.6879 120.571M65.7811 121.259L65.8026 121.266C65.8957 121.291 65.9566 121.381 65.9459 121.478C65.8241 122.477 65.885 123.476 66.1214 124.472C66.1465 124.576 66.0139 124.644 65.9423 124.562C65.842 124.444 65.7775 124.322 65.7524 124.197C65.6879 123.878 65.6055 123.165 65.5052 122.054C65.4909 121.886 65.5124 121.66 65.5769 121.381C65.5984 121.291 65.6879 121.238 65.7775 121.263M67.7442 124.472C68.2099 123.967 68.7114 123.58 69.2487 123.315C69.5425 123.168 69.9401 122.896 70.3234 122.753C71.9534 122.155 73.68 121.875 75.5034 121.918C75.6217 121.918 75.7255 121.986 75.7829 122.087L75.7936 122.104C75.8402 122.183 75.7829 122.284 75.6933 122.287C74.6401 122.33 73.6442 122.409 72.7057 122.524C71.742 122.642 70.9145 122.893 70.2267 123.272C69.6034 123.616 68.8403 124.082 67.9412 124.673C67.8839 124.709 67.823 124.698 67.7621 124.644C67.6976 124.583 67.6904 124.526 67.7442 124.469M79.53 128.148L80.687 128.23C80.687 128.23 80.7085 128.237 80.7121 128.248L80.7659 128.356C80.7838 128.388 80.7587 128.427 80.7229 128.427L79.4225 128.456C79.2505 128.535 79.0785 128.545 78.9102 128.481C78.8242 128.449 78.8278 128.323 78.9138 128.295C79.4404 128.126 79.5084 126.912 79.4224 126.482C79.4081 126.41 79.383 126.342 79.3436 126.285C79.0714 125.844 78.8242 125.4 78.6021 124.96C78.4481 124.655 78.1615 124.465 78.0038 124.236C77.9537 124.164 78.0038 124.068 78.0934 124.071L78.2654 124.078C78.38 124.082 78.4839 124.136 78.5555 124.222C79.1287 124.913 79.5335 125.518 79.7735 126.041C80.0888 126.733 80.0099 127.435 79.5335 128.148L79.53 128.148Z" fill="#D78A44"/>
<path d="M11.4696 110.573C11.1293 111.139 10.8176 111.712 10.5346 112.292C10.0044 113.382 9.71428 113.969 9.66771 114.051C9.31306 114.678 8.96916 115.312 8.63242 115.95C8.45331 116.294 8.353 116.48 8.32793 116.505C8.19538 116.659 8.00193 116.731 7.75117 116.727C7.99477 117.125 8.29926 117.408 8.66824 117.58C8.9584 117.673 9.20916 117.831 9.42052 118.053C9.71426 118.21 10.0152 118.354 10.3268 118.486C10.6636 118.63 11.029 118.805 11.4266 119.013C12.358 119.504 13.0064 119.959 13.8447 120.22C14.8334 120.528 15.6251 120.743 16.2269 120.872C16.2556 120.879 16.2592 120.901 16.2341 120.937L16.4239 120.937L16.6424 120.7C16.6854 120.654 16.7177 120.593 16.7284 120.528C16.9541 119.289 17.2801 118.092 17.7028 116.942C17.753 116.803 17.7888 116.656 17.8103 116.505C17.9034 115.803 18.0539 115.097 18.2652 114.385C18.473 113.682 18.6879 113.005 18.9029 112.35C17.4377 112.196 16.3236 112.013 15.557 111.798C14.4572 111.49 13.6727 111.3 13.2142 111.229C12.8559 111.171 12.2756 110.953 11.466 110.573H11.4696Z" fill="#331011"/>
<path d="M52.0607 110.802C52.0357 110.731 51.9461 110.709 51.8924 110.759L51.8709 110.777C51.8028 110.838 51.7813 110.938 51.8208 111.021C52.3008 112.049 52.5766 113.356 52.8704 114.166C53.268 115.255 53.4722 116.244 53.8519 117.698C53.9988 118.261 54.1027 119.135 54.16 120.32C54.1636 120.435 54.2746 120.514 54.3857 120.485L54.4108 120.478C54.5361 120.442 54.6185 120.32 54.6042 120.191C54.486 119.081 54.3857 118.386 54.314 118.107C54.117 117.358 53.9701 116.681 53.8627 116.079C53.6656 114.947 53.0996 113.836 52.7629 112.694C52.5838 112.085 52.2972 111.483 52.0572 110.806L52.0607 110.802Z" fill="black"/>
<path d="M25.4944 112.332C25.3081 112.586 25.2579 112.887 25.3367 113.235C25.6412 114.528 25.9529 115.821 26.2681 117.111C26.6873 118.819 27.3321 120.74 27.8121 122.577C28.0772 122.559 28.3387 122.552 28.6002 122.549C30.746 122.534 32.6482 122.513 34.3104 122.491C35.6001 122.473 36.5601 122.391 37.187 122.255C38.3441 121.997 39.4475 121.821 40.5759 121.442C40.601 121.37 40.6153 121.306 40.6081 121.248C40.6046 121.191 40.5723 121.141 40.5222 121.112C39.3902 120.439 38.2689 119.654 37.1548 118.751C36.9793 118.612 36.8145 118.45 36.6568 118.268C35.3242 116.742 34.1815 115.051 33.2286 113.188C32.9277 112.601 32.7056 111.78 32.376 111.175C32.29 111.017 32.0643 110.924 31.7025 110.899C30.5275 111.379 29.6212 111.666 28.9871 111.755C27.7942 111.923 26.6335 112.117 25.5015 112.332L25.4944 112.332Z" fill="#A26D3F"/>
<path d="M18.9029 112.35C18.6843 113.005 18.473 113.682 18.2652 114.385C18.0539 115.094 17.8998 115.8 17.8103 116.505C17.7888 116.656 17.753 116.803 17.7028 116.942C17.2801 118.092 16.9541 119.289 16.7284 120.528C16.7177 120.593 16.689 120.654 16.6424 120.7L16.4239 120.933C17.8067 121.32 19.408 121.567 20.5973 121.843C21.4678 122.047 22.2846 122.226 23.0512 122.38C23.327 122.438 23.825 122.47 24.5558 122.477C24.6382 122.477 25.1397 122.506 26.0639 122.563C26.6443 122.599 27.2282 122.602 27.8121 122.577C27.3357 120.74 26.6908 118.816 26.2681 117.111C25.9493 115.821 25.6412 114.528 25.3367 113.235C25.2579 112.887 25.3081 112.586 25.4944 112.332C24.9104 112.378 24.3229 112.489 23.7713 112.493C22.1449 112.507 20.522 112.457 18.9064 112.35L18.9029 112.35Z" fill="#D4A06A"/>
<path d="M8.66824 117.58L9.42052 118.053C9.20916 117.831 8.9584 117.673 8.66824 117.58Z" fill="#6A4243"/>
<path d="M9.42052 118.053C9.66053 118.261 9.81815 118.382 9.89697 118.415C11.0254 118.902 12.118 119.461 13.1748 120.095C13.2357 120.134 13.3037 120.163 13.3718 120.181L16.2341 120.937C16.2592 120.901 16.2556 120.879 16.2269 120.872C15.6251 120.747 14.8298 120.528 13.8447 120.22C13.0064 119.959 12.358 119.504 11.4266 119.013C11.029 118.805 10.6636 118.63 10.3268 118.486C10.0152 118.354 9.71426 118.21 9.42052 118.053Z" fill="#6A4243"/>
<path d="M65.6951 120.571C65.67 120.65 65.7273 120.732 65.8097 120.732H65.91C66.0282 120.743 66.1285 120.661 66.1536 120.546C66.2718 119.955 66.4975 119.436 66.8378 118.984C66.888 118.92 66.87 118.83 66.802 118.802C66.7841 118.794 66.7554 118.802 66.716 118.819C66.2216 119.063 65.8849 120.023 65.7022 120.571H65.6951Z" fill="#F2CEA4"/>
<path d="M65.5805 121.381C65.516 121.66 65.4945 121.886 65.5088 122.054C65.6091 123.165 65.6915 123.881 65.756 124.197C65.7811 124.318 65.8455 124.44 65.9459 124.562C66.0139 124.644 66.1465 124.58 66.125 124.472C65.8849 123.476 65.8276 122.477 65.9494 121.478C65.9602 121.381 65.8993 121.291 65.8061 121.266L65.7846 121.259C65.6951 121.234 65.6055 121.288 65.584 121.377L65.5805 121.381Z" fill="#F2CEA4"/>
<path d="M67.7442 124.472C67.694 124.526 67.7012 124.587 67.7621 124.648C67.823 124.705 67.8803 124.712 67.9412 124.677C68.8404 124.085 69.6034 123.62 70.2267 123.276C70.9145 122.896 71.742 122.645 72.7057 122.527C73.6442 122.409 74.6401 122.33 75.6933 122.291C75.7865 122.291 75.8402 122.187 75.7936 122.108L75.7829 122.09C75.7256 121.99 75.6181 121.925 75.5035 121.922C73.6801 121.879 71.9534 122.155 70.3234 122.756C69.9366 122.9 69.5389 123.172 69.2487 123.319C68.7114 123.588 68.2135 123.974 67.7442 124.476L67.7442 124.472Z" fill="black"/>
<path d="M42.299 122.251C42.4315 122.395 42.5103 122.531 42.5282 122.656L42.8255 122.756C42.8936 122.778 42.9509 122.703 42.9079 122.645C42.7288 122.402 42.5282 122.269 42.3025 122.251H42.299Z" fill="#F2CEA4"/>
<path d="M50.524 124.394C50.5777 124.426 50.6422 124.386 50.6458 124.325V124.272C50.6458 124.218 50.6243 124.164 50.5813 124.132C49.0731 123 47.4396 122.459 45.5338 122.513C44.5809 122.541 43.8501 122.606 43.3486 122.706C43.2698 122.721 43.2089 122.746 43.1551 122.778C43.0369 122.85 43.0835 123.032 43.2232 123.036L43.5743 123.05C43.6137 123.05 43.6531 123.05 43.6925 123.036C45.5589 122.549 47.3751 122.746 49.134 123.623C49.4851 123.799 49.9472 124.053 50.5275 124.39L50.524 124.394Z" fill="black"/>
<path d="M81.9194 124.293L81.185 123.355L80.7228 123.021C80.601 122.936 80.4327 123.021 80.4398 123.176C80.447 123.358 80.5222 123.523 80.6619 123.67C81.3497 124.386 81.7868 124.741 82.0196 125.461C82.2883 126.281 82.3241 127.109 82.1343 127.936C82.1164 128.005 82.1808 128.065 82.2489 128.044L82.4244 127.994C82.5104 127.969 82.5713 127.893 82.5785 127.8C82.6107 127.188 82.6071 126.629 82.5677 126.12C82.5176 125.497 82.3026 124.888 81.9229 124.293H81.9194Z" fill="#331011"/>
<path d="M81.185 123.355L81.9194 124.293C82.5534 124.515 82.9582 125.042 83.1445 125.869C83.2842 126.5 83.2985 127.127 83.1875 127.761C83.1803 127.811 83.1982 127.861 83.234 127.89L83.4705 128.087L84.5165 127.761C84.212 127.743 84.0114 127.757 83.9183 127.797C83.7678 127.858 83.6066 127.743 83.6138 127.582C83.6281 127.177 83.6138 126.754 83.5815 126.321C83.4955 125.26 82.7182 124.3 81.9229 123.681C81.8871 123.652 81.8513 123.63 81.8119 123.616L81.1885 123.358L81.185 123.355Z" fill="#A26D3F"/>
<path d="M79.4189 128.456L79.53 128.148C80.0064 127.435 80.0852 126.733 79.7699 126.041C79.5335 125.522 79.1251 124.913 78.552 124.222C78.4803 124.136 78.3728 124.082 78.2618 124.078L78.0898 124.071C78.0039 124.071 77.9501 124.164 78.0003 124.236C78.1579 124.465 78.4445 124.655 78.5985 124.96C78.8206 125.4 79.0714 125.844 79.3401 126.285C79.3795 126.346 79.4046 126.414 79.4189 126.482C79.5049 126.912 79.4368 128.126 78.9102 128.295C78.8206 128.323 78.8171 128.449 78.9066 128.481C79.075 128.545 79.2469 128.538 79.4189 128.456Z" fill="black"/>
<path d="M40.6654 124.73C40.5615 124.977 40.4397 125.149 40.3036 125.243C39.6802 126.031 39.3543 126.941 39.3256 127.965C39.3256 128.04 39.3256 128.112 39.3435 128.184C39.4868 128.868 39.7376 129.412 40.0994 129.81C40.1424 129.81 40.1854 129.803 40.2284 129.799C40.3717 129.806 40.4971 129.781 40.6081 129.72C40.6439 129.703 40.6439 129.652 40.6081 129.631C40.3717 129.505 40.2356 129.405 40.1962 129.337C39.9096 128.818 39.7519 128.413 39.7304 128.123C39.6409 126.969 40.0457 125.973 40.952 125.131C41.0846 125.01 41.0559 124.791 40.8947 124.705C40.8696 124.694 40.7944 124.702 40.6619 124.727L40.6654 124.73Z" fill="black"/>
<path d="M40.3036 125.243C40.4433 125.149 40.5615 124.977 40.6654 124.73C40.3322 124.716 40.0314 124.845 39.7519 125.11C39.2433 125.604 38.8026 126.084 38.4337 126.547C37.8139 127.32 38.1292 128.642 38.6378 129.405C38.6665 129.448 38.7095 129.477 38.7561 129.491L38.971 129.549C39.0391 129.566 39.0928 129.491 39.0606 129.43C38.6558 128.707 38.4444 128.137 38.4265 127.725C38.4086 127.331 38.5913 126.912 38.9674 126.464C38.9782 126.45 39.2827 126.11 39.8737 125.44C39.992 125.307 40.0887 125.21 40.1639 125.157C40.3609 125.006 40.4075 125.038 40.3 125.246L40.3036 125.243Z" fill="#331011"/>
<path d="M43.3486 125.547C42.607 126.185 42.17 126.944 42.0375 127.822C41.9336 128.524 42.3276 128.929 42.5856 129.463C42.6465 129.591 42.8041 129.645 42.9295 129.581L42.9796 129.556C43.0548 129.516 43.0835 129.423 43.0477 129.348L42.582 128.427C42.4924 128.248 42.4638 128.044 42.5032 127.847C42.6393 127.166 42.9474 126.493 43.431 125.826C43.4704 125.773 43.4955 125.669 43.4919 125.612C43.4919 125.536 43.4059 125.5 43.3486 125.547Z" fill="black"/>
<path d="M46.1715 129.491C45.8383 129.147 45.6054 128.696 45.4729 128.141C45.4586 128.08 45.4622 128.012 45.4836 127.951C45.7237 127.238 46.132 126.582 46.7016 125.991C46.7554 125.938 46.7589 125.852 46.7088 125.794C46.6622 125.733 46.5763 125.723 46.5118 125.762C45.8419 126.192 44.8639 127.442 45.0717 128.338C45.1756 128.789 45.3475 129.18 45.584 129.505C45.6556 129.606 45.7702 129.667 45.8956 129.67L46.0855 129.677C46.1858 129.677 46.2395 129.563 46.1679 129.491H46.1715Z" fill="black"/>
<path d="M79.4189 128.456L80.7193 128.427C80.7587 128.427 80.7802 128.388 80.7623 128.356L80.7085 128.248C80.7085 128.248 80.6942 128.234 80.6835 128.23L79.5264 128.148L79.4153 128.456H79.4189Z" fill="#6A4243"/>
</svg>
